<svg xmlns="http://www.w3.org/2000/svg" id="Layer_2" data-name="Layer 2" viewBox="0 0 403.12 268.4"><defs><style>.cls-3{fill:#4c695f}.cls-7{fill:#4c685e}.cls-10{fill:#c7cac0}.cls-12{fill:#4f6c61}.cls-24{fill:#dfdfde}.cls-65{fill:#daddda}.cls-67{fill:#cfcdcd}.cls-71{fill:#34534e}.cls-85{fill:#627f62}.cls-95{fill:#3b5b50}.cls-107{fill:#e2e0df}.cls-110{fill:#6d8576}.cls-134{fill:#f0eff0}.cls-137{fill:#688073}.cls-157{fill:#5d756c}.cls-164{fill:#0a2d2d}.cls-195{fill:#7b8c86}.cls-199{fill:#f0f2f1}.cls-222{fill:#fdd949}.cls-225{fill:#fefefe}.cls-261{fill:#526c5e}.cls-277{fill:#e7e9e4}.cls-306{fill:#dee2de}</style></defs><g id="Layer_1-2" data-name="Layer 1"><g id="Generative_Object" data-name="Generative Object"><path d="m158.05 239.77 3.22.13 2.06 2.57-.23 2.83-2.05 2-3.24.02-2.19-2.45.14-2.82z" style="fill:#feda3b"/><path d="m398.57 56.13 2.92.67 1.52 2.3-.54 3.08-2.3 1.64-2.99-.5-1.67-2.11.39-3.22 2.66-1.86Z" style="fill:#fed93b"/><path d="m370.46 165.32-1.63-.04-1.63-1.59-.41-2.04 1.16-2.14 1.87-.83 2.4.78 1.11 1.83-.59 2.8z" style="fill:#fdd93e"/><path d="m370.43 165.84 1.25 1.57.24 1.81-1.04 1.69-1.94.52-2.18-2.97.7-1.45 1.37-1.2.92.06z" style="fill:#ffd63c"/><path d="m304.37 25.99 1.99-.34 1.53 1.14-1.2 3.64-1.46.2-1.65-1.1-.39-1.72z" style="fill:#f9d448"/><path d="m139.17 168.59.6 3.04 1.42 2.71 2.76.98 2.04.96.38 1.37.62 1.51-2.77 6.36 1.05 6.89.02.8.17.76-.3-.04-.18.17-1.76 4.31-2.76 5.1-6.12 7.94-.79 3.09-1.8 2.63-10.83-4.27-6.94-10.71.05-.49-.05-.5-.19-.58-.51-.32-.5.23-.57.12.09-1.63v-1.64l-.09-1.03-.51-.6.06-1.87.72-6.19-1.38-.31.84-.47 1.16-1.44.33-1.91 3.17-5.13 1.99-4.12.75.47.6.12.92-.81 2.68-1.56.91-.04.99-.48 5.79-.91 5.69-1.29-1.86 3.03-.95 3.1.91-1.54.97-1.29 1.37-2.33 1.8-2.18Z" style="fill:#436254"/><path d="m199.08 47.15-.17.45-.87.2.24 4.83 1.37 4.69-1.15 4.62-.94 4.71-.55 3.6-1.81 7.42-1.17 6.09-.4.2-.49.04-3.66 6.3 1.22 9.37 3.47 5.66 5.3 3.95.04.97 1.02 1.06 1.64 2.92 2.5 3.91-1.64.02-1.43-.16-4.46-1.29-4.01-2.08-2.49-3.03-1.65-3.2-.35-8.45-5.76-6.43-4.51-1.71-4.69-.32.45-1.76.28-2.18-4.4-2.13 1.12-3.73.27-3.91-.14-.79.93-.19 3.05-2.82 1.36-1.94.59.31.64.21.59-.75.51-.83 6.06-5.74 3.02-7.55 1.06-1.5 4.85-4.86z" style="fill:#1b3f37"/><path d="m296.68 177.24 1.21.58 1.16.7 2.21 1.98 2.37 1.75 2.39 6.35.3 4.41-1.94 4.39-9.75 7.09-12.27-.31-6.68-2.19-3.62-1.61-2.66-2.51-.04-.8.51-.4 1 .01 1.8.29 1 .29.8-.04.55-.42.04-.86-.28.15-.31.29-.38-.44-.41-.3-1.13.71-.9-.51-2.68-.43 3.52-5.47 2.82-6.82 1.6-1.64 1.22-1.71 1.54-.52 1.27-.99 7.75-2.09 8.01 1.06Z" style="fill:#b3c4a7"/><path d="m339.22 119.96 3.49 2.14 1.8.09.36-.11.49.32.12.19-.5.41-1.13.51 3.26 4.71 4.04 1.08 3.87-3.15.28-.62-.23-.81 8.64 8.26 5.93 11.24-5.52 2.86-5.43 2.08-5.49-2.02-6.32-.57-.49.08-.65-.29-.75-.05-.21-.55-.28.5-1.57.95-1.18 1.28-.45.15-.1.48-1.13 1.09-1.29.76-1.92-.44-2.2-11.99-7.39-10.07.82-.83.36-1.1-1.88-1.88-4.9-3.07-.6-.76.36-1.47 1.07-.92 4.77 1.31z" style="fill:#486659"/><path d="m169.95 165.27 2.69 1.69 3.1.39 1.87.9 2.43.39 3.27 1.03 2.98 1.3 3.97 2.86 2.65 3.9.93 2.29.8 2.58.94-.04.21.42-.66.47-.25.8-.77 3.4.95 3.36.83-.21.86-.14-.29.78-.68.56-.58-.25-.42.29-.79.81-.83-.27-.5-1.26-3.45 2.98.56.99-.05 1.02-3.29 4.52-1.13 2.81-7.6 1.07-6.44 4.18-.57.13-.48-.18-.41-1.18-.42-1.69.42.01.38-.18 3.21-6.15 2.25-2.28 2.63-2.2-.22-.63-.74-.51-.79-.14-.59.3-2.22-2.79-2.42-2.21-.38-1.15-.76-.64-.41-6.76.61-.34.18-.41-.14-.31-.26-.01.11-1.23.22-1.17 1.94-4.08 1.74-4.44-2.74-1.83-2.86-.88-2.2-1-2.46-.73.17 1.77.64 1.71h-.96l-.48-3.1-1.5-2.64.07-.48.62-.02.46.16.47 1.12 2.88 1.62 3.71.91Z" style="fill:#aaba91"/><path d="M164.68 167.7v1.01l.21 1.16.4 3.23 4.16 6.03.25.5.69-.06.14.32-.17.42-.62.33.41 6.76-2.72 10.57-2.9 6.8.32.54.65.29-2.2 3.56-2.81 3.42-3.82-4.49-2.77-5.11-.67-.86-1-.08-.37-.36-.12-.38v-1.05l.29-1.01.32 1.04.46.76.51-.8-.23-1.18-1.39-.76-1.33-.33-.85-.84-.58-.11-.55.34-.08-.43.01-.42-1.19-1.47-1.66-1.07-.17-.76-.02-.8-1.05-6.89 2.77-6.36 2.32.44 2.37-.7 1.44-1.46.92-2.08.27.43.38.06 2.96-3.15 4.13-1.2 1.04.35.69-.32.53-1.73-.33-2.09z" style="fill:#bbcb9f"/><path d="m108.69 224.67.2 3.59.03 3.79.2 5.56.4 5.72.07-10.63.95-8.08 1.19 1.08 1.21.81 2.24 2.39 2.22 2.21.21.83.72.35.55.04 2.67 16.49-11.03 13.52-5.83-4.86-4.54-6.11-.94-15.12 9.47-11.57Z" style="fill:#9aae90"/><path d="m251.74 190.62 2.52 2.39 1.47 3.41-1.59 18.68-14.97 10.58-6.32-11.07 2.59-12.55 5.75-6.48 7.18-4.88.83-.12.64-.31.34.7.55.65.52-.32.5-.68Z" style="fill:#587267"/><path d="m267.54 213.65 3.03 7.13 3.09 6.34-.08.76-.72-.58-.51-.78-1-2.01-1.45-1.91.71 2.53.38 2.34.04 6.19-1.63 6.4-14.02 9.16-6.63-10.56 2.87-12.51 5.49-6.23 6.58-4.4.78-.99.5-1.28.24.16.24-.14-.12.89.08 1.05.54.58 1.04.31-.9-3.94.66.8.8.66Z" style="fill:#adbea1"/><path d="m87.65 54.34.29.43.22-.48.46-.37.54-.11.25 1.49-.3 1.43-.45-.54-.28.47.21 2.02-.18 1.82-3.88 8.45 1.25 5.11.01.42-.09.4-6.3-3.85-6.89 4.52-10.57 3.21-9.21-3.8 3.34-5.05 5.44-2.56 7.53-.18 7.28 1.94.75.55 1.02.07-.66-.87-.78-.66-2.81-2.05-2.77-2.49L63.8 63l-1.69-1.25-3.61.38-2.02.72h-2.17l-.51.44-.03-.91 1.97-.05 1.74-.68 5.53-.68 2.19-1.38.83.64 1.13.24-1.58-1.46-1.81-.96-2.68-2.25-3.08-2.11-4.08 1.22.5-.71.7-.65.09-1.1 2.17-1.12-.04-1.34-.28-1.4.51 1.1.97.8.07 1.18-.39.79-.34-.04-.32.25.47.49.21.18.29-.15 4.55 2.77 4.5 3.11.66 1.03 1.34.37-.67-.77-.43-.75.61-.22.66.01.54.16.3.8.59-.54.72-.04-.69 1.17-.16 1.42.66.8 9.25 7.08.3.5.46.32.22.4.14.82.46-1.28-.7-1.16-3.95-13.21 4.8-11.82 3.43 4.79 1.52 5.38Z" style="fill:#567166"/><path d="m208.68 207.91 3.81.81.12.45.45.13 8.21 8.3.98 11.95-8.52 3.2-8.54-3.26-4.66-5.92-2.33-7.09-.02-3.12-.51-1.66.11-1.25.8-.73.51 1.36 1.49.6-.89-1.05-1.11-.91-.02-.42.09-.42 5.03-.66z" style="fill:#819785"/><path d="m117.25 49.59-.13 1.98.98 1.35.16.68-.45.54-.75.11-.77-.4-.83-5.1-2.88-3.47-.24-1.4.06-1.99.16.66.22.24 1.07.16-.11 1.93 1.16 1.33.25.46.22-.46-.03-.45.1-.42.4-.32-.45-.22-.11-4.79-.08-.67-.28-.45-.44-.2-.42-.03-.26-.54-.41-.49-2.81-5.52-4.22-4.45.31-.28-.08-.49.63-11.21 7.77-8.94 7.58 8.64 2.23 10.76-2.17 7.64-6.44 5.18.19 5.42.88 5.25Z" style="fill:#61786e"/><path d="m358.7 149.16 1.34 2.34.12 2.9-4.09 7.46-7.73 3.91-8.27.22-7.94-1.65.04-.42-.08-.28-.58-.35-.53-.54-1.24-.01-.99-.78 2.58-2.38 1.71-2.96.11-.35.64.19 5.01-5.48 1.29-.76 1.13-1.09.68-.07.3-.18.03-.34 2.08-.75 2.14-.62.71-.02.22-.18.03-.33 5.82.52 5.49 2.01Z" style="fill:#a3b59a"/><path d="m323.48 163.39.99 1.47.66 1.82-.05.94.8-.29 3.6 11.08-3.72 11.12-3.75 3.42-4.68 1.72-3.91-.52-2.83-2.61-1.48-5.42.03-5.57.35-.38.66-.02 3.68-6.33 5.81-4.66 1.61-.84 1.16-1.26.08-1.56-.2-1.5.52.06.2-.8.18-.28.3.41Z" style="fill:#91a58d"/><path d="m273.57 227.89.08-.76 5.3.49 5.31 1.32 8.82 8.82.04 12.96-11.84-.63-7.61-8.26-.78-7.06.67-6.87Z" style="fill:#90a58c"/><path d="m198.19 206.47.03 1.28.43 1.13-.08.42.01.42-.8.73-.11 1.25-.41 2.4-.01 2.45-2.4 18.49 1.62 1.71 1.27 1.7-1.09-.47-1.59.01-.39 2.48-1.34 2.5.15 1.23-.35 1.02-.5-1.63.98-1.35.28-2.05-.35-2.39.73-.99-.13-.77-.55-.28-1.03.67-1.1.16 2.28-1.88.73-2.64-.12-3.15.51-1.21-.13-.96-.81-.21-.13 1.31-.45 1.07-7.83 8.81-12.08.94.51-8.7 4.53-7.3.43-.03.13-.42 1.92-1.31 1.96-1.2 4.29-1.8 3.79-1.43 3.71-1.54 2.43-6.09.41-1.9-.41-1.9.78.44z" class="cls-137"/><path d="m334.99 64.93 2.76-1.08-1.95-.41 4.45-6.11 5.17-4.56 1.3-.17 1.19-.6 9.99.12 7.05 6.95-7.47 8.84-11.56 1.47-5.7-1.86z" style="fill:#7b917f"/><path d="m353.62 191.97 11.12 3.51 5.04 10.02-.49 5.23-1.6 4.99-4.92-.14-4.49-1.22-7.8-9.21.97-11.98.47.13.18-.38.06-.35.79-.41z" style="fill:#9caf94"/><path d="m325.42 64.81-.08-.26-.65-.57-.26.2v1.16l-1.96-.43-2.57-1.45-2.85-1.45-.27-.02-3.39-3.39-.01-.49-.3-.52-3.32-9.29 1.82-9.66 1.36-1.33 2-.13 11.44 11.12z" style="fill:#8a9f88"/><path d="m357.42 84.47-.05.49-1.29 1.18-1.51.8-1.33.22-1.11.9-4.11.66-4.51-.31-.85 3.19-2.59-2.28-2.79-3.13-3.23-2.65-3.83-7.03.54-.08.38-.32.02-.77 14.09-3.35 12.14 7.2.67 2.74-.63 2.55Z" style="fill:#91a68d"/><path d="M83.92 76.74v1.74l.67 2.79.47 2.99.16 1.7-1.78 1.9-2.03 1.91-15.22 5.51-7.77-3.55 2.04-5.69 4.52-4.12 8.96-4.95 9.97-.24Z" style="fill:#5a7568"/><path d="m342.25 185.37 4.54 9.57-1.41 10.77-3.82 5.01-5.74 2.61-5.88-9.26 1.81-10.91 3.87-5.02 4.96-3.73.13 1.62-.55 1.56-.29 1.24.75.82.64-2.25-.06-2.49.56.35.48.1Z" style="fill:#93a78f"/><path d="m111.96 54.43-.5 1.26-.23 1.21.48.96.73.79-.21 1.02.27.96-2.53-.28-3.07-.82 1.64 1.23 2.31.64-.03 1.24.81-.2 2.35 2.68.96 2.56-.61.36-.77-.1-.28.73-.5.02-.26.14.01.31-3.92-.36-2.86.38-1.02-.54-1.26-.23-2.31-.91-2.12-.68-4.99-3.38-4.59-4.33-.23-1.17-.14-1.2.3-1.43-.25-1.49 11.28-4.43 11.53 5.05Z" class="cls-157"/><path d="m185.29 203.65 2.86.65 3.31 1.83-.22.4-.17.52-3.71 6.57-4.46 6.09-1.96 1.2-1.92 1.31-.17-.41-5.14 1.1-4.65-1.36-.57-6.72 2.76-5.94 6.43-4.19z" style="fill:#8ba08c"/><path d="m354.62 190.17-4.08-2.54-3.7-3.08-2.14-2.15-1.37-2.76 1.07.15.49-.27.13-.39 13.75-2.23 11.69 7.02.54 2.45-1.39 2.2-7.25 3.02z" style="fill:#9eb197"/><path d="m245.7 178.8 2.97 2.9 1.56 3.7-.36 1.85-1.5 3.45-7.18 4.88-5.75 6.48-3.98-3.88-1.22-5.13-.05-.53.5-.83-.06-1.1.1-.46.04-.61.59-.79.23-.95 1.14-2.49-.11-.98 1.09-.03.72-.85 4.86-2.27 4.83-2.51.91.38z" style="fill:#7f9682"/><path d="m344.99 50.54-2.5 2.41-2.73 1.83.05-1.09-.25-1.33-.6 1.33-.68 1.13-4.17-8.98 1.39-10.15 2.63-4.12 3.87-2.05 3.87 2.61 1.92 4.42-.02 7.29-2.79 6.69Z" style="fill:#97ab91"/><path d="m252.11 56.73-.15 1.76.59 1.49-2.42 2.68-5.61.16-2.33-.47-1.98 1.08-.94-.08-1.15-3.28-2.17-2.58-3.2-.35-2.84.87-.21 3.39-.46 2.99-.78-12.5.93-1.82 1.33-1.46 6.45.7 6.28-1.02 1.66.53 4.12.62.97 3.57.09 4.11 1.08.05z" class="cls-225"/><path d="m91.13 171.99-1.86 4.77-.51 6.28.66-2.76.33-2.77zl.42.14.26-.1 1.21 1.82.97 1.97.25 1.2.11 1.24.51 7.69.24.41.28-.31.2.75-.74.75.31.52.11.56-1.22 1.13-.52 1.59 1.44-.88 1.06-1.35.37 1.06v.92l.53.32.26.44-1.4.83-4.83 1.49-4.15 1.4-5.22-7.79 1.36-9.62 1.43-1.56 1.23-1.76 3.26-2.58z" style="fill:#96a996"/><path d="m107.3 208.59-3.82 4.94-5.36 4.21-.71.94.88-.11 9.13-7.61.93 2.49.39 1.61-3.26 6.11-5.24 3.56-4.26.72-2.57 1.05-.92.63-1.86-.52-1.44-1.53.15-6.22 3.62-5.25 6.75-3.89z" style="fill:#a0b197"/><path d="m358.3 99.81-2.97 1.8-3.16 1.53-4.04-.07-2.59 1.06.94-4.8 1.6-4.87 2.67-4.42 3.81-3.1 1.52-.79 1.28-1.19.45-.04.14-.38 2.57-.41 2.63.44 1.36 2.79-.25 3.36-2.36 5.01z" style="fill:#819883"/><path d="m364.07 107.85-3.38-1.84-3.74-1.02.53-.53.92-.17 10.08-1.32-3.66-.04-2.1-.82-2.9 1.28-2.44-.25.82-1.31 1.16-1.19 3.46-2.68 4.26-1.6 6.18.81 5.06 3.78-1.7 4.16-3.39 2.77-4.64 1-4.52-1.04Z" style="fill:#98ac91"/><path d="m284.81 43.34-1.14.75-.5 1.15-2.86 2.28-3.3 1.65-1.39-.02-.4-.97.4-1.01 1.23-1.05 1.19-1.41.22-.48-.21-.88.78-.48v-.79l-.6.39-.18.88-1.44 1.73-1.53 3.11-.91.31-.37-.51-.07-.57-.3-.24h-.48l-.22-1.5-.1-1.51.68-5.07 2.76-4.32 4.39-2.64 4.96.12 1.9 5.41-2.5 5.68Z" style="fill:#748b7b"/><path d="m50.39 45.85 3.36 2.88 3.62 2.62-2.17 1.12-.09 1.1-.71.65-.49.71-4.72 2.26-5.53-.5-3.95-2.92-1.79-4.6 5.39-3.96z" class="cls-110"/><path d="m213.54 193.99.38-.04.32.08-.01 1.02 3.55 1.48 1.77-1.78.7-2.2.57-.28.51-.61-.2 2.61.74.21.59.83.64.46-1.27.63.36.8 1.57 1.38-.2.8-1.03.47.36.45.17.43-1.63.57-.8 1.35-.94-.86-4.31-.45-4.57-4.16-3.97 1.6-4-1.36-1.2-2.62.27-2.79.69-1.26.97-1.12 3.05-1.34 3.1.76 2.36 4.15.31 2.19.59.1.48-.29.11-.58V194Z" style="fill:#f4d958"/><path d="m136.46 38.61-.68 1.18-.17 1.76.25.45.52.19.1.85-.38.95-2.42 2.72-2.23 1.25-2.28 1.38-1.98.96-1.74 1.19-.48-.02-2.67.28-2.57.66-.35-.08-.39.1-.25.46.07.58.4 1.41.54 1.32.38 2.01.56 1.85v3.49l.17 3.53.54 1.83-.08 1.77-.43.91-.27.41-.42-.17-.15-.45-.31-.32-.2-3.02-.63-3.25-6.4-4.14-.27-.97.21-1.01 4.72 2.03.24-3.68-1.12-3.16.78.4.74-.11.45-.54-.16-.68-.09-1.19.09-1.2.96.48.4-.43.27-.63 5.22-5.13.78.02.89-.16.3-.34-.43-.68 1.57-1.44 5.54-2.88 2.24-1.76.46.36z" style="fill:#697e71"/><path d="m71.9 59.12-.72.03-.59.55-.31-.8-.53-.16-.66-.01-.61.22-2.61-14.33 4.99-5.74 4 6.31z" class="cls-137"/><path d="m225.34 179.61.55 1.18.4 1.4 1.32.34.21.33-.1.69-.85-.21-.61.36-.27.82-.08 2.41-.94 1.01-.23 1.16-1.75 1.76.49 2.68.79 2.12 1.54 2.3-.44.04-.42-.17-.34.08-.15.2.05.46.22.24.79-.04.7.58.59.9-.23.43-.48.07-.63-.11.03-.27-.31-.14-.33-.03-.36.23.03.29.36.04-.05 1.29-.9-.73-.89-.59-.17-.43-.36-.45 1.03-.47.2-.8-1.57-1.37-.36-.81 1.27-.63-.64-.46-.59-.83-.74-.2.2-2.62-.51.61-.57.28-2.12-1.3-1.79-.58-.87-4.2-1.58-3.51 6.13-4.22 3.32-2.42.31 2.29-.02 1.99.92-.77z" style="fill:#688074"/><path d="m220.61 202.64.39 1.78.08 1.91-3.96 1.71-4.04.68-.29-.12-.29.12-3.81-.81-3.35-1.62-2.76-2.83-.87-.11-.65-.26.78-1.76-.26-1.91.78-.99.46-1.02 4 1.36 3.97-1.6 4.58 4.16 4.3.45z" style="fill:#47655d"/><path d="m63.73 58.55.58.7.88.36L63 60.99l-5.53.68-1.74.68-1.97.05.02.91.52-.44 2.17-.01 2.02-.71 3.61-.38 1.69 1.25-3.48 2.74-4.33 2.07-5.56.32-4.45-2.82 1.64-4.01 3.74-2.59 6.21-1.3 6.16 1.14Z" style="fill:#768d7e"/><path d="m58.53 50.5-.96-.79-.52-1.11-.31-2.05-.94-2.75-.33 1.11-.09.84 1.67 2.84.28 1.4.04 1.34-3.62-2.62-3.36-2.88.11-.49-.35-.66-1.36-6.13 2.55-5.22 5.28 2.04 2.75 5.45.17 5.1-1.01 4.56Z" style="fill:#7b9180"/><path d="m87.68 197.34 5.44 1.26 4.02 3.33.22 1.86-.49 1.77-.59.94-.87.87-1.28-.72-.43.49-.7.31-.62-.11-.27-.2.35-1.04-2.49 2.27-1.37 2.66-2.24.59-4.51-1.89-1.03-1.87 3.65-2.9 4.13-1.88 3.96-2.5-2.07.85-1.95.29-3.21.13-2.91-1.54 2.57-2.31z" style="fill:#5f7c6e"/><path d="m110.1 195.44.73.34.86-.04.52.61.08 1.02-.88 2.07-.78 3.22-1.69.2-4.89 2.06-4.87 2.95-.33-.09-.4.09-.29.15v.31l-.88.9-1.44.25-3.52 1.27-3.71.28 1.37-2.66 2.49-2.27-.35 1.04.26.2.63.11.7-.31.43-.49 1.28.72.86-.87.6-.94 1.1.34.98-.16 1.03-2.44.28-2.17.41-.19.23-.37.18-1.51-.98-1.69.88-.43.99.02.55.95.34.08.27-.21.07-.67-1.03-.89.37-.31.46-.52.4-.15 1.28.21.77-.12 1.58.05 1.49-.32.63.46.95-.1Z" style="fill:#7e9682"/><path d="m364.13 108.43 4.16 4.86-.1 5.99-5.19.02-4.33-3.47-2.2-7.89.02-.52.66-.35.35-.62 3.39.67 3.24 1.3Z" style="fill:#94a88e"/><path d="m344.49 108.48 1.1-.2 1.29.5 1.79 4.1-1.74 4.32.68 1.58.78 1.51-1.39 1.22-1.51 1.08-.13-.19-.48-.32-.36.11-.69-2.12 1.29-2.28-4.79 1.12-2.67-1.11-1-2.74 1.37-7.54 2.2 4.17-.31 3.42.84-2.29.54.7.73-.69-.2-1.3 1.55-1.45 2.11-.98-.7-.27-.3-.36Z" style="fill:#94a78f"/><path d="m135.84 37.57-2.25 1.76-5.53 2.88-1.57 1.44.43.68-.3.34-.9.16-.77-.02-5.22 5.13-.27.63-.4.43-.96-.48-.25-.96 1.64-5.73 3.48-4.89 6.44-3.06 6.44 1.69Z" style="fill:#75897d"/><path d="m273.59 53.39-.42-.35-.1-.55.32-2.64-.45-2.68h.48l.3.24.07.57.37.51.91-.31.54-1.03-.39 1.02.39.96-.86.74-.01 1.08 1.29-.79.97-1 3.3-1.65 2.86-2.28.97-.33.67-.72 4.73-1.18 4.96.98-12.23 6.96z" class="cls-7"/><path d="m320.57 155.75 1.58 1.79 1.86 1.53 2.31 2.21 2.42.68.99.78 1.24.01.53.53.58.36.08.28-.04.42-1.39-.74-1.46-.34-.31-.25-.49.37-.13.4.41.11 12.89 13.82 1.62 1.21 1.76.2-.13.39-.49.27-1.07-.15 1.37 2.75 2.14 2.16 2.53 4.08 2.79 3.94-.06.35-.18.38-.47-.13-3.9-5.96-4.48-5.57-.45-.84-.63-.21-.34.28.01.47.11.32-.08 1.92.56 1.78-.49-.11-.55-.34.06 2.49-.64 2.25-.76-.82.3-1.24.55-1.56-.13-1.62.39-2.77-.01-2.83-6.62-7.3-7.04-6.61-.49-.85-.57-.2-.38.27-.03.45.28 1.37-.25 1.38-.8.28.05-.93-.66-1.81-.99-1.48.73-.26.05-.93-.21-.62-.63-.36-1.97-1.66-2.27-2.39-.44-.11-.08-.36.17-.73.59-.4 1.16.17Z" style="fill:#647d6b"/><path d="m355.07 124.72.23.81-.28.62-3.87 3.14-4.04-1.07-3.26-4.71 1.13-.5 2.01-1.5 1.39-1.22 2.58-.46 2.37.95 1.13 1.74z" style="fill:#f9d24a"/><path d="m354.67 48.94-3.86-.21-3.43 2.62-1.12.49-.83.93-5.17 4.55-4.45 6.12 1.95.41-2.76 1.08-4.65 4.6-4.41 4.9-.48.25.47.2 3.97.81.59-.3.67-.06-.02.77-.38.32-.54.08-5.53-.59-3.1 2.4.14-.92.44-.98 1.37-1.65 1.5-1.64.44-4.01-1.03-3.77v-1.16l.26-.21.65.58.49 2.48.51 2.18-.07 1.09.51 1.04 8.16-9.1 3.34-7.42.67-1.14.61-1.32.25 1.33-.05 1.09-.47 1.04-.09 1.42 3.46-3.13 3.22-3.13 1.91-1.32 1.11-1.95h.97l.85-.55 2.02 1.11 1.94.68Z" class="cls-261"/><path d="m247.38 178.29.59.74.86.66-.33-1.13-.6-.82 2.24.71 1.67.76-.08.52-.89.01-1.03.17.89 2.21 1.5 1.84.32.64.58.35-.11.34.17.35.63.34 2.01 3.93 2.5 3.68 3.29 1.48 3.6.7 1.46-.11 1.35-.22v1.1l-4.26-.31-4.67-.83 7.44 15.35-.44.55.02.88-.5.43-.14.68-.25.14-.23-.16-1.01-5.29-2.18-3.88-4.13-8.33-4.99-7.91.05-.61-.27-.4-.74-.04-.44.27-.01.64.12.55.08 1.19.3 1.16-.5.68-.52.32-.55-.65-.34-.7.91-2.39-.52-2.48-1.56-3.7-2.97-2.9.18-.32-.18-.32.78-.07z" style="fill:#496756"/><path d="m171.28 189.19-.48 5.5 2.59 4.97-3.21 6.15-.38.18-.42-.01-2.31-.72-1.58.34-.65-.29-.32-.54 2.91-6.79 2.71-10.58.76.64z" style="fill:#46655e"/><path d="M286.15 55.39v.32l.44.31-1.97 3.79-1.47 3.99-1.04-.24-1.24.37-4.27.96-1.11-.41-2.14.37.23-.65.1-.69 5.45-5.43z" style="fill:#5d7569"/><path d="m306.17 180.09-.99 1.32-1.55.85-2.37-1.74-2.21-1.99.47-8.93.72-1.54-.02-1.62.73-1.17 2.54 8.65 2.33 5.8-.35.34.71.03Z" style="fill:#657e72"/><path d="m113.97 201.18-.55-.02-.4.26v.76l-1.21 6.78-.94 6.92.51 1.2 1.2.31-.62.98-.94.45.14-.77-.38-.66-.68 3.79.46 3.42-.95 8.08-.07 10.63-.41-5.72-.19-5.56-.03-3.79-.2-3.59.56-4.77.36-4.79 1.11-6.88-.86.25-.45.94-.67 5.65-.39-1.61-.93-2.49-9.13 7.61-.88.1.71-.93 5.36-4.22 3.82-4.93.93-.19 1.16-.48.78-1.01 1.06-1.89.28-2.34.68-2.05.57-.12.5-.23.5.32.2.58Z" style="fill:#6f8872"/><path d="m150.27 206.1.79 3.96.13 2.89-1.12 2.9-2.29 1.29-2.46-2.58.18-3.33 1.28-2.44-.1-3.06-.67-2.23v-.7l1.17.81.71 1.64 1.13.26z" style="fill:#ebebeb"/><path d="m73.9 162.11-3.2-1.72-2.41-2.68 1.27-2.27 1.92-1.7 5.07.71 2.36-.05-4.87 1.67 1.99 3.06 3.03 1.64z" style="fill:#5b746c"/><path d="m352.18 103.14.34.63.62.31v.73l.53.23 1.03-.32.02.4-.16.4v.7l.17.2.31.05-.22.49-1.67 2.41-2.23.32-1.71-1.32-1.83-.58-.77-.9-.65-.96-.42-1.32v-.49l2.59-1.06 4.04.07Z" style="fill:#f6d248"/><path d="m264.96 213.27-.5 1.28-.78.99-1.09-3.09-2.84-1.8-.83-1.42-.42-1.59 1.27-.53.14-1.59.9-.84.96-.59 2.18 3.89 1.01 5.28Z" class="cls-225"/><path d="m150.36 197.96-2.47 2.35.07 1.74.63-.79 1.61.2 1.54-.16.12.38.37.36-.18.36-.37.23-1.5.41-1.54.67 2.65.22-.04 1.25-.98.92-1.25-.59-1.13-.26-.71-1.64-1.17-.81-1.25.2-1.17-.76 1.31-.25.82-.65.44-.91-.15-1.01-1.4 1.09-1.66.97 2.12-3.3 3.31-.82.54-.34.59.11.85.84Z" style="fill:#3e5f57"/><path d="M116.29 53.84 117.4 57l-.23 3.68-4.72-2.03-.73-.78-.48-.97.23-1.21.5-1.26 4.25-.97z" style="fill:#cfbb5f"/><path d="m148.31 196.5-.01.42.08.43-3.32.81-2.11 3.31 1.66-.96 1.4-1.1.15 1.01-.44.91-.82.65-1.31.25 1.17.77 1.25-.21v.7l-.42-.04-.06.45.03 1.07-.64-.02-.4.2-.05.29-1.06.06-.91-.9-2.03-1.11 2.76-5.1 1.76-4.31.59 1.13.78 1.01.93.44 1.04-.16Z" class="cls-225"/><path d="m300.9 57.17-2.75-5.63 1.58-.35 1.76-.67 2.13.59 1.43 1.47-1.11 1.91-2.4.23-.51 1.23-.13 1.21Z" class="cls-10"/><path d="m345.96 105.94.65.96.77.9-.43.44-.08.54-1.29-.5-1.1.2-2.85-.82-2.83-1.49 3.58-.52zm8.66 84.23h-.85l-.41.7.25 1.1-.67.19-.79.41-2.79-3.94-2.53-4.08 3.71 3.08 4.07 2.54Zm3.68-90.36.05.53.28.39.37.02.35-.1-1.16 1.19-.82 1.31-2.04.77-2.2.17-.62-.32-.34-.62 3.16-1.53 2.97-1.8Z" class="cls-225"/><path d="m145.5 211.22-.95-2.15.49-2.63.47-.21.33-.3.08-.34-.62-.43-.56.42-.28-.14.05-.29.4-.2.64.02-.03-1.07.06-.45.42.04.67 2.23.11 3.06z" style="fill:#507669"/><path d="m356.95 104.99 3.74 1.02 3.38 1.84.06.58-3.24-1.3-4.9-.93-1.42-.68.16-.4-.02-.4 2.24.26Zm-11.08-54.02-3.21 3.13-3.47 3.13.1-1.43.46-1.03 2.73-1.83 2.5-2.41.33.39z" class="cls-225"/><path d="m268.95 195.42 2.68.43.9.51 1.13-.71.41.3.38.44.31-.28.28-.16-.04.86-.55.42-.8.03-1-.28-1.8-.29-1-.01-.51.4.04.8-.65-.81-.75-.53v-1.1l.49-.1z" style="fill:#9caf95"/><path d="m109.61 215.11-.39.1-.48-.14.67-5.65.45-.94.86-.25zm-9.36 9.64-3.18 1.83-3.65-.06 2.57-1.06zm12.04-27.39V199l-.09 1.63-.68 2.05-.45.08-.44-.11.79-3.21zm-23.69 5.73-.09-.67.04-.68 1.94-.29 2.08-.85-.69 1.46-3.27 1.04Zm109.61 13.4-.95.07.01-2.45.41-2.4.51 1.67zm74.13 10.05-.52-.02-.46.22-.02.45-.37.31-.38-2.34-.71-2.53 1.45 1.9zm1.33-163.03-.09.68-.24.66-1.72.97.07-1.48.15-1.39.87.49zM151.68 202.63l-.39 1.3-2.65-.22 1.54-.67zM328.75 69.1l-1.96 2.24-.51-1.04.07-1.09 1.22.12zM118.1 50.52l-.09 1.2.09 1.19-.98-1.35.13-1.98.6-.02zM65.19 59.6l-.88-.36-.58-.7-.07-.24.1-.24 1.81.96 1.58 1.46-1.13-.24zm15.78 10 .72.09.14-.18.02-.3.7 1.16-.46 1.28-.14-.82-.22-.4-.46-.32-.3-.5Zm113.38 159.33h-1.02l.45-1.07.13-1.31.81.21.13.96-.51 1.21ZM76.31 69.11l.32.03.01-.94.78.66.66.87-1.02-.07zm191.23 144.54-.8-.65-.66-.81-.02-.88.44-.55.63 1.41zm79.84-162.3.09.47.44.18-1.19.6-1.3.17.83-.93 1.12-.49Zm-62.58-7.17-.67.72-.97.33.51-1.14 1.13-.76zm-32.14 143.68-.67-.01-.62.42-.12-.55.01-.64.44-.27.74.04.26.4zm-142.49 19.05-.78 1.01-1.16.48.54-1.24.66-.27zm78.9-150.72-1.06 1.5-.42-.67.18-.87.65.07zm-120.6 2.77.43.74.67.78-1.34-.37-.66-1.03.48.01.42-.12Zm274.59 122.68-.63-.03-.67.06-.11-.32-.01-.47.34-.28.63.21.45.84Zm-15.75-16.74-.67-.04-.7.04-.09-.32.03-.45.38-.27.57.2zM356 107.43h-1.49l.31-.46.22-.5.63.32zm-242.03 93.75.06.5-.06.49-.49.05-.48-.03v-.76l.4-.26.55.02Z" class="cls-225"/><circle cx="258.49" cy="214.16" r=".47" class="cls-225"/><path d="m58.53 53.19-.3.15-.67-.67.32-.25.34.04.28.33zm120.5 169.04-.13.41-.43.04-.12-.37.03-.36.48-.13zm-60.14 10.08-.55-.04.06-.41.45.07.1.19zM153.2 30.9l-.46-.62.1-.86.39.63zm204.17 54.06.05-.49.54.07-.13.38zm-31.45-10.08-.47-.2.48-.25-.06.23zM87.65 54.34l.51-.05-.21.48zm137.82 146.29-.59.12-.36-.04-.03-.29.36-.23.33.03.31.14zm103.8-37.37-.41.22-.11.41-.41-.11.13-.4.49-.37zM161.75 51.42l.09-.38.45.02-.14.35zm-16.71 155.02-.12-.53.02-.52.35-.23.63.43-.08.34-.34.3zm80.47-7.67-.79.04-.22-.23-.05-.47.15-.2.34-.08zm-12.44 10.54-.46-.14-.11-.44.29-.13.29.13.16.3-.16.29ZM72.92 181.53l.08.25-.13.23-.99.05v-.48l.51-.1zm2.31.13-.05.29-.21.11-.37-.01-.32-.09.05-.29.22-.11h.38l.31.09Zm281.23-73.71-.38-.08-.08-.44h.48zM99.18 207.87l-.07.32-.21.17-.74-.03v-.31l.29-.15.4-.1zm131.05-14.82h-.5l.09-.37.37-.16.05.53Zm-68.4-122.93-.4-.08-.1-.42.46.03zM67.1 122.67l-.35.04-.13-.33.36-.04zm303.36 42.65.1.27-.13.25-.67.03-.92-.06-.15-.27.15-.26 1.63.04Z" class="cls-225"/><path d="m140.79 94.54 2.83 1.89 2.46 2.38-1.09 3.34.11 3.3-1.81 3.82-2.17 3.85.52 1.77 1.34 1.48 2.19-2.56 1.84-2.56.15.55.56-.03.72-.52.62-.32-.32 1.11-.81 1.16.54.88-2.94 2.76-1.88 1.12.77-.51.19-.92 1.1-.8.97-1-1.59.47-.48 1.33-.78.52-.18.91-1.07 1.4-.33.79.82-.3.81-.54.61-.52 1.16.92 4.04.27 3.9.05-.16.59-.29.54-5.58.04-5.89.61.11 8.73-1.52 8.41-2.54 5.44-3.66 6.06-2.75 3.2-2 3.05-2.62 1.35-1.79 2.49-.72-.04-7.16 2.84-5.11-.82-.67-7.38-.25-.92-.85-1.01.4-.78.87-.73.6-4.59.91-4.85-3.43-4.26-1.22-5.18.4-.78-.12-.51-.39-.26 1.49-2.82 1.48-2.4 2.23-1.87 2.09-1.98 6.93-3.54 7.78-.95 7 1.5 3.97.43.67-.87.07-1.2-2.29-2.11-3.1-1.27-4.77-2.29-.74-1.25-.59-1.27-.21-2.49-.79-2.32.86-4.19 1.61-3.58 3.4-2.65 2.79-.26 2.78.64Z" style="fill:#afc2a0"/><path d="m122.47 105.43-.73 4.18 2.31 3.54-1.93.62-1.55 1.58-5.28 1.2-2.22.91-1.34-1.36-1.49-1.01-.03-.43.54-.36.16-.69.46.43 1.46-1.94 1.64-2.43 3.15-1.83 3.59-1.36.7-.73z" style="fill:#2d5045"/><path d="m129.35 104.58.79 2.31.21 2.5-.61 2.05-1.4 1.44-2.17.57-2.13-.3-2.31-3.54.73-4.18 3.29-1.67 3.59.82Z" style="fill:#fcda49"/><path d="m89.1 56.73.14 1.2.23 1.17-.18 1.43-.89-.04.17-1.82-.2-2.02.27-.48z" style="fill:#efefef"/><path d="m99.05 66.81.25 3.76.37.99-1.09.5-.19.49.51.4.74-.45 1.19.13 1.56-.04.3.38.54.15.57-.24.39-.28.6.53.58.26 1.43.15.74.37 6.56 4.14 5.16 3.94-.91 7.5 2.9 7.39 2.72 2.38 2.49 2.38-.98-.13-.99-.28-2.41-1.93-2.85-1.42-2.05-1.96-3.21-1.39-.73-.83-1.18-.13-.45-.7-3.58-1.9-2.67-1.23-1.03-1.05-1.71-.91 1.03 1.4 1.71.56 3.08 2.32 3.62 1.51.81.72 1.1.24.7.85 1.24.59 1.6 1.23 1.72.68 2.51 2.11 2.75 1.24.29.58.48.37 1.2-.53 2.29.5.77-.99.69-.75-.86 4.19-3.59-.82-3.85 2-.7.73-3.59 1.36-3.15 1.83-1.64 2.43-1.47 1.94-.45-.43.4-1.98 1.22-2.06-3.26.31-1.84 1.59 1.75 1.43 1.03 1.75.03.43-1.97-.96-1.9-1.45.63.94.8.64-2.29.03-2.03-.26.23-.89.14-.91.79-.02.24-.19-.6-.67-.41-.09-.2-.46-.11-.5.34-.27-.43-.27-.91-.37-.96-.1-.59-.76-.92-.16-6.63-7.95-9.01-4.99 1.54-.62 1.84-.93-2.58-7.91-.17-1.7-.46-2.99-.67-2.79v-1.74l1.14-.29 1.17-.42-.5-.69-.03-.46.08-.4v-.42l2.97 1.35 2.79-1.06-1.91-6.83-.34-6.99.18-1.43 4.58 4.33 5 3.38Z" style="fill:#1e423a"/><path d="m110.9 113.62-.16.69-.54.36-1.03-1.75-1.75-1.43 1.84-1.6 3.26-.3-1.22 2.06-.4 1.98Z" style="fill:#d5d8d6"/><path d="m112.06 93.56-3.62-1.51-3.08-2.32 2.67 1.23 3.58 1.89zm7.18 4.31-1.72-.68-1.6-1.23-1.24-.59-.7-.85 3.21 1.39zm5.26 3.34-2.75-1.24-2.51-2.11 2.85 1.42zm-19.14-11.47-1.71-.56-1.03-1.4 1.71.91z" class="cls-12"/><path d="m99.64 72.5-.74.45-.5-.41.18-.48 1.09-.5.04.48z" class="cls-107"/><path d="m113.97 94.52-1.1-.24-.81-.72 1.19.12z" class="cls-12"/><path d="m101.58 109.28-.67.12-.66.04-.13-.53-.05-.55.92.17z" class="cls-277"/><path d="m126.46 101.63-.37.53h-.83l-.77-.95.98.28.99.13Z" class="cls-12"/><path d="m105.57 109.98.61-.06.58.62-.34.31-.34-.07-.3-.26z" style="fill:#bac4c4"/><path d="m103.54 110.3-.1-.26.01-.28.43.27zm.3 1.93.05-.53-.03-.44.41.1.6.66-.24.19z" class="cls-277"/><path d="m124.87 160.55.12 2.52 1.47 2.34-3.5 2.33-.88-.11-.92-.35-.89.41-.65.7-1.06-2.95-.09 4.77.81 2.92.83-1.03.95-.52 1.39.26 1.09.67-2.68 1.56-.92.81-.61-.12-.74-.47-2 4.12-3.16 5.13-1.16-.26-1.05-.94-1.09-.22-1.06-.44-.64-1.34-1.05-.78-.76-5.25-.22-4.29-.64-1.56.61-.57.85-.6.56-2.25.38-2.04 1.87-.58 1.85.09 5.11.82 7.16-2.84.72.04Z" style="fill:#5a746b"/><path d="m139.17 168.59-1.8 2.18-1.37 2.33-.97 1.29-.91 1.54.95-3.1 1.86-3.03-5.69 1.28-5.79.92-.99.48-.91.04-1.09-.67-1.39-.26-.41-.96.56-1.12 1.75-1.77 3.5-2.33 2.6.97 2.64-.45 2.24-1.8 1.04-2.69 1.9-.43 1.46 1.39 1.69.68 1.87-.79 1.18-1.8.49.37.58.02.61-.65.99-.42-2.55 2.57-2.37 2.57-1.14.7-.46 1.31.62-.36.59.24.17.58-.4.4-.59-.04-.44.34z" style="fill:#46635b"/><path d="m154.05 175.35-.91 2.07-1.45 1.47-2.37.71-2.32-.45-.62-1.5-.38-1.38 1.53-2.95 3.21-1.29 1.49.23 1.08.72z" style="fill:#fdda4b"/><path d="m148.31 196.5-1.04.16-.93-.44-.78-1-.59-1.14.19-.17.29.04 1.66 1.07 1.19 1.47Z" style="fill:#345852"/><path d="m97.26 162.42-.11.93.59.87-1.46.99-.75.22-.72.4-3.05-.13-2.97-.68-.78-.28-.82-.08-2.44-1.24-2.34-1.49 4.08-.89 5.58-2.3 2.78 1.52 3.85.52-.75.29-.49.37-.15.47-.04.51Z" style="fill:#43625a"/><path d="m102.46 160.41-2.08 1.65-3.12.36.04-.51.15-.47.49-.38.75-.28-3.86-.52-2.77-1.52 4.18-2.89 3.19 2.29z" style="fill:#4d6a5f"/><path d="m104.89 159.01-.41.39.68-.22.27-.03-.21 1.08-2.76.18-3.02-2.28-3.19-2.28.81-1.15 1.17-.84 3.65 1.56z" style="fill:#1c3f3a"/><path d="m173.68 91.48 4.69.32 4.51 1.71 5.76 6.43.35 8.45-1.19-1.07-1.48-.42-3.99-1.96-4.14-1.16-6.81-.33-5.86 1.58.23-4.7-1.6-4.35 4.26-3.12z" style="fill:#8b9e8e"/><path d="m203.44 62.47-.6.62-.27.99 2.56 7.84 6.88 4.94-.49 1.73-.44 1.15-4.67 2.59-3.49 3.14-5.04-.65-5.08-.29.05-.36.27-.17.89-.24 1.17-6.09 1.81-7.42.55-3.6.94-4.71 1.15-4.62 1.84 2.62 1.96 2.54Z" style="fill:#123630"/><path d="m170 85.42 4.4 2.13-.28 2.18-.45 1.76-5.26 1.38-4.27 3.12-1.85-1.31-1.94-1.09-.11-.87-.02-1.07-1.22.77-1.31-.06-.06-.98.72-.69.27.08.28-.08 1.35-.01 1.53-1.03 3.44-2.71 1.66-.7z" class="cls-71"/><path d="m200.53 111.31-1.03-1.06-.03-.97 2.97.68 3.32.62.6 3.97.02 4.39-2.41-3.31-2.35-2.88-.32-.95z" style="fill:#173d37"/><path d="m296.2 172.32.46.37.19.75-.17 3.81-8.01-1.06-7.75 2.09 1.39-1.15 1.6-1.04-.24-1.18-.74-2.42 2.48.48 2.61.73 4.16-.55 4.03-.81Z" style="fill:#4f6e63"/><path d="m299.05 178.52-1.16-.7-1.21-.58.17-3.81-.18-.75-.47-.37 3.32-2.72z" style="fill:#1e403c"/><path d="m327.27 128.47 7.39 10.08 2.2 11.98-4.27 2.25-4.72 1.59-1 .25-.52.64-2.94-.13-2.84.62-1.16-.17-.58.4-.18.73-1.01-.65-10.9-.05-8.62-3.6-3.83-4.84-.19-.69-.55-.91-.22-.24-.15-2.67-.58-2.76-1.3.23-.91.28.51-1.9 1.66-1.41 1.51-5.77 1.21-6.22 5.82-2.82 6.75-1.37 10.29 1.77z" style="fill:#afc39d"/><path d="m304.78 111.77-1.62 3.94 1.79-.06 1.79.08-.58.34h-.92l-1.96.65-1.79-.68.67-.95.56-1.19-2.8 2.37-3.34 1.42 2.15.26 1.77.37 4.69 1.8 4.9.34 4.7-.16 4.57.48.33.39.45.39.45-.28.5-.46.59.76 4.91 3.08 1.88 1.87-.37 1.1-.81.83-9.12-5.38-10.29-1.77-6.75 1.38-5.82 2.81-5.48-4.38-6.71-1.89.85-1.33 1.15-.44 4.13-2.35 4.23-2.98 5.67.83 5.65-1.2Z" style="fill:#21463d"/><path d="m328.29 113.95-2.64 2.52-3.13 1.97-1.08.92-.35 1.47-.5.46-.45.28-.45-.39-.33-.39.47-.28.31-.63-9.96.02-.11.29.02.27-4.9-.33-4.69-1.81.99-2.29 1.79.68 1.96-.65h.92l.58-.34 2.67-.58 2.58-.83 1.82-.31 1.84-.13.81-.93 1.07-.08 1.54.22 1.5-.72 3.33-.45 3.27-.21.66 1.19.46 1.05Z" style="fill:#385a50"/><path d="m338.79 150.97-5.01 5.48-.63-.19-.12.35-4.29-.46-1.13-.48-1.25-.41.52-.64 1-.25 4.72-1.59 4.27-2.25z" style="fill:#6c8179"/><path d="m344.51 122.19-1.8-.09-3.49-2.14.63-.02.47-.29.2-.4-.2-.34 4.79-1.12-1.29 2.28z" class="cls-134"/><path d="m347.39 146.63-.03.33-.22.18-.71.02-.03-.51.49-.08zm-2.39-.32-.26.07-.23-.12.27-.5zm-2.78 2.22-.03.34-.3.18-.68.07.1-.48.69-.22z" style="fill:#f4f4f3"/><path d="m311.04 88.22 2.52-.06 3.5.78 2.8 2.79.28 2.37-.41 2.34-3.42 6.16-4.9 5.39-3.24 2.05-3.39 1.74-5.64 1.2-5.68-.83-4.22 2.98-4.14 2.35-2.02-2.66-2.2-2.51.63-2.31 1.27-2.64.37-.55.56-.39 1.78-2.26 1.58-2.45 2-1.95 1.33-2.35 1.16-.96.43-1.49 2.83-.42 1.46-2.33.45.25 5.69-2.61 2.06-.35 1.44-1.24.19-.03 2.4.4z" style="fill:#a7b992"/><path d="m276.13 85.87.08.4.42.06.83 1.19 1.1 1.1.55.98.76.6 2.65 4.06 1.36.44-.9 1.3-.52 2.8.34 1.48-.98 3.68-1.39 3.54-1.58 1.8-1.83 1.54-4.68.84-4.8-.44.05-.32-.3-.14-.36.13-.43-.03-1.73-2.24-1.93-2.05-1.42-5.45.03-5.66 1.49-2.68 1.66-2.6 3.42-3.67 4.39-2.74 1.93.76z" style="fill:#e9d97e"/><path d="m280.92 73.92-.7 4.09-1.42 3.79-.42 1.55-.31.14-.72.09-.43 1.31-.79.99-1.79-1.32-1.93-.76-4.39 2.73-3.42 3.68.04-.55h-.37l-.18-1.39-.38-1.36-.18-2.38 1.85-6.48 5.05-5.03 3.6-1.38 3.91-.1 1.66 1.11z" style="fill:#c6ca92"/><path d="m297.57 88.74-3.96 1.4-3.16-1.31-1.22-2.29-.21-2.5.13-.63-.04-.38 2.66-2.64 3.42-.5 2.46 1.52 1.33 1.96-.12 2.9z" style="fill:#fdda48"/><path d="m274.25 65.76 1.22 1.54 1.7 1.03 2.17 1.87 2.61 1.15.02 1.5-1.04 1.06-1.33-1.27-1.66-1.11-3.91.1-3.6 1.38.55-4.04z" style="fill:#d5d7d8"/><path d="m297.57 88.74 1.65 1.22 2.14-.52.42-.19.41.01.24.23v.36l-5.69 2.61-.45-.25-.12-.96-.65-.67-.75-.27-.91-.06-1.5.65-.65 1.3-.19 1.4.48 1.37-.43 1.49-1.16.96-1.46-1.47-2.31-1.33 1.62-3.01 2.2-2.77 3.16 1.31 3.96-1.4Z" style="fill:#44665d"/><path d="m283.15 63.8-.43 2.43-1.15 1.75-2.39.49-2.01-.13-1.7-1.03-1.22-1.54 2.36-.88 4.27-.96 1.24-.38 1.04.25Z" style="fill:#839081"/><path d="m311.14 81.63.65 1.67-.19 1.76-2.35 2.33-2.97.89-.17-.05-.19.03 1.56-3.71 1.16-3.87 1.23.52 1.26.42Z" style="fill:#dadbdc"/><path d="m286.64 94.61-.7.72-1.16.5-2.02 1.55.22-1.37.9-1.3-1.36-.44-2.65-4.06 2.08-2.36 1.15 3.6 1.93 3.63.79-.08z" style="fill:#466357"/><path d="m281.94 87.85-2.08 2.36-.76-.61-.55-.97-1.1-1.11-.83-1.18.96-1.02 1.06-1.33 1.53.25 1.23 1.18.54 2.44Z" style="fill:#3b5a50"/><path d="m298.15 51.54 2.75 5.63-.07.5.26.94.42.05-.15.65-.27.53 1.18.4-.88 6.63-1.62 6.93 2.73.23 5.44 3.2.71 3.45-1.16 3.87-1.56 3.71-1.44 1.25-2.06.34-.01-.37-.23-.22-.41-.01-.42.19-2.13.53-1.66-1.23 1.28-2.47.12-2.9-1.32-1.96-2.47-1.52-3.42.5-2.66 2.64-3.27.06-3.25-.85 1.46 1.9-1.74-.01-1.57-.23 1.55 1.56.8 1.82 1.03-.58.68.42.49.89-.27.74-.72-.46-.62.08.29.68.77 1.3 1.09.3.55.83.4 1.18-.09-1.69-1.03-1.62-.25-.72.1-.7 1.16-.9-1.76-.76-1.18-1.72 2.96-.94 2.33.41.21 2.5 1.22 2.29-2.2 2.77-1.62 3.01-.82.39-.79.08-1.93-3.63-1.52-4.72-.17-1.32-2.76-1.43-1.06 1.33-.96 1.02-.42-.05-.08-.41.79-.99.43-1.31.73-.09.3-.14.42-1.55 1.42-3.79.7-4.09 1.04-1.06-.02-1.5-2.61-1.15-2.17-1.87 2.01.14 2.39-.5 1.16-1.75.42-2.43 1.47-3.98 1.97-3.8-.44-.31v-.32l3.35-2.8 5.75-2.98 2.9 1.93Z" style="fill:#9aac95"/><path d="m301.5 58.66-.42-.05-.11-.44.46.06z" class="cls-10"/><path d="m289.11 83.02.05.39-.14.62-2.33-.41-2.96.94 1.18 1.71 1.76.77-1.16.9-.1.7.25.72-.71.03-.59.27-.38-.6-.29-.68.62-.08.72.46.27-.74-.49-.89-.68-.41-1.03.57-.81-1.83-1.54-1.55 1.57.23 1.74.01-1.46-1.9 3.25.85 3.27-.06Z" style="fill:#455e52"/><path d="m283.41 79.95-.68-1.4.41-1.83 1.13 1.68z" style="fill:#7c9283"/><path d="m285.66 89.36 1.03 1.62.09 1.69-.4-1.19-.55-.82-1.09-.3-.39-.7.6-.26z" style="fill:#324e47"/><path d="m279.57 82.36.35-.09.3.31.22.48-.24.41-.49-.33-.15-.77Z" style="fill:#2b4a45"/><path d="m224.86 166.3.52 4.36 1.43 4.23-1.69 2.53.22 2.19-.8.23-.92.76.02-2-.31-2.28-3.32 2.42-6.13 4.22-4.03.28-4.06.18.51-3.38-1.73-3.06-2.64-.83-2.65.95-2.08 4.99-.73.41-.69.49-.21-.42-.94.04-.8-2.58-.93-2.29 1.92-3.33.76-.35 1.11-.08.04 3.64.52-.14.06-2.23 1.08-1.49 6.54-6.51 8.54-3.12 4.16.29 4.18 1.03.54.62.35.05.19-.18.08-.55.51-1.31-.75.25-.4.84-.41-.79 1.09-1.82-.36-2.02-3.08-9.07.26-.42.51.18 3.09 9.83v1.26l1.47-.17.06.53-.41.2-.5.13-.21 1.99z" style="fill:#95a794"/><path d="M181.07 153.8v-.77l-.59-.7-.06 2.71-.52 2.65.68-.66.42-.74.83 2.28-6.46 2.46-5.42 4.25-3.71-.91-2.88-1.62-.47-1.12-.47-.16-.61.02.88-2.23 2.33.86 2.3-.33 1.86-1.85.67-2.68 2.18-1.2 1.92-1.87 1.38-1.05.97-1.52 1.81-1.17 2.12.41.89-.22 1.15.09-.05 3.4z" style="fill:#0e342c"/><path d="m200.62 198.36-.12 4.24-1.24.12-.98.59-.69.17-.7.35-.14.68.37.53.42 1.9-.42 1.9-2.02.84-2.63-.06-.81-1.01-.6-1.56.17-.52.22-.4-3.31-1.83-2.86-.65 1.13-2.81 3.29-4.52 4.84-2.33.16 1.46 1.61-1.19 1.41-2.38-.28 1.86-.79 1.8.51 1.06 1.21.53 2.34-1.74.08.96-.62 1.22.33.31z" style="fill:#fad954"/><path d="m190.09 162.45 1.95.96 1.3 1.53-3.32 3.53-3.75 2.52-2.98-1.3-3.27-1.03-2.43-.39-1.87-.9 6.47-4.2 7.89-.71Z" style="fill:#8ea28c"/><path d="m185.34 158.6 3.08 1.4 1.68 2.44-7.89.71-6.47 4.2-3.1-.39-2.69-1.69 5.43-4.25 6.45-2.46z" style="fill:#547163"/><path d="m162.68 159.25-.88 2.23-.07.48-2.77 2.31-3.56-.38-2.22-2.36.07-3.55 2.16-2.24 3.51-.52.12.83.42-.22 1.61 1.62 1.59 1.8Z" style="fill:#fdda47"/><path d="m201.04 185.83-2.55 3.46.38 1.37.36-.41.54-.98 2.12 2.73-.27 2.79 1.2 2.62-1.13.37-1.06.58-.11-.48-.33-.31.62-1.21-.08-.97-1.14.8-1.2.94-1.72-1.59.79-1.8.28-1.86-1.4 2.37-1.62 1.2-.16-1.46-4.84 2.33.04-1.02-.55-.99 3.45-2.98.5 1.26.83.27.79-.81.21.46.55.07.21-.25.03-.32.68-.56.29-.78 1.5-2.38-.11-3.14-1.42-.91-1.84.02.25-.8 1.34-.96.74-.41 1.46 2.4z" style="fill:#45645e"/><path d="m170.45 177.18-.83-1.16-1.22-1.08-1.5-3.28.53-3.59.83-1.04.28-1.09 2.85.88 2.75 1.83-1.74 4.44z" style="fill:#3e5d54"/><path d="m194.82 174.41-1.92 3.33-2.65-3.9-3.97-2.86 3.75-2.51 3.32-3.54.96 6.78.52 2.7Z" style="fill:#79907f"/><path d="m173.39 199.66-2.59-4.97.48-5.5 2.42 2.21 2.22 2.79.58-.3.8.14.73.51.23.63-2.63 2.2-2.25 2.28Z" style="fill:#889b85"/><path d="m168.53 165.94-.28 1.09-.83 1.04-.52 3.59 1.49 3.28 1.21 1.08.84 1.16-.22 1.17-.11 1.23-.43.06-.25-.5-4.15-6.03-.41-3.23-.22-1.16.01-1.01-.64-1.71-.17-1.77 2.46.73 2.2 1Z" style="fill:#11362b"/><path d="m196.74 190.68-.86.13-.83.22-.96-3.37.78-3.39 1.84-.02 1.42.91.11 3.15z" style="fill:#8e8f57"/><path d="m195.77 192.02-.04.32-.2.25-.55-.07-.21-.46.42-.28z" style="fill:#36534b"/><path d="m151.73 201.3-1.53.16-1.62-.2-.63.79-.07-1.74 2.47-2.35 1.33.34 1.39.75.23 1.18-.51.8-.46-.75-.32-1.05-.29 1.01z" style="fill:#f5f4f4"/><path d="m108.16 163.02-.38 2.04-.56 2.25-.85.6-.61.57.64 1.56.21 4.29.77 5.25-.7-.41-.27-.96-1.68-4.37-2.13-4.07.65-.6.11-.7-.72-.5-1.49.26.08-.64.34-1.31 2.97-3.59 4.7-3.52-.36 1.87-.72 1.97Z" style="fill:#224740"/><path d="m111.21 155.14.67 7.38-1.85-.09-1.87.58.72-1.97.36-1.87.23-.6.11-.68-2.21 1.1-2.11 1.55-3.8 1.96-3.73 1.7-.59-.88.11-.92 3.13-.36 2.07-1.65 2.76-.18.21-1.08-.27.03-.68.22.41-.39 1.12-.31.48-.88-.99-.87-.69-1.08 1.72-2 2.64-.12.99.91 1.05.48Z" style="fill:#395a51"/><path d="m101.23 167.6-.08.64-.93.77-1.11.25-1.44-.17-1.39-.4-.03-.38-.33-.11 1.36-1.21 1.87-.72 1.44.28z" style="fill:#b0bd9f"/><path d="m109.25 159.19-4.7 3.52-2.98 3.59-.33 1.31-.64-1.06-1.44-.28-1.87.72-1.36 1.21-1.09.63-.94.83-1.57.84-.51 1.54-.25.1-.43-.14-2.27.29-3.26 2.58-3.12 2.91-2.76 2.11-2.51 2.55-.4 13.07-9.58 7.87-4.72.87-4.95.39-.53-10.91 5.66-8.47 4.55-1.87 4.64-1.32 1.69-.14 1.39.15.21-.11.05-.29.82-.05 3.01-2.32 2.08-2.41-.76-.35-.85.27-.8-.44-1.05-.21-1.62.23-1.37-.32 1.71-.31 1.52-.09-.72-.54.39-.22 4.55.84 4.38-3.06 1.24-1.02-1.53.22-1.06.67-4.7.68-4.64-.58-2.14-.69-2.92-1.61-1.73-2.6 1.81-3.05 3.1-1.94 4.93-.84 3.52.03 2.34 1.49 2.44 1.24.62.63.88.48 1.51 1.33 1.8 1.01 1.55-.47 1.22-.92 1.67-.79.23-.47-.39-.24 1.46-.99 3.73-1.7 3.8-1.96 2.11-1.55 2.21-1.1-.11.68-.23.6Z" style="fill:#5d766c"/><path d="m85.59 174.86-1.23 1.75-1.43 1.57-.12-.33-.34-.08zm-8.92 6.24.1-.75-.23-.19-.41-.03 1.81-1.28 1.59-2.05.85-.27.76.35-2.08 2.41z" class="cls-225"/><path d="m74.45 184.66-.79 2.36-3.57 2.12 2.09-2.68 2.5-2.68.5.47z" style="fill:#445f57"/><path d="m96.28 168.69-.91.79-.66 1.09-.33-.49-.49-.43.94-.83 1.09-.63.33.12.03.37Z" class="cls-199"/><path d="m85.27 173.5-.1-.97 1.06-.67 1.53-.22-1.24 1.02z" class="cls-225"/><path d="m96.28 165.21.4.24-.24.47-.87.46-.8.33.04-.89.72-.39zm-7.49-.19.03.37-.13.37-.88-.48-.62-.63.81.08z" style="fill:#e8eaec"/><path d="m249.83 190.27-.64.31-.83.12 1.51-3.45.35-1.85.52 2.48z" style="fill:#e0e4e0"/><path d="m265.44 213.29.14-.68.5-.43.9 3.94-1.04-.31-.54-.58-.08-1.05z" class="cls-225"/><path d="m197.75 238.45 2.91 3.42 1.94 4.26-1.98 12.63-9.23 9.63-4.23-4.36-3.46-4.84-1.1-12.98 8.87-9.62 1.09-.16 1.04-.67.55.28.13.77-.73.99.35 2.4-.28 2.04-.98 1.35.5 1.63.35-1.02-.15-1.23 1.35-2.5.38-2.48 1.59-.01z" style="fill:#6e8676"/><path d="m192.63 249.97-.26-.84.17-1.11.42.65z" style="fill:#7f9385"/><path d="m200.51 202.6.25.29.29.2.65.27.87.1 2.76 2.83 3.35 1.62-5 .31-5.03.66-.43-1.13-.03-1.28.84-1.09.78-1.5-.73-.39-.8-.17.98-.59 1.24-.12Z" style="fill:#fafcfa"/><path d="m198.59 209.72 1.11.91.89 1.05-1.49-.6z" class="cls-137"/><path d="m114.9 46.18.24-.09.23.09-.22.47zm.53-.87-.11-.26.06-.28.46.22zm-1.38-6.68-.23.1-.69-.24-.12-.6.09-.22.29-.08.41.49.26.54Z" style="fill:#e8e5e7"/><path d="m298.12 152.41 8.63 3.6 10.89.05 1.01.65.08.36.44.11 1.8 2.78 1.3 4.04.21 1.5-.09 1.56-1.15 1.26-1.62.84-5.81 4.66-3.68 6.33-.66.02-.35.38-1.45-.38-2.22-.12.35-.34-2.33-5.8-2.54-8.65-8.01-9.25-1.62-5.72 1.12.72 5.69 1.4Z" class="cls-3"/><path d="m323.48 163.39-.3-.4-.18.27-.2.8-.52-.06-1.3-4.04-1.8-2.78 2.27 2.39 1.97 1.66.64.36.2.62-.04.93-.74.26Z" style="fill:#e1e2d7"/><path d="m308.21 171.86-.24 1.02-.34-.75.21-.53z" style="fill:#627b70"/><path d="m39.84 118.43-8.72-1.13-7.64-4.13-6.64-11.43 1.84-13.12 12.13 3.23 7.02 10.39 1.23 7.42.18 7.43.37.4.47.35.27.43z" style="fill:#9ab18f"/><path d="m23.1 113.57 3.3 2.74 3.17 2.97-3.48.67-3.65-.31-.54-1.2-1.24-.41.6.69.54 1.01-3.43.03-3.46.43 15.06.75.12.35-.21.35-6.1 6.54-6.62 3.16-7.49-1.88-5.56-4.47-4.1-5.85 10.72-8.24 12.38 2.66Z" style="fill:#98b08d"/><path d="m64.26 119.87-2.78-.9-2.95-.3-5.83-1.84-4.56-4.07-1.16-4.14 1.28-3.84 7.88-2.13 5.94 6.21.45 8.95.98 1.03.75 1.02Z" style="fill:#c5d3a8"/><path d="m46.1 120.4-.45.44-.42.26.25.55.07.57-2.43 4.21-3.22 4.84-5.73 2.69-5.35-2.06-.14-4.67 2.67-4.16 1.83-1.16.84-1.4.45-.2.11-.47 3.59-.29 2.15-.63 1.57.03z" style="fill:#e9dd8e"/><path d="m62.72 122.45.12.81.36.77-11.73 2.37-10.07 6.37-.38-1.07-1.12-.44 3.22-4.84 2.43-4.21 8.21-.31zm-22.88-4.02.09.39.39.09-2.15.63-3.59.29-5-.55-3.17-2.97-3.3-2.74h.39l-.01-.39 7.64 4.13 8.72 1.13Zm24.42 1.44.19.4.12.52-3.29.28-3.18-.2.37-1.07.06-1.13 2.95.29zm-30.24.63-.84 1.4-1.83 1.16v-.7l-.45-.58-.51-.22-.53.09.21-.35-.12-.35z" class="cls-225"/><path d="m94.89 121.89-.05 1.01-3.83.28-1.02.03-13.8-.18-4.5.41-4.09 1.69-.52 6.73-1.51 6.46-11.47 13.51-18.05 3.13-.31-11.76 5.66-10.44 21.8-8.74 2.15.1 2.15-.01 1.26-.51 1.26-.66-1.35-.22-1.11-.04-.23-.09-.25.07-.12-.33-4.26.11-8.96-.55-8.21.31-.08-.56-.24-.56.42-.26.45-.44 5.98.46 6.01.02 3.18.19 3.29-.27-.12-.52-.19-.4 2.42 1.11 2.84.4 25.38.51Z" style="fill:#799373"/><path d="M91.02 123.19v.74l-.4.25-.55.02-.1-.5.03-.49 1.02-.03Z" class="cls-225"/><path d="m45.18 145.21 2.69-3.48 3.52-3.14-.05-.43-.42-.5.15-.32.82-.05 4.02-3.46 4.16-3.28-6.37 6.18-6.2 6.48-.83 1.23-1.49.76Z" class="cls-85"/><path d="m67.51 124.11.07-1.43 1.11.04 1.35.22-1.27.66z" class="cls-225"/><path d="m42.74 148.08.71-1.57 1.18-.84-.66 1.48z" class="cls-85"/><path d="m101.94 126.1-.6 2.83.51 3.05.87-.11.26.35-.7.52-.19.99-.28 10.53-3.58 9.59-1.17.84-.81 1.15-4.18 2.89-5.58 2.3-4.08.89-3.52-.03-4.93.84.02-.32-.07-.31 5.16-1.34-3.04-1.65-1.98-3.05 4.87-1.67-2.36.05-5.07-.71.46-2.94 2.35-2.16-.65-5.28-.16-5.41 3.59-7.82 7.42-4.31 2.83-.71 2.74-.9.55-.02.4-.25v-.74l6.36-.41 2.76.05-.43 1.31.1 1.34-1.03 1.18-.84 1.37-1.36 2-1.12 2.41 2.43-3.09 2.6-2.84.24-.61.48-.27.3.28z" style="fill:#acbe9f"/><path d="m84.42 95.42 9.01 4.99 6.63 7.95.05.55.13.53.47 1.37.32 1.4.55 1.9.37 1.93-.53 5.56-.22-.15-.18.18-.5-.62-.48-1.08-1.26.1-.96-.8-5.11-3.08-2.61-2.75.21-.78.1-.95-1.93.44-.81.36.43.25.44.17 5.14 5.01.47.77-.19.61-.58.56-10.3-5.12-9.05-10.08-.31-4.83 2.9-3.5 3.82-1.07 3.97.16Z" style="fill:#b4c5a1"/><path d="m101.02 121.64.05.87 3.51.29 3.58-.58-3.51-.46-3.24-.15.53-5.56.65-.59.36-.9.34-.15.17-.37 2.03.26 2.29-.03-.8-.64-.63-.94 1.9 1.45 1.97.96 1.5 1.01 1.33 1.36 1.18 2.93 1.18 1.82-2.09 1.98-2.23 1.87-4.58-.04-4.59.09-.43-.19-.3-.28-.49.26-.23.62-2.6 2.84-2.43 3.09 1.12-2.42 1.36-1.99.85-1.37 1.02-1.18-.1-1.34.43-1.31-2.76-.05-2.53.13.05-1.01.5-.16.38-.47-1.19-.79-1.19-.61.57-.56.2-.61-.47-.77-5.14-5.01-.45-.17-.42-.25.81-.37 1.93-.43-.11.96-.2.77 2.61 2.75 5.11 3.08.96.8 1.26-.1.47 1.08.51.62Z" style="fill:#91a090"/><path d="m108.14 131.28.39.26.12.51-.4.78 1.21 5.17 3.44 4.27-.91 4.86-.6 4.58-.87.73-.4.78.85 1.01.25.92-1.05-.48-.99-.91-2.65.12-1.71 2 .69 1.08.99.87-.48.88-1.12.31-3.01-3.58-3.65-1.57 3.58-9.59.28-10.53.18-1 .71-.51 3.52.14z" style="fill:#768b7f"/><path d="m111.1 126.06-1.49 2.4-1.48 2.82-1.64 1.09-3.52-.14-.26-.35-.87.11-.51-3.05.6-2.83 4.59-.09z" style="fill:#d8d8da"/><path d="m101.02 121.64.17-.18.23.15 3.24.15 3.51.46-3.58.58-3.51-.29-.05-.87Z" style="fill:#7b927b"/><path d="m102.96 114.55-.36.9-.65.59-.37-1.92-.55-1.91.98 1.58.94.76Z" class="cls-277"/><path d="m29.57 119.28 2.46.55h2.54l-.11.47-.45.2-4.06.45-15.06-.75 3.46-.42 3.43-.04-.54-1.02-.6-.68 1.24.41.54 1.2 3.66.31 3.47-.67Z" style="fill:#758d79"/><path d="m197.13 208.85-.55 3.27-1.88 2.82-7.5 2.97-2.19 1.05-2.1.75 4.45-6.09 3.72-6.57.6 1.56.81 1.01 2.63.06z" style="fill:#fffefd"/><path d="m198.29 203.31.79.17.74.39-.78 1.51-.84 1.08-.3-.98-.77-.44-.37-.53.14-.68.7-.35z" style="fill:#9fb397"/><path d="m256.55 56.78-.58.76-1.01 1.1 5.12.79 5.2-.6.93.48 1.02.43-.6-1.14.34-.67.46-.17.52.23 1.35 1.05.72 1.65.18 1.2.36.49.63-.01.1.35-.21.23-.35.06-2.74-.22-2.4.14-1.22-.53-1.44.01-.22.05-3.18-1.87-3.99-.39-2.3.74-1.1 1.88-.8.69-.51.9-3.2-1.06-2.89 1.61-.28-1.23.05-.89 5.61-.16 2.42-2.68.99-.64.87-.81.85-1.24 1.29-.51Z" style="fill:#47645b"/><path d="m271.82 44.23.29 4.21.06 2.99-.38.06.01.42-.36.03-.1.29-.09.64v.48l-1.82 2.17-1.48 2.47-.52-.24-.46.18-.33.67.59 1.14-1.02-.43-.93-.48-5.2.6-5.12-.79 1.01-1.1.58-.76.81-.06.83-.24-.04-.68-.61-.52-.69.63-.3.87-1.29.52-.85 1.23-.87.82-.99.63-.6-1.5.16-1.75 1.64-9.02 7.45-5.61-2-6.55 2.08-6.2 6.27 2.86 2.78 6.45.31 2.97z" style="fill:#788e7e"/><path d="m272.62 44.16.1 1.51.67 4.18-.32 2.64-.58-.37-.31-.69-.06-2.99-.29-4.21.4-.19z" class="cls-225"/><path d="m256.55 56.78.3-.87.69-.63.6.51.05.69-.83.24z" class="cls-7"/><path d="m267.14 40.29-1.09-.45-.41-1.31.87.63z" style="fill:#667d6c"/><path d="m271.77 53.48-.24-.11-.27-.02v-.48l.18-.94.37-.02-.03 1.57Z" class="cls-65"/><path d="m354.67 48.94-1.94-.68-2.02-1.11 1.07-.75.91-1.13-1.47.58-.51 1.3-.85.55h-.97l.51-6.04 1.78-5.94 8.15-8.65 11.95-.82-1.3 13.32-9.62 8.21-2.93.72z" style="fill:#748b7a"/><path d="m357.18 41.43-1.75 1.84-2.14 1.57 1.25-1.74 1.55-1.62.13-.91.97.86Zm-6.47 5.72.51-1.31 1.47-.57-.91 1.13z" class="cls-261"/><path d="m324.43 65.34 1.04 3.77-.45 4.01-1.5 1.64-1.37 1.65-2.06 1.3.36-1.27.22-1.62-1.16-.31-1.13-.08.7-2.84.22-2.91 1.06-.1 1.54-2.26.56-1.4 1.96.43Z" class="cls-134"/><path d="m334.04 83.53 3.24 2.65 2.78 3.13 2.59 2.28-.49 2.01-.82 2.09-2.71 3.73-3.77 2.3-.4.02.02-.31.41-.27.47-.07.14-.76-.02-.47.77-.58h1.07l-2.77-.64-2.84.39-4.74-1.43-4.99-.93-2.25-.23.41-2.33-.28-2.38-2.81-2.79-3.49-.78 1.77-1.94 1.94-1.7 8.3-2.26z" style="fill:#325449"/><path d="m354.57 86.93-3.81 3.11-2.67 4.41-1.61 4.87-.93 4.8v.49l-10.23.41-.31-.5.45-1.05-.7-.83-.08-.43.18-.5 3.78-2.3 2.7-3.73.82-2.08 1.34-5.21 4.51.31 4.11-.66 1.11-.9 1.33-.22Z" style="fill:#f9f8f8"/><path d="m321.58 78.31-2.33 2.7-2.46 2.58-2.9 2.27-2.85 2.36-2.53.41-2.23-.35 2.97-.89 2.35-2.33.19-1.76-.65-1.67.49-.33.49-.02.51.3.31.41-.22 1.07.07 1.32 1.94-1.41 1.5-1.69 2.1-1.61 1.77-1.96 2.06-1.3-.45.98z" style="fill:#26443d"/><path d="m316.23 81.28-1.5 1.69-1.94 1.41-.07-1.32.22-1.07.56-.83.88-.44.79.48 1.06.09Z" class="cls-134"/><path d="m313.39 58.6 3.39 3.39.1.43.4.13 1.25 2.97.79 3.14-.22 2.91-.84 3.3-.39.06-.13.45-1.47 2.78-1.88 2.54-.87.44-.57.83-.31-.41-.51-.3-.49.02-.49.33-1.26-.42-1.23-.52-.71-3.44-5.44-3.21-2.73-.23 1.62-6.93.88-6.63.61-.8.51-.85 2.43-2.41 3.98.64z" style="fill:#33554b"/><path d="m303.39 58.59-.51.86-.61.79-.61.07-.57-.47.42-1.18.96.08z" class="cls-10"/><path d="m308.76 66.21 1.55 3.44-.67 1.71-.06-2z" style="fill:#4c6960"/><path d="m312.29 79.21-.8-1.84.3-2.02.45 1.78z" style="fill:#5d7969"/><path d="m317.73 75.39.13-.45.39-.06-.11.45zm-.45-12.84-.39-.14-.11-.42.26.02.24.12.07.21z" class="cls-134"/><path d="m137.43 55.27-4.24 1.45-3.32 2.84-.47-.59-.61-.41-.99.1-.91 2.85-1.82 3.61-1.49 4.04-.07 1.55-.55 1.43-.74-.91-.9-.57.08-1.77-.54-1.83-.17-3.52v-3.5l.89-1.82.48-1.95 1.55-2.07 1.32-2.26.41-.08.11-.4 1.74-1.19 1.98-.96 2.28-1.38 2.23-1.25 1.21 2.13 1.4 2.25.22 2.32z" style="fill:#30514a"/><path d="m252.28 149.52.34.07.07.21-.99.91 1.12 4.44 1.33 4.4-1.48 7.75-4.01 6.8-2.98 4.07.19.32-.19.32-.67.24-.91-.39-4.83 2.51-4.86 2.27-.72.84-1.09.04.11.98-.4.17-.48-.3-.33-.57-3.17-2.6.02-.64.38-.57.55.11.87.6-1.62-3.3-1.73-3.29-1.43-4.22-.52-4.37 1.68-5.16 3.17-4.53 2.55-1.82 2.4-1.96 2.77-1.04 2.82-.92 1.71-.4 1.32-.97.41.15.43.39 3.02-.22 2.79.46 1.51-2.72-.27-3.32.61.83.26.96-.32 2.76.56.72Z" style="fill:#bcca9e"/><path d="m99.11 169.26-.07 2.53-1.99 2.02-.52 6.15-.71 3.09-.44 3-.28.3-.24-.4-.51-7.69.57-.47.37-.89-.58-1.06.85-2.09.74-2.65-.24-.52-.23.07-.05.38-.31.1-.21.22-.3.08-.22-.21-.17-.37.79-1.37.91-.79 1.4.4z" style="fill:#5b736c"/><path d="m91.13 171.99-1.38 5.52-.33 2.77-.66 2.76.51-6.27z" style="fill:#627a70"/><path d="m94.71 175.84.28.59.3.47-.37.89-.57.47-.11-1.24-.25-1.2z" class="cls-199"/><path d="m262.72 62.45.43-.05 1.11.88 1.34.62.09.45.36.07.93 1.25 1.1 1.11.43 1.17.35 1.21-2.81 5.39-5.87 3.35 1.39 1.57.06 1.73-.74-1.4-1.67-.46-.24-.98-.91-.19-.82.15-.7.42.15-.74-.43-.62-5.14-3.27-2.31-.73-.02-.45 2.45-1.06 1.55-2.23-.1-2.99-1.87-2.25.52-.9.79-.69 5.33-1.18 5.24.83Z" style="fill:#2f5149"/><path d="m263.52 84.52.18 2.38-4.33-.87.86 3.13.6 3.09 1.71-1.46 1.72-1.13h.37l-.04.55-1.66 2.6-1.49 2.68-.43.06-.26.27.17.63.05.44-1.89.11-1.6-.11-1.71-2.2-2.07-2.11-.95-1.48-1.1-1.17-.33-.52-.22-.63-.53-.38-.66-.07-.46-5.84-1.37-5.05 5.94 2.25 4.43 4.79 2.59-.65 2.47.7Z" style="fill:#647e6e"/><path d="m227.38 79.19-5.22 3.97-5.93 5.03-1.26 1.25-1.46.72 1.95-4.52 2.38-4.55 1.21-1.62.58-1.72 2.04-1.14 2.5.35 1.64 1.24z" style="fill:#9eb196"/><path d="m219.62 77.74-.58 1.72-1.21 1.62-2.37 4.55-1.96 4.52-.57.82-.78.62-1.15-5.23 1.03-5.19 4.97-3.54 1.29-.35 1.32.45Z" style="fill:#577166"/><path d="m212.04 81.18-1.03 5.2 1.15 5.22-4.38-3.27-4.85-2.86 3.48-3.14 4.68-2.59.37.38.39.08.26.47z" style="fill:#284c44"/><path d="m268.86 69.17-.35-1.2-.43-1.18 1.46-.15 1.33-.84-.69 3.09-.46 3.2-.54-1.55z" class="cls-24"/><path d="m259.22 79.34-.11.87-.55.39-1.04.09-.72-.15-.23-.92-.03-.88.7-.42.82-.15.91.19.24.98Z" style="fill:#c7c7c3"/><path d="m271.29 60.68-.13.85.04.84-.63.01-.36-.49-.18-1.2.6.16z" class="cls-65"/><path d="m106.35 27.63 4.22 4.45 2.81 5.52-.29.07-.09.23.12.6.46.16.07 2.15.19 2.12-1.07-.16-.22-.25-.16-.65-.06 1.99.24 1.4-5.1-1.66-5.04-2.63-4.86-6.05-.25-7.48 4.25-1.34 4.77 1.53Z" style="fill:#7c9182"/><path d="m108.71 39.03 1.33 1 1.16 1.68-1.7-.88zm-.95-.95-1.05-.74-.38-1.17 1.05.75zm.95.95-.57-.04-.38-.18v-.74l.61-.01.34.24zm-2.39-2.87-.8-.58-.03-.71.66.42z" style="fill:#627b6f"/><path d="m118.86 231.93-.45-.06-.06.4-.72-.35-.21-.83-2.22-2.21-2.24-2.39-1.44-3.75-.51-3.93.94-.44.62-.99 6.81 1.29 5.98 3.69 3 4.63-.29 5.17-4.41 1.27-4.8-1.51Z" style="fill:#8a9f89"/><path d="m111.01 218.83.5 3.93 1.45 3.75-1.21-.81-1.19-1.08-.47-3.42.69-3.79.38.65-.14.78Z" style="fill:#edecec"/><path d="m121.42 227.23-2.04-1.7-2.33-.95.06-1-.83-.38-.47-.81 3.23 1.97zm-7.13-6.44-1.01-.39-.78-.97 1.12.21z" style="fill:#647e6a"/><path d="m356.95 104.99-2.24-.26-1.03.32-.53-.23v-.73l2.2-.17 2.04-.77 2.43.25 2.91-1.28 2.11.82 3.65.04-10.08 1.32-.92.16-.53.54Z" style="fill:#849980"/><path d="m277 49.16-.97 1-1.29.79.01-1.08.86-.74z" style="fill:#f9f9f8"/><path d="m275.61 47.15.99-2.08 1.44-1.73.21.88-.22.48-1.19 1.41zm2.43-3.81.18-.88.6-.39v.8z" class="cls-7"/><path d="m131.67 111.91-.26 1.33-.98 1.04.22 1.75-.52 1.68-7.78.95-6.93 3.54-1.18-1.82-1.18-2.93 2.22-.9 5.28-1.21 1.55-1.59 1.93-.61 2.13.3 2.17-.57 1.4-1.44.61-2.05.58 1.27.75 1.25Z" style="fill:#143b34"/><path d="m73.63 172.41 1.02.57 1.18.42 1.77 1.49-.4.23.73.53-1.51.09-1.72.31 1.37.32 1.62-.23 1.05.21.8.44-1.59 2.06-1.81 1.27-1.69.52-1.52.88-.53-.06-.51.11-7.9.35-6.24-4.77 6.82-5.5z" style="fill:#7c9282"/><path d="m75.83 172.63.16.39-.16.38-1.18-.42-1.02-.57-.13-.26.2-.2 2.14.69Z" class="cls-225"/><path d="m74.27 176.35-1.76.84-1.56-.57 1.55-.61z" style="fill:#687f72"/><path d="m213.88 182.96 1.58 3.51.87 4.2-1.79 1.35-1 1.97v.62l-.11.58-.48.29-.59-.1-.31-2.19-2.36-4.15-3.1-.76-3.05 1.34-.21-2.16-.87-2.08 1.76-.74 1.56-1.22 4.06-.18 4.03-.28Z" style="fill:#5e796c"/><path d="m220.25 192.55-.7 2.2-1.77 1.78-3.55-1.48.01-1.02-.32-.08-.38.04 1-1.97 1.79-1.35 1.79.58 2.12 1.3Z" style="fill:#98a893"/><path d="m202.46 185.38.87 2.08.21 2.16-.97 1.12-.69 1.26-2.12-2.73-.54.98-.36.41-.38-1.37 2.55-3.46.65-.39z" style="fill:#abb083"/><path d="m122.06 56.28-.48 1.95-.89 1.82-.56-1.84-.38-2.02zm-2.33-3.89-.02.74-.38.37-.51-.04-.07-.58.25-.46.39-.1.35.08Zm5.2-.44.04-.5.48.02-.11.4z" style="fill:#d6d7d7"/><path d="m202.82 197.41-.46 1.02-.78.99.25 1.91-.77 1.76-.29-.2-.25-.29.12-4.24 1.06-.58z" style="fill:#829f89"/><path d="m57.05 48.6-1.67-2.84.09-.84.33-1.11.94 2.74.31 2.06Z" class="cls-110"/><path d="m101.98 193.49.13 1.3.88.62-.46.52-.37.31 1.03.89-.07.67-.27.21-.34-.08-.55-.95-.99-.02-.88.43-1.26-2.16-.01-2.9 1.59.43 1.56.75Z" style="fill:#9cad9f"/><path d="m110.1 195.44-.95.1-.63-.46-.22-1.6.44-1.48 1.38 1.32z" style="fill:#4e685e"/><path d="m105.45 195.35-.77.12-.75-.12.34-.46.5-.42.6-.05.09.47z" class="cls-306"/><path d="m357.49 106.46-.36.63-.65.34H356l-.33-.63-.63-.33-.32-.05-.16-.2v-.7l1.42.68z" style="fill:#6a7d71"/><path d="m345.55 104.62.42 1.32-3.58-.29-3.58.52 2.83 1.49 2.85.82.29.36.71.27-2.1.98-1.56 1.45.2 1.3-.73.69-.32-.34-.22-.36-.5 1.25-.34 1.04.31-3.42-2.2-4.17-.07-.87-.5-.62-2.11-.18-.3-.48.28-.34z" style="fill:#5c7668"/><path d="m326.36 155.26 1.25.41 1.13.48-.72.68-.39 1.06-1.71-.11-1.67.1-.33.59.1.6-1.86-1.52-1.58-1.8 2.84-.63z" style="fill:#e4e3e4"/><path d="m232.72 185.29-1.14 2.49-.95-.15-.92.31-.36-.45-.1-.45-.07 1.44 1.43 2.11.06 1.1-.5.83-.36.16-.1.37.01.6-.32.42-1.43-1.62.2-2.22.49-.22.09-.53-.27-.28-.3-.72-.78.31-.48.98-.13 1.09-.38.95-.88.71-2.08 1.01-.49-2.69 1.75-1.75 1.2-.79 1.1-1.18-.7-.2h-.43l.09-2.41.26-.82.61-.37.85.22.1-.68-.21-.34-1.32-.34-.39-1.4-.56-1.18-.22-2.19 1.69-2.53 1.72 3.29 1.63 3.3-.88-.59-.54-.12-.38.57-.02.64 3.17 2.6.33.57.48.3.4-.17Z" style="fill:#234446"/><path d="m228.19 190.23-.55-.42-.7-.04.48-.99.78-.3.3.72.27.28-.09.53z" class="cls-225"/><path d="m231.58 187.78-.23.95-.59.79-.03.6-.11.47-1.43-2.11.07-1.44.1.45.36.45.92-.31z" style="fill:#e2e1dc"/><path d="m224.74 189.1.23-1.16.94-1.01.43.01.7.19-1.1 1.17z" style="fill:#dfdfd5"/><path d="m228.4 183.58.5-.13.34.26v.94l-.15.23-.35-.19-.43-.5z" style="fill:#e4dfd1"/><path d="m251.81 179.22-1.67-.76-2.24-.71-.41.13-.11.42-.9-.2-.79.07 2.98-4.07 4.01-6.8.26 5.87z" style="fill:#1d423d"/><path d="m251.74 179.74-.11 2.16.58 2.07-1.5-1.83-.89-2.22 1.03-.17z" style="fill:#e0e3db"/><path d="m247.38 178.29.11-.41.41-.14.6.82.33 1.13-.86-.66z" style="fill:#a3af9a"/><path d="m98.83 192.31.01 2.89 2.24 3.86-.18 1.51-2.11-3.38-.77-2.08-1.39 1.86-.31 1.6.45 1.58 1.22 1.29h1.12l1.15-.3-.28 2.16-1.03 2.45-.98.16-1.1-.34.49-1.76-.22-1.87-4.02-3.32-5.44-1.27-.35-.94-.53-.82 4.15-1.4 5.64-1.75.59-.57-.79-.76 1.76-.42.21.97.48.67Z" style="fill:#4f7063"/><path d="m100.91 200.57-.24.37-.4.19-1.15.3H98l-1.22-1.29-.45-1.58.3-1.6 1.4-1.86.77 2.09z" style="fill:#c2cdc1"/><path d="m95.79 196.69-1.97-.32-2.03.51 1.94-2.23 3.03-.78z" style="fill:#f9f8f6"/><path d="m153.14 114.21.37.49.65.15-.86.53 4.36 2.85 5.24-.24.85.93 1.48.15.06 1.32.32 1.41-.99.62-.8.69-3.69 4.18-2.85 1.25.34 1.12.27.23-1.78 3.04-1.79 3.4 3.86-5.23 1.11.12-.82-.9 1.84-2.7 2.28-2.3.99-.87.24-1.34 1.73-.77 1.35-1.7 1.41.7 1.15.46 1.03 2.59.79 2.65-.07 4.15-.64 4.16.48.39.8.07 2.61-.32 6.8 1.09-2.31 2.76-1.16 2.62-.13 4.21-2.59 2.5-1.04-.87-1.06-.58-3.31 1.68-3.46.99-.41-1.65-.98-1.28-1.99-.14-1.06 1.05-.46 2.01.85 1.6-1.48 1.01-1.64.57V150l-1.43-2.81-.26-.86-.58-.17-1.23.26-.81.54-2.07.2-1.73.47-3.21-5.3-1.6-6.06 2.15-8.15 4.88-6.95.29-.54.16-.59-1.81-2.98-2.41-2.87 3.79.03Z" style="fill:#a0b298"/><path d="m160.36 93.59 1.94 1.09 1.85 1.31 1.6 4.35-.23 4.7-1.74 2.53-1.89 2.39-4.18 2.61-4.58 1.65-1.89.03-2.35-.08-.44-.08-.54-.88.81-1.16.32-1.11-.61.32-.73.52-.56.03-2.06-6.34-.11-3.31 1.09-3.33 6.26-4.86 8.02-.37Z" style="fill:#f8de6d"/><path d="m165.67 83.63.74.56.13 1-.54.93-.77.82-3.44 2.71-.9-1.64-1.55-.47-.82 1.58-.15 1.56-.72.7.06.97 1.31.06 1.22-.77.02 1.07.11.87-8.02.37-6.26 4.86-2.46-2.38-2.83-1.89.84-1.51-.12-1.95.43-.04.23-.42 3.34-6.98 7.14-2.21.13-.64.44-.18 2.67 4.38 5.19 1.31 2.82-.48 1.77-2.2Z" style="fill:#1f443c"/><path d="m150.89 147.61-.19.92-.66.64-1.9-.71-2.45.44 1.75 2.12 2.54 1.79.89 1.03-3.07.18-7.53-1.05-.48-1.36-.66-1.36-2.15-1-2.4.29 3.12-5.15 2.53-5.43 3.05-.96 1.3-1.12 1.49-.62 1.6 6.05z" style="fill:#2d4f47"/><path d="m153.12 121.16-4.88 6.94-2.15 8.16-1.49.62-1.3 1.12-3.05.96 1.52-8.41-.11-8.73 5.89-.61 5.58-.04Z" style="fill:#143934"/><path d="m129.28 156.71 3.83 1.35 1.88 3.38-1.04 2.7-2.24 1.79-2.64.45-2.6-.97-1.48-2.34-.11-2.52 1.79-2.49 2.62-1.35Z" class="cls-222"/><path d="m130.14 117.71.52-1.68-.22-1.75.98-1.04.26-1.33 4.77 2.29 3.1 1.27 2.29 2.11-.07 1.2-.67.87-3.97-.43z" style="fill:#082928"/><path d="m148.45 114.08.89.1 2.42 2.87 1.8 2.98-3.9-.05-4.04-.27-.61-.55-.55-.37-1.42 1.06-.82.3.33-.79 1.07-1.4 1.88-1.12 2.94-2.76Z" class="cls-164"/><path d="m147.01 111.25-1.84 2.56-2.19 2.56-1.34-1.47-.52-1.78 2.17-3.84 1.81-3.83z" style="fill:#1a3e3a"/><path d="m140.27 152.97-.81.51-.58.87-1.75.54-1.93-.08-1.08-1.81-.09-2.53.55-.92 2.4-.29 2.15 1 .66 1.36.48 1.36Z" style="fill:#ecc549"/><path d="m144.59 116.52.48-1.33 1.59-.47-.97 1z" style="fill:#1f4238"/><path d="m143.63 117.96.17-.91.79-.52-.18.92z" class="cls-164"/><path d="m153.1 72.64-.32.65-.53.53.07.66.61.47.85-.71.9-.42.91 1.17.92.83-1.93 2.31-1.36 2.48-.44.19-.13.63-7.14 2.21-3.34 6.98-.23.42-.43.04-1.54-4.41-2.1-3.21-2.4-2.77 2.3-2.14 1.59-2.68 2.42-2.94-1.17-.94-.81-.94.33-.97.62-.83 7.21 1.51 3.29 1.91.51-.42.44-.03.29.42.6-.02Z" style="fill:#0f342f"/><path d="m129.87 59.56.82 4.28 2.93 3.36 3.6 1.22 3.53.85-.62.83-.33.97-.34 2.38-.1 2.43-1.59 2.68-2.3 2.14-3.84-2.67-4.15-.93-.27-1.11.01.81-1.68 2.03-1.81 1.88.32-5.19.57-4.92 1.3-4.35.97-4.73 1.46-1.04.44-1.91.61.41z" style="fill:#1c413b"/><path d="m135.47 80.7 2.4 2.77 2.1 3.21 1.54 4.41.12 1.95-.84 1.51-2.79-.64-2.78.26-3.41 2.64-1.6 3.59-.69.75-.77.99-2.29-.5-2.49-2.38-2.72-2.38-2.9-7.39.91-7.5 1.47.35 1.68 1.06.27-4.03-1.28-5.04-3.06-3.55.65-.07.74.33.3.33.16.44.42.18.27-.42.43-.91.9.57.74.91.55-1.43.07-1.55 1.49-4.04 1.82-3.61-.97 4.74-1.3 4.34-.58 4.92-.31 5.19 1.81-1.87 1.68-2.04-.01-.81.27 1.11 4.15.93 3.84 2.67Z" class="cls-95"/><path d="m128.62 94.48-1.13-1.61-1.1-2 .57-.72 1.17 2.45z" style="fill:#23473e"/><path d="m112.5 60.63 3.73 1.39 2.67 2.75.63 3.25.2 3.02-.74-.33-.65.07 3.06 3.55 1.28 5.04-.27 4.03-1.68-1.06-1.47-.35-5.16-3.94-5.88-3.68.9.04.49-.2-.45-.27.1-.46.19-.4.14-.51-.36-.5-.04-.32.09-.28.98-.38.76-.91-1.51-.28-1.15-.66-1.06 1.05-.95 1.09 1.44-.22 1.28-.28.34.23-.13.36-.79.08-.22.16-.04.35-2.33.62-.54.7-.59-.26-.59-.53-.39.27-.57.25-.54-.15-.3-.38-.13-1.8.68-1.65.65-.26.57.1.32.44.03.62-.36 2.2 1.02-1.06.22-1.09.37-.92 2.86-.38 3.92.36v.5l.24.45.27-.2.41-.56-.27-.29-.32.1h-.33l.25-.45.49-.02.29-.73.77.1.61-.36-.96-2.56-2.35-2.68-.81.19.03-1.23-2.31-.64-1.64-1.23 3.07.82z" style="fill:#1c413c"/><path d="M106.8 72.47v1.07l-1.43-.15.55-.69zm2.49-.99.14-.36-.35-.23-1.29.29-1.43.21.95-1.09 1.06-1.05 1.15.66 1.51.28-.76.91z" class="cls-67"/><path d="m110.3 74.47.63-1.18 1.46-.82-.63 1.18z" style="fill:#96a19e"/><path d="m105.38 70.08-.22 1.09-1.02 1.06.36-2.2.44-.1z" class="cls-107"/><path d="M112.54 69.14h.33l.32-.1.28.29-.42.56-.27.2-.25-.45z" class="cls-157"/><path d="m109.13 74.41-.08-.24.12-.23.45.26zm.16-2.93-.09.28.04.32-.49.07-.52-.07.04-.35.22-.16z" class="cls-67"/><path d="m229.71 156.61-3.17 4.53-1.68 5.16-1.02-1.3.21-1.99.5-.12.41-.21-.05-.53-1.48.17v-1.26l-3.09-9.83-.51-.18-.26.42-.39-.58-.22-.58-.62-.14-.34.38.03 1.06-1.04 2.66-.56-.33.01.92-.45.51-.15.6.06.5.45.19-2.87 7.47-8.54 3.12-6.54 6.51-1.08 1.49-.06 2.23-.52.14-.04-3.64-1.11.08-.76.35-.52-2.7-.96-6.78-1.3-1.53-1.95-.96-1.68-2.44-3.08-1.4 4.56-.56 2.35-.21 1.18-2.15 5.64-.36 5.71-.98.52 5.88 2.97 2.48.82-.84 3.29-3.04.04-8.21 3.07-2.28 2.8-2.61 4.53 6.73z" style="fill:#2d5047"/><path d="m181.15 133.36.23 3.31.35.74 4.53.36 4.34-.25-.15 1.45-.52 1.41-6.05 1.17-6.09.42 1.15-2.62 2.32-2.76-6.8-1.09-2.61.32-.79-.07-.49-.39.65-4.15.06-4.16.59.46.25.58 1.59-.09 3.61 3.04 3.84 2.34Z" style="fill:#3f5e54"/><path d="m159.01 153.04-4.13 1.79-4-.99-.89-1.03.37-1.48-.31-2.16.67-.64.18-.92 1.73-.47 2.07-.2.82-.54 1.22-.26.58.17.26.86 1.43 2.81z" style="fill:#ebca4c"/><path d="m169.84 155.25-.66 2.68-1.87 1.85-2.3.33-2.33-.86-1.24-2.92.8-2.86 3.13-1.44 2.68.82 1.78 2.39Z" style="fill:#feda47"/><path d="m143.09 160.48-1.18 1.81-1.87.78-1.69-.68-1.46-1.39-.92-1.26.17-1.69.25-1.21 1.24-1.13 1.24-.95 3.39 1.99z" style="fill:#f7cd49"/><path d="m166.18 149.87-.81 1.08-1.33.76-.95-.29-.96.04-.85-1.6.46-2.01 1.06-1.05 1.99.14.98 1.28z" style="fill:#fddb49"/><path d="m181.07 153.8.04 1.28-.11 1.21-.41.74-.69.66.52-2.65.06-2.71.59.7z" style="fill:#486554"/><path d="m189.92 140.37-.48 7.47 1.52 7.4 1.19.44 1.27.01-1.12 1.23-.06.92-6.91.77-3.51-.04-.83-2.28.11-1.21-.04-1.28 1.13-1.67.06-3.4-1.15-.09-.89.22-2.12-.42-1.81 1.18-.97 1.52-1.38 1.05-1.92 1.87-2.18 1.2-1.78-2.39-2.68-.82-3.14 1.44-.79 2.86 1.24 2.92-1.59-1.8-1.61-1.62-.43.22-.11-.83-3.51.53-2.16 2.23-.08 3.55 2.23 2.36 3.55.38 2.78-2.31 1.5 2.63.48 3.11-.2 3.82-.69.32-1.04-.35-4.13 1.2-2.96 3.15-.38-.06-.27-.43-.26-1.26-.48-1.11-2.57-.95-3.21 1.29-1.53 2.95-2.04-.96-2.76-.98-1.42-2.71-.6-3.04.02-.47.44-.34.59.04.4-.4-.17-.58-.59-.23-.62.35.46-1.31 1.14-.7 2.37-2.57 2.55-2.57-.98.42-.62.65-.58-.01-.49-.38-.83-3.72-3.4-1.99.02-.43.58-.86.81-.52 4.29.56 3.24.5 3.07-.19 4 .99 4.13-1.79 1.64-.57 1.48-1.01.97-.04.94.29 1.32-.76.82-1.08 3.46-.99 3.31-1.68 1.07.59 1.03.86 2.59-2.5.13-4.21 6.09-.42z" style="fill:#193e37"/><path d="m153.36 168.12-.1-1.94 1.06-2.12-.16 1.91z" style="fill:#416056"/><path d="m107.37 179.58 1.05.78.64 1.34 1.06.43 1.09.23 1.05.93 1.16.27-.33 1.91-1.16 1.44-.84.47 1.38.31-.5 4.42-1.12-.98-1.2-.87-.66-.7-.99.02-.32 1.19-.24 1.25-.33.24-.23.36-.87.07.38.46-.27.79-.74.5-.6.05-1.33-1.2-1.46.23-1.56-.75-1.59-.43-.48-.67-.21-.97-1.76.42v-.92l-.37-1.06-1.06 1.34-1.44.89.52-1.58 1.22-1.14-.11-.56-.31-.52.74-.75-.2-.75.44-3 .71-3.09.52-6.15 1.99-2.02.07-2.53 1.1-.25.94-.77 1.48-.26.73.5-.1.7-.66.6 2.13 4.06 1.68 4.38.27.96.7.41Z" style="fill:#7f9485"/><path d="m104.77 194.46-.5.42-.34.46-.52-.09-.41.15-.88-.62-.13-1.3 1.46-.23 1.33 1.2Z" style="fill:#f1f1f0"/><path d="m109.65 190.24-.57-.1-.2.29-.14 1.56-.66-.07-.65.07.56-2.44.99-.02.66.7Z" class="cls-306"/><path d="m100.79 183-.26-.84.17-1.11.42.65z" style="fill:#677d70"/><path d="m106.87 192.6-.15.43-.34.1-.38-.46z" class="cls-306"/><path d="m122.96 167.74-1.75 1.77-.56 1.12.41.96-.95.52-.83 1.03-.81-2.92.09-4.77 1.06 2.95.65-.7.89-.41 1.8.46Z" style="fill:#96a39e"/><path d="m252.67 99.77 4.5 3.76 3.17 5.38.54 3.56-.09 3.56.89.78 1.22.76 2.07-3.25 1.52-3.43.42.03.37-.13.3.15-.05.31-2.36 4.21.5 3.4.03.49-.08.48-5.46-2.94-1.31 1.51-.88 1.45-.47 1.46-.65-.05-1.96.1-3.35 1.65-2.69 4.82-6.41.99-7.12-4.8-3.01-2.69-5.13.69-4.11 2.87-1.37.53-1.05.67-.83.02-.98-.28 2.68-2.12 1.6-2.26 1.64-.68 1.64-.41 2.99.42 3.35.07 1.42-1.29 1.47-1.45.83-1.78-.82-1.93-.64-4.32-.04-4.66 1.8-2.22 2.45-1.87 6.78-4.26 6.69 2.71Z" style="fill:#738c74"/><path d="m240.29 74.85 3.25-.06 1.76.32 1.8.58.99 1.74 1.37 5.05.46 5.84-1.31 4.65-2.62 4.09-3.21 2.4-3.57 1.86-4.25 4.09-.83 1.51-.13 1.94-.23-3.74-2.81-5.3-2.99 6.2-3.67 5.56-7.9 10.02-2.55-.4-2.19.29.23 1.05-1.32 1.57-1.32 1.33-.67.35-1.02.34-.44-.3-.4-.69-.27-2.84-.48-2.88-4.38-.87.1-.28-.1-.29 1.43.16 1.64-.02-2.51-3.91-1.63-2.92.77.5.32.94 2.35 2.88 2.41 3.31-.02-4.39-.6-3.97-3.32-.62-2.97-.68-5.3-3.95-3.47-5.66 2.12-15.14 5.08.29 5.04.65 4.85 2.86 4.38 3.27.78-.63.57-.81 1.46-.72 1.26-1.25 5.93-5.03 5.22-3.97 1.99-.82 1.69-1.18.36.11.42.02.25-.15.08-.34 4.01-1.24 4.1-.74Z" style="fill:#b0c1a6"/><path d="m234 108.87-2.33 6.63-5.27 4.85-1.65.41-1.63.68-3.37.42-3.35-.25 3.82-4.99 4.08-5.03 6.66-11.76 2.81 5.3z" style="fill:#8c9f8d"/><path d="M257.48 96.88 254.75 98l-2.07 1.77-6.69-2.71 2.61-4.08 1.32-4.66.66.06.53.39.22.64.33.51 1.1 1.17.95 1.48 2.07 2.11z" style="fill:#22463f"/><path d="m234.95 105.41.04 4.67.64 4.31.82 1.93-.83 1.78-1.47 1.45-1.42 1.29-3.34-.07-3-.42 5.27-4.86 2.33-6.62.14-1.94.82-1.51Z" style="fill:#294e44"/><path d="m216.4 121.62 3.35.25 3.37-.42-1.59 2.26-2.69 2.12-4.72-.33-4.86-.04 1.32-1.33 1.32-1.57-.23-1.05 2.19-.29z" style="fill:#092e25"/><path d="m206.73 125.16-3.14.53-3.07.75.25-4.16.84-3.71 4.38.87.47 2.87.28 2.85Z" style="fill:#0c2f2b"/><path d="m226.43 33.29-.37.03-.15.22-.15.71-.36-.27-.2-.51-4.24-2.3-4.01-2.78-5.91-13.91L217.64 0l10.33 6.59 4.33 10.95-1.03 6.73-3.01 6.1-1.09 1.45z" style="fill:#61766e"/><path d="m243.45 48.28-6.28 1.03-6.45-.71 1.02-1.81.71-1.61-2.65 2.77-.66-1.24.03-1.48 1.26-7.32 4.13-6.45 8.47-3.62 9.23 2.65L251 41.07z" style="fill:#5c726b"/><path d="m225.44 38.52.46 1.95 1.42 4.22-.9 3.55-5.73-.88-5.69-1.04-.78-.43-.85-.21-6.28-6.14-1.97-8.62 11.83-.7z" style="fill:#596f69"/><path d="m227.96 45.22.16 2.1.27 2.05 1-.67.4-.75 2.65-2.77-.7 1.61-1.03 1.81-1.33 1.46-.93 1.82.78 12.5.05 2.84.6 2.93 4.39-4.66 4.99-2.14.94.08.13 1.38.57 1.13 1.54.5 1.55-.58-.51 2.53.71 2.32 1.97 1.79 2.63.42.02.45 2.32.73 5.13 3.27.43.62-.15.74.03.88.23.92.72.15 1.04-.09.54-.39.12-.87 1.67.46.74 1.4-.06-1.72-1.39-1.58 5.88-3.35 2.8-5.39.32 1.37.54 1.55.46-3.19.69-3.1-.09-1.4-.39-1.39.7-.07.21-.23-.1-.35-.04-.84.13-.85.83-3.66-.35-3.54.05-.78-.03-1.21.38-.06.31.69.58.37.1.54.42.36-.99 4.76-.76 4.8-.16 1.39-.06 1.48 1.72-.97 2.14-.37 1.11.41-2.36.88-3.27 3.21-.56 4.04-5.04 5.03-1.86 6.48-2.47-.7-2.59.65-4.44-4.79-5.93-2.25-.99-1.74-1.8-.58-1.76-.32.04-4.29-1.12-2.8-3.69-2.24-3.81-.22-1.1 1.91-.17 2.08-1.8.72-1.4 1.23-.48 1.99.28 2.13.25.98.53.9-1.69 1.18-1.99.82-1.58-1-1.64-1.24-2.5-.35-2.04 1.14-1.32-.45-1.29.35-3.32.74-1.65 2.8.06-.52-.26-.47-.39-.08-.37-.38.45-1.15.48-1.73 6.22.05 2.95-2.41.97.32.89-.29.66 1.32 1.32.72 1.39 1.11 1.97 1.01.12-9.41-2.6-6.72-.41-.75.53-.23.63.04.39.57.76.23.09-2-.12-1.87.03-1.79-.23-3.11-.44-4.44-.73-.95.9-3.55-1.42-4.22.55-.86-.53-3.25-.16-2.11.15-.71.15-.22.37-.03.81 5.72.72 6.21Z" style="fill:#25443e"/><path d="m229.17 45.24-.03 1.48.66 1.24-.4.76-1 .66-.27-2.05-.16-2.1.38.06.19.24zm-2.92-6.81.2 1.18-.55.86-.46-1.95.41-.11z" class="cls-225"/><path d="m208.69 65.3-.66.25 6.3 4.73 6.87 4.22-2.95 2.41-6.22-.05-6.88-4.94-2.56-7.84.27-.99.6-.62 5.24 2.83Z" style="fill:#687e74"/><path d="m223.05 74.52-.78-4.71-3.02-3.6 3.56-1.53 3.09-2.14 2.6 6.72-.12 9.41-1.97-1.01-1.39-1.11-1.32-.72z" style="fill:#cfd1d0"/><path d="m208.69 65.3 5.27.95 5.3-.04 3.01 3.6.79 4.71-.88.3-.98-.33-6.87-4.22-6.3-4.73.66-.25Z" style="fill:#5c756d"/><path d="m227.81 56.73-.79-.06-.85.07-.51.29-.25.65-3.22-5.22 2.71-.61 2.36-1.35.32 3.11.22 3.11Zm-.03 1.79.12 1.87-.09 2-.76-.23-.39-.57-.36-1.4-.27-1.42.87-.04z" class="cls-225"/><path d="m213.38 46.09.77.46.86.17 3.77 2.65 3.43 3.09 3.22 5.22.26.56.35.53.27 1.41.36 1.41-.63-.03-.53.22.41.75-3.09 2.14-3.56 1.53-5.3.04-5.27-.95-5.24-2.83-1.96-2.54-1.84-2.62-1.37-4.68-.24-4.84.88-.2.16-.45 7.01-2.17z" style="fill:#7f9286"/><path d="m215 46.31.11.21-.11.2-.86-.18-.77-.45-.09-.21.09-.21.85.21z" class="cls-225"/><path d="m216.26 57.13-1.88-.24-1.49-1.03 1.8.22z" style="fill:#6a7f76"/><path d="m244.52 62.82-.05.89.28 1.23 2.89-1.61 3.2 1.06 1.87 2.25.1 2.99-1.55 2.22-2.45 1.07-4.6-2.21-.71-2.32.51-2.53-1.55.58-1.54-.5-.57-1.12-.13-1.39 1.98-1.08z" style="fill:#f8d046"/><path d="m239.27 63.35-4.99 2.15-4.39 4.65-.6-2.93-.05-2.84.46-2.99.21-3.39 2.84-.87 3.2.35 2.17 2.57 1.15 3.29Z" style="fill:#c5c7c3"/><path d="m243.53 74.79-3.25.06-1.71-1.24-.29-2.32-2.87-.61-.41-.84-.11-1.27-.64.58-.57.09.17-2.08 1.1-1.91 3.81.22 3.69 2.24 1.12 2.8-.04 4.29Z" style="fill:#dbba40"/><path d="m235.41 70.68-1.78 1.8-1.48 2.05-.86.58-1.01.2-.28-2.13.48-1.99 1.39-1.23 1.81-.72.58-.1.63-.57.11 1.28z" style="fill:#b8c0b3"/><path d="m232.17 76.83-.08.34-.25.15-.42-.02-.36-.11-.53-.9-.25-.98 1.01-.2.86-.58.22.76.09.85-.73.36z" style="fill:#8c8e84"/><path d="m240.29 74.85-4.1.74-4.01 1.24-.44-.33.73-.36-.09-.85-.22-.76 1.48-2.05 1.78-1.8 2.87.61.29 2.32z" style="fill:#1d403e"/><path d="m181.15 133.36-3.84-2.34-3.61-3.04-1.59.09-.26-.58-.58-.46-.78-2.66-1.04-2.58-.55-.8-.24-1.13 11.45 1.21 10.43-5.5 2.37.42 2.06 1.08-10.3 5.71z" style="fill:#2d4f48"/><path d="m165.17 117.01-1.01.68-1.27.29-5.24.25-4.36-2.86.86-.53-.65-.14-.37-.5 4.57-1.65 4.19-2.61 1.42 3.61z" style="fill:#798f7e"/><path d="m189 108.39 1.65 3.2 2.49 3.03 4.01 2.08 4.46 1.29.1.29-.94 3.99-.25 4.16-5.94 4.55-3.98 6.52-4.34.25-4.53-.36-.34-.73-.24-3.32 3.52-10.58 10.3-5.71-2.06-1.08-2.37-.42-10.43 5.51-11.45-1.22.24 1.13.55.8-1.15-.46-1.41-.7-1.35 1.7-1.73.77.8-.69.99-.62-.31-1.41-.07-1.32 1.3.5 1.53-.14-2.88-2.42-1.86-3.45-1.42-3.61 1.89-2.39 1.74-2.53 5.85-1.58 6.82.33 4.14 1.15 3.99 1.97 1.48.42 1.19 1.07Z" style="fill:#8ea28f"/><path d="m165.23 119.07-1.48-.15-.85-.93 1.27-.29 1.01-.68 2.88 2.42-1.52.13z" style="fill:#174037"/><path d="m192.45 114.44-.85.23-.54-.28-.32-.64.08-.75.99.74z" style="fill:#3a594d"/><path d="m161.79 89.65-1.53 1.03-1.35.01.89-1.17-.05-1.72-.72 1.3-.12 1.59-.28.08-.27-.08.15-1.56.82-1.58 1.55.47.9 1.64Z" style="fill:#b4c0b8"/><path d="m274.28 165.97 7.02 5.28.61-.01.43.17.34.5.25.56.74 2.42.24 1.18-1.6 1.04-2.66 2.14-1.54.52-.23-.31-.34-.22-.21-.5-.72 1.22-.64-.22-.54-.34-.99.43-.68-.77-.73-1.14-.53 1.38-.1 1.71-2.08 2.58-4.2 3.11-4.7.35-2.95-.07-2.23-.6-2.04-.4-.38-.69-.71-.34-.9-.99-.58-2.07.11-2.16.08-.52 5.38-.72 4.96-2.49.75.37 1.11-.34.24-.41-.16-.71 3.98-4.27 3.31-4.81 1.54 1.9.77-.9z" style="fill:#5b746a"/><path d="m254.19 185.98-.2.11-.54-.21-.29-.24-.06-.69.71.33zm23.34-6.73-.21-.07-.23.01.23-.44z" style="fill:#fcfcfc"/><path d="m264.09 174.91.17.71-.25.41-1.11.34-.75-.37z" style="fill:#455f58"/><path d="m273.83 176.89.83.1.46.52-.35.27-.37-.02-.64-.19z" style="fill:#dadedb"/><path d="m295.18 126.09-1.1 5.65-1.51 5.76-1.67 1.42-.5 1.89-1.35.9-1.55.29-.9-.15-.79.32.25-1.37.48-1.32 1.22.12 1.31-.27.7-.72.5-1.2-.37-1.16-.91-.77-1.43-.26-1.43.54-1.76-1.1-1.44-1.62 1.96-2.97-.19-3.15-2.65-2.44-3.55.2-.86-.98-.95-.68-2.41.25-1.96.77-2.88-1.76-2.76-1.83 2.88-.62 3.21.29 13.14.07 4.85 2.22 4.41 3.68Z" style="fill:#254941"/><path d="m285.11 117.47-1.15.44-.85 1.33 6.71 1.89 5.48 4.38-.11.58-4.42-3.68-4.84-2.22-13.14-.07-3.22-.29-2.87.62-.99-.19-.06-.43.08-.49-.03-.48h9.98l.49-.1.29-.18.24-.46-.04-.49 1.94-2.84 2.32-2.49 2.19 2.51 2.03 2.66Z" style="fill:#587462"/><path d="m293.34 145.73-4.81 1.01-.77-1.87-1.53-1.37.6-.88.67-.62 1.55-.29 1.35-.9.9-.28 1.31-.23.58 2.76z" style="fill:#0e362e"/><path d="m311.99 114.32-2.58.83-2.67.58-1.79-.08-1.79.06 1.62-3.94 3.4-1.74 3.23-2.05.48 1.7.75 1.9.68.29.39.57-.95 1.17z" style="fill:#48665d"/><path d="m301.49 116.04-.99 2.29-1.77-.37-2.15-.26 3.34-1.43 2.8-2.36-.57 1.19z" style="fill:#516c5d"/><path d="m319.35 120.79-4.57-.48-4.7.16-.02-.26.11-.3 9.96-.02-.32.63z" style="fill:#617768"/><path d="m334.87 101.72-.18.5.08.43.7.83-.45 1.05.31.5-.28.34.3.48-.43.04-.35.29-2.76 4.31-3.51 3.46-.46-1.05-.66-1.19-3.28.2-3.32.46-1.49.71-1.55-.21-1.08.08-.8.93-1.84.13-1.82.31.77-.7.95-1.17-.39-.56-.68-.3-.74-1.9-.49-1.7 4.89-5.39 3.43-6.16 2.25.23 4.99.93 4.74 1.43 2.84-.39 2.77.64h-1.07l-.77.58.02.47-.14.76-.47.07-.41.27-.02.31z" style="fill:#6d8477"/><path d="m282.79 107.35-1.26 2.64-.64 2.31-2.32 2.49-1.94 2.84-4.94.58-3.92-.08 5.3-4.72 4-1.87.57.13.43-.17-.04-.48-.22-.24-.28.07h-.5l1.83-1.55 1.58-1.79 1.57.47.3-.57.5-.06Z" class="cls-95"/><path d="m290.41 97.4-1.33 2.35-2 1.95-1.14-.12-1.16-.01-1.99-1.3-.34-1.47.3-1.44 2.02-1.55 1.17-.5.69-.72 2.31 1.33 1.46 1.47Z" style="fill:#eac447"/><path d="m296.29 92.21-1.45 2.33-2.84.42-.49-1.36.2-1.41.64-1.3 1.51-.65.91.06.75.27.65.67.12.96Z" style="fill:#fad253"/><path d="m284.78 101.58-.65 2.39-.41 2.44-.55.39-.38.55-.51.06-.29.57-.87-.22-.7-.25 1.39-3.54.98-3.68z" style="fill:#516a5e"/><path d="m317.28 84.52-1.94 1.7-1.77 1.94-2.52.06 2.85-2.36 2.9-2.27.19.47.3.46Z" style="fill:#f0f0f0"/><path d="m287.07 101.7-1.57 2.45-1.79 2.26.41-2.44.65-2.39 1.16.01 1.14.12Z" style="fill:#35564b"/><path d="m262.84 106.59-1.8 1.73-.7.58-3.17-5.38-4.5-3.76 2.07-1.77 2.73-1.12 1.6.11 1.89-.11-.05-.44-.17-.63.26-.27.43-.06-.03 5.66 1.42 5.45Z" style="fill:#133731"/><path d="M277.02 110.85h.5l.28-.07.22.24.04.48-.43.17-.57-.13-4 1.87-5.3 4.72 3.93.08 4.93-.58.03.49-.23.46-.29.18-.49.09h-9.98l-.5-3.39 2.36-4.21 4.8.45 4.68-.85Z" style="fill:#153933"/><path d="m266.5 110.88-1.52 3.43-2.07 3.25-1.22-.76-.89-.78.08-3.56-.53-3.56.7-.58 1.8-1.73 1.93 2.05 1.73 2.24Z" style="fill:#234a40"/><path d="m263.7 86.9.38 1.36.18 1.39-1.71 1.13-1.72 1.46-.6-3.08-.86-3.14 4.33.87Z" style="fill:#052f2d"/><path d="m219.57 151.48 3.08 9.07.36 2.01-1.09 1.83.41.78.4-.83.75-.25-.51 1.32-.08.54-.19.18-.35-.05-.54-.62-4.18-1.04-4.16-.28 2.87-7.47.4-1.17.25-1.22 1.04-2.66-.03-1.06.34-.38.62.14.22.58z" style="fill:#1c413a"/><path d="m205.79 183.42-1.56 1.22-1.76.74-.77.06-.65.39-2.38-1.35-1.46-2.39.34-2.81 1.74-2.18 5.29-.12 1.73 3.05z" style="fill:#fddc49"/><path d="m96.15 171.57-.33-.12-.03-.41.05-.38.23-.07.24.53-.15.46Z" class="cls-199"/><path d="m282.93 133.05 1.44 1.61 1.76 1.11-.43 1.93.84 1.78-.48 1.32-.25 1.37-.48.06-.45-.47-1.14.81-1.04-.21-.75-.72-.77-.22-1.16.31-1.73 1.65.21-3.83 1.45-.48.86-.94.09-1.47-.9-1.31-1.55-.18-1.52.9-2.37-2.44-2.73-1.84.67-.6.28-.76 1.7.69 1.79-.1 2.9 2.3 3.78-.27Z" style="fill:#1b3d39"/><path d="m282.7 142.36.09.94 2.13.82-1.5 4.06-6.89-.1 1.12-2.26.64-2.44 1.73-1.65 1.16-.31.77.22z" style="fill:#43665b"/><path d="M255.46 149.12v4.85l-1.3 5.57-1.34-4.39-1.11-4.45.99-.91-.07-.22-.34-.06 1.39-2.45z" style="fill:#95a788"/><path d="m285.81 142.16.79-.32.9.15-.67.62-.6.88 1.53 1.37.77 1.87 4.81-1.01.39.51-1.35.59-1.29.79.35 1.24 1.35.71.76.14.24-.14.07-.45-.02-.4-1.02-.35.73-.47.75-.34 3.83 4.84-5.69-1.39-1.12-.73 1.62 5.72 8.01 9.25-.73 1.17.02 1.62-.72 1.54-3.32 2.72-4.03.81-4.16.55-2.6-.72-2.49-.49-.25-.56-.34-.5-.43-.17-.61.01-8.27-6.27-.7-1.76-.89 1.25-.05 1.36-3.31 4.81-3.98 4.27-1.94 1.09-4.96 2.49-5.38.72 1.13-6.06-.26-5.87 1.48-7.75 1.3-5.57v-4.85l4.65 3 5.48 1.31 6.17-1.38 4.77-3.97 6.89.1 1.5-4.06-2.13-.82-.09-.94 1.04.2 1.14-.8.45.47.48-.06Z" style="fill:#6c8476"/><path d="m274.28 165.97-.58.86-.78.9-1.54-1.9.05-1.35.89-1.26.7 1.76z" class="cls-71"/><path d="m294.29 147.56-.75.34-.73.47 1.02.35.02.4-.07.45-.25.13-.75-.13-1.35-.71-.35-1.24 1.29-.79 1.35-.59.37.64z" style="fill:#173c38"/><path d="m288.38 151.27-.1-1.32-.47-1.22-.44.59-.41.71-1.09-.26-.86-.94.25-3.73 1.81.95 1.26 1.3 1.05-.21.81.26-.45 2.35z" style="fill:#184039"/><path d="m262.72 62.45-5.24-.83-5.33 1.18 1.1-1.88 2.3-.74 3.99.4 3.18 1.86Z" style="fill:#d9dedf"/><path d="M265.6 62.92v.99l-1.34-.62-1.11-.88 1.23-.01 1.22.53Z" class="cls-24"/><path d="m128.79 58.57-.45 1.91-1.45 1.04.92-2.85z" style="fill:#476359"/><path d="m154.71 33.75.26 1.67.56 1.8 1.52-1.61.31-1.82.23-.15.25.05.23.44.46.11-1.37 1.8-1.1 2.08.35 5.72 1 5.54.31 2.29.79 2.21 1.47-1.85.85-1.92 1.42-.16 2.66-2.17 3.17-2.74 2.99-2.33 2.4-.95-2.33 1.86-1.86 1.92-1.62 1.15-1.34 1.62-1.34.56-.17 1.06-.71-.23-.39.08-.44.47.44.44.58-.08.4.24-.04.4-1.19.01-1.61-.22-.1.38-1.95 1.78-1.03 2.52 1.02 7.09 1.64 7.23.4.07 1.65 2.8 1.69-.62-.81-.27-.84-.54 2.52-.95.43 1.15 1.13.44-.45.48.08.35.26.09.08.27-.3.21-.24-.02-.69-1.02-1.11.76-1.32.57-.71.97-.2.6-.47.51-.6-.01-.19-.58-.01-.34-.44-.11-.76-1.65.22-1.19-.62-.83-2.31.35 1.5 1.82-1.99-.44-1.75-.56.41-2.3-.28-1.62.72-.6-.53-.11-.44-.48.53-.54.51-.16.31-.19.23-.64-.38-.62-.22-.23-.02-.19.17-.39.32.03 1.64 1.97 1.16 2.36-.72-3.7-.59-3.46-.36-3.42-.72-2.66-2.29-1.52-4.35.47-4.21.77-2.56-.64-2.57-.44-1.94.68-1.99.51-.91-1.88-.23-2.32-1.4-2.24-1.21-2.14 2.42-2.72.38-.94-.1-.86-.52-.18-.25-.46.17-1.76.68-1.18.04 1.67.23 1.96 3.63-.09 3.35.59 6.15 3.44 4.94 5.28.89 1.24 1.18.87-.1-3.42-.54-3.44-.81-4.37-2.62-3.31-.87-1.24-1.12-1.15 1.91.44 1.9 2.05-.38-2.86-.56-2.5-.48-2.87.03-.85-.39-.63.11-.23-.14-.21-.3-.93-.78-.52-.92-.44.27-.38 1.06-.48.56.45.07-3.58.85-3.21.09 3.87-.26 4 .41 3.03.86 2.95Z" class="cls-3"/><path d="m187.77 56.15-.18.88.42.66-3.02 7.56-6.06 5.73-.5.84-.6.74-.64-.21-.59-.31-3.47.6-3.7.49-1.04-.14-.81.34-.09-.27-.25-.09-.08-.35.45-.48-1.13-.44-.43-1.15-2.52.95.84.54.81.27-1.69.62-1.65-2.8.85-.35 1.05-.33 8.21-11.87 14.28-3.31.96.19.56.6.13.54-.09.56Z" style="fill:#75897e"/><path d="m164.64 51.26.04-.4-.39-.23-.59.07-.44-.44.44-.47.39-.07.71.22.17-1.06 1.34-.56 1.34-1.62 1.62-1.15 1.86-1.93 2.33-1.85-2.4.94-2.99 2.34-3.17 2.74-2.66 2.17-1.42.16-.25-1.55.83-1.4 5.75-7.69 4.12-3.76 4.56-2.06 4.45.26.74 3.87-1.47 4.03-6.08 7.35z" style="fill:#6e8678"/><path d="m151.95 34.87.47 1.07.3 1.14-1.91-.44-.53-.74-.9-.22-1.22-1.33-1.8-.96-.57-.73-.68-.55-1.49.27-.71-.88-1.19-.12-.54-1.18-.76.03-.51.52.84.62h.97l.79.85 1.11.15 2.66 2.02 3.09 1.28.52.79.91.17 1.12 1.15.87 1.24-4.82-.45-4.73-.89-6.43-3.9-4.3-6.38 6.8-1.56 6.57 2.36 3.39 3.08 2.68 3.6Z" style="fill:#657d70"/><path d="m153.62 19.9-.85 3.22-.07 3.57-.55-.45-1.07.47-.27.39-7.69-7.55.35-10.56 7.11 3.84z" style="fill:#708778"/><path d="m166.57 25.58-.37.08-.09.45-.99 1.04-.51 1.45-.57.82-1.8 1.3-.88 1.15-1.62 1.15-1.21 1.21-.46-.11-.23-.44-.27-2.73-.18-2.94 2.64-8.92 7.7-4.87.61 5.91-1.76 5.43Z" style="fill:#7b9080"/><path d="m152.79 39.03 2.62 3.3.81 4.38.54 3.44.1 3.42-1.18-.87-.89-1.24-4.94-5.28-6.15-3.44-.11-1.75-1.34-.25-1.08-.57 1.15-.45.69-.52.23-1.5 4.74.9zm6.61.3 5.79.04 5.31-5.12.09.96.68.5-4.12 3.76-5.75 7.69-.83 1.4.25 1.55-.85 1.92-1.47 1.85-.79-2.21-.31-2.29-1-5.54-.35-5.72 1.1-2.08 1.37-1.8 1.21-1.21 1.62-1.15.88-1.15 1.01-.77-3 4.25z" class="cls-225"/><path d="m170.5 34.25-5.31 5.12-5.79-.04 1.7-1.02 2.2-.25.09-.47-.22-.61 4.67-6.25 2.64-5.9.53-.22.6.04.64 4.69z" style="fill:#6b8276"/><path d="m159.4 39.33.85-5.11 2.99-4.25.79-.53.57-.82.51-1.46.99-1.03-.02.49.24.45.62-.52.18-.39 1.66-.71 1.69-.6-2.64 5.9-4.67 6.25.22.62-.09.46-2.2.25-1.7 1.02Z" style="fill:#627e6f"/><path d="m152.71 37.09-.29-1.14-.48-1.07.68-.16.82-.02.25-.33-.02-.59.56 2.5.38 2.86zm4.64-3.3-.32 1.81-1.51 1.62-.56-1.81-.26-1.66 1.32.19zm9.78-7.65-.18.4-.62.51-.24-.44.02-.5.09-.45.37-.08.12.44zm-14.32 2.85-.88-.49-.2-.96.78.52z" class="cls-225"/><path d="m171.4 77.78-.27 3.9-1.12 3.74-3.12.82-1.66.7.77-.82.54-.93-.13-.99-.74-.57-.04-.56.86-.83-.99.14-.38-.05-.42-.97.23-.49.47-.3.55.41.42.64 1.15-3.16.97-2.42 1.48.8 1.42.95Z" style="fill:#a0aba4"/><path d="m176.6 72.04-1.36 1.95-3.05 2.81-.93.19.14.79-1.42-.94-1.48-.81-.37-.55-.55-.47-.15-.56-.39-.71.01-.22.25.02.29-.21.81-.34 1.04.14 3.7-.49z" style="fill:#062b26"/><path d="m146.49 55.16.03.44 5.52 3.11 4.14 3.77.44.89.3.98-.32-.03-.17.39.02.19.22.23.38.62-.23.64-.31.19-.51.16-.53.54.44.48.53.11-.72.6.28 1.62-.41 2.3-1.32-.05-1.17.31-.59.02-.3-.42-.44.03-.51.42-3.29-1.91-7.21-1.51-3.53-.85-3.6-1.22-2.93-3.36-.82-4.28 3.32-2.84 4.24-1.45 1.99-.51 1.94-.68 2.57.44 2.56.64Z" style="fill:#6a8176"/><path d="m161.3 74.88-1.48.79-3.31.15-.92-.83-.91-1.17-.9.41-.85.72-.61-.47-.07-.66.53-.53.32-.65 1.17-.3 1.32.04 1.76.56 1.98.44-1.5-1.82 1.14-.76 1.17.41.4 2.02z" style="fill:#b9babb"/><path d="m156.92 64.35-.3-.98-.44-.89.71.07.78-.07.45-.34.29-.61.58 3.46.73 3.7-1.17-2.36-1.63-1.97Z" style="fill:#dfdfe0"/><path d="m149.37 35.69-3.1-1.28-2.65-2.02 1.49-.27.68.55.57.73 1.8.96 1.22 1.33Zm-7.65-4.31h-.97l-.84-.62.5-.52.77-.03zm1.9 1-1.11-.15-.79-.85 1.19.13zm7.19 4.26-.91-.17-.52-.79.9.22z" style="fill:#486358"/><path d="m167.04 73.53-.01.22.09.17-.55.12-.47.55-.27.56.51.24 1.23-.38.54.46.38.56-.97 2.42-1.15 3.16-.42-.64-.55-.41-.46.3-.24.49.02.47.4.5 1.37-.09-.86.83.04.56-1.77 2.2-2.82.48-5.18-1.31-2.68-4.38 1.36-2.48 1.93-2.31 3.31-.15 1.48-.79.44.11.01.34.19.58.6.01.46-.51.21-.6.71-.97 1.32-.57 1.11-.76z" style="fill:#909f92"/><path d="m167.57 75.01-.35.41-.88-.03-.24-.8.47-.55.55-.12.3.53z" style="fill:#d6d6d7"/><path d="m160.87 84.03-.65-.74.18-1.17-.72.11-.51.3-1.01-.74-.89-.79.37-.43.52-.33 3.71.49-.81 1.25-.2 2.04Z" style="fill:#7a8e7f"/><path d="m257.51 121.3-.65 1.65-.41 1.71-1.48 2.71-.57 3.16-1.11.37-.25 1.19.21 1.61-.23.41-.47.07-.43-.44-.15-.51-2.92 2.11-2.22 3.05-.5-.31-.28-.48 2.22-2.4 2.61-2.36.04-.42-.1-.12-.62.08-.51.24-3.82 1.15.37 1.12-.37.49-.47.37-.14.72.2.75-2.2.46-1.79.94-.94 2.34-.13 2.43-5.74 9.43-2.4 1.97-2.55 1.81-6.9-4.16-4.53-6.73 4.22-7.47.03-8.4 3.26-1.37 3.23-1.62 1.66-1.69 1.74-1.58 11.1 7.59 2.52 1.64 2.89-1.27 2.91-1.02 2.84-4.42 2.17-4.85z" style="fill:#597764"/><path d="m253.67 147.06-1.39 2.45-.57-.73.33-2.75-.26-.96-.61-.83.27 3.31-1.51 2.73-2.79-.47-3.02.23-.43-.38-.41-.16.57-1.69.71-1.63 1.16.1 1.06-.66 1.97-2.52-.38-3.14 1.05-.29.9-.71 1.29 3.85 2.07 4.25Z" style="fill:#385d52"/><path d="m242.56 145.71-1.83 2.74-.48 2.42-2.82.92-2.77 1.04 5.74-9.43 1.17 1.07z" style="fill:#305549"/><path d="m244.56 146.18-.71 1.63-.57 1.69-3.03 1.37.48-2.41 1.83-2.75 1.01.11z" style="fill:#153a37"/><path d="m266.05 64.42-.36-.07-.09-.45.38.14z" class="cls-24"/><path d="m163.81 123.1-.24 1.34-.99.87-2.28 2.3-1.84 2.7.82.9-1.11-.12-3.86 5.23 1.8-3.4 1.77-3.04-.27-.23-.34-1.12 2.85-1.26z" style="fill:#94a793"/><path d="m150.04 149.17.31 2.16-.37 1.48-2.54-1.79-1.75-2.12 2.46-.44z" style="fill:#49685c"/><path d="m138.88 154.34-.02.43-1.24.95-1.24 1.13-.25 1.21-.17 1.69.92 1.26-1.9.43-1.87-3.38-3.84-1.35 2-3.06 2.75-3.19.09 2.53 1.08 1.81 1.94.08 1.74-.54Z" style="fill:#627759"/><path d="m135.76 159.56-.55.42-.16-.85-.22-.47-.26-.29.39-.26.36.06.22.47.23.93Z" style="fill:#d6c058"/><path d="m139.36 75.89.1-2.44.34-2.37.81.94 1.17.94z" style="fill:#e1e5e1"/><path d="m256.86 121.26-2.17 4.85-2.84 4.42-2.91 1.02-2.89 1.27-7.84-5.26-2.49-2.77-3.29-1.2-3.4 3.27-3.23 1.62-3.26 1.37-.99-1.85-.9-1.91 1.05-.67 1.37-.53 4.11-2.88 5.13-.68 3.01 2.69 7.12 4.8 6.41-1 2.69-4.81 3.35-1.65z" style="fill:#183c36"/><path d="m204.78 154.34 3.91-1.67 3.73-2.06-.05 8.21-3.28 3.04-.82.84-2.96-2.48z" style="fill:#49635e"/><path d="m209.26 125.46 4.86.03 4.72.34.98.29.83-.03.9 1.91.99 1.85-.04 8.4-4.21 7.47-2.8 2.61-3.07 2.28-3.73 2.06-3.91 1.67-5.71.99-5.64.35-1.27-.01-1.19-.44-1.52-7.4.48-7.47.51-1.41.16-1.45 3.98-6.52 5.94-4.55 3.07-.75 3.14-.53.4.7.44.29 1.02-.34z" style="fill:#9da7a1"/><path d="m214.92 134.7-.5-.86-.46-1.41-2.46 2.09-2.42 2.22-2.11 2.27-2.59 1.91 6.9-7.17 8.31-7.36-2.33 2.8-2.37 2.62zm-11.62 7.22-3.38 3.89-3.8 3.74-1.09.4.53-.82 3.88-3.8z" class="cls-195"/><path d="m214.92 134.7.57 1.56-.37 1.8-.31-1.78zm-10.54 6.22-.47.71-.61.29.03-.54.33-.46z" class="cls-195"/><path d="m216.99 154.28-.25 1.22-.4 1.17-.45-.19-.06-.5.15-.6.45-.51v-.93z" style="fill:#5f796f"/><path d="m265.63 119.83.07.43.38.1 5.23 4.2.73.22.23.48-.58.73-.06 2.35 1.13 2.08-.28.76-.67.6-7.81-.59-7.95 1.18-1.45.88-1.37.44-.21-1.61.25-1.19 1.11-.37.58-3.16 1.47-2.71.1.39.22.39.23-.08.41-.35.79-2.23 1.09-1.97-.52-.72-.79-.24.88-1.45 1.31-1.51 5.46 2.94Z" style="fill:#325548"/><path d="m256.45 124.66.41-1.71.65-1.65.47-1.46.79.24.52.72-1.09 1.97-.79 2.23-.41.35-.23.08-.22-.39-.1-.39Z" style="fill:#0c2d2d"/><path d="m158.91 90.69.12-1.58.72-1.31.05 1.72z" class="cls-71"/><path d="m282.93 133.05-3.78.28-2.9-2.31-1.79.1-1.7-.69-1.13-2.08.06-2.35.58-.73-.23-.49-.73-.21-5.23-4.2h.31l.29.09 2.76 1.83 2.88 1.76 1.96-.76 2.41-.26.95.68.86.98 3.55-.2 2.65 2.44.19 3.15z" style="fill:#fcd946"/><path d="m286.54 139.48-.84-1.79.43-1.92 1.43-.55 1.43.27.91.77.37 1.16-.5 1.21-.7.71-1.31.27-1.22-.12Z" style="fill:#fadc43"/><path d="m252.54 134.18-1.17 2.37-1.06 2.41-.89.71-1.06.29-1.54-1.57 2.22-3.05 2.92-2.11.15.51z" style="fill:#1c423e"/><path d="m271.82 131.79 2.73 1.84 2.37 2.44 1.52-.9 1.55.18.9 1.31-.09 1.47-.86.94-1.45.48-.21 3.83-.64 2.44-1.12 2.26-4.78 3.96-6.16 1.39-5.48-1.31-4.65-3-1.79-2.06-2.07-4.25-1.29-3.85 1.07-2.41 1.16-2.37.46-.08.24-.4 1.36-.45 1.46-.87 7.96-1.18z" style="fill:#d2d293"/><path d="m261.3 139.96-2.03 2.3-2.83 1.53 2.24-2.21zm4.78-3.35-2.28 1.94-2.5 1.41 2.09-2.11zm0 0 .73-.61.85-.1-.69.76z" style="fill:#b0bd87"/><path d="m246.04 137.6.28.48.5.31 1.54 1.57.38 3.14-1.97 2.52-1.06.66-1.16-.1-.99-.36-1.01-.11-.99-1.25-1.17-1.06.13-2.44.94-2.33 1.79-.94 2.2-.46.19.29z" class="cls-222"/><path d="m246.04 137.6-.4-.09-.19-.29-.2-.75.14-.72.46-.37.38-.49-.37-1.12 3.82-1.15.51-.24.62-.08.1.12-.04.42-2.61 2.36z" style="fill:#123736"/></g></g></svg>