<svg xmlns="http://www.w3.org/2000/svg" id="Layer_2" data-name="Layer 2" viewBox="0 0 403.12 420.31"><defs><style>.cls-17{fill:#f0f1ed}.cls-18{fill:#4b695b}.cls-19{fill:#4d7055}.cls-25{fill:#f2f4f1}.cls-26{fill:#1a372d}.cls-45{fill:#648766}.cls-47{fill:#c46863}.cls-48{fill:#4f695a}.cls-57{fill:#b5cba2}.cls-66{fill:#eef0ec}.cls-80{fill:#70806d}.cls-97{fill:#476c4f}.cls-102{fill:#f4f5f2}.cls-103{fill:#f9faf7}.cls-107{fill:#355642}.cls-116{fill:#82a27a}.cls-140{fill:#5e8160}.cls-149{fill:#fefeff}.cls-169{fill:#b9c0a4}.cls-190{fill:#162e28}.cls-204{fill:#81a278}.cls-209{fill:#c1c9b0}.cls-216{fill:#834845}.cls-242{fill:#f5f4f4}.cls-269{fill:#eff0ed}.cls-284{fill:#d0debc}.cls-307{fill:#f6f6f5}.cls-335{fill:#eff1ed}.cls-340{fill:#f3f2f0}.cls-359{fill:#633233}.cls-372{fill:#f2f2ef}.cls-377{fill:#45674e}.cls-382{fill:#28473a}.cls-386{fill:#4d7253}.cls-387{fill:#92a98a}.cls-428{fill:#813f40}</style></defs><g id="Layer_1-2" data-name="Layer 1"><g id="Generative_Object" data-name="Generative Object"><path d="m368.16 298.99 1.47 3.68 3.34 3.74.24.96-.18 1.5-3.61-4.17z" class="cls-149"/><path d="m44.44 148.74.07.86.67.76 6.95 9.86 4.42 8.78-1.92 1.81-1.2.94-.96 1.12-4.81 1-4.83 1.9-3.55.99-3.24 1.15-21.19-6.84-13.02-19.19 29.76-7.76z" style="fill:#577c5c"/><path d="m311.29 49.12-5.86 8-1.82 1.81-1.7 1.84 2.24-.25 1.55-.31-.39.75-.66.57-1.68.29-2.05.18-16.63 16.26 5.75.83 4.52 2.59-.47 1.17-.69 1.11-4.22-1.77-4.31-1.52-1.39-.74-1.42.7-.49.14-.09.46-1.57 1.2-1.22 1.54-.98.71-.73 1.02-.03.56-.23.49-.53.05-.24.55-.56.06-.11.55-3.06 2.33-2.78 2.9 2.91 3.02 2.63 3.05 4.01 8.39 1.48 9-.16.48-.29.38-8.88 4.17-4.4 9.02-.17 3.75-.33 3.48-2.85-3.29-1.98 2.81-2.02 2.24 1.21-2.67 1.2-3.16-1.56-1.38-1.79-1.08-2.21-2.6-2.35-2.5-.53-.72-.57.72-.45.26-.29.4-1.35.62-1.34.33 3.26-2.9-3.15-9.48-.33-6.97.35-6.59 3.91-7.56 5.51-6.59 4.18 1.36 3.94 2.33 11.75-11.4-1.09-2.71.45-.31.63.14.56.92.86.41 4.21-5.73 1.67-6.73-.02-.44.45-.24.58 1.54.2 1.27-1.11 5.08 10.59-9.5 6.91-7.24 6.59-7.46.46-.29.33-.44.23.26.07.47Z" style="fill:#335342"/><path d="m136.17 354.05 8.07 2.51 6.66 5.53 6.83 18.26-5.08 19.2-17.22-9.25-9.14-16.88.3-9.13 4.18-7.86 1.12-.87.94-1.13.65-.42.41-.63-.29-.88.58.71.42.75z" style="fill:#a8c095"/><path d="m325.3 71.69.34.48.6.03 2.42 3.41.31 3.99-1.01 2.8-1.26 2.65-2.85 3.15-3.5 2.66-.97.62-.26.79-7.89 7.46-6.73 3.07-7.25 1.41-.91.57-.72.6-.06-.62.03-.56 4.74-6.48 4.5-6.84-3.53 3.4-.37-4.11-.26 1.9.63 2.21-.1 1.39-1.22 1.15-2.25 3.38-2.5 3.02-1.11-3.18-.61-3.3-.92.89-.26 1.19-2.86-1.1-2.36-1.37-2.82-2.33-2.24-2.86-.29-2.6 1.91.73 2.2.21-2.55-1.01-2.66.39-.85-.58-1.08-.42-1.18-2.16.95.05.74-.47.55.12.58-.12 1.13.54 1.12-.54 5.28.64 5.26 1.39.63-1.77-.39-1.58.7-1.11.46-1.17 6.98-8.48 9.22-6.04 7.85 1.07 1.49 1.44z" style="fill:#688b69"/><path d="m310.67 326.67 16.59 16.07 8.58 8.67 9.02 8.65-10.67-11.7 3.63-.6-1.6-.32-1.69-.16-.63-.98-.87.93-3.97-3.72-3.31-2.9-.99-1.17-.39-1.16-6.48-5.48-5.43-5.99.55-.02.52-.19.88.06.86-.17 24.42 10.24 8.01 26.35-18.07-2.58-15.34-9.23-5.92-10.95.2-12.42.69-.75.52-.89.4.35.5.05Z" style="fill:#e56a5c"/><path d="m301.37 39.62-2.07 14.25-8.79 11.5-1.93 1.27-1.35 1.6-.2-1.28-.58-1.53-.45.24.02.44-.44.03-9.61-24.81 13.2-24.4 8.78 10.45 3.41 12.24Z" style="fill:#4f7456"/><path d="m124.49 326.5 2.69 3.26 2.18 3.61 1.57 5.84-.33 5.92-7.07-3.91-.38-1.58-.85.5h-.93l-1.33-1.14-5.97-2.46-6.6-1.88 14.85 6.87 8.3 5.41-.47-.1-.53.09-4.06 2.7-.28-.07-.83.25-.1.43-13.61.48-12.19-6.65-3.88-4.7-3.35-4.82-1.34-3.86 3.2-2.1 2.12-2.64 3.21-1.35 2.83-2.01 3.27-1.64 2.36-.32 9.28 1.5 8.24 4.34Z" style="fill:#92af86"/><path d="m119.94 97.57-.55.52.07 1.16-2.44 5.65-2.1 5.53-2.66-1.22-3.03-.38-2.54 1.48-1.82 2.4v8.34l4.42 6.75.11 6.65 1.57 6.41-1.19 2.88.14 3.42 1.32 2.49 2.52 1.91-.22.63-.42.5-.17-.52-.38.57-.49 1.16-.96.29-16.35-17.23-1.22-2.08.28-1.96 2.67-2.72 1.92-3.62 3.08-18.35-5.19-17.89 1.88-1.58 2.02-1.08.86.27.36-.51 6.68 4.54 7.88 1.84 2.36 1.48 1.6 2.27Z" class="cls-66"/><path d="m326.17 71.82-.42-.12-.44-.02-5.21-2.01-1.48-1.44-7.85-1.07-3.43-2.11-2.68-3.53.67-.57.38-.75.64-1 .42-1.08 9.8-6.55 11.65-2.35 20.22 11.19-9.8 8.54z" style="fill:#54785a"/><path d="m279.95 67.69.12 2.25-.15 2.25-.24.84v.85l-.57 1.63-.38 1.72-.62-.14-.46.31-10.61.3-9.35-6.12-5.39-10.37 1.76-11.03 7.09-2.41 7.83 2.28 7.85 7.57 3.12 10.06Z" style="fill:#6e916d"/><path d="m59.07 280.22.58.33.6-.01 2.88 2.89 2.16 3.22-3.58 1.82-6.55.19 5.09.4 5.12-.12.39 1.68-11.1 8.88-14.64-2.02-5.06-3.61-4.23-4.28 7.54-9.2 10.17-4.36 5.62 1.38 5 2.83Z" style="fill:#3b3e3a"/><path d="m319.12 92.26 9.43 6.19 2.1 9.89-.36.6.1.52-7.68 1.07-7.4 2.26-8.36-1.13-7.92-3.47-3.86-2.18.3-.27.15-.37.72-.6.91-.57 7.24-1.41 6.74-3.07z" style="fill:#55785b"/><path d="m192.65 326.05-.12.42.02.44.64.31.85 7.71 1.96 7.41-2.56 3.34-1.95 4.16 2.77-3.94 2.24-2.35 3.85 5.7 5.64 3.79-8.58 3.2-9.37.9-2.91-.76-2.6-.91.53-.55.61-.43-1.45-4.74-1.14-4.91 2.14-8.58 5.11-7.53 1.82-2.22z" class="cls-19"/><path d="m190.82 320.6.9.6 1.23-.07.16 2.49-.46 2.43-2.51.46-1.81 2.22-5.11 7.53-2.14 8.58 1.14 4.91 1.45 4.74-.61.43-.53.55-6.65-2.18-4.91-4.77 5.74-6.62 4.15-7.86-5.84-5.74 4.37-3.24 5.1-2.65-1.51-2.04 5.6-.11 2.23.34Z" style="fill:#395445"/><path d="m366.05 130.14-3.18 1.87-3.78 1.93 3.92-.99 3.04-2.28 8.46-1.69 2.86 3.34-7.69 4.03-8.83-1.37-3.94.38-.51-.03-.1.43-.82.18-.79.46-2.29.64-2.41.92 2.27 1.21 2.32-.13.12.81-.24 1.12-.88-.6-1.07.06-2.18-.91-2.41-.63-2.98.12-2.74.28-.37-1.15 3.72-.78.04-2.7.48.09.1.27-.2.64.58.73.65-2.83 1.17-2.69-.51 3.46 1.33 2.09 1.4-.1 1.3-.5 2.85-.87.57-6.36 3.5-5.43 5.25-3.31 6.06-.09-.75 5.45-3.32 4.94Z" style="fill:#648764"/><path d="m297.25 328.51 2.21.96 2.22 1.26-.25.91.89.07-.06 1.27.59 1.03.15 2.49.24 2.52-2.62 2.19-3.8-.27-4.02-.88-.98-.37-1.2-.17-.4-.45-.56-.06-.29.47-.06.71-2.23-3.05-2.71-2.55-2.8-3.27-2.32-3.59 2.11-1.84 1.81-2.05 9.16 3.13 4.92 1.56Z" style="fill:#ebf1e2"/><path d="m289.31 340.18.56 1.52 1.1 1.27-.67 1.12.08 1.62-2.64 7.81-2.92 2.84-5.63-2.09-5.12-3.18-1.04-2.24.55-2.45 1.4-8.55 1.62 4.29 2.26 2.49 1.54-1.94.06-2.51 1.07-2.21 1.64-1.08 1.07-1.86.1-.22.02-.24 2.71 2.55 2.23 3.05Z" style="fill:#8baa80"/><path d="m334.86 186.51-5.79 4.43-4.76 5.67-3.12 2.86-3.67 3.2-2.23-.55-2.24-.35-2.44-8.02-5.56-6.73 14.86 2.56 14.4-4.06-.2.36zM310.2 49.12l-6.59 7.46-6.91 7.24-10.59 9.5 1.11-5.08 1.36-1.6 1.92-1.27 8.79-11.5 2.07-14.25 1.67.45 1.44-.32.06-1.12.11-.81 4.28 7.33z" class="cls-149"/><path d="m352.94 142.54-.43-2.12 1.07-.06.88.6.24-1.12-.12-.81.17-.29.31.19 5.09.1 5.06.92 7.54 5.97.86 5.13-9.48.14-11.19-8.66Z" style="fill:#7b9c73"/><path d="m331.04 145.99 4.89 5.01 1.49 6.76-10.98 5.62-3.35-1.49-3.43-1.35 2.66-2.04 2.7-1.83-.36-1.69.44-.42.34-.6.44.1.37-.15.65.42 1.57-4.61-1.98-4.29.12-1.04 2.38.42z" class="cls-204"/><path d="m350.22 134.72-.73.65-.29 1.03-1.32-2.09.5-3.46-1.17 2.68-.65 2.84-.58-.73.2-.64-.11-.27-.47-.09.82-12.4 6.26-6.33 2.07 6.86z" style="fill:#88a87a"/><path d="m291.04 362.16-.06-.81-.45-.14-.93 1.23-.74.32-2.28-.79-1.27-1.64.13-2-.62-1.97 2.92-2.84 2.64-7.81-.08-1.62.67-1.12 3.2 2.4 2.01 3.74-.81 7.32-3.62 6.22-.45-.25z" style="fill:#76966f"/><path d="m240.96 375.61-1.59.86-1.31 1.4.06-.68-.31-.35-1.75.02-2.26.44-.36 1.54-1.66 1.34-1.1-.44-.93-.71-2.17.59 1-5.91-.06-6 .9-.05.79-.29.81-1.89 1.02-2.02 6.59 6.52 1.68 2.74z" class="cls-269"/><path d="m211.12 349.54-.64.66-.5.7-1.95 1.17-2.03.97-5.64-3.79-3.85-5.7-.1-.7-.4-.51-1.96-7.41-.85-7.71 5.85 11.5 9.14 9.33 2.94 1.49Z" style="fill:#7c9d76"/><path d="m309.03 307.64-2.15-1.48-1.91-2.19-11.31 2.64 7.36 7.04 6.74 7.03 1.19.63 1.23-.01.05.35-.16.42-1.06.55.65.62.74 1.29 1.01.98.06.36-.32.76-.49.04-.5-.05-.4-.35-6.54-6.56-6.97-5.93-.83-.96-.97-.85-1.65-2.41-2.39-1.47 1.03-1.42.73-1.86.37-1.46.77-.95 4.28.54 5.82-1.08 3.69 3.52 1.32 1.04z" style="fill:#42322f"/><path d="m337.72 137.04-2.12 1.14-2.33.44 1.4-3.09 1.21-3.08-2.09 3.38-2.1 1.77-.44-.21-.23-.43-.28-1.37.11-1.36.24-.45.48-.52-.07-.3-.42-.04 4.35-5.7 3.49-6.22.9-.34.81.17.68.61.52.91-.11 7.84z" style="fill:#8caa7d"/><path d="m335.4 314.83-7.3 6.82-10.03 2.03-1.17-.36-2.79-.55-.34-.65-.19-.61 3.91-2.37 5.03-1.14 5.73-.09-7.18-.46.29-1.42.57-1.14 5.86-.07z" style="fill:#e26a5f"/><path d="m44.51 134.68 5.35 5.57 6.53 4.62-.36.97-.79.6h-1.26l-1.27-.32-1.34 2.18-1.73 1.6-2.01-.78-2.06-.64-2.34-7.86 1.29-5.94Z" style="fill:#c4d1bd"/><path d="m98.58 283.81.58 2.39.97 2.3-1.71.12-1.66.31-13.33.39-13.59-.02-2.3.26-1.78 1.06-.39-1.68-5.12.12-5.09-.4 6.54-.18 3.59-1.83 1 .71 1.26.26 6.07-.25 6.22-.1.56-.17.11-.54 8.28.2 8.43-.43.34-1.31-.12-1.14.54-.13.58.06Z" style="fill:#2f2829"/><path d="m130.6 345.13 1.28.62 1.37.45 1.85-2.32 1.79-2.06.57.69.18 1.18.37.95-.57.08-.11.48-.94.63-.52 1.01-.62.22-.23.78-1.5 2.23.09 2.41.29.88-.41.64-.65.41-.22-1.54-.72-1.47-1.37 1.49-1.04 1.33-4.96 4.84-5.16 4.64-2.69.55.74-1.12.66-1.14 4.63-3.96 4.03-4.45 2.59-2.25 2.55-3.7-1.25-.68-8.3-5.41-14.85-6.87 6.6 1.87 5.97 2.47 1.33 1.14.92.01.86-.51.38 1.58z" style="fill:#566c54"/><path d="m309.77 326.27-.52.89-.69.75-3.49.48-1.63 1.07-2.37-6.37-4.04-5.74-.9-1.54.08-1.53.13-.23-.08-.26 6.97 5.93z" class="cls-149"/><path d="m217.88 344.63.89 2.21 1.37 2.3-.8 4.04-3.27.58-3.22.79-.82-2.43-2.06-1.21.5-.7.64-.66 1.61-.76 1.6-.89 1.54-2.03 2.02-1.23Z" class="cls-269"/><path d="m336.6 144.77-2.57-.48-2.97.27-.17.67.15.76-2.05-1.17-2.38-.43-.12 1.04-.51-.2.03-.31-.36-.61-.72-.34-2.86-2.26-3.52-.44 2.77-.86 4.59.1.16.52 5.52-.52 2.56 1.16zm15.91-4.35.43 2.12-1.09.07-1.06.25-.57.86-.16 1.03-2.42-.88-2.42-.72.48-.35.03-.66-.63-.6-1.11-.07-1.29-.85-1.45-.58-.71.22-.54.76.08.74.54.79-1.72-.1-1.72.04-1.29-.62-1.28-1.46 3.99-.29 3.59-.84 2.73-.28 2.99-.12 2.41.62z" class="cls-149"/><path d="m312.45 326.81 5.44 5.99 6.47 5.48.39 1.15.99 1.18 3.31 2.9 3.97 3.72.87-.93.63.98 1.69.16 1.6.32-3.63.6 10.67 11.7-9.02-8.65-8.58-8.67-16.59-16.07.49-.04.17-.4.26.43.46.18.4-.02Z" style="fill:#8c4a4e"/><path d="m278.73 77.24.38-1.72.57-1.63.12 1.23.06 1.59 2.45-1.71.31-3.42-.26-.85-.47-.28-.99-.05-.51.54.02.94-.49.32.14-2.25-.11-2.25.59 1.05.86.63 2.89-1.03 1.3-2.21.44-.03-1.67 6.74-4.21 5.72-.86-.42z" class="cls-149"/><path d="m326.7 85.04 1.26-2.65 1.01-2.8 2.61 3.07-.2 3.96-1.78.58-1.91.21-.12-1.64z" style="fill:#d1ddc5"/><path d="m285.32 360.33 1.27 1.64 2.28.79.74-.32.93-1.23.45.13.06.82-2.5 2.54-.85 1.19-2.49-1.47-2.58-1.26 1.14-2.19z" class="cls-149"/><path d="m130.62 346.96 1.25.68-2.55 3.7-2.59 2.25.43-2.72-.64-1.41-.43.14-.53.05 4.06-2.7.53-.08zm5.55 7.09-.77.03-.79-.13-1-1.46-.09-2.41 1.5-2.23.23-.78.62-.22-.23.4.04.5.45.25.71.01.61 1.08-.39 1.3-.49.62-.78.57-.16 1.23z" class="cls-269"/><path d="m314.12 322.77 2.79.55 1.17.36-3.09.52-3.27.25-.26.36-.04.69-1.01-.97-.74-1.3 1.64-.85zm40.57-186.38.01 1.34.36 1.21-.31-.19-.17.29-2.32.13-2.27-1.21 2.41-.92 2.29-.64ZM132.84 354.42l-.95 1.13-1.11.87-.04-.89-.14-1.02-.39-.32-.72.04 1.04-1.34 1.37-1.48.72 1.47zm173.92-296.3-.42 1.09-.64.99-1.55.31-2.24.25 1.7-1.85 1.82-1.8-.1.61.64.4z" class="cls-149"/><path d="m100.13 288.5.29.17.31-.14.03.38.36.03.2.29.02.32-2.31.08-1.64.68.07.58-.37.87-.32-1.39-.02-1.44 1.65-.31z" class="cls-269"/><path d="m366.05 130.66-3.04 2.28-3.92.99 3.78-1.93 3.18-1.87.08.26-.08.26Zm-14.16 5.15-1.3.5-1.4.1.29-1.03.73-.65-.04.65.29.38zm19.67 75.13-1.21.3-.64-.25-.27-.51.01-1.37 1.14.82zm-78.77 129.11-3.48.13.06-.72.29-.46.56.06.4.45 1.2.17zm10.65-8.98-.18 1.49-.42 1.45-.59-1.03.11-1.64.25-.21.43-.17z" class="cls-149"/><path d="m101.35 293.42-.04-1.17.19-1.12.4-.03.31.29-.21 1.2z" class="cls-269"/><path d="m275.38 406.79-.18.2-.22-.2.01-.66zM220.1 27.73l.02-.56h.3l.28-.09-.09.52-.51.14Zm140.76 260.13-.47.07-.15.48-.38-.02-.14-.36.04-.5.25-.32.63.1zM318.08 31.67l-.66.62-.32-.74.49-.02zm0 9.53-.1.47-.46.13-.35-.47zm8.16 31-.6-.03-.34-.48.44.02.42.12.19.19zm-89.22 7.92-.57-.04.07-.48.59-.05-.09.28zm78.24 246.37-.85.17-.89-.06.26-.44.63-.1.55.03zm41.04-190.74.11-.43.5.03-.16.41z" class="cls-149"/><circle cx="99.38" cy="292.58" r=".28" class="cls-269"/><path d="m55.76 121.7-.38.75-.75.41-.09-.52.01-.52.6-.18zm45.06 172.37.06-.49.47-.16-.09.52zm23.52 56.19.1-.44.55-.16-.14.48z" class="cls-269"/><path d="m312.93 142.18.86 2.9 2.68 2.13 2.44-.4 2.17.94-.43 1.87.7 1.9 1.52.94 2.06-.25.11.68-.17.21.12.57.45.3-.35.59-.43.43.36 1.69-2.7 1.83-2.66 2.04-4.9-3.27-4.43-4.26-2.55-3.7-2.02-3.97.73-1.47 1.49-2.31 2.44.39 2.49.23Z" style="fill:#668966"/><path d="m291.07 144.79-10.65 9.64-6.99 1.27-.49.01-.63-.41 2.14-5.96 3-5.65 2.79-1.28 2.87-1.01 3.81-.64 3.99.34z" style="fill:#eaf0db"/><path d="m277.46 143.69-3 5.64-2.14 5.97.63.41.49-.01-.28.7-.52.27-.86-.7-.37 1.16-.42.75-.22.71.08.6.54.26v.79l-.59.34-.58-.65-.92 1.15.32-6.96-.34-7.03 2.12.03 2.45.42 1.94-2.86 1.34-3.22.09 1.16.25 1.06Z" style="fill:#6e8b6a"/><path d="m284.96 183.56 2.59 4.38 1.65 4.74-1.71-.47-.48.41-2.25-.96-2.15-1.12-.31-.65-1.32-.05 1.6-6.26 1.2-.07z" style="fill:#233e34"/><path d="m290.94 181.91.63-.03.69.21.04 3.11-.68 1.44-1.22 4.49-1.2 1.55-1.65-4.74-2.59-4.38z" style="fill:#355b45"/><path d="m307.99 141.56-1.49 2.31-.73 1.47-9.58-2.19-.23-.78.03-.81 6.3-.05z" style="fill:#fbfafa"/><path d="m295.98 141.56-.03.8.23.79-.23 1.28-.95.89-1.33.01-.98.56-1.29-.05-.19-.42-.14-.62 1.32-2 .94-2.6 1.44.47 1.22.9Z" style="fill:#a6373b"/><path d="m272.63 156.67-.56 1.41-.69 1.37-.54-.26-.08-.6.22-.71.42-.75.37-1.16z" style="fill:#e8ebd6"/><path d="m305.77 145.34 2.01 3.97 2.56 3.7 4.43 4.26 4.9 3.27 3.43 1.35 3.35 1.49 8.11 6.42 4.33 9.42-1.7 3.54-2.86 2.74-14.4 4.07-14.86-2.57 5.56 6.73 2.44 8.02-5.91-.13v6.41l1.39 5.98-1.4.95-1.39.81-3.2.72-.57.54-.81.43-.06-.91.34-.66-9.11-3.36-1.63-1.18-1.33-1.23 2.19-5.93.06-6.45-1.92-2.94-2.72-2.16.48-.41 1.71.47 1.2-1.55 1.22-4.49.68-1.43-.05-1.78.16-.69-.15-.65-1.32-.18 7.08-3.91 5.55-7-6.07-5.52-7.54-3.42-1.7-.9-1.03-1.28-4.33-1.29-4.7.75-5.81 3.21-3.8 5.61.66-4.09 1.56-3.49.37-.01.22-.33v-.79l.69-1.37.56-1.41.52-.27.28-.7 6.99-1.27 10.65-9.64.15.62.18.42 2.62.14.98-.66.95-.89.23-1.28z" style="fill:#27463a"/><path d="m306.48 171.46.42-.22.72.02.23.19-.16.35-.59.56-.36-.24z" style="fill:#526f5d"/><path d="m324.83 176.34-1.03.03-1.28-.25 1.17-.37zm0 0 1.03-.03 1.29.25-1.32.45z" style="fill:#3e5d4c"/><path d="m295.01 145.32-.98.66-1.33-.09.98-.55z" style="fill:#896d5b"/><path d="m211.81 292.3.27.08.08.3.77 6.23 6.17 5.08-.77 4.01.67 5.15 1.43.49 4.86.53.69 7.96-.73 7.93-1.41 4.18-1.52 4.14-1.64 2.3-1.58 2.48-.72.66-.51.81-2.01 1.23-1.55 2.03-1.6.88-1.61.77-2.94-1.49-9.14-9.33-5.85-11.5-.4-.01-.24-.3.1-.86.46-2.43-.16-2.49.2-5.25.34-.79.2-.79 1.19-3.04 1-3.24 3.07-3.98 3.69-3.68 5.04-2.21 2.9-2.77-.11-1.44-.89-.77.59-.92.25-1.03.68.58.71.5Z" style="fill:#d3e0be"/><path d="m252.26 243.88-2.49-.03-2.61.24-.26 2.19 1.4 2.06.17.59.4.41-.82.34-.46.85 1.07 2.73 2.37 2.81-.31 1.99.83 1.59.79 7.14 1.56 1.03.05 1.77-1.42 1.73.31 2.34 2.13.31 1.66.88-.58.47-.3.63.49.57 1.09.1.79 1.32-1.48 1.88-2.31 3.3 15.36 1.37.51-.26.3-.43.7.26.73.42 2.5-.46 2.5.23 6.25-.55 3.15-.48 3.07.38-9.62 1.37-9.51.01.83 1.16-.37.73-1.5-1.26-1.86-.33-5.95-.27-3.28-.56-3.31-.68.75 4.58-.95-1.53-.84-1.91-.37 1.13.02 1.02-.35-.19-.31-.84-.54.04.06-1.88-.58-1.5-.07-.63-.49-.43.28-.5.16-.44-.78-.24-.97.18-.9-.56-.19.88-12.36 2.14-10.12 7.63-5.04-11.03-1.6-12.12.23-2.94.63-2.89 4.26-8.29 6.07-7.19 2-.95 1.9-1.28.37.36.37-.94 3.11-.87 1.18-.86 4.01 1.82.87-.79 3.48.65 4.14.46Z" class="cls-45"/><path d="m280.4 272.07 4.84 2.35 4.73 2.57 2.93 2.38 2.63 2.67-.77 2.87-.24 2.84-6.64 7.2-8.77 4.24-.66.36-.32.5-7.8-1.43-7.72.44 1.84 3.28-.74-.42-.72.2.14 2.97-.14 2.5-1.17-3.66-1.58-3.38.39-2.24.55-2.21-.33-.42-.15-.51-1.05-2.04-1.88-2.04-.9-1.67-1.28-1.08-.75-4.58 3.3.68 3.29.56 5.95.27 1.86.33 1.5 1.26.37-.74-.83-1.15 9.5-.01 9.63-1.37-3.07-.38-3.15.48-6.25.55-2.51-.23-2.49.46-.73-.42-.7-.26-.3.42-.51.27-15.36-1.37 2.31-3.3 1.48-1.88-.12-.79-.67-.53-1.58-.67.31-.63.57-.47 3.67.32 5.12-2.06-.1-.62-.28-.78 4.15-.04 3.79-1.12 3.39.97z" class="cls-284"/><path d="m269.53 319.98 1.42 3.48 2.81 2.64 1.39 1.83 2.02 1.61.13.44-1.31.72 2.85 3.54 1.64 5.96-.06 2.51-1.54 1.94-2.26-2.49-1.62-4.29-1.4 8.55-.55 2.45 1.04 2.24 5.12 3.19 5.63 2.08.62 1.97-.13 2-1.56.64-1.14 2.19-8.34-1.82-8.41 1.02-1.31-2.98-2.09-2.33.58-1.53-.17-1.83.3-3.81-.06-3.5 1.17-1.85.8-2.09.9-2.86-.24-2.89.07-2.48.64-2.42 1.62 1.14 1.01-5.73-1.72-1.14.31-2.63-1.02 1.17-1.03 1.02-1.42 1.19-1.18 1.61-2.07 2.47-2.29 2.14-3.25 1.92-2.65.02.68-3.14 1-3.01 3.93-5.01 3.76-2.45 4.11-2.12.57-.43.02-.51 1.03-.11.88.62.76 1.17Z" style="fill:#c7d7b5"/><path d="m193.79 228.09 7.12 19.85 19.23 7.87.37 5.94-.63 2.88-.23 2.95-6.47-.41-6.97-1.57 8.3 14 10.8 11.66-.37 1.96-1.52 1.43-.39-1.12-.8-1.08-5.69-6.46-5.32-6.59.16 2.9-.2 2.69-.62.17-.6.34-.7-6.41-5.53-10.3-1.17-1.71-1.54-2.43-.37-13.55-7.08-11.61-.76-7.85z" style="fill:#223c32"/><path d="m219.65 267.57 1.6 12.12 5.04 11.03-.45.44-.53.1-10.79-11.66-8.31-14 6.97 1.57z" style="fill:#f1f2ee"/><path d="m301.19 288.55-4.11 1.46-3.94 2.32.53 5.13-.35 4.94-.77.95-.37 1.46-.73 1.85-1.03 1.43-.7 1.49-1.33.73-4.72-5.76-5.54-4.49.33-.51.65-.35 8.77-4.24 6.64-7.2 3.28.69z" style="fill:#325340"/><path d="m239.3 316.69-1.97 3.88-1.53 2.81-3.75 3.25-6.8 3.44.73-7.93-.69-7.96 6.77 2.22 7.23.3Z" style="fill:#3c5e49"/><path d="m252.63 316.09-.02.38.17.32.47.38.57.02-1.61 2.11-2.14 1.59-.22-.44-.27.04-.12.84.12.78-2.52 2.53-2.76 1.94-3.65-.95-3.99-.21-.33-1.14-.54-.91 1.52-2.81 1.98-3.88 3.21-.73 3.36-.39.84 1.51 1.59.57 4.32-1.55Z" class="cls-107"/><path d="m266.85 318.3-.02.51-.57.43-4.11 2.12-3.76 2.45-2.72-4.09-1.86-2.53-.57-.02-.47-.38-.16-.33.01-.37 6.96-5.26 3.84.02z" style="fill:#4d6d55"/><path d="m223.42 294.65-.36.01-.38-.11-.35.02.01.32-5-1.5-5.17-.71-.09-.3-.26-.08-.02-3.71-.62-3.6.21-2.68-.17-2.91 5.33 6.59 5.68 6.46.81 1.08z" class="cls-335"/><path d="m222.33 294.89.5.25.46.47-2.29 4.17-1.9 4.2-6.17-5.07-.77-6.24 5.18.72z" style="fill:#395b46"/><path d="m279.25 327.72 2.32 3.59 2.8 3.27-.02.24-.1.22-2.08-.83-2.36-.7.18 2.6 1.55 1.87-1.07 2.21-1.64-5.95-2.85-3.55 1.31-.72-.13-.44-2.01-1.61-1.4-1.83.94-.34.63-.68 1.07 1.54 1.53.28z" style="fill:#7b9674"/><path d="m248.77 280.95 1.25.19 1.16.49.49.43.07.63-7.25 7.45-1.04-.02.29.85-1.22 1.19-.43 1.26-2.03 1.23-1.88 1.73-1.85 1.09-2.8 3.69 4.49-3.54 4.07-4.2 3.29-2.78 2.91-3.43 3.44-4.52.58 1.5-.06 1.88-1.67 5.2-1.44 5.36 4.44.3 4.32-.38-2.41-4.74-2.05-4.76-.02-1.02.37-1.13.83 1.91.96 1.53 3.73 6.98.47.17.91-.32.15.52.33.41-.54 2.21-.4 2.24 1.58 3.38 1.17 3.66.13-2.51-.13-2.96.72-.2.74.42.45 1.05.83.72.23 1.02.69.47-.03-.9-.89-.59-.28-1.12-1-.65-1.84-3.28 7.71-.44 7.81 1.43 5.53 4.49 4.73 5.76 1.34-.73.69-1.49 2.39 1.48 1.65 2.4-.33 2.08.69 1.54 1.38-1.32-.08 1.53.9 1.54 4.04 5.74 2.37 6.37v1.62l-.4-.12-.43.18-.24.21-.06.37-.89-.07.25-.91-2.22-1.25-2.21-.97-.14-.63-.44-.42-15.16-5.1-.56.69 2.23.78-1.81 2.06-2.11 1.83-1.33-.81-1.53-.29-.51-.81-.56-.73-2.82-2.64-2.98-2.46-.76-1.17-.88-.62-1.03.11-3.43-7.45-3.84-.02-6.96 5.26-2.06.8-2.26.75-2.43-2.08-3.36.39-3.21.73-7.23-.3-6.77-2.22-4.86-.52-1.43-.5-.67-5.15.77-4.01 1.9-4.2 2.29-4.17-.46-.48-.5-.24-.01-.32.35-.02.38.11.36-.01 1.51-1.43.38-1.96.53-.09.45-.45 10.11-7.63 12.37-2.14Z" style="fill:#e4ecd5"/><path d="m253.45 287.06 2.05 4.76 2.41 4.74-4.32.38-4.44-.3 1.43-5.36 1.68-5.2.54-.04.31.83.35.2Z" style="fill:#3a5b47"/><path d="m297.25 328.51-4.92-1.55-11.39-3.92.56-.69 7.99 2.67 7.17 2.43.44.42z" style="fill:#b0bea2"/><path d="m272.48 309.43 2.33 1.41 2.3 1.71-2.83-.94-2.53-1.31-1.45-.42-1.11-1.24 5.88-.47 6.47.06-2.44.4-2.42.2-1.83.34-2.36.26Z" style="fill:#b9c8ab"/><path d="m275.32 325.08-.64.68-.93.34-2.81-2.64-1.42-3.48 2.97 2.47z" style="fill:#526d54"/><path d="m242.08 293.42.43-1.27 1.22-1.18-.3-.85 1.05.02 7.25-7.45-3.44 4.52-2.91 3.43-3.29 2.78Z" class="cls-45"/><path d="m242.08 293.42-4.07 4.2-4.49 3.54 2.8-3.68 1.85-1.1 1.88-1.73z" style="fill:#c6d3b7"/><path d="m260.7 295.19-.91.33-.47-.18-3.73-6.98 1.29 1.08.89 1.67 1.87 2.03z" style="fill:#55634e"/><path d="m296.26 313.78.08.26-.13.23-1.38 1.32-.7-1.54.34-2.08.97.86z" style="fill:#a2908a"/><path d="m251.17 281.63-1.16-.49-1.25-.19.19-.88.9.56.97-.18.78.24-.16.45z" style="fill:#7c8470"/><path d="m265.72 304.12-.83-.71-.45-1.06 1 .65zm0 0 .89.59.03.9-.68-.47z" class="cls-284"/><path d="m79.42 229.81 9.96 2.9 10.88-.74.29.1.24.28-.54.73-6.35.65-6.61.43-.8.25-.36.51-.45 1.15-.25 1.69-.42-.98-.24-1.45-3.22 1.67-.21-.59.27-.49 1.1-.55.69-.95.47-.06.6-.98-5.69-1.89-1.29-1.33-1.87-1.6 2.1.91 1.69.32Z" style="fill:#a5a189"/><path d="m79.85 287.27-6.23.1-6.06.25.51-1.67.33-1.8 1.28-.7.74-1.05 2.73 1.15 2.72 1.59 2.17.86 1.8 1.26Z" class="cls-340"/><path d="m83.4 234.44-1.12-.5-1.25-.26.59 2.26-.27.49.21.59-1.71 1.32-1.58 1.54-4.01-.35-4.19-.69.89 3.05 2.62 1.67 1.02.77 1.26.15.24-.84.57-.87-.99 4.62.22 5.03-.08 3.69-.27 3.47v.73l-1.95 9.6-5.4 8.97 6.04 4.41 6.28 3.28-.12.55-.55.16-1.8-1.26-2.17-.86-2.72-1.59-2.73-1.15-1.59-1.53-1.92-1.17-3.39.26-3.27-.06-.75-.06-.44.38-5-2.83-5.62-1.38-10.48-10.14-3.74-14.09 10.92-9.81 13.94-4.32 8.36-.01 11.33-6.15 5.69 1.89-.6.99z" style="fill:#2d4c3d"/><path d="m78.27 239.87-.62 1.53-1.54 2.23-.24.84-1.26-.15-1.02-.77-2.62-1.67-.89-3.05 4.19.69z" style="fill:#394f44"/><path d="m58.01 264.15 3.12 3.92 1.55 3.74-2.77-3.86z" class="cls-48"/><path d="m83.4 234.44-.69.94-1.1.56-.59-2.26 1.25.26z" style="fill:#d8e6cb"/><path d="m49.71 254.07.36 1.38-.78-.37-3.72-.79 1.92-.31z" style="fill:#3f5d4c"/><path d="m67.85 238.97.49-.18.66.04.29.21v.62l-.35.29-.47.01-.37-.25z" style="fill:#80927f"/><path d="m58.01 264.15-.94-.69-.04-.83.79.5z" class="cls-48"/><path d="m40.17 252.29.31.43-.62.25-.88-.41z" style="fill:#496655"/><path d="M60.26 279.9v.64l-.6.01-.59-.33.44-.39z" class="cls-340"/><path d="m86.18 186.28-6.32 3.48-4.91 5.73-1.59 2.24-.7 2.77-3.52 2.47-2.75 3.18-3.72-.49-4.12-4.57 4.39-6.54 3.35-7.08 10.5-2.23 9.37 1.04Z" class="cls-26"/><path d="m79.96 161.67-6.05 2.97-5.36 3.46-1.64-.61-1.47.4-1.74-3.36.48-1.65.78-.22.49-.86 5.39-7.48 6.89-5.13 1.89-.22 1.98-.75-1.84 7.11z" class="cls-377"/><path d="m76.71 148.09.39.68.63.42-6.89 5.13-5.39 7.48-.49.86-.78.22-.13-.55-.55-.13-.03-.23.16-1.18-.35-.99.01-3.49.1-3.46-1.34.83-1.04-.01-.48-1.62-.16-1.53.16-.44.07-.55-.41-.24h-.56l.46-1 .19-1.32.84-.31.79.54-.36 2.13.51-.97.25-1.21 7.16.99 7.24-.06Z" style="fill:#92aa8b"/><path d="M59.64 149.3h.56l.41.24-.07.55-.16.44-.44.14-.44-.14-.34.15-.36.55.23.32.87.64-.49 1.09.15.85 1.01.57 1.5-.57.24.71-.98.39.62.88.72.43-.17 2.9 1.03 2.34-.06.22.03.23-.58 1.3-.31 1.48-.34-.13-2.24-3.16-2.7-2.44-3.95-4.6-3.75-4.76 1.73-1.59 1.34-2.19 1.27.31 1.26.01.78-.6.37-.97.99.16.97.44-.24 2.18-.09 1.85.76-.04.86-.16Z" style="fill:#739072"/><path d="m79.96 161.67 2.36 7-1.76.84-2.29-.38-8.05-.31-1.48.48-2.76-.14-.35-.52-.2-.74 1.47-.4 1.64.61 5.36-3.47 6.05-2.96Z" style="fill:#9cb299"/><path d="M52.78 199.98 52 201.1l.26 1.39 1.3-1.73 2.65 2.1-1.61 2.65-3.32 1.37-8.59 3.35-.33.19-.62-.44-.03-.34 1.28-2.97 2.93-.96 1.05.52.57 1.1 1.46-1.75-.2-.48-.41-.58 1.29-.05.65-.42.25-.63.11-.59.3-.62-.39-.72.17-1.9.33-1.86.99.99.68 1.23Z" style="fill:#c4313c"/><path d="m45.56 148.48 2.07.64 2 .78 3.75 4.76 3.95 4.6 2.7 2.44 1.98 2.76-1.73-.31-2.27-1.44.11 5.74 6.15.64-.66-2.2-1-1.91.31-1.48.58-1.3.55.13.13.55-.48 1.65 1.74 3.36.2.74.35.52 2.76.15 1.48-.49 8.05.31 2.29.38 1.76-.84.81 1.4.57 1.77-10.88-1.99-7.98 4.05.43.5.29.54-.42.58-.72.56 1.35 5.62.53 5.77-3.35 7.08-4.39 6.54-1.27.74-1.09 1.03-1.29-1.08-1.83-1.34-.99-1.7-.99-.99-2.68-.68-2.51 1.35-1.61 5.3.47.41.53.2.4-.7-.08-.8 1.65 1.25 1.73 1.52-1.46 1.75-.57-1.11-1.05-.51-2.93.96-1.28 2.97-8.47-1.65-8.58.16.94-16.82 10.42-13.43 3.24-1.16 3.55-.98 4.82-1.91 4.82-.99 4.65.23 4.65.64 1.3-1.11.33-1.45-4.64-.97-4.13.61 1.92-1.81-4.42-8.78-6.95-9.86-.67-.76-.07-.86.54-.22.59-.04Z" style="fill:#315141"/><path d="m52.46 172.87.96-1.12 1.2-.94 4.13-.61 4.64.97-.33 1.46-1.3 1.1-4.65-.64z" style="fill:#f0f1ec"/><path d="m51.11 197.76-.33 1.86-.17 1.9-1.02 1.01.55.29.57.05-.11.6-.25.62-.66.41-1.28.06.41.57.2.49-1.73-1.51-1.65-1.26.35-.69-.04-.5-.55-.44-.33.37.02.99.54.27.08.8-.4.7-.53-.2-.47-.41-.07-2.88 1.68-2.42 5.19-.67Z" style="fill:#da383f"/><path d="m62.02 164.46.26.4.34.13.99 1.91.67 2.2-6.15-.64-.11-5.74 2.27 1.44z" style="fill:#e8eadf"/><path d="m36.07 201.81-1.59.78-1.56-.45-.25-.88.3-.85.96-.89 1.26-.23.85.81.03 1.72Z" style="fill:#906d62"/><path d="m53.56 200.77-1.3 1.73-.26-1.39.78-1.12.31.47z" style="fill:#603536"/><path d="m304.65 61.53 2.69 3.52 3.42 2.12-9.22 6.04-6.98 8.48-4.52-2.59-5.75-.83 16.63-16.26 2.05-.18 1.68-.29Z" style="fill:#f9faf9"/><path d="m278.72 87.87 1.5 1.78 1.82 1.49 2.24 2.86 2.82 2.33 1.83 1.68 3.48 5 1.2.29.75.97-3.23 4.53-.32-.59-.79-.29-6.94-4.27-4.98-6.19-1.55-4.65-.59-4.88.16-.29-.19-.29.24-.55.53-.05.22-.49.04-.56h.58l1.18 2.16Z" style="fill:#6d906c"/><path d="m291.14 108.81-3.45 11.17-7.24-3.32-1.49-9-4-8.39 1.03.06 1.21-.29.66-.56.24-1.01 4.98 6.19 6.94 4.27.79.29z" class="cls-372"/><path d="m258.43 131.42 1.79 1.08 1.56 1.38-1.2 3.16-1.21 2.67-.36.13-.33.03-5.18-4.49-5.89-3.45.75.01.7-.17.43-1.69-.26-1.53.11-.63 1.34-.32 1.35-.63-.22.46.37.39.48.1.52.21.01.76-.79.17-1.61-.47-.79.18.06.57-.08.56.34.3.54.36.72 1.1 1.36.22 1.41-1.5.93 1.02 1.18.36 1.14.12.84-.46Z" class="cls-102"/><path d="m279.23 85.29-.74.47-1.53-.05.73-1.01.98-.72v.8l.56.5Zm5.63-4.61-2.81-.04 1.42-.7z" class="cls-25"/><path d="m253.87 126.32-.53-.13-.57.13.57-.71z" class="cls-102"/><path d="m275.97 87.94-.7.04.11-.55.56-.06.19.28-.16.3Z" class="cls-372"/><path d="m281.47 81.24.09-.46.49-.14-.14.43z" class="cls-25"/><path d="m41.71 209.66.03.34.62.44.33-.19-1.47 1.61-1.84 1.79 1.38 5.16 1.94 4.71-10.84.18-3.4.37-3.65.14.58.98.85.57 1.57-.94 4.59-.12 4.82-.58-1.72 2.32-.6.01-.51.23-.09.33.32.54.59-.52.3-.59 2.64-1.63 4.74-.63 3.78 5.16 4.56 4.44-5.44 3.22-6.4 1.88-21.44-1.32L.02 225.47l10.58-11.4 14.08-5.89 8.58-.17 8.47 1.66Z" class="cls-140"/><path d="m42.7 223.51.24.31-.07.36-4.74.63-2.64 1.63 1.72-2.32-4.82.57-4.59.13-1.57.94-.85-.57-.58-.98 3.65-.14 3.4-.37 10.84-.18Z" class="cls-97"/><path d="m20.91 224.44-1.62.39-1.86-.33 1.62-.39z" style="fill:#496b50"/><path d="m35.49 226.44-.3.6-.59.51-.32-.55.09-.32.51-.22z" class="cls-97"/><path d="m84.83 217.89 7.06 6.55 9.37 2.6-1.01 4.93-10.89.74-9.95-2.9.38-5.9-.43-5.88 2.7-1.06z" style="fill:#223f33"/><path d="m79.31 203.51 1.82 4.88 1.48 5.62-1.4-1.64-1.94-.82-.92.03-.86.49-.36.62-.01.86-4.75-4.49-5.97-2.9 2.74-3.18 3.53-2.47.9 1.92 1.18 1.75 2.22.15 2.34-.81Z" style="fill:#44644f"/><path d="m82.61 214 1.19 1.89 1.04 2-2.76-.92-2.71 1.06-2.24-4.49.01-.86.36-.62.86-.49.92-.03 1.94.82 1.4 1.64Z" style="fill:#304f3e"/><path d="m66.4 206.15 5.98 2.9 4.74 4.49 2.24 4.49.43 5.88-.38 5.9-1.69-.31-2.1-.92 1.87 1.59 1.29 1.34-11.33 6.14-8.36.02-7.89-3.89-4.56-4.44-3.78-5.16.06-.35-.23-.32-1.93-4.71-1.39-5.16 1.84-1.79 1.47-1.61 8.59-3.35 3.32-1.36 1.61-2.66 1.09-1.03 1.27-.74 4.11 4.57 3.73.49Z" style="fill:#cddcb9"/><path d="m56.7 220.63 7.53 2.33 7.91 4.13z" style="fill:#9aae8b"/><path d="m47.87 216.6-1.06.31-1.18-.91 1.06-.31z" style="fill:#b4caa7"/><path d="m159.98 303.4 6.36 1.5 5.89 2.73-1.26 1.72-1.77 3.12-.91 5.53.58 1.05-1.29-.48-1.47 3.48-.72.29-.41.38-7.29-1.6-.68-.54-6.54-1.61-3.23.9-.33-1.79-.59-1.05.36-4.73-.29-4.75 2.19-1.72 2.3-1.57.63.04.61-.29 2.43-.38 2.96-.17.15-.45 1.16.29 1.18.12Z" style="fill:#86a67e"/><path d="m176.81 310.01 1.15 1.53 1.72 1.42 1.65 2.6 5.58 2.8 2.75 1.12 1.16 1.11-2.23-.34-5.6.11-2.55-.17-2.72.86-7.06 3.85-5.68-2.19.41-.38.72-.29 1.47-3.48 1.29.48-.58-1.05.91-5.53 1.77-3.12 1.26-1.72 2.26 1.26z" style="fill:#aec1a4"/><path d="m138.98 335.04-2.1 6.79-1.79 2.05-1.85 2.33-1.37-.46-1.28-.61.34-5.92-1.58-5.84.1-.43.33-.11 1.21.76 1.02.88 1.12.39 2.31-1.56 3.42-2.53.92.85.18.73-.43 1.05-.94.81-.09.58.48.25Z" style="fill:#edf0e9"/><path d="m157.68 321.11-3.64 1.52-5.2 1.89-2.07 1.47-2.19 1.03-.47-4.17 2.2-5.84.6 1.05.32 1.79 3.23-.91 6.54 1.62z" style="fill:#4f4f46"/><path d="m182.99 320.37 1.51 2.04-5.1 2.65-4.37 3.24-4.37-3.4 3.51-1.83 3.55-2.02z" style="fill:#f2f5f0"/><path d="m164.98 322.72 5.68 2.19 4.37 3.4 5.84 5.74-4.16 7.86-5.73 6.62-.63-.05-.69.32-17.09 4.95-14.56-8.52.11-.31-.48-1.22-.18-1.18-.57-.69 2.1-6.79 5.6-8.01 2.19-1.04 2.07-1.46 5.2-1.89 3.64-1.52z" style="fill:#678968"/><path d="m167.7 336.43-5.4 1.51-5.87.97 5.26-1.78z" style="fill:#4d6d53"/><path d="m146.38 341.02-.99.31-1.31-.2.77-.49z" style="fill:#516f57"/><path d="m295.59 104.19-.03.57.06.61-.15.37-1.42 1.37-.72 1.64-3.99 13.1-1.11-.61-.53-1.26 3.45-11.17 3.5-4.87.31-.09z" style="fill:#273a30"/><path d="m295.59 104.19-.64-.35-.31.1-.27.33-.75-.97-1.2-.29-3.48-5-1.83-1.68 2.36 1.37 2.86 1.1.26-1.18.92-.9.61 3.3 1.11 3.18 2.5-3.02 2.25-3.38 1.22-1.15.1-1.39 3.53-3.4-4.5 6.84-4.74 6.48Z" class="cls-386"/><path d="m282.05 91.14-1.82-1.49-1.5-1.78 1.08.42.85.58 2.66-.39 2.55 1.01-2.2-.21-1.91-.73.29 2.6Z" style="fill:#537458"/><path d="m301.3 94.27-.63-2.21.26-1.9z" class="cls-386"/><path d="m282.61 85.29-1.12.54-1.13-.54 1.13-.16z" class="cls-25"/><path d="m315.31 112.79-7.86 6.04-6.01 8.13-8.23 4.25-1.86-4.72-2.01-4.65 3.99-13.1.71-1.64 1.13-1.1 3.86 2.18 7.92 3.47z" style="fill:#eff1ee"/><path d="m318.55 141.27 3.51.44 2.87 2.26.72.34.36.61-.03.31.51.2 1.98 4.29-1.57 4.61-.65-.42-.37.15-.44-.1-.45-.29-.12-.58.17-.2-.11-.69-2.06.24-1.52-.93-.71-1.9.44-1.87-2.17-.94-2.44.4-2.68-2.13-.86-2.9 1.53-.15 1.3-.54 1.38-.39 1.42.17Z" class="cls-140"/><path d="m330.39 109.47 4.83.56 4.51 1.92.1 4.6-.91 4.47-3.49 6.22-4.35 5.7-.78.42-.42.77-6.28 3.97-1.69.34-1.77.96 4.6.34 2.37-.48.47.02 2.5-.21 3.72-3.23 2.09-3.37-1.21 3.09-1.4 3.08 2.11.43 2.37-.52 4.07-.4.37 1.15-3.59.85-3.99.28 1.28 1.46 1.29.62.69.62 1.18.74-1.26.97-.64 1.13-.35-.04-.14-.29-.06-.86-2.45-3.1-2.56-1.16-5.52.53-.16-.53-4.58-.1-2.78.86-1.42-.17-1.38.39-1.3.54-1.53.15-2.5-.23-2.43-.39-5.7-.06-6.31.06-1.22-.9-1.44-.47.09-1.68.44-1.58.85 1.8 1.53 1.24 5.8.44 5.97-1.14-6.55-4.39-7.62 1.37-.42-2.49-.22-2.55 8.23-4.25 6.01-8.12 7.86-6.05 7.4-2.26z" style="fill:#2f4e3f"/><path d="m337.76 138.53-2.37.52-2.11-.43 2.33-.43 2.12-1.15.09.75z" class="cls-149"/><path d="m293.86 136.93-.02-.68 7.62-1.37 6.55 4.39-5.97 1.14-5.8-.44-1.53-1.24z" style="fill:#f5f7f4"/><path d="m323.61 138.09-.13.43.25.41 1.56.23 1.83.09-2.37.47-4.6-.33 1.77-.96z" class="cls-103"/><path d="m314.74 128.4-3.6 2.4-3.35.55z" class="cls-18"/><path d="m300.49 131.82-2.93 1.45-3.17-.05 3.11-.88z" style="fill:#d6d8d4"/><path d="m331.7 137.61-1.63 1.45-2.49.21 1.45-1.51 2-.79.23.43zm-.84-3.37-.48.01-.49-.13.42-.77.78-.42.42.05.07.29-.48.51z" class="cls-103"/><path d="m306.43 132.38.31.43-.62.25-.88-.41z" class="cls-18"/><path d="m124.93 305.88.55.61.62.33.03.94-.09.91-2.45 9.1.9 8.73-8.23-4.34-9.29-1.5.25-.38-.14-.41 4.95-5.66 4.22-4.71 4.27-4.38 2.19.52z" class="cls-335"/><path d="m118.08 362-1.4 2.26-2.71.8-1.73 2.27 2.47-1.64 1.97-1.43 2.69-.55-.04.4-.44.39.86 11.2-4.92 10.13-3.99 3.34-4.97 1.35-2.24-1.49-1.26-2.63-9.44.82-9.31-2.3-.43-2.87.47-2.87 8.83-15.57 17.32-4.77 4.35 1.27z" style="fill:#7b9b75"/><path d="m116.67 364.25-1.97 1.43-2.47 1.64 1.73-2.27z" style="fill:#51654f"/><path d="m109.69 367.95.75-.25.44.28-.29.44-.51.4-.66-.02z" style="fill:#567357"/><path d="m114.93 120.51 2.39 8.69 4.73 7.79-1.33 1.32-.41 1.87.44.1.57.01.18.57-.61.35-.36-.01-.45.15-4.53-1.8-4.58 1.31-1.57-6.41-.11-6.65 1.82-5.11 3.83-2.19Z" style="fill:#617f68"/><path d="m114.91 110.44.08 5.01-.07 5.07-3.83 2.19-1.82 5.11-4.41-6.75-.01-8.34 1.82-2.4 2.54-1.48 3.03.38z" style="fill:#cad6c1"/><path d="m120.07 141.36.35 1.39.46 1.35-.75.15-.18.83.47.57.66.3-.03 1.8-.66 1.58-.09-1.14-.74-.5-1.51-.22-.93.65.49 1.73 1.04 1.24-2.44.59-2.47-.1-2.51-1.91-1.33-2.49-.14-3.42 1.19-2.88 4.58-1.31 4.53 1.8Z" style="fill:#8f2931"/><path d="m119.86 161.07-2.01-1.93-2.9-1.27-1.1-.88-.99-1.1-.07-1.63.31-1.57.42-.5.22-.63 2.47.1 3.11-.77.59-.38-.16 5.29.12 5.26Z" style="fill:#d7e0cf"/><path d="m106.44 55.88 3.15 3.75 3.06 3.98.2 1.05.03 1.04-.56.31-.95-.25-.75-.89-.24.85-.03.91-6.27 1.71-3.93.46-3.16-1.34-6.3-3.74-5.04-6.34-.9-2.1.59-1.97 1.72-.89 1.85-.41 9.2.89 8.31 2.99Z" style="fill:#dae5cb"/><path d="m114.96 68.24.33 1.73.97 1.23.3 2.23-.26 2.17-.38-1.01-.04-.89-.32-.39-.6-.09-.72-2.96-1.2-3.25-1.18-.55-1.49.18.03-.91.24-.85.75.89.95.25.56-.31-.03-1.04-.2-1.05-3.06-3.98-3.15-3.75-1-8.94 2.95-8.5 7.49 10.16-1.24 12.38-.95 3.77z" style="fill:#b2c6a2"/><path d="m114.95 73.21 1.44 5.86.55 6.22-6.59-9.65-10.69-3.57.5-1.55-.01-1.73 3.93-.46 6.27-1.71 1.49-.18 1.18.55 1.2 3.25.72 2.96Z" class="cls-66"/><path d="m132.82 52.5.62 1.16.5 1.14.23 6.44-2.69 6.21-3.76 3.49-3.46 3.88-4.44 2.59-1.37 2.68 2.6 16.09-.12.79-.35.49-.63.12-1.61-2.27-2.35-1.48-7.88-1.84-6.68-4.54-3.94-6.54-1.43-7.32 1.44-1.45 2.18-.04 10.69 3.57 6.59 9.65-.55-6.22-1.44-5.86.6.09.32.39.04.89.38 1.01.26-2.17-.3-2.23-.03-1.47.08-1.47L121 56.87l10.24-6.21 1.08.7.52 1.15Z" style="fill:#355744"/><path d="m116.3 68.26-.07 1.47.02 1.47-.97-1.23-.33-1.73.67-.06z" class="cls-149"/><path d="m118.45 89.49.46 2.39.11 2.11-1.12-1.4.19-1.87-.41-2.63-.23-2.69 1.01 1.81z" style="fill:#dedada"/><path d="m122.18 70.33.33-1.09.54-1.02.3 1.34z" style="fill:#496956"/><path d="m231.91 353.21 5.83 3.24 6.7 1.48 9.17 1.79 8.87-2.68 2.09 2.32 1.31 2.99-10.81 3.38-9.57 6.44-2.49-.88-2.24-1.62-8.53-9.01-7.92-9.91 5 .25z" class="cls-335"/><path d="m220.84 353.66 1.99 1.57 1.86 1.71 2.11 4.7 1.3 4.91v.47l.42.13.07 6.55-.99 5.91-10.46 16.79-17.89 9.1-1.9-2.96-1.18-3.2-1.97-20.05 8.85-18 4.55-3.95 5.27-2.8 3.22-.79 3.27-.58.17 1.13.37 1.09.44-1.06z" style="fill:#3e5f4a"/><path d="m244.92 377.4 2.45 1.9 2.14 2.43 4.22 12.34-1.79 12.9-3.45 5.66-5.41 3.83-5.71-4.96-3.48-7.08-1.05-13.85 5.22-12.71 1.31-1.4 1.59-.86 1.67 1.71z" style="fill:#3d5e4a"/><path d="m270.61 395.56.38.46.46.34v.5l.14.46 8.55 5.18 8.04 6.3 1.07-1.72-.01 1.62.14 1.35-7.11.01-6.89-3.28-.39-.67-.01.67 1.95 6.82-1.89 6.66-7.03-1.83-5.8-4.81-4.17-10 2.6-10.43-2.04-3.36-1.97-2.97.66-.29.68-.14.09.43-.35.64 5.07 6.14 5.02 4.55-1.37-3.04-2.38-2.53 6.57 2.92Z" style="fill:#4a6d52"/><path d="m275.32 394.5-.84.03-3.78-.28-7.56-3.13-3.91-3.67.84-1.17 13.1-2.13 12.32 6.06-4.68 3.29z" style="fill:#4f7256"/><path d="m220.21 344.66 2.36 3.38 3.75.59.59.19.55-.05 1.17.41.7.57 2.58 3.46-2.6-2.22-5-.24 7.92 9.91 8.53 9.01 2.24 1.62 2.49.88.36.45.06.59-.88-.11-.52.45 4.09 3.7 4.06 3.31 3.07 2.95 3.26 2.74-.14.45-.37-.05-.52-.22-.68.13-.66.3-2.89-3.09-3.32-2.55-3.89-4.09-4.45-3.72 1.21 2.18 1.63 1.81-2.28-.09-1.68-1.71-.65-2.9-1.68-2.74-6.59-6.52-3.11-3.65-3.26-3.5-1.67-2.5-1.99-2.34-.87.97-.31 1.24-.52.68-.43 1.05-.37-1.1-.17-1.12.8-4.04-1.36-2.29-.9-2.22.51-.81.72-.66.38.92z" style="fill:#2d4134"/><path d="m275.38 395.63 11 4.29 3 10.13-.14-1.35.01-1.62-1.07 1.72-8.04-6.3-8.55-5.18-.13-.46-.01-.5 1.11-.2 1.08-.34.86-.14z" class="cls-377"/><path d="m259 386.26 1.07.02-.84 1.17 3.91 3.67 7.56 3.13-.14.68.06.63-6.57-2.92 2.38 2.53 1.37 3.04-5.02-4.55-5.07-6.14.35-.64-.09-.43.52.22.38.05.13-.45Z" class="cls-242"/><path d="m250.42 381.23-.54.09-.37.42-2.14-2.43-2.45-1.9-1.63-1.81-1.21-2.18 4.45 3.73z" class="cls-149"/><path d="m275.32 394.5.16.55-.1.58-.87.05-.86.14-.02-1.34z" class="cls-242"/><path d="m225.68 356.3-.63.08-.36.57-1.86-1.71-1.99-1.57.31-1.24.87-.97 1.99 2.34zm-87.67-11.07-.68-.02.11-.48.57-.08.11.28zm90.5 21.92-.42-.12v-.48l.43.11z" class="cls-269"/><path d="m282.62 363.16 2.58 1.26 2.49 1.47 3.05 2.83 2.18 3.38-2.45 3.33-3.83 2.22-16.33 3.6-16.49-2.77-4.14-2.35-3.77-2.92-.06-.59-.36-.45 9.57-6.44 10.81-3.38 8.4-1.02z" style="fill:#5a7d5d"/><path d="m245.91 373.22 3.76 2.92 4.15 2.35-.8.88-.35 1.2-4.06-3.31-4.09-3.7.52-.45z" class="cls-149"/><path d="m265.38 373.08-2.94.36-2.92-.22 2.08-.87 1.92.01 7.35-.62-2.69.93z" style="fill:#45664c"/><path d="m317.1 31.55.33.74 10.04-10.11 8.05.49-5.01 13.6-12.43 4.94-.91.13.35.47-.11.41-.76-.04-5.35 6.95-.07-.47-.23-.26-.33.44-.46.29-1.29-3.97-4.27-7.33L309.09 19l5.82 5.18 2.2 7.39Z" style="fill:#8bab7d"/><path d="m311.5 36.12.63 2.61-.63 1.95-.23-2.15z" style="fill:#6f9369"/><path d="m311.61 32.2-.28 1.62-.43 1.31-.12-2.14-.61-1.78 1.21.11z" style="fill:#76986d"/><path d="m309.03 307.64 1.31 1.29 1.68.79 1.9 1.36 2.08 1.09-2.41 4.22-1.18 4.6-2.23.3-1.22.01-1.2-.63-6.74-7.03-7.36-7.04 11.31-2.64 1.91 2.19z" style="fill:#fbfcfc"/><path d="m321.95 314.89-.57 1.14-.29 1.42 7.18.46-5.73.1-5.03 1.13-3.91 2.37.19.61.34.65-2.81-.39-1.64.85-.65-.62 1.06-.55.16-.42-.05-.35 2.23-.3 1.46-.1 1.27-1.11 3.7-1.93 2.61-2.98.49.01Z" style="fill:#944844"/><path d="m196.5 343.56-2.23 2.35-2.78 3.94 1.95-4.16 2.56-3.34.4.51z" style="fill:#3b5b43"/><path d="m193.14 315.88.05 2.62-.25 2.63-1.23.07-.9-.6-1.15-1.12-2.76-1.11 3.07-1.4z" style="fill:#3a4e42"/><path d="m340.62 142.56 4.6.59 2.42.73 2.42.87 7.32 5.94 3.12 8.8-14.61-1.54-8.75-11.99.64-1.14 1.26-.96-1.18-.74-.69-.62 1.72-.04z" style="fill:#648664"/><path d="m343.28 146.09.63.34.49.36-.03.6-.43.46-1.22-.27-1.59-2 2.15.52Z" style="fill:#517354"/><path d="m284.25 335.04-1.07 1.86-1.64 1.08-1.55-1.87-.18-2.6 2.36.7z" style="fill:#a8c098"/><path d="m108.56 160.06 7.5 4.93 3.77 2.94 1.21 3.88-7.27 7.61-3.8 9.9-1.36-2.64-2.14-2.05-4.55 3.15-2.53 5.53-3.63-8.25.79-2.16 3.46-6.36 1.26-7.07 2.69-4.42 2.4-4.52 1.09-.28 1.12-.19Z" style="fill:#365844"/><path d="m134 151.59-.37.04-.3-.06-.73-1.18-.45-1.14-4.37 3.97-.34 10.76.88-1.33 1.05-.57 2.7.12 2.19-.69.31-.46-.08-.58-.67-.41-.99-.27 2.21-1.75 1.19-2.46 12.3 7.81 14.14-3.51 3.98.23 2.69-.22 1.34.34-1.08.82-.65 1.22-2.46 6.59-3.08 6.4-1.1 2.11-1.9.75-3.21-8.33-7.53-5.04-8.89.03-7.89 4.22-4.23-.14-4.83 1.14-.09-1.04.06-1.07 1.24-4.48.58-8.34.26-6.91 2-7.83 1.19-.52 1.4-.78.2.19.96 6.53 2.38 5.83Z" style="fill:#254536"/><path d="m100.81 146.46 2.4 1.64 1.55 2.44 1.62 1.18.66 1.74h-1.7l.28 1.03-.58.64-.69.91-1.14 1.08-1.74 1.13 2.53 1.49 2.37.8-2.4 4.51-2.69 4.43-6.38-12.47-11.57-9.1 8.65-2.56 8.85 1.12Z" style="fill:#44674e"/><path d="m127.86 140.34-2 7.82-.26 6.92-.58 8.34-1.24 4.48-2.09-1.79-1.36-2.27 1.7 1.41 1.81 1.68.05-3.05.44-2.77-.33-5.03.13-5.06.49-2.19-.03-2.51.35-3.64.08-3.52.76.56.86.26.3-.65.91 1Z" class="cls-80"/><path d="m108.56 160.06-1.12.19-1.09.28-2.37-.8-2.53-1.49 1.75-1.14 1.13-1.07 3.81-.84 3.39 1.82-1.07-.02-.7-.57-1.1 1.63-.11 2.01Z" style="fill:#e6ece7"/><path d="m119.86 161.07.8.49.15.93-.37.5-.1.84-2.77-2.89-2.63-3.07 2.9 1.26z" class="cls-80"/><path d="m121.69 300.72 2.28 2.15.96 3.01-2.22-.23-2.19-.52-5.2-3.14-1.19-1.36-.13-.69.44-.58 4-.49 1.49.49-.51 1.05 1.09.34 1.18-.01Z" style="fill:#962c35"/><path d="m86.74 310.31.73 1.42.95 1.42 4.05.06 1.7.35 1.55 1.17-1.12 2.55-.98 2.71 1.53-1.33.91-2.42.06.32 1.27.19.03-.78.56.6-.05 1.22-1.05 3.82-.89 2.14-.68 2.24-2.12 2.64-3.2 2.1 1.34 3.86-12.7 10.69-16.94 2.49-3.82-5.98-2.48-6.61-.19-9.3 2.86-8.62 1.1-.56 1.11-1.27 8.75-6.18 10.43-.64 7.3 1.72Z" style="fill:#6e916c"/><path d="m99.74 295.29 3.02 2.36 2.99 1.84-2.08 1.45-2.2 1.17-6.78 2.13-1.13 1.56-5.08.39-1.35 1.72-.4 2.4-7.3-1.72-10.43.63-8.75 6.19-1.11 1.27-1.1.56 4.51-8.24 6.66-7.23 14.08-8.52z" style="fill:#9ab58b"/><path d="m103.55 291.61 1.34.85 1.45.58.15 1.46.92 1.12 1.43.88 1.33.17 1.96 1.52 2.02-.23 1.28-1.59.13-1.84 6.02-1.05.78 3.63-.66 3.62-1.18.02-1.09-.35.51-1.05-1.49-.49-4 .49-.43.58.12.69 1.19 1.36 5.2 3.14-4.27 4.38-4.22 4.71-4.95 5.66-2.29-4.48 2.55-.85 1.32-2.24-.49-2.89-2.35-1.85.96-2.1 3.59-2.21 2.44-3.4-3.7-.75-3.36.38-2.99-1.84-3.02-2.36.78-.4.3-.82.44-.12.09-.53.66-.83.2-1.2.16.25.18.07.43-.18.56.07Z" style="fill:#30413a"/><path d="m105.14 307.77.47 1.4 1.02 1.4-1.08 1.81-2.61.15.94-1.06.44-1.27-.26-.74-.66-.38-1.56 2.49.43 2.31 1.38.75 1.14.77 2.29 4.48.14.41-.25.38-2.36.32-3.27 1.64-2.24-.76-2.23-.26.15-1.86.9-1.96-.51-1.82-.64-.79-1.05-.44-1.56-1.17-1.69-.35.5-1.1.98-.3.49.56.07-1.25-1.45-1.65.17-2.2 1.79 1.38 2.11.63.48 1.19.18 1.48 1.05-1.09.06-1.07-1.46-2.02.9-1.89.36-1.79.68 1.02.29.89 1.71-.04 1.62-.92-.52-1.54.48 3.31z" style="fill:#942c31"/><path d="m101.47 302.11 1.01 1.38.52 1.54-1.62.93-1.71.03-.29-.89-.68-1.02-.35 1.78-.91 1.9 1.46 2.02-.06 1.08-1.05 1.08-.18-1.49-.48-1.18-2.11-.63-1.79-1.38-.17 2.2 1.45 1.65-.08 1.25-.48-.56-.97.3-.51 1.1-1.98.58-2.07-.64-1.68-2.84.39-2.4 1.36-1.72 2.54-.84 2.54.45 7.91-3.69Z" style="fill:#b52631"/><path d="m101.34 322.62-2.83 2.01-3.21 1.35.68-2.23.89-2.15 2.24.26z" style="fill:#e8e4de"/><path d="m97.41 315.96-.03.78-1.27-.18-.06-.33-.91 2.42-1.53 1.33.99-2.71 1.11-2.55 1.05.44.64.79Z" style="fill:#32372d"/><path d="m105.83 307.57-.68.2-2.18-.96-.48-3.31-1.01-1.38 2.2-1.18 2.08-1.44 3.37-.38 3.69.75-2.44 3.41-3.59 2.2-.96 2.1Z" style="fill:#213b33"/><path d="m104.79 315.4-1.14-.77-1.38-.75-.43-2.3 1.56-2.5.65.39.27.73-.43 1.27-.95 1.06 2.61-.15 1.08-1.81-1.02-1.39-.47-1.41.68-.2 2.35 1.85.49 2.89-1.32 2.24z" style="fill:#ca3039"/><path d="m115.56 294.53-.13 1.84-1.28 1.59-2.02.24-1.96-1.53-1.33-.17-1.43-.88-.93-1.12-.14-1.46z" style="fill:#1f3830"/><path d="m219.56 115.86 2.53.47 2.56.29 6.18 3.95.92 2.88-.42 6.66-3.28 1.62-3.19 2.02-1.53 1.11-1.61.74-1.41-1.53-5.24-2.7 1.52-7.63-.46-7.69 1.63-.4z" style="fill:#4a6e54"/><path d="m96.29 90.35 5.19 17.88-3.08 18.36-1.92 3.63-2.67 2.71-1.46-2.39-.31-3.24-.38 5.89-3.35-3.29-3.15-3.32-2.54-2.46-2.59-2.33.44-.09.05-.5-1.77-7.13-.44-7.54 3.75-12.59L91 84.51l2.96 2.89 2.32 2.95Z" style="fill:#5a7e5e"/><path d="m54.07 107.56 3.35.36 3.3.8 3.98 2.36 3.46 3.18-.62.64-.48.7-2.12 2.57-2.94 1.9-1.66.6-1.76.47-1.5-.11-1.31.66-.61-.06-.6.18-8.4-2.78-4.97-6.7 5.77-4.13 7.11-.65Z" style="fill:#42654c"/><path d="m51.75 91.28.31-.13.35.09.41 2.28 1.13 1.76.33 1.05.97.64.52.68.7.52 1.86 2.6 2.35 2.37-.16-.75.12-.52.4-.07.4.13.39 1.62 1.06 1.57 8.29 8.42 8.72 7.65-.1.33.24.28 2.59 2.33 2.54 2.46 3.16 3.32 3.34 3.29.38-5.89.31 3.24 1.46 2.39-.28 1.95 1.22 2.09 16.35 17.23.95-.29.5-1.16.38-.57.17.52-.31 1.57.07 1.63.99 1.1 1.1.88 2.62 3.07 2.78 2.89 1.36 2.26 2.09 1.8-.06 1.07.09 1.04-1.45.79-1.33 1.02-1.21-3.89-3.77-2.93-7.5-4.93.11-2.01 1.1-1.63.7.57 1.07.02-3.39-1.82-3.81.84.69-.91.58-.64-.28-1.03h1.7l-.66-1.74-1.62-1.18-1.55-2.44-2.4-1.64-9.6-10.02-4.27-7.11-6.37-5.32-1.26-1.24-1.47-.94-2.14-2.09-2.41-2.02-2.9-1.88-3.33-.23.49-.71.61-.63.46-.11.66.08-2.91-3.18-3.23-2.69-.73-1.09-1.06-.74-2.34-2.9-3.08-2 .09-.3-.14-.28.37-.01.11-.37-.14-.62-.73-.13-1.36-2.11-1.93-1.78-1.73-2.72-2.64-1.37.49-.61.74-.42 2.37 1.78.34-.67-.02-.72Z" style="fill:#2c4034"/><path d="m61.43 101.93-.39-.13-.41.07-.24-.05-.32-.6.93-4.03-.92-2.82-1.59 3.77-.24.1-.27-.26.06-1.25-.21-.37-.42-.01-.89-4.44-.16-4.52.47-2.55.68-2.52 2.24-4.59 3.83-3.55 3.74 14.09z" style="fill:#537758"/><path d="m47.31 83.86 1.42 3.41.33 3.63-.74.43-.49.6-12.14-4.84-4.28-12.29L41 76.76l6.3 7.09Z" style="fill:#658964"/><path d="m51.21 96.95 2.66 1.76 2.01 2.33.14.28-.09.3-1.35.77-1.02 1.28-10.79.94-9.97-4.3-.65-.92-.01-.78.43-.58.72-.62 8.95-2.47z" style="fill:#6c9069"/><path d="m61.35 106.53-.58.99-.05 1.21-3.3-.8-3.35-.36.56-2.02-1.07-1.87 1.02-1.28 1.35-.77 3.07 2zm-5.47-5.48-2.01-2.33-2.66-1.76.7-.29.29-.64 1.93 1.77 1.36 2.12.73.14.14.61-.11.37z" class="cls-269"/><path d="m80.03 121.79-.24-.28.1-.33.64.01-.05.5-.44.09Z" class="cls-66"/><path d="m77.12 122.33 1.67.88 1.77.8 6.37 5.32 4.27 7.11-.83.7-.73 1.17-5.55 6.14-7.37 3.64-7.24.06-7.16-.99-.25 1.21-.51.97v-1.18l.36-.95-1.63-.23-.19 1.31-.46 1.01-.86.16-.76.04.09-1.85.24-2.18-.97-.44-.99-.16-6.52-4.62-5.36-5.57-1.18-1.8-.23-1.98 5.22-4.92 7.06-3.54.38-.75 1.32-.66 1.49.11 1.64.37 1.88-.52 7.55-.17 7.48 1.5Z" style="fill:#5e8261"/><path d="m86.36 134.63-.33.54-.46.38-.5.06-.7-.46-2.85.12-2.86-.5 2.59-.73 2.59.23 1.55-.27z" style="fill:#547358"/><path d="m80.57 124.01-1.77-.8-1.67-.88.61-.04.1-.46 1.47.94zm-18.58-3.94.12.46-.02.46-1.88.53-1.64-.38 1.76-.48z" style="fill:#f0f3ee"/><path d="m68.16 114.26-3.46-3.18-3.98-2.36 1.39.18 1.03-.54 3.23 2.69 2.91 3.18-.66-.07z" class="cls-269"/><path d="m58.49 98.14.57 1.5 1.11 1.21-.11.37.33.6.24.05-.12.52.16.75-2.35-2.38-1.86-2.59.69.04.41-.53-.13-.65-.02-.68.42.01.21.37-.06 1.25.27.26zm-3.24-1.16-.97-.64-.33-1.05.72-.04.51.31z" class="cls-149"/><path d="m60.17 100.85-1.11-1.22-.57-1.49 1.59-3.77.92 2.82z" style="fill:#47694d"/><path d="m56.51 82.18-.49 2.67-.87 2.55-1.09 2.17-1.65 1.68-.35-.09-.31.13-2.49-4.89-.59-1.29-.4-1.22-.38-7.72 3.04-7.7 4.79 6.07.78 7.64Z" style="fill:#85a67a"/><path d="m48.27 83.88.4 1.22.59 1.29 2.49 4.89.02.73-.34.66-2.37-1.78-.33-3.62-1.42-3.42.48-.16zm9.24-1.55-.68 2.51-.47 2.56h-1.21l.87-2.55.49-2.67h.5z" class="cls-149"/><path d="m52.13 82.38-.39-1.62.33-1.86.39 1.62z" style="fill:#77946c"/><path d="m237.53 339.67-.23 8.79 5.36 7.39 1.25.94.53 1.14-6.7-1.48-5.83-3.24-2.58-3.46-.7-.57-1.17-.41-.07-.89.42.17.77-.22-.21-.25-.8-.31.42-.31.6-.33 4.36-5.76 2.15-1.43z" style="fill:#3f604b"/><path d="m222.9 340.76-1.63.31-1 1.36.03 1.2-.09 1.04-.72-.59-.38-.92 1.57-2.48 1.65-2.3.41 1.19zm4.49 7.12.07.89-.56.05-.58-.19.1-.44.67-.58z" style="fill:#f1f4f1"/><path d="m302.94 288.78-.03 1.16-1.19 1.22-.86 5.82 2.56 4.87-5.83 1.08-4.27-.54.36-4.94-.54-5.13 3.94-2.33 4.11-1.45.89.05z" style="fill:#dfe1da"/><path d="m100.25 233.08 3.45 10.11 7.37 7.79 1.41-.6 1.17-1.57 3.47-5.99.6-.19.63-.03 3.53 3.52 2.43 3.46-4.82 9.13-2.49 8.23-2.35 1.89-2.1 2.17-7.98 7.61-3.82 9.91-.31.14-.29-.17-.97-2.3-.58-2.39.38-1.26.13-1.53-.6-8.41-.08-8.46-.19-6.74-.15-3.26-2.66-13.74-9.28-5.48.35-.51.81-.25 6.62-.44 6.34-.64Z" style="fill:#203d32"/><path d="m98.58 283.81-.58-.07-.54.14-8.35-6.35-7.66-7.76-4.81-9.56-.37-2.51.88-1.82 4.58 7.02 6.73 4.8 6.14-7.57 2.92-8.92.55 2.94.15 3.26.19 6.74.09 8.45.59 8.42-.13 1.53z" style="fill:#45684f"/><path d="m290.04 239.59 3.89 6.06-.35 7.05-1.5 1.84-1.6 1.66-.43.02-2.12-2.4-3.41-3.31.52 2.53 2.21 1.69-1.07.62-1.7-.43-1.3 4.86-2.15 4.42-.69.75-.49.89-6.84 4.7-3.79 1.12-4.15.04-.46-.05-.55-.37-2.48.45-2.38-1.2-2.62-.64-2.6-.31-.05-1.77-1.56-1.03-.79-7.14-.84-1.6.32-1.98-2.38-2.82-1.06-2.72.46-.85.82-.34 2.32 1.12.89 1.31 1.26 1.02.19.58.66.1.62-.08.3-.51 2.74-3.81.39.11.45-.23.25-.26.06-.4 11.42-4.92 12.06 3.19.91-3.56 1.47-2.99 5.19-.45Z" style="fill:#4c7055"/><path d="m232.41 161.06 2.15.59 2.29-.59.34 9.62 3.09 9.17-4.37 3.26-4.12 3.82.1.61-3.38 1.69-2.19 2.78-8.9-6.06-10.67-2.7.8-1.33-.33-1.55 13.56-5.22 8.14-11.7-.14-.91.07-1.12 3.56-.37Z" style="fill:#1d3c31"/><path d="m258.41 225.88 5.46 6.47 6.95 4.78-.9-.04-.87.13-7.86 4.76-8.94 1.91-4.14-.47-3.48-.64-.87.79-4.01-1.82-1.88-1.03-2.04-.24-.35-.57-.41-.5.39-2.04 1.16.05 1.25-.43.56-1.04.77-1.01 19.2-9.04Z" style="fill:#41634b"/><path d="m258.41 225.88-19.2 9.04-.32-1.7-.06-1.77 3.94-5.84 2.35-7.08 5.42-1.98 4.92-3.07.94 6.54z" style="fill:#769671"/><path d="m282.58 183.58-1.6 6.26 1.32.05.31.65-8.06-.58-8.26 1.65-3.33.84-2.87 1.4-.43-.19-.23-.32 1.76-5.07 2.38-5.23 2.28-2.34 2.47-2.11 6.89 3.66z" class="cls-382"/><path d="m270.82 237.13 6.89 2.43 7.13.48-1.47 2.99-.91 3.56-12.06-3.19-11.42 4.92-.59-.07-.59.21-7.83.15-1.69-.26-1.4-2.06.26-2.19 2.61-.24 2.49.03 8.94-1.91 7.86-4.76.87-.12.9.03Z" style="fill:#132723"/><path d="m293.86 238.22 4.8 3.95 5.48 3.02.2.57-2.61 2.9-2.28 3.06-6.47 4.95 4.33.31.24.83-.75.85-3.71-.52-2.62-1.94 1.6-1.66 1.5-1.84.36-7.06-3.9-6.05z" style="fill:#132c26"/><path d="m245 185.42.28 2.16-6.62-.78-6.77.74-.1-.61 4.12-3.82 4.37-3.26 2.45 2.75z" style="fill:#d9beae"/><path d="m237.54 158.94-.69 2.12-2.29.59-2.15-.59-.43-1.06.21-.73.71-.58.25-1.08.77-.65 2.47.95z" style="fill:#a94849"/><path d="m282.61 190.53 2.14 1.11 2.26.97 2.73 2.16 1.91 2.94-.06 6.45-2.19 5.93-5.59-2.67-6.23-1.31-12.4 1.55-.39-1.32-.15-1.34 1.42-2.74.79-2.96-3.07-3.76-3.69-1.71 2.88-1.4 3.32-.84 8.26-1.64z" style="fill:#a3bc91"/><path d="m266.23 137.95 1.84 4.48 1.21 4.67.35 7.02-.33 6.97.92-1.16.58.66-1.56 3.49-.66 4.09 3.8-5.61 5.81-3.21 4.7-.76 4.33 1.3 1.03 1.28 1.7.9 7.55 3.42 6.06 5.52-5.55 7-7.08 3.91-5.98 1.65-1.18-.06-1.2.07-7.38-1.33-6.89-3.66-2.47 2.11-2.28 2.34-2.38 5.22-1.76 5.08.23.32 4.12 1.89 3.07 3.77-.79 2.95-1.42 2.75-2.93 3.16-3.3 3.07 6.77-3.56 5.89-1.57 6.51.02 11.82 3.98 1.33 1.23 1.63 1.18 9.11 3.36-.34.66.06.91.81-.43.57-.54 3.2-.72-.25 1.63-.87 1.54-8.91.31-9.12 2.63 2.65 8.63 4.61 7.72-3.82 1.37-5.19.45-7.13-.48-6.89-2.43-6.95-4.79-5.46-6.46-2-5.86-.95-6.55-4.92 3.07-5.42 1.98-2.35 7.08-3.94 5.84-2.69-6.31-4.24-5.61-7.27-3.11-5.62-4.59 3-1.74 2.61-2.13 3.93-2.03 3.96-2.47 2.15-1.06 1.78-1.28 3.65-1.2 3.75-2.11-4.15 1.13-3.25 2.18-5.6 2.4-5.25 2.7 1.26-7.05-.54-7.14 2.2-2.78 3.37-1.69 6.77-.74 6.62.78 4.08 1.25-1.42-1.3-2.94-2.11-2.27-2.81-2.45-2.75-3.09-9.17-.34-9.62.69-2.12 1.65-1.95 1.85-1.91 3.27-10.23 5.9-8.82 4.44 7.59 2.94 5.5 1.09-9.25.33-.03.36-.13 2.02-2.24 1.98-2.81 1.53 1.7 1.32 1.59Z" style="fill:#e7eed8"/><path d="m257.72 191.84-3.07-2.11-1.7-4.85 3.51-2.17 3.1-2.47 1.25 1.23.66 1.5-1.47 4.49z" class="cls-190"/><path d="m285.14 173.04-11.42 1.57 5.27-1.61 6.65-.94 10.35-.67 3.56.03-6.41 1.01-8 .6Z" style="fill:#c5cdb5"/><path d="m255.39 165.56-1.95-4.31-1.09-4.64 2.01 4.19z" style="fill:#becbae"/><path d="m276.55 168.31-1.73 1.42-1.79.84 1.01-1.82 2.41-.64.96.01z" style="fill:#cad3bb"/><path d="m236.45 201.11-1.78 1.28-2.15 1.06-3.96 2.47-3.93 2.03.18-1.09.79-.65 5.25-2.71z" class="cls-209"/><path d="m265.17 207.68-6.77 3.56 3.3-3.07 2.93-3.16.15 1.34z" style="fill:#94ab89"/><path d="m236.45 201.11 3.25-2.18 4.15-1.13-3.75 2.11z" class="cls-209"/><path d="m245.29 187.58-.28-2.16 2.94 2.11 1.42 1.3z" style="fill:#8a8d75"/><path d="m279.23 224.22-2.22-1.13-1.48-.61.91-.6z" style="fill:#b4c1a7"/><path d="m274.12 220.75-2.21-.58-1.78-1.54 2.22.59z" style="fill:#beccb4"/><path d="m270.9 170.22.46.07.31.32.16.53-.33.51-.58.14-.45-.33-.19-.61z" style="fill:#ccd6c0"/><path d="m268.31 163.28-.45 1.02-.46-.09.02-.96.28-.43.6.02z" style="fill:#5b7759"/><path d="m244.31 326.58-3.72 4.72-1.39 5.39-.77 1.53-.91 1.45-2.43-.21-2.15 1.42-4.36 5.76-.6.32-.42.32.8.3.21.26-.76.22-.43-.17-.31-.27-.3.25-3.88-7.11-.16-1.19-.41-1.19 1.52-4.14 1.41-4.18 6.8-3.44 3.75-3.25.53.91.34 1.14 3.98.21z" style="fill:#274538"/><path d="m209.96 285.5.34 2.83.12 2.89-.24 1.03-.6.92-2.79 1.34-2.8 1.67 1.14-9.53-3.05-8.39 1.29-4.6.36-4.86 5.53 10.31z" style="fill:#eaede7"/><path d="m193.68 314.3-.2.79-.34.79-3.16 1.09-3.07 1.4-5.58-2.81-1.65-2.59-1.72-1.41-1.15-1.54 5.28-1.02 4.51-2.67.66-.15 1.08-.48 2.43 4.5z" style="fill:#eff2ee"/><path d="m211.81 292.3-.71-.49-.68-.59-.12-2.88-.34-2.84.6-.35.62-.16.62 3.6z" style="fill:#646d5c"/><path d="m230.84 246.27-6.08 7.19-4.25 8.29-.37-5.94-19.24-7.87-7.11-19.85 4.14 2.45.48.02-.12-.14-.27-1.07 3.72.66 2.6-.75-4.76-.27-.53-.85-1.7.14-2.6-1.61 6.52-3.49 7.65.51 7.32 4.77 4.15 7.65 2.12 7.81 2.56-.63h2.49l1.71 1.49 1.56 1.49Z" style="fill:#d4e1c1"/><path d="m265.05 271.7.28.78.1.62-5.12 2.07-3.67-.33-1.66-.87-2.13-.32-.31-2.34 1.42-1.73 2.6.31 2.62.64 2.38 1.19 2.48-.44.55.37z" style="fill:#656458"/><path d="m239.76 241.74-1.17.86-3.12.87-.37.94-.37-.36.81-1.65.29-1.93 2.04.25 1.88 1.02Z" style="fill:#8a9d83"/><path d="m251.7 248.53-.22.98-.29.96-2.32-1.12-.4-.41-.17-.59 1.69.25 1.72-.06Z" class="cls-307"/><path d="m290.04 256.23-1.02-.1-1.2-.72.17 1.17.04 1.17 1.29.01.77.2.79.72-.05 1.33 4.55.95 4.22 1.55 1.27 1.35 8.76 3.22-1.93 1-2.05.75-3.42-2.64-4.57-1.65-.57 1.04-.79-.87-.3-1.16-.78-1.08-1.31-.48-1.21.46.93 2.35 1.57 2.09 1.46 5.06 1.11 5.19-1.08 2.48-1.16 2.43-2.63-2.67-2.93-2.38.34-6.37-.73-6.85-4.83-.81-1.88.74-1.85.5 2.14-4.42 1.31-4.86 1.71.43 1.06-.62-2.21-1.69-.52-2.53 3.41 3.31z" style="fill:#244236"/><path d="m289.96 277-4.73-2.56-4.84-2.36-.17-3.13-.4-3.09.5-.89.68-.75 1.85-.5 1.88-.74 4.83.81.74 6.85-.35 6.37Z" style="fill:#2d4b3c"/><path d="m279.83 265.85.4 3.1.17 3.12-4.02-.55-3.39-.98z" style="fill:#f5f6f3"/><path d="m254.47 328.83-1 3.01-.68 3.14-1.09 3.52.05 4.1 3.74-4.3 4.96-2.81.64-.94.89-.55 1.24.4.56.55-.4 1.02.38.58 1.01.19.99-.04.24 2.89-.9 2.86-.74.46-.58.73h-4.62l-4.08-2.95-2.5 3.12-.15 3.83 8.25-1.3 1.34-.29 1.11.34.06 3.49-.3 3.82.16 1.84-.57 1.52-8.87 2.67-9.17-1.78-.53-1.14-1.25-.94-5.36-7.4.23-8.78.91-1.45.77-1.53 4.94-3.53 6.9-3.34 1.02-.88 2.4-.11Z" style="fill:#a4bd93"/><path d="m267.39 326.06 1.72 1.14-1.01 5.73-1.62-1.14-.64 2.42-.07 2.48-1 .05-1-.2-.39-.58.41-1.02-.56-.55-1.24-.4-.89.55-.64.94-4.96 2.81-3.74 4.3-.05-4.1 1.09-3.52 2.65-.02 3.25-1.92 2.29-2.14 2.07-2.47 1.17-1.61 1.43-1.19.25.57.68.42.35-.29.46-.26Z" style="fill:#a7bb97"/><path d="m258.4 323.81-1.92 2.55-2.01 2.46-2.4.11-.92-4.05-1.08-4 2.14-1.59 1.61-2.11 1.86 2.53 2.72 4.09Z" style="fill:#f4f5f1"/><path d="m265.11 342.44-.8 2.09-1.17 1.85-1.11-.34-1.34.29-8.25 1.3.15-3.83 2.5-3.12 4.08 2.95h4.62l.58-.73z" style="fill:#b2c79e"/><path d="m267.39 326.06-.46.26-.35.29-.68-.42-.25-.57 1.03-1.02 1.02-1.17z" style="fill:#879f7e"/><path d="m193.57 239.49 7.08 11.61.37 13.55-2.21 3.73-3.09 3.87-5.89-5.29-4.01-6.73-.24-10.86 6.34-9.88.73 1.96.07 2.37.6 6.56.5 7.59.72 5.65.19-4.12-.22-4.17-.5-6.27-.32-4.87-.12-4.72Z" style="fill:#e9f0da"/><path d="m193.63 220.34-.75 6.31 1.01.18.86-.15 2.6 1.61 1.7-.14.54.85 4.75.27-2.6.75-3.72-.66.27 1.07.12.14-.48-.02-4.14-2.45-.98 3.55.76 7.85.12 4.72.32 4.87.5 6.27.22 4.17-.19 4.12-.72-5.65-.5-7.59-.6-6.56-.07-2.38-.73-1.95-.31-6.82-1.86-3.53-.23.61-.05.59-.55-.03-.46-.48-.06-.59-.29-.59 1.9-1.32.34-1.91.41-.26.02-.47 1.15-2.38.59-2.62.58.01.05.53.47.11Z" class="cls-169"/><path d="m250.07 320.89 1.08 4 .92 4.05-1.02.89-6.9 3.33-4.94 3.53 1.39-5.39 3.72-4.72 2.76-1.94 2.52-2.53-.13-.78.13-.84.26-.04.23.44Z" style="fill:#40604a"/><path d="m97.52 251.21-2.92 8.92-6.14 7.57-6.73-4.8-4.58-7.02-.88 1.82.31 1.95-.52-.1-.51.02.27-3.47.08-3.69-.22-5.03.99-4.62.97-1.36.62-1.53 1.57-1.54 1.72-1.32 3.22-1.67.24 1.46.42.97.25-1.69.45-1.15 9.29 5.48z" style="fill:#cbdab7"/><path d="m76.58 259.65.06.56-.55.09h-.54v-.73l.51-.02z" class="cls-17"/><path d="m85.83 245.54-.44-3.21.4-3.55.76 3.23z" style="fill:#9bb491"/><path d="m85.72 247.69 1.01 1.24.47 3.12-.31.5-.73.32.01-2.68-.44-2.5Z" style="fill:#a1b893"/><path d="m87.81 280.18 3.67 2.06-.1 1.22-2.68 1.52-3.9-.41-.6-1.69.45-1.85 1.16-1.04z" class="cls-17"/><path d="m106.54 225.41.89 2.23.27 2.61 2.15 11.94.01 1.73 1.11 1.12-.39-3.29-.57-3.24-.45-5.51-1.66-5.41.04-1.46.74-1.14 6.83 6.66 1.45 9.38-.3 1.14.45.66-3.47 5.99-1.17 1.57-1.41.6-7.37-7.79-3.45-10.11.54-.73-.24-.28-.29-.1 1.01-4.93 2.43-1.25z" style="fill:#95b187"/><path d="m130.16 204.67 4.41 3.49-14.33 2.87-10.21 10.44-.02 1-.37.78-.4-.21-4.86-18.63 4.33-4.83 2.88-5.67 2.8 2.93 3.13 2.85 6.1 3.14z" class="cls-26"/><path d="m87.15 198.32-1.96-1.58-2.27-.18-4.42 1.11-3.55-2.19 4.91-5.73 6.32-3.48 5.61-1.47 1.22-.18.96.33.46.56-.04.69-1.06 1.79 5.06 6.07 1.99 3.94 1.35 4.26-4.77-4.54-6.71-.3z" style="fill:#607e66"/><path d="m109.64 223.25 7.27 6.89 9.21 3.58-.92 1.69-1.16 1.51-3.06 2.65-2.64 3.03-.63.03-.6.19-.45-.66.3-1.14-1.46-9.38-6.82-6.66-.74 1.14-.04 1.46 1.66 5.42.45 5.5.57 3.24.39 3.29-1.12-1.12v-1.73l-2.15-11.94-.27-2.61-.89-2.23 1.15-.37.98-.95v-1.02l.43-.6.15.56.4.22Z" style="fill:#627f63"/><path d="m87.15 198.32-4.4 2.06-3.44 3.12-2.34.81-2.22-.15-1.17-1.76-.91-1.91.69-2.77 1.6-2.24 3.55 2.19 4.42-1.11 2.27.18z" style="fill:#52725a"/><path d="m100.81 146.46-8.85-1.12-8.65 2.56 11.57 9.1 6.38 12.47-1.26 7.08-3.46 6.35-.79 2.16 3.63 8.25 2.53-5.54 4.55-3.14 2.14 2.05 1.36 2.64.67 2.36.96 2.22-2.88 5.67-4.33 4.83 4.71 18.06-.43.6v1.02l-.98.95-1.15.37-2.84.39-2.43 1.25-9.37-2.61-7.06-6.54-1.04-2L82.6 214l-1.48-5.62-1.82-4.88 3.44-3.12 4.4-2.06 3.1-.9 6.71.31 4.77 4.53-1.35-4.26-1.99-3.94-5.06-6.06 1.06-1.8.03-.68-.45-.57-.96-.33-1.22.18-5.61 1.47-9.37-1.04-10.5 2.23-.53-5.77-1.35-5.62.71-.56.43-.58-.3-.54-.42-.5 7.97-4.05 10.89 1.99-.57-1.77-.81-1.4-2.36-7-.2-6.34 1.84-7.11-1.98.75-1.89.22-.62-.42-.4-.68 7.37-3.64 5.55-6.14.73-1.17.83-.7 9.6 10.02Z" style="fill:#e7eed9"/><path d="m94.91 204.07 4.98.72 3.02 3.57-6.74-2.89-7.32-1.79 2.98-.19z" style="fill:#334b3e"/><path d="m92.67 175.31-5.47-15.73 2.76 4.84 1.5 5.5 1.08 2.56z" style="fill:#bac8ac"/><path d="m79.37 177.18 2.93.44 2.72 1.62-2.88-.76z" style="fill:#b9c8ad"/><path d="m60.38 150.52.15 1.53.49 1.62 1.04.01 1.34-.83-.1 3.46-.01 3.49.35.99-.1.96-1.03-2.34.17-2.9-.73-.42-.61-.89.98-.39-.24-.71-1.5.58-1.01-.58-.14-.85.48-1.09-.86-.63-.24-.33.36-.55.34-.15.44.13.44-.13Z" style="fill:#618066"/><path d="m50.7 202.87-.57-.05-.55-.29 1.02-1.01.39.73z" style="fill:#473223"/><path d="m45.62 202.84-.54-.27-.02-.99.33-.37.55.44.04.51z" style="fill:#59362b"/><path d="m287.69 119.99.54 1.26 1.1.61 2 4.65 1.87 4.72.22 2.55.42 2.49.02.68-.43 1.57-.1 1.69-.94 2.61-1.32 1.99-.15-3.69-3.99-.34-3.81.64.57-1.31-.04-1.36-2-1.21-2.2-.55-.37-1.15-.63 1.07-.24.75-.23.49-.67.37-.81-.48.45 1.83.18 1.62-1.34 3.22-1.94 2.86-2.45-.42-2.12-.03-1.21-4.68-1.84-4.47.33-3.48.17-3.75 4.4-9.02 8.88-4.17.29-.38.16-.48 7.24 3.32Z" style="fill:#8aa97e"/><path d="m283.13 141.4-2.88 1.01-2.78 1.28-.25-1.06-.27-2.78-.45-1.83.82.48.66-.37.23-.49.24-.75.63-1.06.37 1.14 2.2.55 2 1.21.04 1.37zm-3.63-6.16-.31-1.06.91-1.18.31 1.06z" class="cls-204"/><path d="m147.63 125.74 9.3 4.83 6.93 7.56 2.3 7.87-.8 11.07 1.86 2.36.07.43.33.23.73-.08-1.69.1-3.98-.23-14.14 3.51-12.3-7.81-2.24-4-2.38-5.83-.96-6.53-.2-.19-.27.11 10.16-14.04 3.66.18z" style="fill:#b1c89e"/><path d="m125.03 139.16-.08 3.51-.35 3.65.04 2.51-.5 2.19-.12 5.06.32 5.03-.43 2.78-.06 3.04-1.82-1.68-1.69-1.41.1-.84.37-.5-.15-.94-.8-.48-.12-5.26.16-5.29.1-.63.39-.56.66-1.59.04-2.73-.22-.91-.46-1.35-.35-1.39.46-.15.35.01.6-.35-.17-.57-.56-.01-.45-.1.41-1.87 1.33-1.32 2.99 2.17Z" style="fill:#345143"/><path d="m147.63 125.74-3.62-.46-3.66-.18 2.28-4.52 1.42-4.91 2.39 4.99z" style="fill:#395748"/><path d="m148.54 82.42-4.71 13.53.21 19.73-1.42 4.91-2.28 4.52-10.16 14.04-1.13.67-1.19.52-.91-1.01-.3.66-.86-.26-3.75-2.73-4.73-7.79-2.39-8.69.07-5.07-.08-5.01 2.11-5.53 2.43-5.65-.07-1.15.55-.53.63-.12.35-.49.12-.79-2.6-16.09 1.38-2.68 4.43-2.59 3.46-3.87 3.76-3.5 2.69-6.21-.23-6.44.33-.04.33.04 4.59 5.18 5.96 3.83-6.58 4.3-5.14 5.85 7.06 5.38 8.04 3.09Z" style="fill:#dbe7c8"/><path d="m127.92 129.73-.57.31-.44-.47-.33-1.63.69-3.68-.15-3.4.97-7.86.58-5.59 1.27-10.05 1.2-3.83-.89 7.8-1.14 7.61-.15 2.99-.35 3.23.2.41.49.03.16.69-.84.41-1.42 11.54.1.54.6.96Z" style="fill:#b8c8a4"/><path d="m186.77 120.63-5.56 6.66-5.55-2.31-1.32.01-.98.65-.35-1.65 1.43-1.74 4.8-5.01 3.63-5.64 1.02 1.06 1.42 1.16-.55 1.68.45 1.43 1.12 1.06 1.73.49-.97 1.07-.33 1.08Z" style="fill:#506c56"/><path d="m169.46 134.12-.14 1.11.17 1.05-.18 6.61.68 7.04-1.11-.63-2.85-11.97.85-2.22-.26-2.63.83-2.74-.19-4.04.68.39.6.14.35-.29.5-.23-.55 4.31z" style="fill:#8a8171"/><path d="m166.04 137.33 2.85 11.97v1.37l-.16 1.46-1.56 1.22-1.61.85.6-8.19-2.3-7.87-.11-.57-.2-.48.85-.18.82.1z" style="fill:#2b3933"/><path d="m161.12 82.91.05.59-4.54 13.36 2.91 13.87 4.3-4.37 1.95.39 1.12-1.37 2.36.69 2.58 1.61.48-.41.37-.5.52.05.58-.05.91-.85 1.33-.13-1.54 5.36-4.23 3.79-.46 1.75-.36 2.09 1.55-1.01.58.34.87.73.96-.11.71-.41.82.29.35.93-.51 1.4-.34 1.31-1.43 1.74.35 1.65-1.01 2.61-1.43 2.61-.53 1.84-.93 1.42-.62-4.1.55-4.31-.5.22-.35.3-.61-.15-.67-.38.19 4.04-.83 2.74-.47-.02-.46-.36V131l-1.74.41-.97 1.87-1.57.51 2.99 3.12-.52.02-.33.16.31 1.05-6.93-7.56-9.3-4.83-1.19-5.08-2.39-4.99-.21-19.74 4.71-13.52 6.26.91 6.32-.42Z" style="fill:#517659"/><path d="m166.63 132.47.27 2.63-.86 2.22-.82-.32-.82-.1-3-3.12 1.58-.51.96-1.86 1.75-.42v1.1l.46.35z" style="fill:#bacab4"/><path d="m164.43 124.08-.5.45-.64.31h-.66l-.38-.67 1-.24z" style="fill:#7a9c7d"/><path d="m195.83 113.23-.14.85-.24.82-8.68 5.73.34-1.08.96-1.07-1.72-.49-1.13-1.06-.44-1.43.54-1.68-1.42-1.16-1.02-1.06.25-.94.54-.83 5.46 1.04.83-.14.62-.26.73.57.34.8 2.18.63z" style="fill:#4f6452"/><path d="m169.46 80.64.05.83.32.65 4.35 1.6 8.32 9.39 1.58 5.2.6 5.23-1.01 6.3-.55.82-.24.95-3.63 5.63-4.8 5.02.34-1.31.51-1.4-.35-.93-.82-.29-.71.41-.96.11-.87-.73-.58-.34-1.55 1.01.35-2.09.47-1.75 4.23-3.8 1.54-5.35-1.32.13-.92.85-.58.05-.52-.05-.37.5-.48.41-2.58-1.61-2.36-.69-1.12 1.37-1.95-.39-4.3 4.37-2.91-13.87 4.54-13.36-.05-.59 4.2-1 4.14-1.26Z" style="fill:#6b8e6b"/><path d="m171.85 102.71.58-.15.41.3v1.11l-.18.26-.4-.22-.51-.59z" style="fill:#819e7d"/><path d="m120.39 149.33-.39.57-.1.62-.59.39-.67.17-1.04-1.24-.49-1.73.93-.65 1.51.22.75.51.08 1.13Z" style="fill:#aa2d34"/><path d="m120.88 144.09.22.9-.01.95-.66-.3-.47-.57.18-.83.75-.15Z" style="fill:#c75a47"/><path d="m134 151.59 2.24 4-1.19 2.46-2.21 1.75.99.27.67.41.08.58-.31.46-2.19.69-2.7-.12-1.05.58-.88 1.32.34-10.76 4.37-3.97.44 1.14.74 1.18.29.06.38-.04Z" style="fill:#2b4c3c"/><path d="m173.83 255.68-.52 2.19.09 2.7 3.83-.41 2.44 1.17-5.44-.41-5.17 1.74-1.88 1.11-1.44 1.4-1.75 4.22-1.32 4.34-.84-5.44-2.6-5.31 1.68-2.17.74-2.25 5.54-1.6 6.65-1.27Z" style="fill:#43453e"/><path d="m218.39 133.08.74 5.05-.05 1.32-.6.93-1.62-.15-.39.65h-.48l-.33-.29.32-.41.17-.4-1.25-.41-.99-.53.8-.27.49-.31-.73-.61-2.65.49 1.79-3.32 1.47-3.43z" style="fill:#757568"/><path d="m130.62 243.4-3.37 2.88-2.95 3.31-2.42-3.46-3.54-3.52 2.63-3.03 3.07-2.65 2.33 1.75 4.76 3.22-.5.81z" style="fill:#0e2722"/><path d="m255.1 252.89-.3.5-.62.09-.66-.1-.19-.58.86.13zm3.89-4.58-.06.39-.25.27-.45.23-.39-.11-.11-.31.08-.33.59-.2z" class="cls-307"/><path d="m219.02 211.82 5.62 4.59 7.27 3.11 4.24 5.61 2.69 6.31.06 1.76.32 1.71-.77 1.01-.56 1.04-1.25.43-1.16-.05-.39 2.04.41.5.35.57-.28 1.93-.82 1.65-1.89 1.28-2.01.95-1.56-1.5-1.71-1.48h-2.49l-2.56.63-2.12-7.81-4.15-7.65-7.32-4.77-7.65-.51-6.52 3.49-.86.15-1.01-.18.75-6.31 8.28-4.64 4.27-8.41 1.36-.64 1.49-.96-1.66 2.42-1.17 2.42 6.38 1.42 6.44-.14Z" style="fill:#224035"/><path d="m232.59 230.73.52.39-.06.75-.61.15-.7-.37-8.26-1.1-5.74-1.29 3.7-.23 2.61.56 2.42.09 2.34.72 2.42-.67.38 1.05z" style="fill:#355445"/><path d="m212.82 149.26 2.01.27.33.79.61.66.81.22.76-.31.85.58.78.7 1.93 1.21 1.85 1.35 2 .94 2.17-.22 2.64.48 2.96.89-1.61.58-1.18.94.87 1.09 1.39.55.43 1.06-3.56.37-.07 1.13.14.9-1.23-.49-.89.72-6.81-.41-6.89-.05-21.83-.41-3.12-.48-2.73 1.2-.56-.96-.45-.3-.43.38-.45.19-2.16-.87-3.23.72 1.22-2.67 1.92-2.17.55.22.75-.86 7.11-4.83-.39-.4-.1-.42 9.99-2.19 8.58-5.67.46 1.27-.83 1.57-1.49.57-1.57.94 4.56 1.01 3.94.17Z" style="fill:#567b5d"/><path d="m218.48 140.39.24 1.84-.32 2.19-5.58 4.84-3.94-.18-4.56-1 1.57-.94 1.49-.57.83-1.57-.46-1.27 2.08-2.74 1.98-2.85 2.65-.49.73.61-.49.31-.8.27 1 .53 1.24.41-.17.4-.32.41.33.29h.48l.39-.65z" style="fill:#909c91"/><path d="m227.47 144.23 1.77 1.41 1.18 1.84-.87 4.88-1.6 1.26-1.05 1.83-2.17.22-2-.94-.34-1.92.73-1.85 3.91-2.26-.44-2.07-.4.39-.51.18-.85-.4-.31-.96 1.13-1.41z" style="fill:#df3e44"/><path d="m222.86 143.67.8 2.54-.76 2.49-1.4-1.27-1.11-1.45.57 1.64.24 2.76.48 1.12-.37.55-1.2.45-1.13-.31-.78-.7-.85-.58-.56-.74.99-.95.08-2.63 1.81-2.21 3.21-.7Z" style="fill:#e43e43"/><path d="m227.47 144.23-1.81.21-1.13 1.41.31.96.85.4.52-.18.39-.39.44 2.07-3.91 2.26-.73 1.84.34 1.93-1.85-1.36-1.93-1.2 1.13.31 1.2-.45.37-.55-.48-1.12-.24-2.76-.57-1.64 1.12 1.45 1.39 1.27.76-2.48-.8-2.55 1.13-.67 1.19-.2 1.51.48.78.95Z" style="fill:#8a3235"/><path d="m237.02 128.94 2.19.73 4.56-.11-.37.71.1.44 1.5.5 1.34.28 1.27.44 5.9 3.44 5.17 4.5-1.09 9.25-7.38-13.09-5.9 8.82-3.27 10.23-1.86 1.91-1.64 1.95-1.15-1.04-2.47-.95-.77.66-.25 1.07-.71.59-.21.72-1.4-.55-.86-1.09 1.19-.95 1.6-.57-2.96-.9-2.64-.47 1.05-1.83 1.6-1.26.96-2.62-.09-2.26-2.95-3.25-.78-.96-1.51-.47-1.19.2-1.13.67-3.21.7-1.81 2.21-.08 2.63-.99.95.56.74-.76.31-.81-.22-.6-.66-.34-.79-2.01-.27 2.53-3 3.05-1.84.31-2.19-.23-1.84.6-.93.05-1.32 1.64-.62.94-1.9 1.61-.75 1.53-1.1 3.19-2.01 3.28-1.63 2.85-.71 2.84-.47Z" class="cls-382"/><path d="m244.98 129.69.02 1.52-1.5-.5-.1-.43.37-.72z" class="cls-102"/><path d="m221.72 135.61-.95 1.91-1.63.61-.74-5.05 1.92 1z" style="fill:#f8f8f7"/><path d="m229.68 140.36.48.66-.3.5-1.93.54-1.48-.4-.13-.6-.02-.69 1.73-.47z" style="fill:#5f2929"/><path d="m229.68 140.36-1.65-.46-1.73.46.69-1.14 2.19-.37z" style="fill:#7a3f3b"/><path d="m180.61 171.25.67.02 7.07 5.09 18.86 4.01.33 1.55-.8 1.33-4.67 1.2-2.81 3.49-6.57 4.41-4.6 6.5-1.4 1.65-1.63 2.74-.73-.08-.96-.31-10.36-6.92-2.71-4.4-.39-.06-.38.05-1.13-2.79.44-.41-.07-.82-2.57-10.76-.05-.49 1.06-.59 1-.67 5.09-2.08 5.23-1.64z" style="fill:#244336"/><path d="m206.74 183.26 10.67 2.69 8.9 6.07.54 7.14-1.26 7.05-.79.65-.18 1.09-2.61 2.13-3 1.74-6.44.13-6.38-1.41 1.17-2.42 1.66-2.42-1.49.96-1.36.64-.43-9.31-4.13-8.65-1.12-1.06-1.23-.33 2.81-3.49z" style="fill:#d66559"/><path d="m212.42 201.04 1.64-1.93 2.23-1.67-1.29 2.32z" style="fill:#834645"/><path d="m228.91 163.46-8.13 11.69-13.57 5.23-18.86-4.01-7.07-5.09v-.84l-.27-.25-.38-.04-.48-.76-.71-.46-1.04-2.59-2.19-1.09 1.22-.91-.37-.37-.29-.52.79-.17.54-.55 3.24-.72 2.15.87.45-.19.43-.38.45.3.56.96 2.73-1.2 3.12.48 21.83.41 6.9.05 6.8.41.9-.72 1.22.49Z" style="fill:#638766"/><path d="m191.91 239.49-6.34 9.88.24 10.86-1.5.76-1.36 1.01-3.28-.67-2.44-1.17-3.83.41-.09-2.7.52-2.19 10.47-7.87 4.7-12.36.41-2.64.11-3.07.23-.6 1.85 3.53z" style="fill:#284638"/><path d="m188.09 198.85-1.58 11.24 6.01 9.59-.59 2.62-1.15 2.38-6.73-3.48-7.1-3.22.94-1.76.31-1.89-2.54-3.23-3.83-.5-2.21 3.57.51 3.8-1.06.07-.91.65-1.85-.1-1.89.55-.62-.21-.57-.37.61-1.24.84-1.12-.46-1.59.32-1.5 1.47-.19 1.38.43-.82-2.15 3.99-9.64-1.03-10.06.38-.05.39.06 2.71 4.39 10.36 6.93.95.31.74.08 1.63-2.74 1.4-1.65Z" style="fill:#0e2822"/><path d="m190.35 225.42-.34 1.91-1.9 1.32-11.9-1.89-10.55 6.01-1.36 1.85-2.82 2.76-1.7 1.16-1.81-.75-2.38-.31.36-2.74 3.96-7.15.38.11.44-.13.33-.23v-.38h1.42l1.29-.51h.89l.28-.23-.52-.59-.18-.31.95-2.52-.2-2.5 6.57-.29 6.23.92 3.84 1.45 3.94 1.38 2.39 1.19 2.39.49Z" style="fill:#17332b"/><path d="m170.13 217.98 2.28 1.06 2.6.8.94-1.22 1-.64 7.1 3.22 6.73 3.48-.02.47-.41.26-2.39-.49-2.39-1.19-3.94-1.38-3.84-1.45-6.23-.92-6.57.29-.45-.48-.12-.66 1.89-.55 1.85.1.91-.64 1.06-.08Z" style="fill:#694242"/><path d="m372.08 198.13-1.42 1.7-.99 2.36 1.62-.35 1.46.16-2.14.3-1.32.88-2.42 1.44-.67 3.02-.3 4.18-1.31 4.12 11.61.5 10.69 5.18-3.2 5.98-4.75 4.52-10.15-2.61-9.69 1.49-1.2-1.44-1.53-1.42-6.15 3.63-1.29 1.94-.55 2.35-.73-1.11-.36-1.28.95-2.78.76-2.76 1.68-5.29 1.07-5.44.65.3.42.67 6.33-17.83-.83 5.44 1.62 1.24 2.6-.37 1.31-.88.94-1.46.53-.33.03-.85 1.36-1.15 3.02-3.24 1.03-2.81.76.62-.2 1.31.37.08.37-.01Z" style="fill:#943d3f"/><path d="m358.06 284.44 3.05 2.44 3.59 1.45 5.03-.08 5.37.53 7.46 4.09 3.68 7.45-6.59 1.68-6.94-2.26-7.65-7.23-4.2-4.65-.22-.54-.63-.1-.25.32-.04.5.14.35.38.03.99 12.56-6.14 10.69-6.21-1.8-5.22-4.08-2.08-6.98-3.24-6.53 3.31-1.16 3.24 1.14.97-1.65.96-1.39.91.99 1.06.45 1.6-1.04 3.16 10.57.12 2.3.73 2.27.07-2.54-.92-2.03-1.02-6.56-1.88-7.69.64-.62 1.07-.01.51.6.81.79 2.11-2.03 2.28-.22Z" style="fill:#91b082"/><path d="m345.01 273.01 2.3 1.55 2.32 1.79.08 1.15.68-.48 9.12 1.91 8.97.14 3.63-.94 2.38-.07 2.01-.9 1.81 1.23.54 1.96-5.46 4.36-6.69 1.57-1.15.53-1.3.93-.38-.04-.58-.34-.43-.49-2.27-1.53-2.55-.9-2.28.22-2.11 2.03-.81-.78-.51-.61-1.07.01-.64.62 1.88 7.69 1.02 6.56-3.16-10.57-1.6 1.04-1.06-.45-.91-.99-.96 1.39-.97 1.65-3.24-1.14-3.31 1.16-2.28-1.8.09-1.25-.56-.4-.62-.08-1.06-.63-.75-.87 1.4-7.83-.18-7.99 1.49-3.47 2.47-4.63 5.34 8.53.13.78.39.54.4-.16.41.01Z" style="fill:#6d906b"/><path d="m334.96 288.74.62.08.56.4-.09 1.25 2.28 1.8 3.23 6.53 2.09 6.98-.27 3.09-1.32 3.05-3.08 2-3.58.91-7.6-.01-6.11.08-.24-.02-2.42-1.73-3.04-.97-2.08-1.1-1.9-1.35 4.09-1.14 4.03-3.65.14-2.07-.07-2.16 7.21-5.11 5.27-7.21 1.1.74 1.28 1.16.2-.79-.31-.76Z" class="cls-19"/><path d="m361.85 187.86 2.33 4.54.61 5.33.23 3.39-.23 3.39-.94 1.46-1.31.88-2.6.37-1.62-1.24.83-5.44.41-.07.15-.25.03-.87-.47-.54-.14.99.02.74-6.33 17.83-.42-.67-.65-.3-2.67-6.67-.44-1.98-.3-2.02.87-6.58 4.6-5.05 3.6-4.21 4.44-3.04Z" style="fill:#d26459"/><path d="m373.24 173.07.57 7.78 3.46 6.6 1.33 1.9-5.98 7.24-.33-1.25-.02-2.44-.77-.55-.94-.19-.24-1.67-.74-1.64-2.97-8.17 1.87-7.95 2.36-.36 2.4.71Z" class="cls-149"/><path d="m380.63 185.26-.91 1.64.28.69-2-2.18-1.15-4.24.62 3.15-.2 3.13-3.46-6.6-.57-7.78.4-2.48.91-2.46 4.61 2.84z" style="fill:#d46058"/><path d="m388.24 178.67-.73.27-.87.21-4.47 8.56-.79.63-.54.73.34.97 1.05.2.05.85-1.02.08-1.11-.21-2.91 2.67-2.3 2.92-.82.66-.87.5-.59.14-.58.26.54-1.55 5.98-7.24-1.33-1.9.2-3.13-.62-3.15 1.15 4.24 2 2.18.91-1.08.78-1.22 3.13-5.4.76-2.13-.11-2.13.4-1.54.47-4.94 1.05-.72-.31 2.5.22 2.27-.52 2.3.38 2.61.91-.4-.04.51.21.46Z" style="fill:#8e4d45"/><path d="m372.62 196.58-.54 1.55-.37.01-.37-.08.19-1.31-.75-.62-1.02 2.81-1.92 2.02.09-1.05-.36-1.13.97-3.49 2.02-3.14.95.19.76.55.02 2.43z" style="fill:#dca096"/><path d="m367.56 198.78.36 1.12-.09 1.06-1.11 1.21-1.36 1.16-.03.85-.53.33.23-3.39-.23-3.39 1.27.96zm-2.9 88.67-.03.44.07.44-3.59-1.45-3.05-2.44 2.55.9 2.27 1.53.43.49.58.34.38.04zm17.03-102.15-.79 1.22-.9 1.08-.28-.69.91-1.64.53-.13z" class="cls-149"/><path d="m313.06 201.75 2.24.35 5.02 1.2 2.76 1.18 9.73 6.11.08 2.09.81 2.11 1.65 7.13.22 3.54.55 3.96-2.14-.78-1.55-1.78-1.95-1.09-.84-1.46-1.39-.74-2.69-3.55-3.09-2.41 2.76 3.44 3.02 2.52.14.71.96.7-3.39 1.96-7.17-4.45-7.98-2.73-2.28-5.77-1.4-5.97.01-6.42 5.91.13Z" style="fill:#d26258"/><path d="m310.82 219.77-3.03-.48-3.16-.36.88-1.54.24-1.63 1.39-.8 1.4-.96z" style="fill:#779375"/><path d="m348.39 236.07 1.51.69 2.05-.69.3.1.09.2-.06.66.04.62-4.66 1.94-3.03 3.84.04.5-.11.53-.64.19-3.53 4.7-1.58 5.24-2.21 3.42-1 2.27-1.19 1.14-.6 1.69-1.58 2.83-4.36 7.47-2.98 9.27-.97 4.01-1.36 3.94-.69-.52-.37-.91.14-.65 1.16-.64-.61-.85.39-.47 1.48-3.75.87-3.99 1.13-2.33.24-2.48.92-1.24.64-1.92 1.57-2.78.44-3.34 1.79-3.08 1.59-3.18.32-4.82-3.21-3.51-2.59-3.48.2-.18.12-.48-6.16-6.18-7.1-4.86 1.76.31 1.49.53 5.36 4.21 5.4 5.55 1.11-.13.98-.31.39 2.24 1.49 1.95 2.62 4.15.61-1.29.76-1.15 1.55-3.25 3.15-3.98.3-1.69.55-.79.48-.84 1.27-.37.78-1.14 2.43-5.29.36 1.28.73 1.11Z" class="cls-428"/><path d="m357.03 270.26 7.24 4.55 7.85 3.32-3.63.94-8.97-.14-9.12-1.91-.67.48-.09-1.15-2.33-1.79-2.29-1.55 4.38-1.57z" style="fill:#769971"/><path d="m342.79 263.06 1.52 1.53 1.77 1.38 2.95-.15 2.91-1.77 2.19 2.45 1.74 2.56-5.43 1.75-5.92-.42-2.04-2.33-1.06-2.24.43-.38 1.04-.53-1.16-.34-1.01-.58.8-.85z" style="fill:#7ea078"/><path d="m336.52 261.77.89-.26.93-.17.39 1.57.82.82 1.16.28 1.01.58 1.16.34-1.04.52-.43.39 1.06 2.24 2.04 2.33 5.92.41 5.43-1.74.57.01.48.42.21.37-.1.39-7.63 1.18-4.38 1.57-.42-.01-.39.16-.39-.53-.13-.79-5.34-8.53-2.47 4.63-1.49 3.47-.83-1.58-.36-1.74.49-1.84 1.39-1.48-1.27-1.67.6-1.69 1.19-1.14.24.91z" style="fill:#507257"/><path d="m359.11 231.01-3.29 1.74-2.16 1.68-1.71 1.64-2.05.7-1.51-.7.55-2.35 1.29-1.94 6.15-3.63 1.53 1.42z" style="fill:#2a5342"/><path d="m342.79 263.06-1.28.09-.8.85-1.15-.28-.83-.82-.39-1.57-.08-.89-.73-.19-.82.66-.19.85-.69-.58-.23-.91 1.01-2.27 2.2-3.42 1.47 4.47z" style="fill:#628566"/><path d="m378.94 232.13 13.06 7.59 11.01 11.58-14.88 4.95-15.68-.82 3.96 11.07.09 10.66-2.01.9-2.38.07-7.85-3.31-7.24-4.56.1-.39-.21-.37-.49-.41-.56-.02-1.74-2.56-2.19-2.45-2.91 1.77-2.95.15-1.76-1.38-1.53-1.53-2.51-4.01-1.47-4.47 1.58-5.24 3.14-4.19 7.18 4.6 8.35.08-8.27-5.3-6.23-.08.12-.53-.05-.5 6.26-.28 4.53-3.59-1.79-1-1.31-.92-.03-.62.05-.66-.09-.2-.3-.1 1.71-1.64 2.16-1.68 3.29-1.74 9.68-1.48z" style="fill:#e66f61"/><path d="m344.56 244.45 6.23.08 8.27 5.3-8.35-.08-7.18-4.6.39-.52z" style="fill:#183c33"/><path d="m352.32 237.65 1.32.91 1.78 1.01-4.53 3.59-6.26.28 3.03-3.84z" style="fill:#264b3e"/><path d="m380.08 247.6-7.53-.55-7.95-.39 6.53 6.75-6.14-4.86-6.62-3.42-2.3-.12-2.05-1.2 11.92 1.82 8.17.75 3.08.43z" style="fill:#9d544e"/><path d="m394.32 248.65 1.17.93.96-.12.77-.54.24.82.5.79-17.18-2.6 6.34.29z" style="fill:#b25651"/><path d="m348.01 253.87-.55 1.4-.35 1.63-1.19-3.39-1.42-3.54-1.21-1.68-.12-2.24 1.06 2.11 1.47 2z" style="fill:#984e48"/><path d="m343.4 207.79 1.49 2.25 1.24 2.37 1.41 8.55-3.69 7.75-1.83 2.62-1.19 2.9-.79-2.49-.11-3.12-1.27 1.57-.55 1.9-.56-.85-.26-.83-.65-4.44-1.28-4.04-1.65-7.13-.81-2.11-.08-2.09 2.17-3.21 3.18-2.51 2.79.71 2.44 2.21Z" style="fill:#e27262"/><path d="m349.09 210.74-2.12.55-.85 1.12-1.24-2.37-1.49-2.25 2.26-.14 2.69-.92.31 2.02.43 1.98Z" style="fill:#4e6f57"/><path d="m361.85 187.86-4.44 3.03-3.6 4.22-4.6 5.04-.87 6.59-2.69.92-2.26.14-2.44-2.22-2.79-.7-3.18 2.51-2.17 3.21-9.73-6.11-2.76-1.18-2.79-.65 3.66-3.2 3.13-2.86 4.76-5.67 5.79-4.43 13.77-3.69z" style="fill:#648a65"/><path d="m333.32 199.12 3.48-1.43 3.45-1.01 5.49-.99 6.82-1.08-9.49 2.65z" style="fill:#506f54"/><path d="m330.51 200.02-3.65 1.96-4.05-.63 2.57-.53 2.47-.98z" style="fill:#507558"/><path d="m332.21 204.36-.96.24-.59.52-.24-.84.33-.34.84-.07z" style="fill:#5e8362"/><path d="m351.77 217.41-1.08 5.44-1.67 5.29-1.07-.25-1.19-.73-1.02 1.48-.96.12-.93-.05 3.69-7.75-1.41-8.55.85-1.12 2.12-.55z" style="fill:#2c4e42"/><path d="m349.02 228.14-.76 2.76-.95 2.78-2.43 5.29-.79 1.14-1.26.37-.94-2.47-1.03-3.13-.02-.64 1.19-2.9 1.83-2.62.93.05.96-.12 1.02-1.48 1.19.73z" style="fill:#183a33"/><path d="m353.54 300.18.92 2.03-.07 2.54-.73-2.27z" style="fill:#7d9c74"/><path d="m334.96 288.74.31.76-.2.79-1.28-1.16-1.1-.74-.1-.39.22-.71.34-.06.75.88z" style="fill:#cdcfbe"/><path d="m320.21 300.71.07 2.16-.14 2.07-4.03 3.65-4.09 1.14-1.68-.79-1.31-1.29-.61-1.22-1.32-1.04-3.69-3.52-2.55-4.88.85-5.81 1.19-1.23.03-1.15 5.81-1.97 6.04-2.71 1.47 9.69 3.96 6.92Z" class="cls-107"/><path d="m321.46 314.88-2.62 2.98-3.69 1.93-1.27 1.11-1.46.1 1.18-4.6 2.41-4.22 3.04.97 2.42 1.73Z" style="fill:#e2695d"/><path d="m359.17 200.54-.02-.74.14-.99.47.54-.03.87-.14.26z" style="fill:#943c3f"/><path d="m389.72 169.47-.77 1.3-.47 1.67 1.41-1.28.89-1.58 5.29-4.86 6.76-.97-3.95 10.97-10.64 3.95-.21-.46.04-.51-.91.4-.38-2.61.52-2.3-.22-2.27.31-2.5-1.05.72-.47 4.94-.4 1.54-2.94-8.72 3.54-8.85 3.57 5.25.07 6.16Z" style="fill:#da6559"/><path d="m390.77 169.58-.89 1.58-1.41 1.28.48-1.68.76-1.29h.53z" class="cls-149"/><path d="m391.25 174.65 1.5-2.04 1.76-1.69 3.53-2.89 1.07-1.59.54.61-5.12 4.63-1.36 1.83-1.93 1.14Zm0 0-.73 1.55-1.63.61 1.08-1.44z" style="fill:#b24e44"/><path d="m382.27 191.11-.05-.85.52-.89.62-.79 8.83-4.68 9.99 1.88-8.99 6.78-10.92-1.44Z" style="fill:#dc6357"/><path d="m383.37 188.57-.61.79-.53.89-1.05-.2-.34-.97.54-.72.79-.64.38.65z" class="cls-149"/><path d="M398.35 187.64 385 190.41l9.58-3.47 1.53-.18z" style="fill:#af5b51"/><path d="m369.29 203.18 1.32-.89 2.14-.29-1.46-.16-1.62.35.99-2.36 1.42-1.7.58-.26.59-.14.26.52.59.06.71-.12.25-.52 4.46-.51 4.38 1.23.55 1.87-1.21 1.86-6.79 2.89z" style="fill:#d36359"/><path d="m375.05 197.67-.25.52-.71.12-.59-.06-.26-.52.87-.5.82-.66.12 1.11Z" class="cls-149"/><path d="m378.87 200.86-.99.31-1.31-.2.77-.49z" style="fill:#a14e41"/><path d="m330.49 225.78 1.45 1.79 2.05 1.08 2.02 2.38 3.04 4.26-1.54.12-.86.46-4.57-.78-.73.24.07.58-.78.06-.04-.74.21-.99-2.09-3.76-2.76-3.53 3.39-1.96-.95-.7-.15-.71 1.39.74.84 1.46Z" style="fill:#c55a54"/><path d="m340.83 234.23.03.64.19.63-.73.49-.67.62-1.37-.7-1.63-.04.86-.46 1.54-.12-3.04-4.26-2.02-2.38 2.14.78-.55-3.97-.22-3.53 1.28 4.04.65 4.44.26.83.56.85.55-1.89 1.27-1.58.11 3.12zm-12.57-10.65-3.03-2.52-2.75-3.44 3.1 2.41zm5.73 5.08-2.05-1.09-1.45-1.78 1.95 1.09z" style="fill:#894b46"/><path d="m333.25 258.49-2.7 3.07-3.47 3.27-4.45 1.63-5.07-.38-4.12.17-3.81.84-8.77-3.22-1.26-1.35.07-.54-1.27-.88 5-1.94 7.9-2.18.95-.07.72-.28.04-.67-.31-.51.06-1.85 3.16-2.34-.32 1.48-1.61.76 3.19 1.15 2.54-.6 1.64.05 1.24-.63 1.34.06.91-.62 1.87-1.13 3.66-1.61 3.21 3.51-.32 4.82Z" style="fill:#628665"/><path d="m327.77 246.67 2.59 3.48-3.66 1.61-1.87 1.13-.67-.38-.72-.18-.55.49-.32.63-1.54-.05-1.34.63-2.54.6-3.19-1.15 1.61-.76.32-1.48-3.16 2.34-.06 1.85.31.51-.04.67-.72.27-.95.08-7.9 2.18-5 1.94 1.26.88-.06.54-4.22-1.54-4.55-.96.05-1.33-.79-.72-.77-.2-1.29-.01-.05-1.17-.16-1.17 1.2.72 1.02.1.43-.02 2.61 1.94 3.72.52.75-.86-.24-.82-4.33-.31 3.07-2.81 3.4-2.14 4.89-5.96-.2-.57 11.73 2.75 11.91-1.27Z" style="fill:#688b6b"/><path d="m336.65 235.87 1.63.04 1.37.7 2.13 5.49-.3 1.7-3.15 3.97-.15-.81-.46-.58-.73-.29-.88-.15-4.61-1.47.06-1.45.5-1.39.42-.02.21-.26.05-.62.96-.39-.7-.56-.9-.4-.21-1.77-.47-1.7-.08-.58.74-.24z" style="fill:#23493a"/><path d="m338.34 247.78-1.55 3.25-.76 1.15-.61 1.29-1.62-1.92-2.88-6.42.21-.4.37-.26 4.61 1.47.88.16.73.28.45.59z" style="fill:#406e53"/><path d="m342.82 240.48-.48.84-.55.79-2.13-5.49.67-.62.73-.49.83 2.51z" style="fill:#ae5152"/><path d="m329.87 264.74-1.39.15-1.4-.07 3.47-3.28 2.7-3.06-1.59 3.18z" style="fill:#1c2529"/><path d="m333.19 268.09-.68-.95-.28-1.21.59-1.57.99-1.26 1.27 1.67-1.39 1.48z" style="fill:#222e2f"/><path d="m338.34 261.34-.93.17-.89.26.19-.85.82-.66.73.2z" style="fill:#c6dcbb"/><path d="m305.65 268.84-4.41 4.29-3.48 4.01-1.12-5.18-1.45-5.07.65-1.03.46-1.15.79.87.57-1.04 4.58 1.65z" style="fill:#5c8163"/><path d="m329.87 264.74-.45 3.35-1.56 2.77-.64 1.91-.92 1.25-.24 2.48-1.13 2.33-.87 3.99-1.48 3.75-.39.47.61.85-1.16.64-.14.65.37.91.69.52 1.36-3.94.97-4.01 2.99-9.27 4.35-7.47.28 1.21.68.95.36 1.74.83 1.58.18 7.99-1.4 7.83-.34.06-.12.26-.11.45.11.39-5.27 7.21-7.21 5.11-3.95-6.92-1.48-9.69-6.04 2.71-5.81 1.97-.86-.18-4.29-.16-3.28-.69.24-2.83.77-2.88 2.24-4.91 3.48-4.01 4.41-4.29 2.05-.75 1.93-1 3.81-.84 4.12-.17 5.07.38 4.45-1.63 1.39.08 1.4-.16Z" style="fill:#e46e61"/><path d="m307.38 279.91-3.62 2.64-4.32 1.89 3.83-2.76z" style="fill:#a05852"/><path d="m313.01 276.54-2.75 2.12-2.88 1.26 2.63-2.16zm0 0 1.95-2.02 2.6-.61z" style="fill:#7e4d45"/><path d="m304.63 218.93 3.16.36 3.03.48 7.98 2.73 7.17 4.45 2.76 3.52 2.09 3.77-.21.99.04.74.78-.06.48 1.7.28 2.9-.12 1.12-.49 1.39-.07 1.45-.37.26-.21.4-.98.31-1.11.13-5.4-5.55-5.36-4.21-1.5-.53-1.75-.31-4.55-2.61-5.19-2.01-1.06-.82-1.02-.6-5.86-1.86 3 1.93 3.36 1.26 5.67 2.6 5.66 2.12 7.1 4.86 6.16 6.18-.13.48-.19.18-11.91 1.27-11.73-2.75-5.48-3.02-4.8-3.95-4.61-7.72-2.65-8.63 9.12-2.62z" style="fill:#e97263"/><path d="m314.83 234.98-5.67-2.11-5.66-2.61-3.35-1.26-3.01-1.93 5.86 1.86 1.01.6 1.07.82 5.19 2.02 4.55 2.6Z" class="cls-428"/><path d="m295.53 226.2-3.21-.77-3.04-1.73 3.16.7z" style="fill:#c95e5c"/><path d="m332.07 241.64.12-1.12-.08-1.13.9.4.7.56-.96.39-.05.62-.21.26z" style="fill:#4f7254"/><path d="m296.3 264.72-.46 1.14-.65 1.04-1.56-2.09-.94-2.35 1.22-.46 1.3.48.78 1.08z" style="fill:#93a788"/><path d="m324.83 252.89-.91.63-1.34-.07.32-.63.55-.49.72.18.67.38Zm-2.25.57-1.24.63-1.64-.05 1.33-.63z" style="fill:#4e6c54"/><path d="m159.23 227.6.33-.07.35.07-3.97 7.15-.35 2.74 2.38.31 1.81.75 1.7-1.17 1.33-1.33-2.8 6.7-1.09 7.33-1.06-.95-.75-1.31 1.62-2.39.73-2.6.47-1.39-.06-1.23-.8-.83-3.57-1.62-1.11.26-.88.94-.91-.15-5.79-1.62-5.99 1.07-7.72 3.4-2.48 1.73.01-.7.49-.8-4.76-3.21-2.33-1.76 1.16-1.51.92-1.69 12.65-1.02 11.42-5.51-6.45 9.74 6.93-2.45 6.03-3.96 1.54-1.25.99-1.67Z" style="fill:#1b3a2f"/><path d="m237.1 79.55-.59.05-.07.48-1.64.92-1.81 1.33 1.66.6 1.9-.06-4.06 3.95L221 96.13l-5.95 3.31-7.33.33-.09-.69.7-.71-.73-.2-.76.39-.7 1.3-1.16.57-1.26.46h-.74l-.33.48.03.97-1.31.02-1.28-.51-.77-4.71 1.22-3.64 1.65-1.11 2.23 1.73 2.65.53.6-.67.09-.85-.02-5.58-1.42-5.45-1.1-1.33-.25-1.35 6.63 2.99 7.5.23-.94-6-3.36-4.68-5.41-2.74-5.95-.36 1.3-2.11 2.13-1.99-1.36-1.92-1.7-1.39.35-.42.79-.27-.54-.62.47-.74 11.92 7.91 14.41.7 9.61-4.35 6.89-8.02-1.9-1.96-1.96-1.85 2.52.99 1.9 1.94-2.2 13.87-8.95 10.93Z" style="fill:#28493b"/><path d="m237.02 80.12 8.51 2.43 1.73 4.22 1.61 6.65-1.56 7.34.3.68-1.84 2.31-2.03 1.67-6.26-3.47-1.04-4.29-1.79.47-1.52 1.04-2.79 1.03-2.39 1.8-4.99 2.85-1.43.15-.83 1.01-.64 1.07-3.31-1.29-2.27-2.73-3.28-1.59-1.17-.64-1.9-.06-.25-.35-.15-.65 7.33-.33 5.95-3.31 11.49-9.31 4.06-3.95-1.9.06-1.66-.6 1.81-1.33 1.64-.92z" style="fill:#884d49"/><path d="m249.46 101.99-.35 6.59.33 6.97-3.82 1.04-1.47-1.79-2.11-.05-2.86.67-3.1-.45-5.6.49-5.05.22-.5.3-.29.66-2.56-.29-2.53-.47 3.43-1.4 7.39-.82 7.47-3.21 7.91-6.7 1.84-2.3.96.08z" style="fill:#503e3d"/><path d="m249.45 115.54 3.15 9.48-3.26 2.9-.11.63-2.11.63-2.14.5-1.21-.13-4.56.11-2.19-.73.6-.91.49-.39-.6-.28-1.57-1.73-1.76-1.55-.1-.57-.58-.13-1.13-1.59-1.54-1.2-6.18-3.95.29-.66.5-.3 5.05-.21 5.6-.5 3.1.45 2.86-.67 2.11.05 1.47 1.79z" style="fill:#5c4743"/><path d="m183.01 78.35-1.45 7.29.94 7.47-8.32-9.39-4.35-1.6-.32-.64-.05-.84 4.91-2.04 4.67-2.55.01.61.49.47 3.47 1.21Z" style="fill:#3f654d"/><path d="m197.75 82.89 1.85 4.94 2.59 4.55-1.65 1.11-1.22 3.64.77 4.71 1.28.51 1.31-.02-.03-.97.33-.48h.74l-.09.91.61.8-3.56 4.81-.81 5.31-1.97 1.42-2.45.76.24-.82.14-.85.41-3.16-.2-3.63.93-1.39.44-1.63-.78-2.38-.13-2.4.15-2.72.25-2.9v-7.19l-.97-.68 1.4-3.56z" style="fill:#35322e"/><path d="m207.72 99.77.16.66.24.34 1.9.06 1.17.64-2.04-.06-1.93.54-1.49.28-1.5.37-.62-.8.1-.91 1.26-.45 1.16-.58.76-.14.82.05Z" style="fill:#673232"/><path d="m207.72 99.77-.82-.05-.76.14.14-.78.56-.52 1.49-.19-.7.72z" style="fill:#bfc1b3"/><path d="m243.73 105.42-5.88 5.02-7.47 3.21-7.39.82-3.43 1.4-1.8-.2-1.63.4-1.27-2.51-1.53-2.39 2.26-2.33 1.15-3.05 3.31 1.29.64-1.07 1.29-.32.97-.84 2.6-1.19 2.39-1.66 2.88-.98 2.3-1.85 1.52-1.04 1.79-.47 1.05 4.29z" style="fill:#63574e"/><path d="m211.19 101.47 3.28 1.59 2.27 2.73-1.15 3.05-2.26 2.33-5.41.12-5.28.91 4.71-5.43.62-4.17-.29-.41-.45-.23 1.92-.54 2.05.06Z" style="fill:#2d463d"/><path d="m233.11 99.17-2.29 1.85-2.89.98 2.39-1.81z" style="fill:#544b48"/><path d="m222.94 104.85-.97.83-1.29.33.83-1.01z" style="fill:#4a4341"/><path d="m233.5 123.37-1.76.08-.92-2.88 1.55 1.2zm4.12 4.66-.11-.67.6.28zm-3.44-3.95-.5-.22-.18-.48.58.13z" style="fill:#f4f7f4"/><path d="m188.65 91.84 2.05.83 1.88 1.21-.99.46.32.26 1.77.46 1.25.84-.06.97.05.83 1.59.95.13 2.4.78 2.38-.44 1.63-.93 1.39-2.77-.7-4.28-1.8-4.31-.4-.6-5.23-1.58-5.2 1.1.5z" style="fill:#274639"/><path d="m196.04 106.44.21 3.63-.42 3.16-2-.76-2.18-.63-.34-.81-.73-.56-.62.26-.83.14-5.46-1.04 1.01-6.3 4.31.4 4.28 1.8 2.77.7Z" style="fill:#645851"/><path d="m207.22 101.95.45.23.29.41-.62 4.17-4.71 5.43-1.45.09-1.32.44.81-5.31 3.56-4.81 1.5-.37z" style="fill:#dde4df"/><path d="m196.5 98.65-.76-.55-.83-.4.01-1.8-1.26-.84-1.76-.46-.32-.26.99-.46-1.87-1.21-2.06-.83 3.71-3.25 3.57-3.43.97.68v7.19l-.25 2.89z" style="fill:#355143"/><path d="m220.12 27.16-.02.56-.98 4.18-1.4 4.07 8.56-4.86 9.1-2.24 8.48.57 8.49 2.26-2.8 9.9-5.23 8.63-.6.8.12.78 1.96 1.85 1.9 1.96-6.88 8.01-9.62 4.36-14.4-.71-11.93-7.9-.04-.57.27-.55 6.83-3.41 3.51-1.54 3.62-1.77 14.2-8.46.98-.49.52-.81 4.36-1.95 3.52-2.55 1.03-.21 1.24-.59-.79-.38-.87.28-.41.36-.21.54-4.19 1.92-3.69 2.58-7.14 3.73-9.09 5-3.16 1.85-3.27 1.43-2.83 1.92-3.87 1.04.36-2.44.24-3.11 1.19-1.34.42-1.14-1.13.51-.52.9-3.52 1.9-3.79 1.47-.39-1.76.21-2.11 1.22-8.42 1.85-7.15.2-5.63.68-5.9-3.05 12.54-.23-1.07-.81-.5-.04.69 1.08.88-.33 3.54-.95 7.66-.52 3.24-.76 3.01.21-4.78-2.29-3.6-.39-1.67-.72-1.72-2.3-3.11-2.66-2.86.61-19.11 11.59-15.7 4.62 4.48 3.76 4.82 3.49-.18 3.07.96 3.86 8.16.45 8.92Z" style="fill:#ea7364"/><path d="m235.38 28.87-9.1 2.24-8.56 4.86 1.4-4.07.98-4.18.51-.14.09-.52 4.92-3.12 5.91-1.65 2.54 3.03 1.31 3.54Z" style="fill:#2b4e3f"/><path d="m188.67 34.81 2.66 2.87 2.3 3.1-1.25.55-1.03.99-.77-1.01-.64-1.21.35 4.06 1.01 3.67-.82 1.02-.16 1.42.44.79.09.53-.72.49h-.78l-.81-.98-1.05-.86-.81-1.76-1.48-1.55-.57-6.2-2.26-7.39 1.01-.41 1.3.27z" style="fill:#b14f4a"/><path d="m234.76 41.8-.52.81-.98.49-14.2 8.46-3.62 1.77-3.51 1.54-6.83 3.41-.27.55.04.57-.47.74.54.62-.79.27-3.88 4.23-1.26 2.36.25 2.87-.6.43-.77.95-.6-.28-.32-.52-.06-2.29-.24-2.39-3.08-1.59-3.29-.59-1.81-.61-2.25-.5 1.71-.85 4.79.94 3.26.46.21-2.06v-1.93l.68-.54.82-.33.15 1.85.61 2.15 4.29-5.11 3.2-5.74-.18 2.4-.36 2.44 3.87-1.04 2.83-1.92 3.27-1.43 3.16-1.85 9.09-5 7.14-3.73Z" class="cls-359"/><path d="m198.66 53.52-.55 2.62-.41 2.64-.82.33-.68.54-.75-2.7-2.62-8.67-1.47-5.96 1.03-.99 1.25-.55.72 1.72.39 1.67 2.28 3.6-.2 4.78.75-3.01.53-3.24.95-7.66.33-3.54 3.05-12.54-.68 5.9-.2 5.63-1.85 7.15-1.22 8.42-.21 2.12z" class="cls-216"/><path d="m205.97 50.15.37.14.17.36-.51.57-.05.71-3.19 5.74-4.3 5.11-.61-2.15-.15-1.85.41-2.65.55-2.61 3.79-1.47z" style="fill:#efece9"/><path d="m242.64 37.3-3.52 2.55-4.36 1.95 3.68-2.59z" class="cls-359"/><path d="m206.5 50.65-.17-.36-.37-.14.52-.89 1.13-.52-.42 1.14z" style="fill:#5a4b47"/><path d="m242.64 37.3.21-.54.41-.36.87-.28.79.38-1.24.6z" class="cls-359"/><path d="m199.37 35.1-1.08-.88.04-.69.81.5z" class="cls-216"/><path d="m194.58 54.24.86 2.71.75 2.7v1.93l-.21 2.06-3.26-.46-2.96-.61 1.44-5.32.36-3.13.6-.75.89-.07z" style="fill:#fbfbfb"/><path d="m190.22 72.1-.5.13-.03.46-4.2 2.48-2.48 3.18-3.47-1.21-.49-.46-.01-.62 2.42-1.56 3.33-3.22 1.55-.79 1.09-.29.95.16 1.29.63.56 1.11Z" style="fill:#205044"/><path d="m196.96 71.07-1.27.84-1.04-.32-.54-.57-1.68-3.37-3.01-2.12.2-.85.67-.47 3.29.6 3.08 1.58.24 2.4z" style="fill:#f8faf8"/><path d="m191.35 42.32 1.47 5.96 1.76 5.96-1.52-.94-.89.07-.6.75-1.3-.71-.93-1.33h.78l.72-.49-.09-.53-.44-.79.15-1.41.83-1.03-1-3.67-.36-4.06.64 1.21.77 1.01Z" class="cls-47"/><path d="m194.12 71.02-1.88.73-2.01.34-.56-1.11-1.29-.63-.95-.16-1.09.29 1.74-2.36 1.35-2.6 3.01 2.12z" style="fill:#739374"/><path d="m182.37 33.34 2.26 7.4.57 6.19 1.48 1.55.81 1.76-.79-.62-1.36-.5 1.69 1.98 2.31.98.93 1.34 1.3.7-.37 3.13-1.43 5.32-1.84-.32-1.7.84 2.25.5 1.81.61-.67.47-.2.85-1.35 2.6-1.74 2.36-1.55.79-1.29 1.28-16.13-1.73-10.96-11.37.88-1.13-.74-.92.08-.3-.68-.05 3-.55 1.41-1.32 4.89-2.78 5.34-1.01 1.03.03 1.28-.24-.93-.53-.91-.37-8.71-9.29-3.36-12.46 12.57-.25 10.8 5.06Z" style="fill:#8d373b"/><path d="M170.59 51.39v-.63l.45-.05.03-.43.91.37.93.53-1.28.24z" class="cls-149"/><path d="m189.07 56.02.31 2.64-1.22 2.29-3.34-2.62-3.04-2.96 6.51-.61 2.15.67-.47.39-.9.21Z" style="fill:#e8d1c9"/><path d="m187.49 50.24 1.05.86.81.98-2.32-.98-1.68-1.98 1.35.5.8.62Z" class="cls-47"/><path d="M170.6 50.76v.63l-5.35 1.01-4.89 2.78-1.42 1.32-2.99.55.68.05-.08.3.74.91-.88 1.14 10.96 11.37 16.13 1.73-2.04 1.94-2.42 1.56-4.66 2.56-4.92 2.03-4.14 1.26-4.2 1-6.32.42-6.26-.91-8.04-3.08-7.06-5.39 5.14-5.85 6.58-4.3-5.97-3.83-4.58-5.18-.69-2.41 17.75-7.02 18.94 5.4Z" style="fill:#ea7162"/><path d="m133.91 52.38.69 2.41-.33-.04-.33.04-.5-1.13-.62-1.17.55-.13.54.01Z" class="cls-149"/><path d="m154.83 56.75-2.44.21-2.43-.81-3.85-.83-3.84-.98-2-.11-2.12-.59 1.69-.76 1.4.12 2.48 1.09 2.73.66 1.12-.62.92 1.04 1.89.91 2.04-.82.19.83.26.34.73-.02 1.23.33Z" style="fill:#bf6054"/><path d="m204.96 79.41-2.29-2.89-2-3.08-.62-1.64-.8-1.31-.03-.43 2.22-.21 1.98-1 5.96.35 5.4 2.75 3.37 4.68.93 6-7.5-.23z" style="fill:#ea7466"/><path d="m207.75 93.13-.09.85-.6.67-2.65-.53-2.23-1.73-2.58-4.55-1.86-4.94.46-.42-.03-.96-.92-.67.79-1.82 2.31-3.98 2.43 4.12 1.48 4.85 2.43 9.21.45.19.59-.28Z" style="fill:#dc695e"/><path d="m204.96 79.41.25 1.36 1.1 1.32 1.42 5.46.02 5.57-.59.28-.45-.19-2.43-9.21-1.48-4.84-3.11-5.22-.95-.4-.17.84-.42-.22-.6-1.34-3.68-.67-4.16.53.04-.46 2.51-.47 1.87-.73.54.57 1.04.32 1.27-.84.31.52.61.28.78-.95.59-.43.79 1.31.63 1.64 2 3.08 2.29 2.89Z" style="fill:#814340"/><path d="m203.43 68.85-1.98 1-2.22.21-.23-2.44 1.27-2.36 3.53-3.81 1.7 1.39 1.36 1.92-2.13 1.99z" style="fill:#f9fcfa"/><path d="m200.36 75.05-2.31 3.98-.79 1.82.92.67.03.96-.46.42-.42-1.3-1.4 3.56-3.57 3.43-3.71 3.25-5.05 1.77-1.1-.5-.94-7.47 1.45-7.29 2.48-3.17 4.2-2.49 4.16-.53 3.68.67.6 1.34.59-.62.95.4.68 1.09Z" style="fill:#eb7465"/><path d="m189.17 82.89 2.29-5.1 1.91-1.97 1.73-2.59-1.6 3.55-2.35 3.2-.62 1.77zm0 0-1.39 3.59-1.81 3.32 1.18-4.04z" style="fill:#a65d52"/><path d="m176.15 152.2-3.03 1.03-.69 1.09-.96.03-.64-.48.99-1.02 1.63-.45-2.16-.81-1.3-1.66-.68-7.04.18-6.61 4.56-2.09 3.86-.08-1.06 12.98.25 2.31-.93 2.09-.47.39z" style="fill:#132b24"/><path d="m189.18 151.58.09.42.4.4-7.11 4.83-.75.85-.55-.21-.9-1.06-1.31-.78.79-2.78 2.62-1.5 3.44-.18z" style="fill:#4c6f56"/><path d="m179.05 156.03 1.32.78.89 1.06-1.92 2.18-1.22 2.66-.54.55-2.84.73-2.23-.1 2.52-5.08 1.61-1.21 1.46-1.52.48-.16z" style="fill:#dee3d3"/><path d="m213.33 111.17 1.53 2.39 1.27 2.51.47 7.69-1.53 7.63-1.47 3.43-1.79 3.32-1.98 2.84-2.08 2.75-8.59 5.66-9.98 2.2-3.28-.01-3.44.18-2.62 1.5-.79 2.78-.47-.11-.48.16.39-2.5-.63-.86-.85-.33-.85-.19-.45-.32.48-.39.93-2.09-.25-2.31 1.06-12.98-3.86.09-4.56 2.08-.17-1.05.14-1.11.93-1.42.53-1.84 1.43-2.61 1.01-2.61.98-.66h1.32l5.55 2.31 5.56-6.66 8.68-5.73 2.45-.76 1.97-1.42 1.31-.44 1.46-.09 5.28-.91 5.41-.12Z" style="fill:#c7d7b4"/><path d="m188.04 142 2.92-4.23 4.44-4.29-2.08 3.02-2.43 2.65-1.28 1.56z" class="cls-387"/><path d="m203.8 123.42 2.38-3.65 3.48-3.02-2.77 3.53zm-3.94 5.07 1.78-3.03 2.16-2.04-1.54 2.97z" style="fill:#afc2a2"/><path d="m185.19 144.69.16 1.12-2.78 2.28zm14.67-16.2-1.57 2.45-2.41 2.09 1.62-2.69zM188.04 142l-.31 1.36-.95 1.15-.08-1.56z" class="cls-387"/><path d="m209.58 293.17.89.78.11 1.43-2.9 2.77-5.04 2.21-3.69 3.68-3.07 3.98-3.33-2.12 1.48-6.12-.63.3-.56-.03-.36-1.09-.23-1.05-.58 1.14-.33.95-.08 1.07-.91.88-1.49-.29-1.24-.7-1.79-1.16-1.15-1.9.73-2.37-.34-3.26-1.15-1.02-1.64-.4-.4 1.68-.5 1.59-.61-2.6-.07-2.55-1.05-.53-1.19-.16.68-.58 2.6 1.31 4.39.91 4.76-1.39 6.6-4.13 4.58-6.15 3.05 8.4-1.14 9.52 2.8-1.67 2.79-1.34Z" style="fill:#213d32"/><path d="m184.69 297.89 1.14 1.9 1.8 1.16 1.24.7 1.49.29.9-.88.09-1.07.34-.94.57-1.15.23 1.05.36 1.09.55.03.64-.3-1.48 6.12 3.33 2.12-1 3.24-1.19 3.04-2.91-4.11-2.43-4.5-1.08.49-.66.14.59-.97.73-.98-3.6-4.49-.95.71-.56-.42-.07-.49.16-.56.69-.91 1.08-.32Z" style="fill:#49413e"/><path d="m201.02 264.65 1.54 2.43 1.17 1.71-.36 4.86-1.29 4.6-4.57 6.15-6.61 4.13-4.76 1.39-4.39-.91 2.13-.84 1.86-1.24-.4-.61-.69-.41 1.48-.63 1.63.11 1.58-3.87-.6-3.62-3.79-2.53-3.68-1.98 2.83-5.25-1.17-6.14 1.36-1.01 1.5-.76 4.02 6.73 5.88 5.29 3.09-3.87 2.21-3.73Z" style="fill:#4b6e53"/><path d="m178.99 299.78.11.44.54-.09 1.69-.07 1.59-.93-.16.56.07.49.56.42.95-.71 3.6 4.49-.73.97-.59.98-4.51 2.67-5.28 1.02-2.32-1.12-2.26-1.26-5.89-2.74-6.36-1.49.1-2.67.01-2.89 3.23-1.5 3.67-.45 5.7-1.42.21-.84.6-.21 1.81 4.9 3.68 1.45Z" style="fill:#203e33"/><path d="m172.89 286.08 2.1 2.13 2.85.15-1.29 1.78-1.95 1.06-.91.95-.19 1.29-.6.22-.21.83-5.7 1.42-3.68.45-3.22 1.5-.01 2.89-.1 2.67-1.18-.12-1.16-.29-.15-.48-.51-.09-1.02-1.36-1.26-1.08 3.65-9.98 3.26-10.15 2.91 3.27 5.19 2.78 1.67-.03z" style="fill:#395b47"/><path d="m179.67 261.33 3.28.67 1.16 6.13-2.82 5.26 3.68 1.99 3.79 2.52.6 3.62-1.58 3.87-1.63-.11-1.48.63-2.8.03-2.48-1.08-2.58-.48-1.13.81-1.72.12-1.06.76-1.51-.2-1.67.03-5.2-2.79-2.9-3.26.47-3.07.58-3.06 1.32-4.34 1.75-4.22 1.44-1.4 1.88-1.11 5.17-1.73 5.44.4Z" style="fill:#618464"/><path d="m184.69 297.89-1.08.32-.69.91-1.6.93-1.68.07.42-1.86.76-2.1.49.58.01.91.45.12.41-.44-.65-1.82-.53-.99-1.04.12-.75.51.02 1.28-.23 3.35-3.68-1.45-1.81-4.9.98-.88.12-1.36 1.95-1.05 1.29-1.79.63-.07 1.19.16 1.05.53.06 2.56.62 2.59.5-1.59.4-1.68 1.65.4 1.14 1.02.34 3.26z" style="fill:#d93a3f"/><path d="m184.66 285.91.68.41.41.61-1.86 1.24-2.13.84-2.6-1.31-.68.58-.63.07-2.85-.15-2.1-2.13 1.05-.77 1.73-.11 1.13-.8 2.58.47 2.48 1.08 2.8-.03Z" style="fill:#55795c"/><path d="m179.64 300.12-.54.1-.11-.45.23-3.35-.02-1.28.75-.51 1.04-.12.53.99.65 1.82-.41.43-.45-.11-.01-.91-.49-.58-.75 2.1-.43 1.86Z" style="fill:#7f242b"/><path d="m173.5 293.42.19-1.29.91-.95-.11 1.36z" style="fill:#213f34"/><path d="m164.54 213.13-.32 1.5.46 1.59-.85 1.12-.6 1.24-2.99-1.07-2.46.85-1.64 2.54-.57-.08-.28.45-6.14-6.26-7.74-4.87 6.17 1.04 10.07 1.54 3.54.16z" style="fill:#325543"/><path d="m175.03 158.81-2.52 5.08 2.23.1 2.05-.56.29.52.37.37-1.22.91-5.03 2.57-2.99 7.18-1 .68-1.06.58-.2-2.93 1.3-2.47 1.54-3.16 1.99-2.8 1.18-2.47.92-2.44.99-.84z" style="fill:#4a4e46"/><path d="m132.88 169-3.68 6.26-1.37 7.02.16 3.48-.06 2.98-2.28-1.14-1.91-2.6-.67 1.19.31 1.31-.86.04-.62-.43-.5.31-.35.75 5.83 2.15 1.12 3.36-1.71.01-1.33.43 2.47.4 2.25-.9 2.87 5.02-2.28.77-2.29.47 2.55.75 2.56-.31 2.2 1.95 2.06 2.37-3.6.2-3.6-.17-6.53-1.84-6.11-3.14-3.13-2.85-2.8-2.93-.95-2.23-.68-2.35 3.8-9.89 7.27-7.62 1.33-1.02 1.45-.79 4.83-1.14 4.23.14Z" style="fill:#799973"/><path d="m160.41 178.12.06.65-.28.87-13.45-3.65-13.51 1.78-2.9 5.98-1.27 6.12-.75-.46-.36-.66.06-2.99-.16-3.47 1.36-7.02 3.69-6.26 7.9-4.23 8.88-.02 7.53 5.04 3.21 8.33Z" style="fill:#c9d8b4"/><path d="m137.37 204.64.77.92.51 1.03-.67.99.66 1.22-.06.19-2.02-.34-1.97-.49-4.41-3.49 3.6.16z" style="fill:#4d6f53"/><path d="m172.88 159.99-.93 2.44-1.17 2.47-1.99 2.8-1.54 3.16-1.3 2.47.25 3.42-1.74 2.28-1.47 2.69 3.16 3.3 2.26 3.72 1.13 2.79 1.04 10.06-4 9.64.82 2.15-1.38-.43-1.47.19-3.35-.26-3.54-.15-10.07-1.54-6.17-1.04-1.39-.73-1.46-.41.06-.19-.09-.19.7-.05.34-1.01-.34-.59-.59-.37-.51-1.03-2.83-3.29-2.2-1.95-2.57.31-2.54-.75 2.29-.47 2.28-.77-2.87-5.02-2.26.9-2.46-.4 1.32-.43 1.72-.01-1.11-3.36-5.84-2.15.35-.75.5-.31.62.43.86-.04-.31-1.31.67-1.19 1.91 2.6 2.28 1.14.36.66.75.46 1.27-6.12 2.9-5.98 13.51-1.78 13.45 3.65.28-.87-.06-.65 1.9-.75 1.1-2.11 3.08-6.4 2.46-6.59.64-1.22 1.09-.82-1.34-.33-1.73.19-.33-.22-.07-.44 2.57-.01 1.61-1.73.66 1.54z" style="fill:#6e906d"/><path d="m168.4 188.73-2.26-3.73-3.16-3.29 1.47-2.68 1.74-2.29 2.57 10.76.07.82z" class="cls-190"/><path d="m163.27 208.99-3.54-3.15-3.36-3.52 1.96.78 1.45 1.47h1.04l-.3.76 1.55 1.62zm0 0 1.28.96 1 1.28-1.71-.7z" style="fill:#5a795b"/><path d="m138.53 208.61-.35-.47-.22-.56.67-.99.59.37.34.59-.34 1.01z" style="fill:#b9c9ad"/><path d="m188.11 228.65.29.59.06.59.46.48.55.03-.07 2.47-.4 2.64-4.7 12.36-10.47 7.87-6.65 1.27-5.54 1.6-.44-1.12-1.28-.67-.87-2.13-.23-2.24-.04-1.14 1.23-8.5 2.8-6.7 1.5-1.42 1.35-1.85 10.54-6.01 11.91 1.89Z" style="fill:#dce6c9"/><path d="m184.66 232.07-3.02 3.29-3.73 2.34 2.56-2.49 2.44-2.57.75-.6zm-9 7.88-1.3 2.04-.95-.07-.01-.51.6-.6-1.74-.6 1.69-.29 1.72.04Zm2.25-2.25-.84 1.74-1.41.51.95-1.54zm6.75-5.63 1.06-1.16 1.84-.43-1.34 1.17z" style="fill:#b0c3a1"/><path d="m108.17 287.3-2.03 2.16-2.59 2.15-.56-.06-.43.17-.17-.08-.48-.53-.4.03.01-.79-.19-1.11-.2-.29-.36-.03-.03-.38 3.82-9.91 7.98-7.61-.42 4.76-2.16 4.88-1.6 3.43-.43.4-.38.25.04.66.6.58-1.7.62-.77 1.48 1.63-.86.83.11Z" class="cls-116"/><path d="m146.38 307.54.29 4.76-.36 4.72-2.2 5.84.47 4.17-5.6 8.01-.48-.25.09-.58.93-.81.44-1.05-.18-.72-.92-.86-3.41 2.53-2.32 1.56-1.11-.39-1.03-.88-1.21-.76-.33.1-.1.44-2.18-3.61-2.69-3.26-.9-8.73 2.45-9.1 3.9 1.88 3.41 1.75-.37 1.21 1.48.44-.19.45-.45 5.23-.08 4.82 1.93-11.1-.11-.85.13-.76.66-.28.49-.38-.18-1.38.15-.81 2.9-.83 1.76.73 2.53-.3 2.38-.94Z" style="fill:#dde6cf"/><path d="m151.62 266.97-2.18 6.5-.67 1.43.09 2.12-2.27 1.4-1.33 3.19.08-1.61.28-2.01-.98-1.2-1.88-.16-.61.46-.37.04-.29-.59-.79-.61-1.39-.43 1.39-3.72.69-3.75-1.03-1.27-.68-1.38 2.34-3.7 2.23-3.77 3.8-.46 4.6.36-1.19 5.76z" class="cls-57"/><path d="m153.52 238.96.83 4 3.51 6.17 1.06.94-.14 1.17.04 1.14-1.63 1.24-1.03 2.05-1.56 1.99-1.39 1.92-1.04 3.81-.54 3.57-.16-3.4 1.19-5.76-4.6-.36-3.8.46 1.62-6.04.2-6.38-.91-.37-.29-.4.01-.49.19-.55-.38-.51-.51-.37.12-.63.33-.47 3.79-.05 3.49-.83.7-2 .91.15Z" style="fill:#9fb68f"/><path d="m161.64 258.55-.74 2.25-1.68 2.17 2.6 5.31.84 5.44-.58 3.07-.47 3.06-3.26 10.16-3.65 9.97-1.52 1.28-1.16 1.71-.78.44-.38.83-2.3 1.57-2.19 1.72-2.38.94-2.53.3-1.76-.74-2.9.84-.15.81.18 1.38-.49.38-.66.28-.13.76.11.85-1.93 11.1.08-4.82.45-5.23.19-.45-1.48-.44.37-1.21-3.41-1.76-3.9-1.87.09-.91-.03-.94-.62-.33-.55-.61-.96-3-2.28-2.16.66-3.61-.78-3.64 9.97-6.93 6.68-9.99 1.86-.1 1.41.08.29.59.37-.05.61-.45 1.88.16.98 1.2-.28 2-.08 1.62-1.04 1.35.44 1.78.66-1.58-.06-1.55 1.33-3.18 2.27-1.41-.09-2.12.67-1.43 2.18-6.5.55-3.58 1.03-3.8 1.39-1.92 1.56-1.99 1.03-2.05 1.63-1.24.23 2.25.87 2.12 1.28.67.44 1.12Z" style="fill:#c0d2ad"/><path d="m152.11 303.99-.61.3-.63-.05.38-.82.78-.45.09.51zm5.53-1-.15.45h-.51v-1.02l.51.09z" style="fill:#f6f7f5"/><path d="m141.48 291.78.28-2.49 1.13-2.14-.22 2.47z" style="fill:#9ab38c"/><path d="m145.26 281.6.06 1.55-.66 1.58-.45-1.78z" class="cls-57"/><path d="m144.17 242.8.51.37.38.51-.2.55v.49l.29.4.91.37-.19 6.38-1.63 6.04-2.23 3.77-2.34 3.7-1.47.21-1.56-.69-10.03-.82-9.62 2.87 2.5-8.23 4.81-9.13 2.95-3.31 3.37-2.88 2.48-1.73 7.72-3.4.86 3.03 2.48 1.5Z" style="fill:#41644c"/><path d="m139.67 265.38.67 1.38 1.04 1.27-.69 3.75-1.39 3.72 1.39.43.79.61-1.41-.07-1.86.09-6.68 9.98-9.97 6.94-6.02 1.05-9.22-1.49-1.44-.58-1.35-.85 2.59-2.15 2.03-2.16 1.69-.9 1.69-1.24-2.2.39-1.18 1.75-.83-.11-1.63.86.77-1.48 1.7-.62-.6-.58-.04-.66.39-.25.42-.4 1.6-3.43 2.16-4.88.42-4.76 2.1-2.18 2.35-1.88 9.62-2.87 10.03.82 1.57.69 1.46-.21Z" style="fill:#a6bf96"/><path d="m125.56 277.1-4.92 3.14-3.9 1 4.98-2.62zm0 0 .81-.87 1.28-.53 1.27-1.09 1.75-.19-2.45 1.88zm11-6.14-1.95 1.26-2.4.76L135 271z" style="fill:#87a57c"/><path d="m108.17 287.3 1.18-1.74 2.2-.4-1.69 1.24z" class="cls-116"/><path d="m152.61 238.81-.7 2-3.49.83-3.79.05-.33.48-.12.62-2.48-1.51-.86-3.02 5.99-1.07z" style="fill:#5c7d5f"/><path d="m157.11 247.81-2.76-4.85-.83-4 .87-.94 1.12-.26 3.57 1.62.8.83.07 1.23-.48 1.39-.73 2.6-1.62 2.39Z" style="fill:#163027"/><path d="m199.26 187.95 1.23.33 1.12 1.06 4.13 8.65.43 9.31-12.55 13.05-.47-.11-.05-.53 1.95-6.33.52-6.68-2.47 13.01-.58-.01-6.01-9.6 1.58-11.23 4.59-6.5 6.58-4.41Z" style="fill:#dce7ca"/><path d="m193.1 219.7 2.47-13.01-.53 6.68z" class="cls-169"/><path d="m198.34 193.71-.42 5.71-2.07 5.65z" style="fill:#c4d1af"/><path d="m179.45 168.92-.69.99-.23 1.36-5.24 1.64-5.08 2.08 2.99-7.18 5.03-2.57 2.19 1.09zm1.84 2.35-.67-.02.03-1.11.38.04.27.25v.84Z" style="fill:#e1e7da"/><path d="m158.73 227.44.22.2.29-.04-.99 1.67-1.54 1.25-6.03 3.96-6.93 2.45 6.45-9.74 2.9-2.73 2.48-3.64.57.08-.38 2.04.16 2.08 1.09 1.46z" style="fill:#143228"/><path d="m134.57 208.16 1.96.5 2.03.33 1.46.41 1.39.73 7.74 4.87 6.14 6.26-2.2 3.2-2.9 2.72-11.42 5.51-12.65 1.02-9.21-3.58-7.27-6.89.37-.78.02-1 10.21-10.44 14.33-2.87Z" style="fill:#e1eacf"/><path d="m120.75 221.56-2.19.39-2.08-.41 3.15-.5 12.14-.54 15.79.64-26.8.41Z" style="fill:#bac7aa"/><path d="m170 149.93 1.3 1.66 2.16.81-1.63.45-.99 1.02.64.48.96-.03.68-1.08 3.04-1.04.85.18.85.34-1.16 3.16-1.67 2.94-1.16.33-.99.84-.82-.76-.67-1.53-1.61 1.72-2.57.02-1.86-2.36.2-2.88 1.61-.85 1.56-1.22.16-1.46v-1.37z" style="fill:#de363c"/><path d="m178.1 156.08-1.46 1.52-1.61 1.21 1.67-2.94 1.16-3.16.63.87z" style="fill:#63403e"/><path d="m167.24 154.77.7-.41.62.22.25.76-.64.63-.81.23-.48-.38z" style="fill:#75312c"/><path d="m163.23 218.57.57.37.62.21.12.66.45.48.2 2.51-.95 2.51-.32.07-.11.25-.15.43.11.39-1.29.51-2.74-.04-1.01.51-1.72-.96-1.09-1.46-.16-2.08.38-2.04 1.64-2.55 2.46-.84z" style="fill:#da3039"/><path d="M161.06 226.96v.38l-.33.23-.44.13-.72-.17-.63.09-.22-.19 1.01-.51 1.32.04Z" style="fill:#d15951"/><path d="m163.77 226.45-.1-.38.25-.7.32-.06.18.31.53.59-.29.23z" style="fill:#424945"/><path d="m159.07 220.58.54-.28.52.48.17.47-.22.38-.81.02z" style="fill:#652c28"/><path d="m176.95 217.99-1 .63-.94 1.23-2.61-.79-2.27-1.07-.51-3.79 2.21-3.58 3.83.5 2.54 3.23-.31 1.89z" style="fill:#dc343e"/><path d="m173.31 216.99-.45-.84-1.66-1.28-.11-1.11.54-.9.14 1.31.5.76 1.03.52.91-.93-.31-.56-.27-.24-.03-.86.42-.35.76.9.45-.29.62.44-1.1.92-.22 1.91-.3.42-.36.17h-.56Z" style="fill:#9b222d"/></g></g></svg>