<svg xmlns="http://www.w3.org/2000/svg" id="Layer_2" data-name="Layer 2" viewBox="0 0 243.71 253.21"><defs><linearGradient id="linear-gradient" x1="120.32" x2="157.23" y1="187.59" y2="206.7" gradientUnits="userSpaceOnUse"><stop offset="0" stop-color="#697b6c"/><stop offset="1" stop-color="#809482"/></linearGradient><style>.cls-5{fill:#e2e7e4}.cls-11{fill:#fdfdfe}.cls-24{fill:#78876b}.cls-27{fill:#6b8376}.cls-53{fill:#dfe6e1}.cls-66{fill:#c1cfc8}.cls-83{fill:#e7ebe9}.cls-110{fill:#6e7c69}.cls-127{fill:#5e7568}.cls-158{fill:#efedc5}</style></defs><g id="Layer_1-2" data-name="Layer 1"><g id="Generative_Object" data-name="Generative Object"><path d="m18.68 75.75-.43.82-.06.91 1.45 1.38-.41 1.09.22 1 .75.68.35.89-.86.79.14.63.3.6-1.11 1.63-.17 2.19.78.66 1.23.26-.3.77 1.1.79 1.84.19-1.23 1.78-.16 2.24 1.26 1.19 1.85-.21.74.22.35.65.02.77-.6.61v.47l1.08.18 1.38-.1.12.84.32.22.53.16-.22.87.25.63-1.05 3.68-.68-1.67-1.34-.52-1.18.89-.81 1.22-.71.51-.28 1.49-.82-1.4-1.08-.8v2.59l-.84-1.23-1.04-.94-.63.35-.15.79.49 1.43-1.37-1.09-1.52-.57-.77.67-1.1.18-.63.78.71 2.72.21.36.01.24-.26.31-.41.1-.57.38-1.18-.68-.39.28-.21.43.73 1.27.32 1.23-1.16-.75-1.2-.24-1.01-.44-.89.46.34.86-.73.7.85 1.56 1.04 1.31-1.43.42.16.66.55.52-.92.5-.02.83-1.81-.16-1.87.19-.42.66.09.78 1.34.88 1.44.81-2.01-.21-1.6.59 2.27 1.64 1.04.51-1.68.31-2 .19-.17.35-.06.37-.58.36-.21.62 1.74 1.04 2.55.81-2.68.48 1.25.64 1.33.4-1.09.36-1.18.23.17.58-.36.34-.56.39 1.59.27 1.79.2-1.42.59-1.26.73 2.71.94-1.88.64-1.89 1 .79.28.63.39.12.45.05.81 1.6-.2 1.51-.39-.65 1.22-1.14.65 2.21.36-1 .84-.7 1.06 1.16-.54 1.08-.04-1.8 1.55-1.03 1.67 2.02.44 2.53-1.01-2.47 2.39.91.69 1.58.23-.23.5-.95.82.72.35 2.36.2.33.51.89-.39.42.18-.2.52.08.55.36.17.46.02 1.23.8 1.49.31-.2.63.16.43.61.36.7.04.59.58.1.82.93.49h1.04l.96-.51.85-1.08-.43 2.08 1.09-.32.72-1.02.22.44.06.32.44.17.5-.13.12.93.36.6.79.11.65-.4 1.52 1.53 1.15.71-3.06-.83 1.04 1.04 1.71.63-2.75-.15.37 1.06.98.61-.95.32-1.14.06.91.7.75.74-1.92.29-1.91.46 1.46 1.01 1.61.55v.31l-.52-.01-1.71-.53-1.72.62 1.89 1.04 1.92.59-.7.46-.87.03-3.17 1.32.31.47.27.08.16.39-.01.56 3.75 1.12-1.64.29-1.57.74 2.63.34-3.06.88 1.39.57 1.63.07-2.15.55-1.1 1.1.8-.2 1.45.72 1.62.27.52.25.36.55-1.53.28-1.27.54 2.8.22-1.05.64-.78.94 2.14-.07-1.34.73-1.08.9-.07 1 .41.72 1.78-.62 1.8-.27-2.17 1.14-1.47 1.96 2.45-.36 2.17-.9-2.05 1.54-.96 1.82 3.27-.39 1.83-.5-.62 1.26-.99 1.72 1.97-.33 1.85-1.06-1.33 2.32-.18 1.85.69.04-.08.79-.27.77 1.49.31 1.88-1.31-.43 1.11-.34 1.26 1.62-.54 1.34-.99.88.9 1.73-1.98-.2.82-.59 1.35.55.97.7.64.2.84.56.33 1.01-1.59.83-1.78-.3 2.55.71 1.5.2-.35.12-.45.96-2.57-.09 2.21.13 2.09 1.44-1.18.92-2.52.13 1.5.04 1.68.78-1.64.16-1.85.57 1.3 1.16.49.37-.35.46-.14.8.66 1.09-1.27.84 1.2 1.1.34 1.71-.96-.15-1.44.06-1.47 1.67 3 .77-1.85.57-.72.24-.12.19-.35.42.46.54.28-.01-1.32-.38-1.38 2.67 1.74.31-.75-.58-.91 3.35 1.54-.21-1-.01-.89.93.63.89.1-.38-1.35.48.14.24.21.36.13.22-.2.11-.49-.11-.59 1.48-.06.96-1.2-.4-.29-.49-.14-.02-.23.13-.31.39-.21.07-.45 1.48.08 1.69-.7-1.13 1.13-1.55.66.13.41.34.21.34-.14.44.07-1.89 1.45-.64 1.72 1.68-.81 1.48-1.31-2.61 4.17 3.56-2.33 3.26-3.97.27-.66.43.51-1.52 1.42-2.53 3.87-.33 2.52.92.02.91-.12.46-1.09.66-.91.15 1.13 2.32-3.34-.61 3.37-.43 3.03 2.08-3.27 1.78-4.74-.88 4.35-.35 4.53 1.54-2.87.19-2.93.32 2.53 1.16 2.79.05-2.63.23-2.69.33 1-.02 1.25.45-1.12.21-1.39 1.01 4.04-.56-7.43 1.65 4.12 1.59 3.52-.03-2.5-.71-3.5.62 1.83 1.11 1.86-.38-3.79.86 2.37 1.19 2.21.2-.65.09-.59.28-.04.28-.14-1.12-3.8 1.98 2.79 1.74 1.11-.7-1.18-1.08-1.36.49-.1.5.24-1.25-2.21-.6-1.57 1.62 2.41 2.1 1.89.5-.11.21-.43-2.83-4.64-3.06-4.79 6.54 8.06-5.96-8.94 2.6 2.79 2.9 2.53.46.26.56.03.21-.35-5.73-6.23-1.51-1.8-.95-2.03.27.07.28-.1 1.02 1.09 1.35.65.39-.46.41-.22.17.47-.05.58 2.91 3.36 2.67 2.62 1.88-.39 2.26-.37.28-.5.41-.53.54.08.5.15.46-.49.33-.55 1.17-1.39.68-1.9 1.73 3.6 2.41 2.94.85.43.58.55-.08.89-.22.89.51.19v.28l-.66.07-.45.37.59.32.82.24.15.17-.13.34-.77-.06-.67.16-.26.5-.15.7 1.04.94.8 1.29-1.21.28-.51 1.03.49.77-1.1.45-1.47.9-.33 1.01.15 1.05-.17.36.05.38.23.28.36.24 3.34.49-.95.32-.73.44.92.18.9-.01-1.46 1.19.85.34.95.28-.81.55-.24.73.74 1.19.66 2.77-.88.78-.15.53.24.48 1.15.16.82-.1v.69l.99.23 1.12-.06-1.13 1.71.1.26.19.22-.41.73.19.7.65.31.62-.13.77-.43.14 1.1.56.18.59.07.69.77 1.56.35-.35 2.54.28 1.33 1.46-.41.99.23.78-.5.78-.76-.55 3.01 1.86-1.2 1.19-1.92-.38 2.3.6 2.02 1.46-.76 1.01-1.38.11 1.04.38.74h.62l2.1-1.46.4-1.55.38-.37h.25l.19.14-.67 1.54-.19 1.93.75-.36.49-.84.46 2.9.67-3.22.19-.01.11.03.18 2.54 1.23 1.64.69-.31.35-.79.27-3.55.4 1.5.69 1.62.52-.16-.3 1.15.13 1.25-3.7 4.76-4.36 4.2-3.62 2.92-11.97 6.48-12.81 4.42-1.73.26-4.46.54-2.39.39-12.89.04-6.32-.9-6.23-1.92-11.26-4.86-3.07-1.58-6.24-4.13-5.49-5.21-2.01-2.1-2.49-2.95-4.86-6.24-11.91-10.82-3.25-3.56-2.71-3.41-2.87-4.22-2.59-4.39-4.51-9.6-3.69-9.53-2.71-9.12-.26-1.77-1.27-6.4-.64-2.79-.36-2.77v-2.47l-.42-1.49-.45-7.04.33-6.41.56-1.8-.53-4.92.28-3.01.03-13.78.24-2.78.45-1.84 1.84-8.54 3.16-9.79 3.71-8.24 4.81-7.34.92-.71.76-.86.6-.06.04-.16.22-.07.33 1.15.88.94Zm161.35 85.98.45 1.68 1.41.78-1.11 1-1.07 1.24 3.88-2.32-2.87 3.34-2.75 3.59 8.05-7.38-6.65 10.19 2.45-2.66 1.98-2.78-.25 1.3.21.93.55.23.52-.22.98-2.29-.05-1.38-.72-.1.73-1.5 1.09-1.23.04.74.48.47.94.1.63-.72.12-.31.24-.01-.41 1.85-.53 1.81-.71.07-.7.34-1.93 3.34-1.76 4.51.59-.22.18-.43.02.51.13.52 1.01.68 1.05.52.24.36.36.18.01.5.2.44.27.06.32-.02-.22 1.18-.86 2.04-1.31 1.85-3.44 3.44-3.69 3.17-3.03 2.36-2.87 2.39-1.62-.94-2.1-.43 2.84-.66v-.56l.49-.27.33-.36-.01-.49-.37-.32-2.99-.35 1.34-.31.8-.75-1.69-.25-1.69-.09 2.16-1.95 1.07-1.48-1.5.47-1.46.14 1.76-.82 1.52-1.31-1.46-.21-1.91.48 1.04-.57 1.15-1.5-1.65-.06-2 .23 1.59-1.14.66-1.32-1.29.25-.72-.38.37-.68-.25-.55-2.14.43.32-.71.46-.7-.71-.06-.61.1.6-.78.5-.53-.14-.42-.34-.1 2.05-1.66 1.9-.84.29-.74-.18-1.16 1.77.53 1.16-.82.34-1.23-.55-1.23.76-.1.5-.34-.01-3-.46-3.46.32-.4.11-.5.97.31.33-.22.13-.33.65-.04.33.46.58.03.48-.29.35-.44.92.38 2.71-.09Z" class="cls-11"/><path d="m50.52 108.61-.37 1-.97.63-.23.37.17.39.64.19-.02.72-.65.51-.84-.72-1.11-.35.37-1.33-.44-1.21-.68.07-.77.69-.15-.43-.19-.25-.6.03-.57.15-.14-.37.14-.45.56-.33.51-.59 1.23.29 1.09-1.1.58-.18-.15.74.15.71.4.06.49-.06.65.87.45.07.46-.12Z" style="fill:#f0f3f0"/><path d="m185.6 55.94-.21.71-.04.85.91-1.25.17.96-.74 1-.02.7-.68.47-1.82 9.64-.14 1.03.06 1.08-.3.09-.21.14.13.4-.53.02.31-8-.36-3.12.13-2.89.27-.98.17-1.02.89-10.29-.02-.42.2-.29.2-.1.08.24.21 3.93-.22 4.39-.28.8.46.87.47-3.32.14-2.74.32-2.26.65-2.34.58 1.07-.14 1.15-.65 9.48Z" style="fill:#6f897b"/><path d="m203.61 70.41-.95.28-1.19.05-.5.31 1.85.2 1.16-.04 2.53-.22 2.7.06-1.88.49-2.77.32-2.83.43-.44.28.29.26-.09.42-.21.35-4.88.58-1.83.34h-.86l-.76.39-.19-.43-.3-.2-1.38.26-.4-.26.25-.54.65.21.28-.15.26-.38.8.08.79-.3.31-.56-.14-.74 1.36-.4 1.39-.28 1.44-.52 1.2-1.08 1.7.21 1.44-.46L204 69l.26-.35.03-.48.66-.03.55-.2 3.86-.57 4.07-.17-4.99 1.84z" style="fill:#587062"/><path d="m204.82 67.29-.95.23-.83.62.67-.06.57.09-.02.48-.27.35-1.59.37-1.44.46-.76-.4-.94.19-2.64 1.6-1.19-.32-1.17-.02-3.14.83-.49-.5-.13-.28 4.32-1.36 3.99-2.01.6-.15.59-.26 10.38-2.63-2.39 1.25z" style="fill:#728a7c"/><path d="m208.61 61.44-1.8.51-1.62 1.11-.08.19-.23.03-.16-.31-.42.03-7.16 3.22-.57.3-.24.5-1.03.47-.98.06-1.05.83-1.56.42-.3-.29.02-.66 1.73-.87 1.67-.98 1.76-.48 1.01-.77-.08-.85.79-.54 1.11-.3 6.85-2.51 5.99-1.42-1.6 1.26z" style="fill:#728b7a"/><path d="m192 48.58-.61 2.13-.39 2.36.86-1.41.59-1.54.19.6-.38.66-1.43 3.99-1.86 4.86-1.56 1.33-.59 3.29-.4-.7.08-.79-.25-1.54.4-1.38.68-1.84 1.85-4.39.67-2.82.48-.51.29-.9-.05-.16.21-.09.63-1.97.87-1.72.02 1.33-.3 1.19Z" style="fill:#6b8474"/><path d="m184.84 48.85-.14 2.74-.47 3.32-.46-.86.28-.81.22-4.39.29-.1zm18.77 21.56.04.42.32.37-1.17.05-1.84-.21.5-.31 1.19-.05.95-.28Zm1.21-3.12-.11.39.32.19.22-.01.24.09-.55.21-1.9-.01.84-.62zM186.28 55.9l.04.17-.04.18-.91 1.25.04-.84.21-.72.34-.07.34.03Z" class="cls-11"/><path d="m188.97 51.37-.9 5.49-.73 1.75-.68 1.83-.4 1.38.25 1.54-.07.79.39.7.59-3.3 1.56-1.32-.45 1.01.04 1.24 2.3-5.9 3.2-7 .88-1.45.75-1.63.27-.24.33.03-.01 1.01-.31 1.29-.25.07-.12.59.08.27-1.74 4.06-1.65 4.31 2.29-3.97 1.94-4.03.29-.1.3-.74.39-.39-.08.94-.19.83-.2-.03-.12.2-.03.23.18.22.16-.04.02-.24.6-.06V51l-.08.29-2.97 5.3-1.45 2.33-1.31 2.57 1.6-2.13 1.42-2.18-1.94 3.94-2.87 4.55-.85.68-.76.93 1.27-.66.9-.92 7.12-6.06-.67 1.55-.75 1.48.65.24-1.11.71-.7.28-.59.52.73.06.56-.31 1.46-.26.08.85-1.01.77-1.76.48-1.67.98-1.73.87-.02.67.3.28 1.56-.42 1.05-.83.98-.05 1.03-.48 1.85-.71 1.9-.82 2.39-1.21 2.41-1 .22-.03.09-.19 1.76-.52 1.66-.76.68-.09.83.33-10.14 4.67-6.99 2.77-5.73 1.87-.74.32-.62.52 2.39-.59 2.22-.65.13.28.5.5 3.13-.83 1.17.03 1.19.31-1.39.28-4.42 1.27-4.39 1.42-4.24 1.82.02.62.84.74 1.24-.75.73.05 3.24-.95 2.91-.65.87.02.91-.19.76-.39h.86l1.83-.34 4.88-.58.21-.35.09-.42 5.79-.69 1.32.59 1.89-.04-.61.81-2.93.54-3.06.24-1.57.61 2.41-.03 2.25-.15 4.19.01.07.47-4.55.47-4.42.64-2.11.23-2.13.36 2.2.09 2.07-.01 4.2.81-2.48.54-2.27.24-2.73-.22-.18.57h2.89l3.58.84 4.09.8-3.92.05-3.71.41-.57-.02-.4.33.4.33.58-.08.4.05.34.18.2.31-.07.36-.98-.26-1.2.03-.5.1.3.49 1.39.05 3.06.52 1.76.81-3.83.16-3.67-.37-.67-.27-.89.14.75.53.87.26 2.64 1.24 2.85.72-.52.26-1.59-.3-1.32.08 1.19.58 1.56.46.3.24.08.37-.35.28-2.25-.27-2.16.2.31.62.44.45-.34.36-.6-.07-.7-.54-.85.08.78.58.76.2 1.36 1.33-.47.46-2.14-.59-2.26-.89-.68.22.82.3 1.46.75 1.29.53-.09.92-.56.62-.92-.36-1.08-.12.57.56.62.39-.06.52-.3.47-1.05-.06-1.04-.68-.1.48.34.41-.79.97.09 1.19-.66.82-.14 1.4-1.06-.09-1.08-.69-.16-.99-.36-.97-.11-.95-.68-.73-1.77-1.03-2.04-.29.39-.71 1.29-.27-.57-.31.76-.94.65-1.08-.25-.5-.39-.33 1.01-.84.66-1.01-.03-1.89-1.14-1.33-2.14-.2.65-1.28-.39-1.19-.66-.01-.62-.09.48-.8.67-.48 1.7.35.24-.36-.16-.42-2.1-.43-1.17-.91-.26-.33-.37-.17-.76.27-.82-1.01-1.37-.1-.71.34-.69.21-.38-.94 1.67-1.59 1.54-1.88 2.67-2.79 2.68-2.12-.63-.58-.5-.25-1.49.82-1.03 1.37-1.16 1.01-1.06 1.14-1.75 2.21-1.51 2.66-1-.8-3.27-.7-1.71-1.01-2.16.47-2.52.35-2.64.86 1.91-5.77.11-5.98-4.75-1.77-.82-1.87.19-.55.56-.17.84.4.41-.22.49-.09.82 1.47 1.21 1.25-.63-1.58-.81-1.38-.31-1.85.45-.12.45.39.97 1.05.29.01.21-.41-.12-.36-.43-.22-.04-.57.17-.52.4-.11.4.21.31.39.27-.39 3.14 4.87.48-.56-.37-.67-.04-1.01-.33-.32-.38-.26.2-.43-.05-.22-.34-.17-.92-2.41-.74-2.41 1.67 1 1.1 1.99.06.28.21.25.28.04.19-.22.15-.3-.81-3-.84-2.79-.02-.51.24-.37.24.02.23.24 1.85 3.64.2 1.17.75 1.05-.04-1.22-.33-1.05-.08-1.19.21-1.32 1.19 2.34.83 2.38-.07.2.07.26.15.15.17-.15.12-1.1.35.59.19.6-.06.38.17.29.29.01.17-.17.02-.27.11-5.45-.1-6.06.63 1.48.48 2.3.77-.76.26 2.18.06 2.14.22.84.3.68.47 2.49.17-1.3v-1.18l.17-2.81-.2-2.23.49-.46.34 2.25.09 2.27v4.04l-.13 2.89.36 3.12-.31 8 .53-.01-.13-.41.21-.14.3-.09-.06-1.08.14-1.03 1.82-9.64.68-.47.02-.7.73-.99-.16-.97.05-.18-.05-.71.24-.08-.02-.28 2.77-9.75.05 3.16-.35 2.95Z" style="fill:#5e7666"/><path d="m169.13 54.13.74 2.42.92 2.4.34.17.05.22-.2.43.38.26.33.32.04 1.01.37.67-.48.56-3.14-4.87-.13-4.39.44.31z" style="fill:#4b5f51"/><path d="m194.08 49.58-3.2 7-2.3 5.9-.04-1.24.45-1.01 1.86-4.86 1.43-3.99.38-.66-.19-.6-.59 1.54-.86 1.41.39-2.36.61-2.13.04.42.23.31.98.19.83.08Zm2.46.31-1.94 4.03-2.29 3.97 1.65-4.31 1.74-4.06.4.26zm-6.68 1.5-.67 2.82-1.12 2.65.9-5.49zm17.47 20.14.08.31-.04.3-5.79.69-.29-.26.44-.28 2.82-.43zm-7.07 20.45-.07.15.05.17h-1.49l-1.29-.53-1.46-.75-.82-.3.68-.22 2.26.89zm-5.19-34.81-1.42 2.18-1.6 2.13 1.3-2.57 1.46-2.33zm11.98 16.87.09.35-.06.32-2.25.14-2.41.04 1.57-.61zm-41.58-13.81.81 1.39.63 1.57-1.21-1.26-.82-1.46.23-.22zm36.9 16.08-.09.34.12.33h-2.06l-2.21-.08 2.13-.36zm6.24-14.87.05.16-.05.17-1.67.76-1.75.52 1.62-1.11zm-25.76-7.69.02.98-.16 1.04-.44 2v-4.04l.28-.1zm19.89 28.72.13.34.2.31-1.32-.25-1.39-.05-.3-.48.5-.11 1.2-.02zm-28.45-28.13.33 1.05.04 1.22-.76-1.06-.19-1.16.3-.11zm29.37 32.45-.02.8-1.25-.37-1.19-.57 1.32-.08zm-1.81-8.23-.02.34h-2.89l.18-.56zm-11.03-12.87-.9.92-1.27.66.75-.94.86-.67zm-9.45-10.97v1.17l-.17 1.31-.47-2.49zm18.61 11.97.02.45-.59.26-.6.15-.29-.3zm-.91 17.3.06.67-.86-.27-.76-.52.88-.14.68.27Zm-32.1-25.27.43.22.12.36-.21.41-.29-.01-.97-1.05zm32.41 31.15v.32l-.76-.2-.78-.58.84-.09.71.55Zm-3.32-25.72-.56.31-.73-.06.59-.52.7-.28zm5.8 16.86.1.27-.08.29-.58.09-.4-.34.4-.33zM171.9 57.12l.43-.03.36-.23.11.3-.15.3-.19.22-.28-.04-.21-.25-.06-.28Zm6.08-.04v.54l-.17.17-.29-.01-.17-.3.06-.37.28-.1.28.08Z" class="cls-11"/><path d="M179.83 77.32h-.57l1.51-2.66 1.75-2.21 1.06-1.14 1.16-1.01 1.04-1.37 1.48-.82.5.24.63.59-2.68 2.12-2.67 2.79-1.53 1.88z" style="fill:#996257"/><path d="m198.1 93.84-.06.23-.19.19-.26.09-.29-.04-.63-.39-.56-.56 1.07.13.93.35Z" style="fill:#c3d1cf"/><path d="m193.88 71.89.14.74-.31.56-.79.31-.8-.09-.25.38-.29.15-.65-.21-.25.54.4.25 1.38-.25.3.2.19.43-.9.19-.88-.02-2.91.65-3.24.95-.74-.06-1.23.76-.84-.74-.02-.62 4.24-1.82 4.39-1.42 3.06-.87Z" style="fill:#4d6557"/><path d="m177.55 67.36.38.92.25 3.25-.06 2.57-.28.21-.26-.08-.21-.42-.13-1.52-.51-.77-.67-3.5-.41-3.52-.51-2.64-.37-2.66 1.63 1.8.07 2.15.59.68-.31.87.56.24-.09.66.42.81z" class="cls-27"/><path d="m179.07 58.97.76 6.07-.23 4.83-.55-3.57-.32-3.46-.39-1.92z" style="fill:#87a091"/><path d="m197 82.13-6.19-.61-.47-.19-.3-.28 4.07-.39z" style="fill:#8ba395"/><path d="m198.82 67.55-3.99 2.01-6.54 2.01-2.39.59.62-.52.74-.32 5.72-1.87 5.55-2.2z" style="fill:#b8cbc2"/><path d="m181.35 65.88-.02.53-.13.24-.49.08-.2-.42-.27-2.48.19-2.42.39.1.34.49z" style="fill:#809a8c"/><path d="m204.88 63.28-2.41 1-2.39 1.21-1.9.82-1.85.71.25-.49.56-.31L204.3 63l.42-.03z" style="fill:#8da698"/><path d="m146.53 225.27-.3.09-.3-.03-.04-.5.12-.16.19.14zm50.01-175.38.19-.24.23-.12-.13.26zm18.99 40.89h.41l.02.41-.21.53-.18-.45zm7.68 55.97-.29-.04.15-.28zm-5.21.31-.32-.04.2-.27zm24.82-30.58-.31-.17.31-.17.08.17zm-59.03 51.94.07-.27.24-.03-.07.24zm-20.45 47.38-.27-.05-.08-.28.26.08zm69.01-74.91-.04-.21.07-.22.13-.17h.21l-.03.46-.12.14zM118.42 4.06l-.15.22-.34.01-.15-.14-.01-.19zm114.61 135.38-.03.26-.26.01.01-.52zM18.4 72.13l.05-.31-.03-.3h.21l.11.18-.06.34-.29.1Zm194.14 21.4-.03.46-.14.14-.37-.39-.07-.25zm-15.28-42.77-.02.24-.16.04-.18-.22.03-.23.12-.2.2.03zM130.62 7.32l-.33.37-.22-.41zm89.23 87.43.18-.04.17.07-.14.28zm3.44.03.08.19-.27.38-.43-.38.06-.31.28.01zM100.96 15.02v-.39l.29.16zm110.69 134.77-.39-.01.04-.45.22-.17.37.13zm-42.52 60.25-.27-.17-.14-.29.29.18zM150.17 17.76l-.29-.21.29-.14zm55 136.29h.35l-.18.3zM155.06 19.58l-.26-.07.05-.27.21.08zm.94 7.02-.3-.14.3-.16zm12.82 177.89-.35-.33.4-.22zm62.68-104.22-.21.28-.14-.23.05-.51.33-.17-.08.3.06.32Zm-45.22-44.91-.03-.28.25-.08.02.28zm3.58-3.97.19-.72.51-.54-.22.75zm-.26 106.33-.05.29-.23.06-.06-.67.2.01zm.98-107.89-.01-.28.27-.05-.05.24zm-7.03 108.2.08.15-.06.15h-.47l-.24-.31zm58.08-30.22.09.15-.09.15-.44.01-.57-.17.48-.21zm-86.87-94.47-.31.02.05-.31.25-.05zm81.02 69.09.01.19-.19.09-.34-.03-.12-.27zm3.33 9.47-.2-.06-.11-.12.06-.35.27-.1-.02.64Zm-52.26 52.26.33-.77.61-.47-.39.71zm2.46-.02.02-.27.23-.06-.02.26zm10.66 16.53-.25-.07-.04-.29.25.07zM195.7 48.94l.04-.29.25-.07-.03.3zm-27.22 8.79-.27.39-.31-.39zm-13.12-8.47-.27-.15.28-.23zm39.72 128.05-.24-.05-.05-.28.26.07zM176.44 56.54h.34l-.02.47-.17.14-.15-.14-.07-.27z" class="cls-11"/><path d="m215.53 90.78.04.49.18.45.21-.53-.02-.4.53-.33.61.06.35.6.25.58.05.36.15.25h.28l.17-.16-.02-.51.15-.4.32-.21 1.01 1.44.05 2.26.2.3.15-.27 1.17-.87.58.2.58-.12.14-.4.47-.49-.13.82-.28.74-.06.31.43.38.27-.39-.08-.18 1-.77 1.09-.69.71.83-.08 1.24-.24.17-.15.25.04.32.29.11.39-.39.19-.43 1.27-.82.22.18.07.26-1.18 1.53.98-.54.52-.67 1-.53.9.27.47 1.08-.36 1.08-.75.71-.31 1.09.76-.73.64-.72.75-.36.77.02-.01 1.27-.77 1.1-.33.17-.05.51.14.23.21-.28 2.16-1-.08.54-.2.45-.75.45-.13.76.54-.47.34-.41.95-.27-.28.56.07.2.27.04.57-.14.4.58-.22.83.11.27.35.03.19-.09-.01-.19 1.8-.35 1.08.15.55.83-.77 1.32-.06 1.19.17.6-.29.52-.77.62-.73.74 1.01.08.71-.53.73-.22.82-.15.47.48.1.62-.24.41-.34.43-.88.33-.93.48 1.12.1.98-.33.26.14.3.29-.82.59-1.17.58-.06.35.11.12.2.06 2.55.1 1.24.76-.32.36-.4.25-.76.04-1.42.59.54.34.86-.32.78.02.91.14.61.65-.22.71-.66.58-.3.17.47.25.09.13-.03.28-.27.21-2.11.51-.98.47.55.15.4.02 1.72.31 1.03 1-.83.88-1.19.51.62 1.01-.75.34-.31.31.26.48-.66.33-.76.03-.56-.06-.55.35.54.33.54-.03 2.93 1.25.21.75.28.69-.5.9-1.04.11-.53-.07-.48.21.57.17.44-.01.15.58.03.42-1.27.25-.81.24-.71-.02-.86.12.78.44.79.1.45.48.01.57-.53.07-.56.01-.66-.34-.87-.23.53.73.69.24.38.68.21.73-.94.38-.88-.64-1.15-.16.88.94.89.8.96.76.16 1.07-.79-.05-1.41-.78-1.71-.36 1.26.97 1.26.81.5.51.26.61-.37.51-.6.23-1.54-.68-1.04-.14.95.58.8.73.35.95-.55.69-1.91-.58-1.74-.89-.28-.25-.03 1.1h-.21l-.13.17-.08.23.05.2-.28-.05-.27.05-.44-.52-.83.01.27.36.32.2.49 1.41-.26 1.73-1.21-.05-.81-.12-.03.49.1.67-1.07-.2-1.07-.88.1 1.07-.02 1.01-1.91.08.14.91-.48.64-1.07-.27-.8-.68-.15-.32-.14.28.3 1.42-.46 1.71-1.14-.97-.54-1.5-.12-.58-.35-.69-.16.63.18 1.79-.46 1.12-1.22-1.28-.94-1.29-.12-.31-.2.27-.1 1.37-.56 1.26-.49-1.01-.32-1.01-.03-.37-.16-.25-.3.01-.15.16v.28l.08.23-.07 1.06-.76.81-.71 1.12-1.6.76-.61-.68-.26-.98.24-.51-.37-.13-.22.17-.04.45-.58.99-.58.56-.04-.19-.14-.14-.2-.11-.2.02.23-1.1-.37-1.15-.07-.63-.2.65-.44.16-.44.03-.04-.24-.15-.09-.31.03-.13.15-.06.27.03.24-.23.16-.19.08-.46-.29.03-.33.64-.47.57-.75-1.06.23-.81.37-.28.02-.11-.22-.23-.17-.3-.01-.4.45-3.11.97-3.51 1.91 2.96-2.36 2.45-1.77.38.43.5.12.97-1.02.13-1.1.07-.16-.09-.14.24-.78.04-.75.27-1.21 1.06-1.03.37-.05.46.11.22-.4-.28-.5-.62-.1-.41.44-.39-.5-.14-.34.17-.44.42-.42.96-2.13.76-1.3.54.03.55.18 1.22.18.57-.47.24-.74-1.06.75-.97.27-.07-.33-.34-.22-.38-.1-.57-1.71-.36-.06-.38.02.69-3.27.64-.92.23-1.22 2.62-.23 1.85-.97.49.49.48.07 1.86-.56.59-1.16.89-1.44-.25-1.45.59-.09.46-.32.19-.67.01-.89.14-.15.21.17.19-.32.05-.6.25-.24.35-.1-.11-.83-.79-.77 1.92-2.9 1.1-2.88-.34-.18-.29.29-.33.68-.33.01-.22.11.1.29-.44.35 1.03.23-1.13 1.47-1.36 1.18-1.25-.21-.32-1.17-.34-.17-.24.3-.01.45-.18.2-.39-.04-.3-.47-.96.26-1.89-.35-.1-.95.1-.78-.49-.02-.66.28.05-1.61.27-1.79 2.04-.74 2.17-1.08.39.36 1.54 1.07.36.15.39.05.21.48.15.62.47.05.28-.52-.02-.51-.28-.46-.39-.93.21-.96-.67-2.31-.72-2.21.21-.32.28-.27-.23-.43-.4-.3-.89-1.73-.54-.88-2.24.09-.3.3-.23.5-1.5-.07-1.41.35-2.14-.46-.85-.08-.31-3.62.35-3.89.43-.32.53-.26.67.58.58.65.21.77.32.07.17-.23.08-.59.2-.43.01-.43.31-.07.2.44v.38l.08.26.37.38.14-.14.03-.46.08-.22.16-.1.4.22.41.11.28-1.8.28-1.16.42-.31.49.01.23.19.23.31Z" style="fill:#8ca08a"/><path d="m238.53 136.28-.42-.04-.33.16.15.52-1.26-.81-1.26-.97 1.71.36zm-.08-2.72-.27.37.02.57-.89-.8-.88-.94 1.15.16.88.64Zm.02-25.95-.71.52-1.01-.07.73-.74.77-.62-.01.48zm3.71 5.76v.67l-.78-.01-.86.31-.54-.34 1.43-.59zm-11.39-15.75-.64.73-.76.72.31-1.09.75-.71.03.32zm9.22 11.56-.02.21.17.28.13.08-.98.33-1.12-.1.93-.48.88-.33Zm-3.05 29.3.11.47-.05.19-.14.14-.8-.73-.95-.58 1.04.13zm-8.53-43.11-.52.67-.98.54 1.18-1.53.08.26.25.06Zm-1.89.05-.18.44-.4.38-.29-.11-.04-.32.15-.25.24-.17zm13.19 34.19v.64l-.79-.1-.78-.44.87-.12zm-.62 1.77-.24.14-.07.26-.68-.24-.54-.73.87.23zM211.19 93.6l-.11.28.03.31-.49.16-.21-.77.39-.03zm28.58 29.93-.03.58-.53.03-.55-.33.55-.35zm-6.39-22.93-.34.41-.54.47.13-.77.75-.44v.34Zm-1.58 40.29-.69.05-.32-.2-.27-.36.83-.02zm-10.72 6.48-.26.1-.27-.08-.1-.67.16-.63.35.7.12.57Zm-7.39-54.5.07.35-.16.32-.81-.33.38-.33zm4.62-1.22.02.51-.45.16-.15-.26-.05-.35zm-2.09 55.99-.56.06-.08-.23v-.28l.15-.15.3-.02.16.25zm24.42-29.31-.4-.02-.55-.15.98-.47.04.31z" class="cls-11"/><path d="m232.42 124.94.03-1.58.59-1.58-1.26-.55.46-.68.1-.71 1.09-.11 1.12-.2-.93.9.31 1.26.56 1.5-.33.79.7.69-2.44.29Z" style="fill:#718877"/><path d="m217.12 141.7-.95.4-1.96-.14.25-.83.8-.32 1.28-.31.45-.21z" style="fill:#718676"/><path d="m224.25 123.97-4.72-.23 1.19-.45 2.45-.3z" style="fill:#6f8675"/><path d="m229.74 133.11-.18.51.06.36-.15.18-.29.09-.35-.16-.08-.55 1.14-.94 1.45.13-.49.55z" style="fill:#748879"/><path d="m209.74 135.99.96-.28 1.07-.74-.24.74-.57.47-.68.16z" style="fill:#718677"/><path d="m221.09 128.01.4-1.81.27.99z" style="fill:#647969"/><path d="m213.23 134.77.17.24-.34.13-.48-.22z" style="fill:#617567"/><path d="m206.74 148.85-.03-.45-.27-.16-.35-.01.81-.37 1.06-.23-.57.75-.64.47Z" class="cls-5"/><path d="m208.24 148.87-.26.07-.08.26-.15.09-.16-.06-.04-.24.07-.27.13-.15.31-.03.15.09zm1.15-.21-.15.14-.12-.12.2-.65z" class="cls-83"/><path d="m213.11 115.55 1.89.34.96-.25.3.47.39.04.18-.2.01-.45.25-.3.33.17.33 1.18 1.24.2 1.37-1.18 1.12-1.47-1.03-.23.43-.35-.09-.29.22-.11.33-.01.33-.68.29-.28.34.17-1.1 2.89-1.92 2.89.8.78.1.82-.34.1-.26.24-.05.6-.19.32-.21-.18-.14.16-.01.88-.19.68-.46.33-.59.08-.36-.06-.23.17.18.28-.55 1.74-1.63.9-.56.45-.71.38-1.14-1.18-.66.7-.74.54-.26-.47.17-.68-1.16.25-.08-.71.02-.87-.35.3-.3-.03-.44-.25-.27.57-.2-.6-.64.23-.54.63-1.81.24-1.84 1.08-.5.12.47.35-1.84 1.21-2.42.4-.52.66-.69.29-.5-1.29-.69-2.07 6.13-2.75 3.25-1.72.1-.5.39-.32.73 1.04-.14-1.04-.55-.85-.28.51-.4.09-.34-.04-.1-.57-1.79-.14-1.2-.3-.06-.35-1.31-.01-.71-.53-1.61-.3-.89-1.12-.41-.34-.24-.38 1.04-.5.46-.36-.45-.75-.32-.69.18-.17.18-.02.57.23.3-.7-.54-.94 1.36-.69 1.54.44.43-.42.64.01 1.44 1.41-.2.49.82-.07 1.55 1.98.58 1.04-.37.39-.51.27.24.63.07.43.44.05.32-.25.09-.72 2.34-.64-.21-.6.1-.32h1.05l.97-.46.28.3-.16.37 1.17.1.21-.4v-.49Z" style="fill:#718678"/><path d="m216.49 108.86-2.17 1.08-2.04.74-.27 1.79-.05 1.61.67-.28.48.02-.1.78.1 1.45-.21.39-1.17-.1.16-.37-.28-.3-.97.44h-1.05l-.09.33.2.6-2.34.64-.09.72-.32.26-.44-.06-.07-.43-.24-.63.52-.27.36-.39-.58-1.04-1.55-1.98-.82.08.2-.5-1.44-1.41h-.64l-.43.41-.8-.11-.74-.33-1.36.69.54.94-.3.7-.57-.23-.18.02-.18.17.32.69.45.75-.46.36-1.04.5.25.38.4.34.89 1.12 1.61.3.71.53 1.32.01.05.35 1.2.29 1.79.15.1.57.34.04.4-.1.28-.5.55.85.14 1.04-.73-1.04-.39.32-.1.5-3.26 1.73-6.12 2.74-.52-.02-.4-.1.24-.62-.03-.4 1.22-.47-.15-.46.55-1.01 1.19-.94.33-1.17-.39-1.02-1.89-.78-1.6-1.73.14-.1h.25l.23-.26-.06-.45.94-.74.97-.95-.83-.75.14-.84.99-1.13 1.31-.84.02-1 .19-1.03.29.33.36.01.59-.79 1.05-.09.68 1 1.13.44.02.56.22.33 1.16-1.07.41-1.31 1.35-.15.85.98 1.62-1.06 1.34-.7.39.27.47.45.34-1.24.28-.36.38-.19 1.56.46.14.37.22.31.45-.13.35-.19.34.3.21.36.39-.33.14.13z" style="fill:#5a6f63"/><path d="m217.73 122.94.25 1.45-.89 1.44-.58 1.16-1.87.56-.48-.07-.49-.49-1.85.97-2.62.23-.22 1.22-.65.92-.69 3.27-2.14.6-1.68-.65-.2.46-.37.43-.34-.42-.21-.46.09-.31.37-.18.75.1 1.17-1.93.29-1.67-.45.16-.62.12.35-1.75 1.85-1.3 2.02-1.32.05.76.41.38.73-.1.37-.56 1.16-.25-.16.67.25.48.73-.54.67-.7.42.85.72.33 1.27-.83 1.63-.9.55-1.74-.17-.28.22-.17z" style="fill:#607568"/><path d="m210.09 125.95-.37.56-.73.1-.41-.37-.05-.77-2.02 1.31-1.85 1.31-.22.89-.13.86.63-.12.44-.16-.29 1.67-1.17 1.93-.43-.12-.32.02-.46.49-.7.02-.13-.48.18-.54-.14-.7.18-.78-.63-.25.38-.86v-.68l-1.96.65-1.75-.36.69-.29.52-.66 2.42-.4 1.84-1.21-.47-.35.5-.12 1.84-1.08 1.81-.24.54-.63.64-.23.21.6.26-.57.44.25.29.03.36-.3-.02.87z" style="fill:#52685c"/><path d="m208.2 92.92-.35 3.9.31 3.61.85.08 2.14.46 1.41-.35 1.5.07.23-.5.3-.3 2.24-.09.54.88.89 1.73.4.3.23.43-.28.27-.21.32.73 2.21.66 2.31-.21.96.39.93.28.46.02.51-.29.52-.46-.05-.15-.62-.21-.48-.39-.05-.36-.15-1.54-1.07-.39-.36v-.78l-.14-.14-.39.34-.21-.35-.34-.31-.35.19-.45.13-.23-.31-.13-.37-1.56-.46-.38.19-.28.36-.34 1.24-.48-.45-.38-.27-1.33.71-1.63 1.05-.85-.98-1.35.15-.41 1.31-1.16 1.07-.22-.33-.02-.56-1.13-.44-.68-1-1.05.09-.59.79-.36-.01-.29-.33-.2 1.03-.01 1-1.3.84-1 1.13-.14.83.83.76-.96.95-.95.74.05.45-.22.26h-.26l-.13.1 1.6 1.73 1.89.78.38 1.02-.32 1.17-1.19.95-.55 1 .15.46-1.22.47.03.4-.24.62.4.11.52.01.69 2.07.5 1.29 1.75.36 1.96-.65v.68l-.38.86.63.25-.18.78.14.7-.18.54.13.48.7-.02.21.46.34.42.37-.43.2-.46 1.68.65 2.14-.6.38-.02.36.06.57 1.71.37.1.35.22.07.33-.55-.19-.54-.02-.76 1.31-.96 2.12-.41.42-.18.44.14.35.39.49.41-.44.62.1.28.5-.22.4-.46-.11-.37.05-1.05 1.03-.28 1.21-.3.18.02.51-2.8 2.75-1.71-.87-.85.39-.85.06-.44-.21-.88.56-.17.25.08.36h-.64l-.08-.27-.41-.06-1.33 2.19-.2-2.42-.76 3.59-.51.33-.11.6-.14-2.6.78-2.6.59-1.54.24-.33-.09-.27-.31-.3-.2.11-.03.22-.83.01-.91-.2-.55.24.29.29-.14.52-.5.28-.34-.69-.15-.81-.43 1.98-.12 2.06-.46-1.57.12-1.57.36-.65.09-.65-.93-.72-.5-.5 1.11-.54 1.2-1.33-.24-1.1-.91-.86.73-.55.31-.7-1.47-1.23-1.79-.75 1.18-.64.8-.76-.96-1.45-1.81-.93 1.2-.68.36-.96-.53-.9-1.28-.36.81-1.05-2.17-3.03-3.79-2.27 5.52-3.12 1.44-5.3-3.04-3.02-4.18-1.97 3.64-1.81 2.55-1.7-.58-.95-.57-.6.79-.57.92-1.29.01-1.26-.72-.81-.4.11h-.36l-.36-.88.09-.49.39-.16 2.43 1.34.71-.28.69-.46 1.08.69 1.06.09.15-1.41.65-.81-.09-1.19.79-.97.98.35.87-.49.3-.47.06-.52.29.04.26-.09.19-.19.06-.23.56-.62.09-.92h1.49l1.82.87 1.51 1.42 1.17-2.32.51.04.43.17.59-.48.67-.21.72.52.53.61Z" style="fill:#738677"/><path d="m198.93 104.68-.74.07-.83-.08.14-.64.06-.72.42-.06.39.02.57-.77 1.8.12.52.57-.29.43-.71.19-.73-.2-.42.25z" style="fill:#576c61"/><path d="m196.94 95.29-.86.49-.99-.35-.34-.41.1-.48 1.05.68z" style="fill:#a4b5a8"/><path d="m194.12 165.67 1.61 9.49.42 3.99.02 4.18-.77-3.07-.34-3.21-.26-.07-.03-2.02-.47-1.99-.16 4-.41-.32-.28-1.13-.06-.55.26-2.23-.53-2.22-.15 2.79-.02 2.76-.22 4.43-.67 3.22-.11-4.29-.24-4.29.32-8.26.22-.34.01-.23-.24-.2-.19-.06-.58 4.56-.41 4.53-.34 2.2-.46 2.2-.43-.83.05-1.59-.4-.95-.3.96-.48 2.14-.46 1.35-.27.07-.3-.02.22-1.18.1-1.29 1.03-4.77.3-1.05-.19-1.12-1.72 6.67-.32.58-.37-.18-.23-.36 1.15-4.89.97-4.96.53-1.81.41-1.85.01-.3.24-.07.39-2.65.38-1.19.12-1.25.74-.39 1.11.25.34.66.12 1.02.54 1.77.12 1.89.71 1.49Z" style="fill:#576d61"/><path d="m209.16 174.19 2.55 3.06-3.16-2.38-5.87-5.43-.7-.76-.41-.87.78.72.93.62 5.87 5.05Z" style="fill:#586d5f"/><path d="M191.69 175.13h-.88l.41-4.54.58-4.56.43.26-.01.22-.22.35-.32 8.26Zm1.91.93h-.67l.02-2.76.15-2.79.53 2.22-.26 2.23.06.55zm1.19.92-.66-.01.16-4 .47 1.99zm-5.19.95-.88.02.51-1.8.41.95z" class="cls-11"/><path d="m205.54 145.18-.31.07-.12.21-.89.68-.65.92-2.45 1.77-2.96 2.36 3.51-1.91 3.11-.97.4-.45.3.01.23.16.11.23v.33l-2.41 1.18-1.99 1.58 2.47-1.02 2.19-1.15.62.02.46.29.42-.24.16.06.15-.09-.18.44-2.01 1.17-2.79 1.25-2.37.95 1.57-.05 1.28-.65 2.43-.73 3.89-.71.33.25.05.19-5.53 1.7.27.66.33.36.16.3.19-.3 3.38-.6 3.55-.43-4.38 1.34-4.14 1.35-.41.06-.41.2.08.36.31.1.44-.21 4.49-.59 5.29.82-2.97.46-5.03.33-2.21.61 2.31.23 2.1-.13.88.16.64.45-.81.02-.9.38 1.06.33.98-.01 2.95.4 2.95.57-1.48.29-1.35-.04-4.79-.46-5.04-.09 7.03 1.14 2.46.15 1.97 1.42-.95.13-.76-.01-3.47-.32 1.63.79 1.6.26 1.8.8 2.1.84-2.33-.22-2.16-.41-2.32-.26 1.04.76 2.84.96 1.81.86-1.65-.27-1.45-.34-1.72-.83-2.05.02 1.96.7 3.93 1.55 2.02 1.27-3.86-.97-3.59-1.13-2.5-1.01-2.77-.71 2.28 1.16 2.33.88 7.58 4.38-5.83-1.98-6.03-2.68-1.09-.79-1.42-.37 2.56 1.74 5.2 3.99 5.04 4.69-2.26-.98-1.97-1.35-4.88-3.9-5.28-3.89 3.78 5.04 4.33 4.67 1.8 2.18 1.25 2.65-7.01-6.95-6.51-7.13-.74-1.37-.96-1.29.47 1.48.73 1.24 5.16 13.4-.27 1.08-.64-1.53-.71-1.27-1.65-5.01-.16-.35-.24-.33-.23-.09-.2.24 1.08 2.81.88 2.76.29 1.5.05 1.56-.3.04-.25-.26.15-.43-.04-.29-.25-.07-.94-3.85-1.42-3.84.37 2.37.63 2.31.17 1.7.55 1.37.08 1.68-.38 1.8-1.29-4.44-.99-4.28-1.68-8.24-.1-.83-.56-.39-.71-1.49-.12-1.89-.54-1.77-.12-1.02-.34-.66-1.1-.25-.75.39-.59.84-.48.93-.9.99-.68 1.18-.6.47-.34.77-1.1 1.23-.72 1.5-.57.52-.36.71-.24.03-.07.27-1.99 2.78-2.44 2.66 6.65-10.19-8.05 7.38 2.75-3.6 2.87-3.33-3.88 2.32 1.07-1.25 1.11-.99 3.87-2.92 3.56-3.2.23-.06.05-.29 1.67.61 1.37-.21.06-.43-3.93-2.88-2.59-1.06 1.16 1.42 1.64 1.87-5.43.99h-.69l-1.23-.49 1.42-.2 1.26-.34.19-1.25-.87-1.28 1.41-.19.91-.89.04-.83-.53-.99-2.7-4.18 1.44.67.95 1.42.46.17-.25-.53 1.83 1.63 1.76 3.37-1.88-4.57.05-2.69.26.07.2-.51.74 1.83.59 1.95.02-3.15 1-1.55 1.46 5.83 1.11-4.34.5-1.29-.28-1.02-.29-.29.55-.24.92.2.82-.01-1.09 4.12-.99 4.42.44-.52.42-.33.37.11.02-.49.5-.35.12-.58.37-.5.4-.27 1.31-1.19.7-1.07h.64l-.11.82-.72.67.3.57.16-.4.97-1.36.82-1.27.85-.06.85-.39 1.71.87 2.8-2.75-.02-.51.3-.18-.04.75-.24.78Z" style="fill:#5d7466"/><path d="m205.55 145.48-.44-.02.12-.21.31-.07.09.14-.07.16Z" style="fill:#eff2ef"/><path d="m210 173.82-.5.06-.35.31-5.87-5.05-.93-.62-.78-.72.41.87.7.76 5.87 5.43-.34-.02-.22.16-.06.39.02.35-4.33-4.68-3.78-5.03 5.28 3.89zm2.84-13.32-.3.28-.04.47-2.46-.15-7.03-1.14 5.03.09 4.8.46Zm-16.38 14.63-.73.03-1.61-9.49.57.39.09.83zm3.22 5.18-.64.06-.56-1.36-.16-1.71-.63-2.31-.37-2.37 1.42 3.83zm.85-2.08-.26.06-.25-.03-.88-2.76-1.08-2.81.2-.25.23.1.24.33.16.35zm7.4-21.1v.82l-2.11.13-2.31-.23 2.21-.61zm.95 9.72-.25.02-.24-.06-.17.37-2.33-.88-2.28-1.16 2.77.71 2.5 1.01Zm3.31-.6-.05.29.03.29-3.75-1.4 2.05-.02 1.72.83Zm.56-3.46-.19.35-.06.39-1.59-.26-1.64-.79zm-15.26 3.71-.25-.05-.25.11-.74-1.24-.46-1.48.96 1.29zm6.45.39.05.58-2.56-1.74 1.42.37zm7.97-2.36-.23.39-.04.44-1-.33-1.04-.76 2.32.26Zm-2.47-5.97.33.72h-.97l-1.07-.32.89-.37zm-5.51-2.85v.52l-.44.21-.31-.1-.08-.36.41-.2.41-.06Z" class="cls-11"/><path d="m192.72 144.65.28 1.02-.5 1.29-1.11 4.34-1.46-5.83.21-.19.04-.21.24-.18.28-.04-.12 1.57.46 1.57.13-2.06.42-1.98.15.81.34.69.5-.28z" style="fill:#dee7e0"/><path d="m193.88 151.61-.02.49-.37-.11-.42.33-.44.52.99-4.42 1.12-4.34.2-.11.31.3.09.27-.24.33-.59 1.54-.77 2.6.13 2.6Zm3.4-3.97-.71 1.07-1.3 1.19-.4.27-.37.5.76-3.59.2 2.42 1.33-2.19.41.06z" class="cls-66"/><path d="m199.33 146.69-.81 1.27-.98 1.36-.16.4-.3-.57.72-.67.11-.82-.07-.37.16-.24.88-.56.44.21Z" style="fill:#cfd8d4"/><path d="m193.88 151.61.12-.6.5-.33-.12.59z" class="cls-66"/><path d="m189.6 157.72-.13-.31-.21-.01-.1-.27-.18-.09-1.64-1.87-1.16-1.42 2.58 1.06 3.94 2.88-.06.43-1.38.21z" style="fill:#8a5c50"/><path d="m205.82 148.58.05.34.22.24-2.19 1.16-2.47 1.01 1.98-1.58 2.42-1.18Z" class="cls-5"/><path d="m205.84 151.59-2.43.73-1.28.65-1.57.05 2.37-.95 2.79-1.25z" class="cls-83"/><path d="m198.48 155.84-1.59.23-1.16.29-.31-.32 3.02-.93.06.37z" class="cls-53"/><path d="m189.94 161.42-.05-.32-.13-.25-.2-.13-.2.04.48-.93.59-.84-.12 1.25z" class="cls-11"/><path d="M201.82 154.05v.45l.1.13.21.03-.02.21-.14.1-.45.02.01-.37-.17-.26h-.52l.4-.29.58-.01Zm-2.15.59.16-.06.16.08-.18.29zm.31.94.04-.25.3-.04-.07.22z" class="cls-53"/><path d="m184.02 175.72-.19.43-.58.22 1.76-4.51 1.93-3.34z" style="fill:#969e95"/><path d="m187.75 178.18-.24-.21-.34-.06 1.72-6.67.19 1.12-.3 1.05z" class="cls-11"/><path d="m53.36 84.73.01.5.17.88.52-.17.25.39.25.07.35-.38.15-.38.68-.43.61.03-.99.81.33 1.48-1.24-.63-1.28.09-1.18.58-.49 1.21.45.86.95.71-.73.19-.49.24.4 1.78 1.49 1.17-.66.38-.96.18-.33.21-.16.55v.56l-2.36.89-2.82-.25-.83-.42-.91.06-1.13-.35-1.12-.78-2.06-.56-1.64-1.23-.71.15-.66.24-.41-.36-.28-.53-1.02.49-.47-.43-.25-.43-.87.08-.59-.45-.25-1.19.59-1.09-.4-.36-.22-.31.2-1.04-1.27-.77-1.63-.28.31-.34-.51-.82v-.9l-.36-1.43.31-1.48.49-.24-.49-.19-.92-.1-.68-.29-.24-.6-.09-.7-.37-1.02 1.07-.47-.65-.43-.37-.69-.03-.72.33-.8-.21-.6-.02-.7.65-.8-.66-1.21.28-1.22 1.08-2.32 2.23-1.53.65-.03.53.22.07.35-.09.49.31.38.1.42-.51.94-.57 1.26.73 1.7.64.13-.65.33.14 1.21 1.03.88.59 1.2-.34.68.23.85.3.42.77.23.02.86-.34.8.89 1.47-.24.27.71.13.42-.18.24.01.11.34-.08.23-.27.16-.12.31.85.54.99-.22.28-.29.19-.11.18.2.13.36 1.02.15.27.48.09.67 1.12-.27 1.65 1.4 1.69.84 1.1.07 1.01-.1.52-.62.49-.19.54.29.51.42.94-.82.53.45.59-.04.6-.18.25-.58.11-.46.25-.3.32-.18.36.09Z" style="fill:#55675b"/><path d="m64.92 75.43-.42.36-.27.51-.88 1.15v1.46l.64 2.7 1.44 3.66.71 1.2-3.37-.98-3.37-.35-3.65.08-.68.42-.16.39-.34.37-.25-.06-.25-.4-.52.17-.17-.88-.01-.5.54-.22.39-.66 2-1.37 1.63-.8 1.44-.88.62-.87-.15-.7.44-1.27.48-.4.1-.53-.14-.42-.39-.47 1.71-.7 1.12-1.41-.5-.57-.2-.65.89.25.5.82.6.24.39.32z" style="fill:#6e8071"/><path d="m81.91 56.81.03.54.45.62-.83.42-.29.83.28 5.84 1.41 5.77-3.23-1.73-3.25-1.16-2.09-.33-1.6.18-.93 1.29-1.14.11.99-.97 1.04-.88 3.95.23 1.03-1.54.29-1.03-1.05.2-.69.84-.24-.01-.15-.14.01-.31.34-.21.47-.88-.01-.98-.76-1.62-.51.03-.25-.24.29-.65.35.23.41.17-.37-.78.04-.79 2.55-2.01 3.46-1.02Z" style="fill:#7a8b7a"/><path d="m72.92 45.4 2.4.04 1.82 1.98-.01.8.13.82 1.82.56 1.04 1.83-.52.73-.18 1.02 2.02-.19 1.52 1.1.4.87.27.83-.78-.14-.65.08-.29 1.08-3.46 1.02-2.55 2.01-.04.79.37.78-.41-.17-.35-.23-.27.19-.02.46.76.21.74.58.02 1.04-.46 1.86-.33.21-.02.31.15.14 1.69.01-1.03 1.54-3.95-.23-1.04.88-.99.97-.54 1.7.77 1.56-.31 4.07 1.52 4.47-.43-.41-.36-.14-1.86-2.03-2.18-2-1.17-.75-1.24-.21-.09-.99-.39-.32-.6-.24-.5-.81-.89-.26.2.65.5.57-1.12 1.41-1.71.7.4.47.13.42-.1.53-.48.4-.44 1.27.15.7-.62.87-1.44.88-1.63.8-2 1.37-.39.66-.54.22-.36-.09-.32.18-.25.3-.11.46-.26.59-.59.17-.59.05-.53-.46-.94.82-.5-.42-.55-.29-.49.2-.52.61-1.01.11-1.1-.08-1.7-.84-1.64-1.4-1.12.27-.09-.67-.27-.48-1.02-.15-.13-.36-.18-.2-.2.11-.27.29-.99.22-.85-.54.11-.31.28-.16.08-.23-.11-.34h-.24l-.42.17-.71-.12.24-.28-.89-1.47.35-.8-.03-.86-.77-.23-.3-.42-.23-.85.34-.68-.59-1.2-1.02-.88-.15-1.21.65-.33-.64-.13-.73-1.7.57-1.26.51-.94-.1-.41-.31-.39.09-.48-.07-.36-.53-.22-.65.03-2.22 1.54-1.09 2.31-.56-.62-.76-.42-2.46.71-2.22 1.31-1.95 1.77-1.56 2.07-.89-.94-.32-1.15.22-.88.72-.65.29-.09.06-.35-.11-.18h-.21l-.03-.69.35-.62 1.2-.49 1.31-.96 1.53-.52-1.06-1.78.27-1.92.82-.48 1.1-.19-1.01-1.95.31-2.33-.44-.9-.18-1.06 2.09-2.1 3.13-.19.34-.93.84-.52-.08-2.96.77-2.87 1.24-.94 1.46.22.58-.43.59-.28 1.12.38 1.09-2.65.71-.12.8.09-.4-1.48.31-1.29 1.11-.95 1.54-.18 1.6.79 1.4.97 1.9-.93 1.79-2.5 1.62-.33 1.43.77.84-.61.84-.38 2.18 1.09 1.28 2.5 1.23-.79 1.2.08.91 1.72.66-.46.69-.09 1.06-1.49 1.27-.96 3.47.46 2.26 3.24 2.06-.66 2.07.33.58 1.33.74.91Z" style="fill:#8c9e87"/><path d="m41.47 55.55-1.25-.37 4.94-3.13.01.45-.27.22-1.11.05-.31.84-1.11.29-.79.33-.12 1.32Z" style="fill:#708171"/><path d="m50.36 50.62-1.47-.43-1.54.57 1.37-1.03 1.76.07.61-.36.63.21-.68.42z" style="fill:#758777"/><path d="M77.73 66.01h-1.45l.69-.84 1.05-.2-.29 1.03Z" style="fill:#627365"/><path d="m57.71 51.04-.19-.56.17-.65.48.46-.02.31z" style="fill:#708272"/><path d="m45.46 50.85.22-.12.4.01.13.1-.08.19-.33.31z" style="fill:#6c7e6e"/><path d="m63.49 51.16.23-.12.39.01.13.11-.09.19-.32.3-.2-.13z" style="fill:#6f8073"/><path d="m66.19 52.73.21-.04.19.2.07.24-.24.23-.29.01z" style="fill:#748978"/><path d="m28.19 70.93-.28 1.22.66 1.21-.65.8.02.7.21.6-.33.81.03.71.37.7.65.42-1.07.47-.05.48.42.54.33 1.3.69.29.91.1.49.2-.49.23-.31 1.47.36 1.44v.91l.51.81-.31.34 1.63.28 1.27.77-.2 1.04.22.31.4.36-.59 1.09.25 1.19.59.44.87-.07.26.43.46.43.48-.18.54-.31.28.53.41.36.67-.24.7-.15 1.64 1.23 2.06.56 1.11.78 1.14.35.91-.06.83.42 2.83.25 2.35-.89.01-.56.15-.55.33-.21.41-.07-.18 1.91 1.29 1.63 1.9 3.56 2.93 3.22-5.32 1.11-.61 1-1.58.76-.18.53-.12.69-.46.12-.45-.07-.65-.87-.49.06-.4-.06-.15-.71.15-.74-.58.18-1.09 1.1-1.23-.29-.51.6-.56.32-.5-.1-.45-.28.25-.51v-.41l-.48-.11-.36.48-.27.56-2.69-1.5-1.29-.83-.19-.76-.47-.58-.12-.93-.27-.91-.3.55-.4.36-.33-.16-.41-.32-1.08.75-1.31.07-1.68-.91-1.44-1.48-1.13.29-.26-.63.23-.87-.53-.16-.32-.22-.12-.84-1.38.1-1.08-.18v-.47l.61-.61-.03-.77-.35-.65-.74-.22-1.84.21-1.27-1.19.16-2.25 1.23-1.77-1.85-.19-1.09-.79.3-.77-1.23-.26-.78-.66.17-2.19 1.11-1.63-.3-.6-.14-.63.86-.79-.35-.89-.75-.68-.22-1 .41-1.09-.78-.63-.67-.75.49-1.73 1.55-2.07 1.96-1.77 2.22-1.31 2.46-.71.76.42.56.62Z" style="fill:#66776a"/><path d="m43.15 107.88-.42.11-.45-.1.27-.56.36-.48.49.11-.01.41z" style="fill:#cad2d1"/><path d="m35.28 98.33-.15.65-.22-.48.13-.34z" style="fill:#516355"/><path d="m33.42 103.64.62 1.14 1.26.28-.02.55.12.38.15.11.27.02.7-.52.87-.29.26-.51.01-.58.48.58.18.76 1.29.82 2.69 1.51.45.1.42-.11.45.28.5.1-.14.45.14.37.57-.16.6-.02.19.25.15.43.77-.69.68-.07.44 1.21-.37 1.33 1.11.35.84.72.58.81 1.72 1.18-.38.71.03.82 1.3.77 1.58.36-1.42.79-.66 1.27.78.78.88.59.13.61.26.44.95.05 5.57 2.38-4.43.83-4.12 1.18-.26.45-.1.41-1.31.75-.84 1.07.65 1.19 1.11.58.61 1.07 1.05.77 2.84 1.27 3.24.78-5.31 4.26-3.78 5.49.11.41.32.39-1.25.63.34 1.84-.06 1.72-.31-.23-.05-.17-.27-.39-.4.09-.17.49-.88-.81-.91-1.55.09 1.48.24 1.41-.84-.69-.65-1.2-.43 1.16.05 1.75-.74-.55-.69-.62-.34.61.01.81-1.26-.85-.92-1.98-.7.05-.45.66-.14.83.04.69-.66-.45-.39-.63-1.19 1.1.48 2.3-1.59-1.19.11 1.46.8.97-.82.32-.66-.46-.72-.08.21.55.64.87-.6.01-.95-.79-.6.12-.34.45.47.95.35 1.13-1.26-.9-1.48-.64-.2.17v.27l.4.59-.39.49-.36-.32-.42-.21-1.01.54-1.06-.23-.54 1.01-.37.92-.65.4-.79-.11-.36-.59-.12-.94-.5.13-.44-.17-.06-.32-.22-.44-.72 1.02-1.09.32.43-2.08-.85 1.08-.96.51h-1.04l-.93-.49-.11-.83-.58-.57-.7-.04-.61-.36-.16-.43.2-.63-1.49-.31-1.23-.8-.47-.02-.35-.17-.08-.54.2-.53-.42-.17-.89.38-.33-.51-2.36-.2-.72-.35.95-.81.23-.51-1.58-.23-.91-.69 2.47-2.39-2.53 1.01-2.02-.44 1.02-1.67 1.81-1.55-1.09.03-1.15.55.7-1.05 1-.85-1.3-.07-.91-.29 1.79-1.87-1.51.39-1.6.2-.06-.81-.11-.45-.63-.39-.79-.28 1.88-1 1.89-.64-1.87-.45-.84-.49 2.68-1.32-1.79-.19-1.59-.28.56-.39.36-.34-.17-.58 1.18-.23 1.09-.36-1.33-.4-1.25-.64 2.68-.48-2.55-.81-1.74-1.04.21-.62.58-.36.06-.37.17-.35 1.99-.19 1.69-.31-1.04-.51-2.27-1.64 1.59-.59 2.02.21-1.44-.81-1.34-.88-.1-.78.43-.66 1.87-.18 1.81.15.02-.83.92-.5-.55-.52-.16-.66 1.43-.42-1.04-1.31-.85-1.56.73-.7-.34-.86.89-.46 1.01.44 1.19.24 1.17.75-.32-1.23-.73-1.27.22-.43.38-.28 1.18.67.57-.37.41-.1.26-.31-.02-.23-.2-.37-.71-2.72.62-.78 1.11-.18.77-.67 1.52.58 1.37 1.08-.49-1.43.15-.79.63-.35 1.04.94.85 1.23v-2.59l1.06.8.82 1.4.28-1.49.71-.51.81-1.22 1.18-.89 1.34.52.68 1.67 1.05-3.68 1.13-.29 1.44 1.48 1.68.91Z" style="fill:#718477"/><path d="m37.64 104.22-.01.58-.26.51-.87.29-.7.52-.26-.02-.16-.11-.13-.38.03-.55-1.26-.29-.62-1.13 1.31-.08 1.08-.74.41.32.33.16.39-.36.31-.55.27.91.12.93Z" style="fill:#f3f5f5"/><path d="m37.51 120.61-3.05 1.34-2.15 1.42-.35-.68.29-.71.45-.48v-.36l-.17-.27.7-.79-.1-1.03.7-.29.65-.12.38.36.3.42 1.33.22 1.33.31.32.63.51.63-.44.17-.35-.02z" style="fill:#5e746b"/><path d="m37.53 114.99-2.01-1.01.05-.98.82-.76.74.28.68.11.45 1.3z" style="fill:#687c71"/><path d="m26.35 135.89-.74.79-.37.12-.39-.44.38-.49-.1-.41-.41-.31-.62.03-.2-.37.03-.47.43-.11.59.07.48.6.56.18.36-.2.38.23.05.33-.43.44Z" style="fill:#6d867a"/><path d="m24.22 128.42.47.92-2.44 1.11.1-.54.02-.53.46-.83.7-.28z" style="fill:#6d8377"/><path d="m34.22 149.35-1.19.77-.62-.26-.27-.73.45-.48.58-.22.77.29z" style="fill:#667a6e"/><path d="m44.09 123.47-1.16.56.08-.35.5-.53 1.35.41 1.73.63-.56.35-.81.02z" style="fill:#667b6e"/><path d="m17.39 127.07-.47-.32-.46-1.09.29-.32.38-.05.26 1.79Z" style="fill:#6f8579"/><path d="m30 123.19-.5-.14.42-.19.3-.28.25-.02.27.21.17.27-.36.17z" style="fill:#6a8073"/><path d="m24.76 126.72-.63.16-.46-.13.17-.29.28-.23.47.16z" style="fill:#5e7a6e"/><path d="m16.06 130.89.53.06.29.33-.22.17-.24-.01-.41-.13z" style="fill:#61786d"/><path d="m25.92 125.4.26-.1.36.02.16.45-.19.16h-.26l-.2-.14z" style="fill:#627d6f"/><circle cx="27.26" cy="112.14" r=".3" style="fill:#576d63"/><path d="m18.54 124.99.17.24-.34.13-.48-.22z" style="fill:#677c6f"/><path d="m91.55 178.57.95 2.03 1.51 1.8 5.73 6.23-.22.35-.55-.03-.46-.26-2.9-2.52-2.6-2.8 5.96 8.94-6.54-8.06 3.06 4.79 2.83 4.64-.21.42-.5.12-2.1-1.89-1.62-2.41.6 1.57 1.25 2.21-.49-.24-.5.1 1.07 1.36.71 1.18-1.75-1.11-1.97-2.79 1.12 3.8-.28.14-.28.04-1.31-2.85-1.58-2.85-.4.9-1.25-.93-.89-4.43.6-1.11-.53-1.88-.19-1.74v-.92l-.53-.66-.65.4-.62.29.76-1.03.62-1.14.22 1.32 1.97.04z" style="fill:#586e60"/><path d="m80.23 175.49.45.22.49.4 1.14-.31-.4.9.08.81 1.14.99.65.8-2.36.02-2.09.17 2.62.33 2.47.63.48.33.51-.03-.26 1.78 1.36.01 1.29-1.25.19 1.74.53 1.88-.6 1.11.89 4.43 1.25.93.4-.9 1.58 2.85 1.31 2.85-.09.59-.2.65-1.19-2.2-.86-2.38.38 3.79-1.11-1.86-.62-1.83.72 3.5.02 2.5-1.59-3.52-1.65-4.12.56 7.43-1.01-4.04-.21 1.39-.45 1.12.02-1.25-.33-1-.23 2.69-.05 2.63-1.16-2.79-.32-2.53-.18 2.93-1.55 2.87.34-4.53.89-4.35-1.77 4.74-2.09 3.27.43-3.02.61-3.38-2.32 3.34-.15-1.13-.66.91-.46 1.09-.91.12-.92-.02.33-2.51 2.53-3.87 1.52-1.43-.42-.51-.28.66-3.26 3.96-3.56 2.34 2.61-4.17-1.48 1.31-1.68.81.64-1.72 1.89-1.45-.43-.07-.35.14-.34-.21-.13-.41 1.55-.66 1.13-1.13-1.69.7-1.48-.08-.28-.77-.13-.87h.69l.65-.17.29-.64.31.23 1.16-.86 1.52-1.53-.2-.43-.99-.28-.26-.61.47-.47 1.37.36 1.43-.57-.77-.27-.68.05.91-1.35 1.37-1.2-.98-.37-.83-.16.58-.37.22-.37-.32-.31-.63-.26.75-1.81.09-.83 1.05-.43 1.06.29Z" class="cls-127"/><path d="m75.6 183.09.62-.35 1.41-.13.77.27-1.43.56z" style="fill:#99ada3"/><path d="m87.81 181.28-1.29 1.26-1.36-.02.26-1.78 1.87-1.03.53.66v.92Z" style="fill:#916151"/><path d="m79.7 184.87-1.62.73-1.62.51 1.49-1.01 1.66-.87.51.22z" style="fill:#a7b8af"/><path d="m83.8 190.22-.11-.43.28-.6.24.43z" style="fill:#859e91"/><path d="m66.72 153.5.15.11.15-.09 2.28.44 2.66-1.15.15.13v.28l-1.37 4.24-.45 4.43.15.93 1.1 2.06-.15 1.87.97.49 1.78-.26.96.32 1.15.15 2.16-.43 2.11-.1.22.34h.36l.08.21.12.09-.19.14-.36.03.06.44.73.38-.22.33-.5.27.51.31-.51 2.08.1 3.03-.69.9-1.07-.29-1.04.43-.09.83-.75 1.81.63.26.32.31-.23.37-.57.37.83.16.98.37-1.37 1.21-.91 1.34-.74.07-.61.36-.47.47.25.61 1 .28.2.43-.37.41-1.15 1.12-1.16.86-.31-.23-.29.64-.65.17h-.69l.13.87.28.77-.26.02-.32.28-.15.22.26.15-.13.31.02.23.48.13.41.3-.96 1.2-1.48.06.12.58-.12.5-.21.2-.37-.13-.24-.21-.48-.14.38 1.35-.89-.1-.93-.63.01.89.21 1-3.35-1.54.58.92-.31.74-2.67-1.74.38 1.38.01 1.32-.54-.29-.42-.45-.19.35-.24.12-.57.72-.77 1.85-1.67-3-.06 1.46.15 1.45-1.71.96-1.1-.34-.84-1.2-1.09 1.27-.8-.66-.46.14-.37.35-1.16-.49-.57-1.3-.16 1.85-.78 1.64-.05-1.68-.12-1.5-.92 2.51-1.44 1.19-.13-2.09.09-2.21-.96 2.57-.11.45-.21.35-.71-1.51.3-2.54-.83 1.78-1.01 1.59-.55-.33-.21-.84-.7-.64-.55-.97.59-1.36.2-.81-1.72 1.98-.89-.9-1.34.99-1.62.54.34-1.26.43-1.11-1.88 1.31-1.49-.31.27-.77.08-.79-.69-.04.18-1.85 1.33-2.32-1.85 1.06-1.97.33.99-1.72.62-1.26-1.83.5-3.27.39.97-1.82 2.04-1.54-2.17.9-2.45.36 1.47-1.96 2.17-1.14-1.8.27-1.78.62-.41-.72.07-1 1.08-.9 1.34-.73-2.14.07.78-.94 1.05-.64-2.8-.22 1.27-.54 1.53-.28-.36-.55-.52-.25-1.62-.27-1.45-.72-.8.2 1.1-1.1 2.15-.55-1.63-.07-1.39-.57 3.06-.88-2.63-.34 1.57-.73 1.64-.3-3.75-1.12.02-.56-.17-.39-.27-.08-.31-.47 3.17-1.32.88-.04.69-.45-1.92-.59-1.89-1.04 1.73-.62 1.7.53h.52v-.3l-1.61-.54-1.46-1.02 1.9-.45 1.93-.3-.75-.74-.91-.7 1.14-.06.95-.32-.99-.61-.36-1.06 2.75.15-1.71-.63-1.04-1.04 3.06.83-1.15-.72-1.52-1.52.37-.92.54-1.01 1.05.23 1.02-.54.41.21.37.32.26-.13.13-.36-.4-.59v-.27l.2-.17 1.49.64 1.25.9-.35-1.13-.47-.95.34-.45.6-.12.95.79.6-.01-.65-.88-.2-.54.72.07.66.47.53.06.29-.38-.91-2.43 1.59 1.19-.48-2.3 1.19-1.1.39.63.66.45.74 1.59.25-.49-.06-.59-.35-.42-.57-.09-.04-.69.14-.83.45-.66.7-.05.91 1.98 1.27.85-.01-.81.34-.61.7.62.73.55-.05-1.75.43-1.16.65 1.2.84.69-.24-1.41-.09-1.48.91 1.55.88.81.17-.49.4-.09.27.39.05.17.31.23.06-1.72-.34-1.84 1.25-.63 2.42.95.23.27-1.01 1.05-.06.63.59.7.98-.2.47-.16.41-.01.39.94 2.96 1.04 4.59-.14.78-.42.74.16-1.06 1.77-.08 1.86 1.1-1.13-.19.86-.34.83.93.67 1.23.13.8-.43.65-.75Z" style="fill:#8a9c91"/><path d="m71.89 190.16-.26-.15.15-.22.31-.28.27-.02-.08.45-.38.21Z" class="cls-127"/><path d="m38.59 171.43-.93.53-1.2.26-.19-.01.39-.44-.55-.9.1-.88.92.97z" class="cls-27"/><path d="m55.7 153.76-.72.32-.82.25.58-1.47.57.04z" style="fill:#71867d"/><path d="m39.5 150.06.58.09.34.42.06.59-.25.49z" style="fill:#7c8e80"/><path d="m57.94 153.59.34-.11.4.21.04.2-.16.23-.22.07-.38-.06-.18-.16.16-.39Z" style="fill:#6f847a"/><path d="m52.97 161.4.42-1.58.23.9z" style="fill:#6b847a"/><path d="m35.69 169.15.21-.15.27.17.01.22-.14.23-.21-.1z" style="fill:#627b6f"/><path d="m47.73 180.25-.04-.42-.2-.45-1.07.02-1.12-.08.25-.27-.07-.34-.15-.07-.15-.19-.01-.56-.57.21-.42.01-.35-.39-.1-.28.07-.5-.58-.46-.58-.14-1.56.32-2.38.71-2.18-1.26-.58.15-.31-.06-.09-.5.23-.31.41.15.31.25 1.64.12 1.73.03 2.67-1.66-.49-.57.21-.53.58-.52 1.46 1.41.41 2.04.37.12.25.23-.56.58.94.28 1.19.02-.83.51-.12.58.09.59.56-.56 1 .05.48-.16-.3.66.55.08.56-.16.12.51-.28.49-1 .31Z" style="fill:#687e75"/><path d="m47.98 187.41.41.46.14.47-.79.77-1.28-.24-1.45-.58 2.46-2.79-.37 2.35.46-.11.41-.33Z" style="fill:#6b8278"/><path d="m55.97 189.74-1.2.76-2.03.13-.11-.34.18-.44.35-.27.5.14 1.34.14z" style="fill:#6d8277"/><path d="m47.73 180.25.57-.03.43-.28.16-1-.56.16-.55-.08.3-.65-.48.15-1.01-.06-.55.57-.1-.59.13-.58.83-.51-1.19-.02-.94-.28.56-.58-.62-.35-.41-2.04-1.69-1.66-.26-.05.99-1.01 1.33-.74 1.04-.77.69-1.16.34.92.56.57 1.02-1.24.77.51.69-.11.58-.3.47-.45 1.16.65 1.22.58-.1.63.06.4.83.25.71.52-.18.33-.03.36.51.2.29.29-.35.68 1.52-.43 3.86-1.58 1.96.54 1.52 1.39-.14.48.19.36 1.17.2.64.75-.79.21-.62.33.29.24.39.19.13.81.23.47-1.39.53-1.8.04 1.38.63 1.19.95-.41.87-.95.63.28.69-.04.48-.94.07-.83-.32-.37.24-.51.23-.71-.24-.52.23-1.35.15-1.92-2.12-.07 3.71-1.26-.24-1.23-.11-.26.56-.31.4h-.44l-.42-.21-1.24.37-1.26-.15-.41.39-.37.23-.54-.47-.92-.35v-.3l-.17-.56-.53.25-.31.24-.57-.2-.56-.45.65-1.9z" style="fill:#9cb0a1"/><path d="m44.67 170.62-1.33.74-.99 1.01-.25-1.02.9-1.16.89.18z" style="fill:#6b8379"/><path d="m52.05 178.68-1.27.71-1.02-.13.83-.71.84-.44.45.27.16.29Z" style="fill:#74887f"/><path d="m108.27 22.47-.46.01-.48.26-.14.47.14.73-.44.63-.32.79.43.51-.29.35-.79.04.14.69-.17.51-.65.69-.95.63-.03.16.07.12.29-.02.34.15-.7.51-.28.59.19.64-.44.65.34.52.56.23-.43.35-.08.35.48.22-.62 1.05-.26 1.18-1.58 1.55-.53 2.52-.63-.73-.59-.43-.84-.04-.78.37-1.1 1.56-.2 2.11-2.14-.39-1.39.42-.71-1.06-.75-.97.24-.93-.27-.9.25-1.22 1.05-.78-.87-1.01-.09-2.19.68-.55.06-.6-1.02-1.13-.13-1.13.22-2.13 1.2-.78 1.35-.32.6-1.07 3.99-.87 3.23-1.56 5.42-1.69-.09.93Z" style="fill:#9bab90"/><path d="m154.76 33.34 3.27.29 2.41 2.13-2.22 2.72-3.67 1.42-.52.43-.19.59-.39.03-.15-.16.75-1.01-.07-2.88-1.87-2.86 2.34-.68z" style="fill:#98a98d"/><path d="m124.77 2.76.04.47.2.16.26-.02.16-.32-.02-.37.41-1.03.77-.69 2.64 2.19.83 4.13.22.41.33-.37.8-.59 1.31.3.65-1.26.82-.89 1.39-.24 1.41.47 1.1 1.31.55 1.83 1.56-1.49 1.8-1.24 1.6 2.04.13 3.15 2.4-1.24 2.58-.27 1.45 2.31-.47 2.98.55.34.45.45-.16 1.14-.36.99-.28.14.28.21 2.49-.5 2.4.64.07.7-.28.64-.04.27.25.07 1.11-.15 1.03.33.88 3.31-2.08 3.22-.31.17.31.13 1.45.98.29 2.07-1.42 2.06-1.56 1.3-.26.05-.04.31-2.34.68-.39-.37-.38-.23-.55.28-.62.09.55-.32.31-.33-.05-.82-1.22-.36-.3-.18.37-1.32-.42-.22-.58-.1.47-.68-.99-1.08-1.5-1.11.03-.59-.2-.45-.02-1.34-.69-.76-.79.06-.32-.13-.08-.52.15-.47.03-.33-.8-.23-.01-.55-.11-.58-1.11-.24.26-1.25-.98-.64-.54-.99-1.76-.67-.66.11-.51-.18.03-.35-.05-.35-.52.02-.68.5-.3-.26-.43-.24-.41.41-.41.24-.13-1.14-.57-.98-.22.16-.13.22-.19.1-.37-.6-.92.75-.59 1.08-.08-.91.21-1.02-1.32.6-1.32.97-.2-.98-.31-.66-.22.12-.19.23-.36-.13-.41-1.17-.71.1-.62.46-.92-.02-.92 1.87-1.01-1.26-.95-1.05-1.39.85-1.76 1.9-1.86-.3-1.38-.46-.13.87.04.91-1.25-.5-.95-.54.22.6-.08.51-1.17-.88-1.32-.45.55 1.18.41 1.28-.16.15-.37-.07-.68-.7-.86.1-.67.54.13.92-.76.11-.4.3.57.44.18.49-.51.37-.66.13-.45.42-.51.05.09-.93-5.42 1.7-3.23 1.55-.67-1.31-.52-1.45.27-1.51 1.49-.79-.82-1.46-.26-1.43 1.75-1.81.29-.23-.29-.16-.66-1.19-.23-1.35.54-1.28 1.26-.92 1.76-.12 1.63.47.62-.58.77-.37.1-1.56.62-1.42 3.23-1.17 3.38 1.26.58-.46.87.19.04-1.49.8-1.3.84.01.64.61.01.19.15.14.34-.01.15-.22.49-2.32 1.63-1.62 4.23 2.64Z" style="fill:#ced9b3"/><path d="m125.41 2.68.02.37-.16.32-.26.02-.2-.16-.04-.47z" class="cls-11"/><path d="m152.11 34.04 1.87 2.86.07 2.88-.75 1.01.15.16.39-.03 1.71 1.23 1.3 1.71-.27.75-.46.69.52 1.41.14 1.49-.64.45-.77.22-.29.24.28.14.21.33.41.29-.28 1.88-1.23 1.47-.74-.29-.52-.42-1.02.31-.64 1.11-1.69-.82-1.75.57-4.16 2.41.13-2.7 1.8-3.1-.45-2.32-1.95.58-1.96 1.99.36-2.38.13-1.52-.24-.31-.46-.16-.35-.71-.56-.39-.84.3-.57.84-.36-1.46-.56-.34-.77-.06-1.4.98-.86 1.44-.7-1-.91-.1-2.78 1.98-2.43 2.5-1.47-5.49-3.11-4.53-1.26.48-.26-1.33-.96-.86-1.26.13-.98 1.2-.58-.57-.69-.13-3.05 2.66-2.27 3.63-1.22-2.91-1.55-2.72-.77-.03-.77.56-.09-1.33-.45-1.17-.75-.41-.94-.35-.92-.96-1.17-.54.26-1.18.62-1.05-.48-.21.08-.36.43-.35-.56-.23-.34-.52.44-.65-.19-.64.28-.59.7-.51-.34-.15-.29.02-.07-.12.03-.16.95-.64.65-.68.18-.5-.15-.7.79-.04.29-.35-.43-.51.32-.79.44-.63-.14-.73.14-.47.49-.27.96-.05.45-.42.66-.13.51-.37-.19-.49-.56-.44.4-.3.76-.11-.13-.92.67-.54.86-.1.68.7.37.07.16-.15-.41-1.28-.55-1.18 1.32.45 1.17.88.07-.51-.21-.6.95.54 1.25.5-.04-.91.13-.87 1.38.45 1.86.31 1.76-1.89 1.39-.86.95 1.05 1.01 1.26.91-1.87.93.02.61-.47.72-.09.4 1.17.37.13.19-.23.22-.12.3.67.21.97 1.32-.97 1.32-.6-.21 1.03.08.9.59-1.07.92-.76.24.15.03.32.29.03.13-.23.22-.15.57.98.13 1.14.41-.24.41-.41.73.5.68-.5.52-.02.02.7.51.18.66-.11 1.76.67.54.99.98.64-.39.72.13.53 1.11.24.11.58.01.55.8.23-.03.33-.15.47.07.53.33.12.79-.06.69.77.02 1.33.2.45-.03.59 1.5 1.11.99 1.08-.47.68.58.1.42.22-.37 1.32.3.19.39.07.83.29.05.81-.31.33-.55.32.61-.09.56-.28.39.23z" style="fill:#81927d"/><path d="m142.08 41.06.57-1.63-.42-.75.68-.29.68-.62-1.11-.07-1.12.42 1.23-1.37 1.83-.63.41 1.08.01.86-.39.88.18.94-.36.41-.52.36.78.94-.18.58-.36.45-.73.11-.43-.44-.11-.68z" style="fill:#6c806c"/><path d="m129.58 34.16-.13-.38-.01-.43-1.69-.89.37-.63 1.17-.22.87 1.18.23.7-.18.55-.62.13Z" style="fill:#6c826a"/><path d="m130.03 36.82-1.76.73-.57.97-.32-.3.94-1.27 1.72-.97.24.39z" style="fill:#647765"/><path d="m120.86 32.06-.57.21-.54-.58.1-.26.24-.15.51.13z" style="fill:#63786e"/><path d="m125.79 31.56.32-.1.23.18-.18.5-.28.24-.19-.39z" style="fill:#647a63"/><path d="m143.56 43.46.18.09.31.36-.16.11h-.59l-.1-.22z" style="fill:#4e664e"/><path d="m83.27 29.94-.04 1.33.08 1.48.48-1.4.2-3.58.59-2.26.23 3.82-.06 3.7-.26 2.42.6.83.08-1.78.23-1.49.16-.23.26-.13.58-1.17-.01-.93 1.36-3.72.2-.3.31-.12.33 1.61-.16 1.96-.22.55.27.59.41-.28.09-.6.45-.99.78-.87-.03 1.2-.19 1.02-.59 1.88-.45 2.03-.18.51.48-.19.43-1.83.83-1.52h.18l.19.53-.38.85.34.88.41-.88.21-.8.5-.54.53-.44.55.32.47.81-.74 1.15.09 2.19.87 1.01-1.05.78-.25 1.22-.84 1.68-.77 1.75-.55.34-.01.27.21.16 1.07-1.21.92-1.16.76.97.7 1.06-.31.63-.04.69.52.42-.68.62-.37.55-5.19 3.9-3.45-.39.05.6.17.56.31-.19.29.13.13.92 1.03.38 1.07 1.01-.77.12-.66.24-.99-.32-.98.26-.58.66-.51.86-1.52-1.1-2.02.19.17-1.02.53-.73-1.04-1.84-1.82-.55-.13-.82.01-.8.59.12.77-.12 1.39 1.59 1.35 1.11.33-.2.19.53 1.13-1.01-.61-.73.26-.92-.85-1.68-1.09-1.52-.37-.18.03-.39-.4-.28-.25-.38-.82.21-.76-.21-.07.67-.3.71-1.08-.32-.62-1.04.33.25.38-.24-6.8-5.98-.42-.42-.42-.67.61.01.51.13.99 1.01 1.24.62-.77-1.09-.81-.86.24-.17.31-.09.68.98 1.02.76-.53-1.23-.86-.87-1.25-2.59.1-.12.17-.06.14.28.65.28.18-.25-.38-.57-.28-.09-.12-.5.13-.33.55-.12.42.17 2.04 2.35-.58-1.7-.89-1.42-.17-.5.14-.68 2.08 2.25 1.9 2.31 1.48 2.24-.28-1.4-.6-1.13L76 29.11l1 .7.49 1.12.78 2.1 1.02 2.09 1 2.67 1.09 2.63-.74-3.75-1.06-3.64-1.14-4.37-.12-2 1.59 1.03.71 2.9.25 1.39.4 1.38.11-1.48-.16-1.34-.14-2.4.22-2.58 1.77.5.18 1.94z" style="fill:#4f6458"/><path d="m75.96 43.37.63 1.04 1.07.32.3-.71.07-.67.76.21.82-.21.25.37.4.29-.03.39.37.18 1.09 1.52.85 1.68-.26.92.61.73-1.13 1.01-.19-.53-.33.2-1.36-1.1-1.38-1.6-.77.13-.59-.13-1.82-1.99-2.4-.03.56-.51 1.04-.37-5.68-4.84-.21-.4.18-.26.36-.16 3.47 2.11 3.32 2.39Z" style="fill:#495d52"/><path d="m77.5 30.94.79-.04.67-.33.63 2.46 1.05 3.63.75 3.76-1.09-2.63-1-2.67-1.02-2.09-.78-2.1Zm-1.54 12.43-3.32-2.39-3.47-2.11.59-.62.11-.85 6.8 5.98-.38.24zm14.55-11.88-.83 1.52-.43 1.83-.49.19.19-.51.45-2.03.59-1.88zm-18.53.13.34.08.24-.31v-.54l.88 1.42.59 1.7zm-1.84 4.83.65-.32.82.85.76 1.1-1.25-.62zM85.4 33l-.23 1.49-.08 1.78-.61-.83.27-2.42zm-4.18-2.45.16 1.33-.11 1.49-.4-1.39-.25-1.38.59-.04Zm-9.87 5.32.23-.13.09-.23.85.87.54 1.23-1.02-.76-.68-.98Zm5.15-1.65.51.07.07-.14.02-.22.6 1.13.28 1.4zm7.34-4.31-.06 1.44-.48 1.4-.08-1.48.04-1.33.29-.13zm2.55.63v.93l-.57 1.17-.12-.88.19-1.22h.51Zm5.07 1.53-.21.8-.41.88-.34-.87.38-.86.28-.05zm-2.48-1.83-.09.6-.41.28-.27-.6.22-.54.03.19.13.11.39-.03Zm-18.29 2.5.26-.09.05-.26.28.09.2.23.18.34-.18.25-.65-.28z" class="cls-11"/><path d="m87.45 52.27-1.07-1.01-1.03-.38-.13-.93-.29-.12-.31.19-.16-.56-.06-.6 3.45.39 5.19-3.9-.13 2.26-2.21 2.79.99-.66 1.07-.92-.29 3.67.29 3.83-2.81-2.37z" style="fill:#45564e"/><path d="m92.46 40.4-.92 1.16-1.07 1.21-.21-.17.01-.26.55-.34.77-1.75.84-1.68.27.9z" style="fill:#dbe1d8"/><path d="m172.21 195.9-.27.77-.7.32-.88.02-.86.2.89.32.8.17.4.57.25.7-.66.59-.89.15-1.33.12.59.5.76.21.2.35.14.48-1.23.33-.78.03-.78.16 1.56.79.47.32-.1.46-.43.46-.5.02-.41.22.36.33.31.4.01.43-.32.16-.36-.06-.76-.27-.74.31 1.48 1.05 1.14 1.04.15.68-.66.18-1.39-.4-1.66-.07 2.69 1.64.15.29.49.37.15.22-.14.45-.37.24-1.04.1-.85-.39-1.06-.19 1.77 1.34.29.47-.04.56-1.12.48-1.47-.16-.2-.27-.55-.21-.2.61-.43.03-.57-.07.43.46.64.11.28.45-.02.45-.9-.03-.91-.33-.47-.3-.43.18.38.47.45.26v.31l.08.28.27.05.13.35-.08.25-.6.14-.67-.35-.37-.3-.59-.07.26.42.36.21.34 1.35-.5 1.27-1.03.55-1.22-.15-.31-.47-.55.02.02.51.27.54.03.71-.41.86-.25.15-.34-.44-.02-.27-.28-.25-.26-.05-.35.8-.27.01-.07-.21-.15-.1-.27.02-.17.15.34.68.28.1.34 1.09-.26 1.11-1.29-.69-.36-.61-.51-.47-.19.75.42.65.17.75-.15.71-.6-.06-.51-.35-.24.37-.33.31-1.63-2.41-.32.48-.44.15-.22-.27-.27-.22-.34.86-.2 1.12-.85-.48-.73-.69-1.22-1.57-.11.84.19.69-.03.58-.38.38-.06-.23-.27-.23-.31.02.01.86-.3.33h-.27l-.35-.11-.48-.72-.29-.86-.19.86.02.72-.08.47-.21.43-.52.16-.69-1.62-.4-1.5-.27 3.55-.34.79-.7.31-1.22-1.64-.19-2.54.05-1.02.26-1.15 3.04-1.31 3.32-1.8 2.34-.3.96-.67 1.11-.36.56-.77 3.31-1.24-.02-1.08 2.46-1.26.2-.86.48-.7.35-1.03 1.86-.78.05-.66 1.71-3.2.64-3.1.28-.83-.17-.72.2-.96-.02-.88.67-1.85.8-1.71-.51-.31-.35-.37.33-.96-.96-1.41.25-2.51-.53-1.03-.05-1.17-.55-2.24-1.93-1.53-.9-1.24.43-.62.71-.34 4.3-3.09-.23.12.06-.27-.27-.23.27-.14.61-.09.71.05-.47.7-.31.71 1.05-.27 1.09-.16-.12 1.23.72.38 1.29-.25-.66 1.32-1.59 1.14 2-.24 1.65.07-1.16 1.5-1.03.57 1.91-.47 1.46.2-1.52 1.3-1.76.83 1.46-.14 1.5-.47-1.08 1.49-2.15 1.94 1.69.09 1.69.25-.8.74-1.34.32 2.99.35.37.33.01.48-.34.36-.48.27v.56l-2.84.66 2.1.43 1.62.94Z" style="fill:#8ea28c"/><path d="m169.07 208.41-.37.57.02.59-2.69-1.64 1.66.07zm-.61-2.98-.07.55.05.54-1.48-1.05.74-.32zm-2.98 7.93-.46.29-.41.37-1.07-.57.57.07.43-.03.2-.61.55.21zm2.48-2.11-.14.76-1.77-1.34 1.06.19zm3.28-14.26-.05.71-.8-.17-.89-.32.86-.2zm-23.16 27.35-.56.03-.57-.07-.2-.69.12-.84.72.78zm22.21-24.63.02.83-.76-.21-.59-.5zm-14.91 24.03-.51-.11-.1.18-.03.25-.41-.65.18-.75.52.46zm14.05-22.04v.98l-1.56-.79.78-.16zm-24.44 24.2h-.93l-.02-.72.19-.86.29.86zm14.37-6.42-.57.6-.26-.54-.03-.51.55-.02zm-1.55 1.87-.36.28-.55-.05.35-.8.26.05.28.24zm5.24-6.79-.07.6-.44-.26-.39-.47.43-.18zm-6.42 7.03.02.32-.06.32-.28-.1-.34-.68.17-.14.27-.03.15.1zm5.49-5.4-.07.19-.28.07-.35-.21-.27-.42.59.07z" class="cls-11"/><path d="m164.58 176.92.34.1.14.42-1.1 1.31-.27.14.27.23-.06.27.23-.12-4.3 3.09-.7.34-.44.62.9 1.24 1.93 1.53.12 1.12.43 1.12.58 2.2-.24 2.51.95 1.41-.33.96.36.37.5.31-.81 1.72-.66 1.84.02.89-.2.95.17.72-.28.83-.64 3.09-1.71 3.21-.05.66-1.85.78-.36 1.03-.47.7-.21.86-2.46 1.26.02 1.08-2.53 1.25-.78-.01-.56.77-1.11.36-.96.67-2.34.3-3.32 1.8-3.04 1.31-.26 1.15-.05 1.02-.3-.02-.67 3.22-.46-2.9-.49.84-.75.36.19-1.93.67-1.54-.19-.14h-.25l-.38.37-.39 1.55-2.11 1.46h-.62l-.37-.74-.12-1.04-1.01 1.38-1.46.76-.61-2.02.39-2.3-1.18 1.91-1.87 1.21.55-3.01-.77.77-.79.49-.99-.24-1.46.42-.28-1.33.35-2.54-1.56-.36-.69-.76-.58-.08-.57-.17-.14-1.1-.77.43-.62.13-.65-.31-.19-.7.41-.73-.19-.21-.1-.27 1.13-1.71-1.12.05-.99-.22v-.69l-.82.11-1.15-.17-.25-.48.16-.53.88-.78-.66-2.76-.74-1.2.24-.73.81-.55-.95-.28-.85-.34 1.46-1.19-.9.01-.92-.18.73-.44.95-.32-3.34-.49-.35-.23-.24-.29-.05-.38.17-.36-.15-1.04.33-1.02 1.47-.9 1.1-.45-.49-.77.51-1.03 1.21-.28-.8-1.29-1.04-.94.15-.7.26-.5.67-.16.77.06.13-.34-.15-.17-.82-.24-.59-.32.45-.37.66-.07v-.28l-.51-.19.21-.88.09-.9 6.56-2.05 4.52-6.35.22.03.24.13 1.55 2.55 1.86 2.37 2.32 2.17 1.43 1.13.98.22.91-.62.87-.19.87.1 1.24-2.08.59-2.54 3.65 1.79 3.33-.7 1.05.65 1.12-.09 1.37-1.45.65-1.3-.24-.48-.15-.52 1.04-.24.74-3.71.04-3.89 2.99 1.75 4.87 1.96.96-.22.1-.52.04-.73 1.87 1.1 1.94.41Z" style="fill:url(#linear-gradient)"/><path d="m156.06 199.88-.34-.29-.17-.4.78-.73-.47-.17-.29-.31.15-1.02-3.58-.85-3.49.74-1.52 1.82-.32.51.06.39.19.17.1.33-1.14-.17-.78.46-.24 1.6-1.06 1.3-.66.17-2.08 1.39-1.17-.31-.63-.7-.63.18-.39-.11-.63-1.29-.19-1.46-.59.28.06-.6-1.18-.14-1-.35 1.56-.24-.47-.97-2.53-.04-.3-.27 1.2-.99.26-.82.9-.19.8-.27.11-.67.03-.88 1.01-1.12 1.62-.18-.47-.72.35-.47.42-.05.25.27.43.21.82-.38.74.4.56.17.4-.38-.04-.29-.52-.41 1.25-.16 2.46 1.25.75.66.84.49 1.43-.47 1.6-.65.23.34.04.43-.54.68-.37.63 1.11.3L153 195l1.7-.26 2.23.99.03.61-.25.78-.14 1.68-.5 1.06Z" style="fill:#708577"/><path d="m156.06 199.88.07.33-.18.33-.36 1.22-.78.68-.45-.07-.42.15.22.45-.22.43-.13.44-.37.25-.25.39-.02.53-.2.43-2.61-.51.41.84.6.57-1.22 1.18-.39.97-1.1.18.18.53.3.33-.48.5-.65.44-.8-.42-.28.75-1.57.26-.81.25-1.58-.11-2.01-.28-.2-.68-.81.03-.15-1.05.9-2.59 1.66-.65 1.22-1.46.68.39.58-.03.7-.48.34-.87.71-.59-.19-1.3.64-.59.26-.14.09-.26v-.36l-.25-.22-.1-.33-.19-.17-.06-.4.32-.5 1.52-1.82 3.49-.74 3.58.85-.15 1.02.29.31.47.17-.78.73.51.69Z" style="fill:#809484"/><path d="m147.17 200.08.25.22v.36l-.09.26-.26.14-.64.59.19 1.3-.71.59-.34.87-.7.48-.58.03-.68-.39-1.22 1.46-1.66.65.31-.51.6-.07-.48-.5-.19-.53-1.24.52-2.51-1.23-.49-.97-1.16.08-.76-.31.16-.35.36-.36-.04-.73-.61-.62-1.43-.14-2.36.13 1.13-.53 1.3-.08.12-.7-.01-.65 2.52.04.48.97-1.56.24 1 .35 1.18.14-.06.61.59-.29.19 1.45.63 1.3.39.11.63-.18.63.69 1.17.32 2.08-1.39.66-.17 1.06-1.3.24-1.6.78-.47 1.14.18Z" style="fill:#566d60"/><path d="m123.86 200.06-.42.38-.58.78-.32.24-.39-.04-.32-.34-.07-.61.19-.42-.52-.26.26-.62-.23-.63.32-.29-.05-.42-.31-.47.5-.55.68-.34.57.16.27.34-.53.86-.32 1.02.46.28.42.02.31.47zm1.06 6.59-.87-.84-.89-.6-.23-.8-.65-.56-.21-.26.11-.47.63-.5.86-.31.15.78-.3 1.23v.48l.17.4 1.27.51.17.23-.21.7Z" style="fill:#566b5f"/><path d="m152.97 205.45.03.59-.43.39-.64.07-.57-.16-.6-.57-.41-.84 2.61.51Z" style="fill:#637a6f"/><path d="m154.16 202.97-.22-.45.42-.16.45.08.78-.68.36-1.22.51.27-.1.99-.72 1.08-.78-.14z" style="fill:#6a7f71"/><path d="m153.19 204.48.25-.4.37-.24.06.33-.04.45-.63-.14Z" style="fill:#647b6e"/><path d="m135.2 76.63-2.69 5.14-.42 1.48-1.01 1.15 1.72-5.1-.09-3.88-1.22 2.21-1 2.4-1.42 1.02-1.61.64-.28-3.75-.77-3.57-.7 4.83-.42 4.55-1.22-1.72-2.54-3.16-.72-.39-2.27-1.05-2.9.72-.77-1.78-1.61-.64-1.51 1.09-.71-.77-.93-.62-.87 1.05-.84-.6-2.18 1.57-.99 3.49-1.71-3.36-.05 2.15-.32 2.16-1.32-1.02-1.41-.37-.85-.38-.56.48-.65.88-.88-.47-1.22-.5-1.09-.15-.98-.64-.92.86-.89.42-.15-2.15 1.23-1.75.37-2 2.29-1.07 1.38-3.01 1.06-1.41 2.07-.94-.18-.58-.01-.58.46-.38.55-.06 1.01.91 1.2.35.93-.46.95-.34 2.34-3.35 3.71-1.74 4-.77 3.31 2.31 2.22-1.4 2.32-.5 1.06-.71 1.23.22.49-.15.52-.03 1.05.99.98.03 1.19.3.59 1.22 1.57.67.81 1.39.51.63.47.76 1.13 4.58.15 4.62Z" style="fill:#c0cbb0"/><path d="m77.4 101.25.2 2.29.72 2.11 1.01.65.8.72-.7.65-.27.68.38.72.5.58.49 1.41.69 1.48-1.33.18-.86.54-1.98.39-1.5 1.16-1.23.65-.92 1.07.2.34.29.22-.39.86-1.07 1.09.36.8.53.69.82 2.4 2.19 1.55-1.79.62-1.71.17-.14-.26-.45-.11-.69-1.17-2.46-.41-8.32-.9.72-.59.45-.53-.03-.94.77-.88.27-.92.79-1.05 1.33-.83.22-.55.39-.44 3.51-2.68 4.22-2.53.01-1.28 1.14-.92-.82-2.84-.49-.13-.45-.31.46-.62.52-.87-.07-.88 3.7-1.4Z" style="fill:#bcc7ad"/><path d="m191.45 99.04-.69.46-.71.28-2.43-1.34-.39.16-.09.49-4.22-2.31-4.92-.79-2.18.13-2.29-.11 4.24-3.77 3.08-4.69.53-1.52.2-1.6-.63-4.53-.89-.58.14-.53.02-.53.69-.21.71-.34 1.37.1.82 1.01.76-.27.38.17.25.33 1.17.92 2.1.42.16.43-.24.35-1.7-.35-.67.48-.48.8.62.09.66.01.39 1.19-.65 1.28 2.13.2 1.15 1.33.03 1.89-.65 1.01-1.02.84.39.33.25.5-.65 1.09-.76.93.56.31-1.28.27-.39.71 2.04.29 1.77 1.03.68.73.11.95.36.96z" style="fill:#bac7ac"/><path d="m71 140.28-2.16.04-2.55-.53-.03-.57-.21-.5-1.88-.48-1.67-.63-.83-.73-.47-.83.71-1.35 1.24-1.1-.75-.19-.63-.41 1.4-.32 1.13-.51-.91-.29-.73-.43 3.14-2.41 3.09-1.86.07.44.37.08 1.08-.11-1.01.59-.92.83-.04.49.29.21.49.09.71.26-.61.73-.34.7-.6.17-.26.28.54.68 3.26.7-1.96 1.61-.71 1.28.56 1.37.17.61.27.45.6.16.76.11-.4.72z" style="fill:#b7c3aa"/><path d="m135.2 76.63-.93 4.26-2.34 5.62-.46.01-.3-.23-.61.15-.58.34-.72-.02-.57.29-.19-.93-.41-.18-.62.13-.79-1.25-.87-.07-.65.63-.33.23-.21.02-.4-.25-.07-.39.57.22.42-.38.22-.54-.08-.53.43-4.55.69-4.83.77 3.56.28 3.76 1.6-.64 1.43-1.02 1.01-2.4 1.21-2.21.09 3.88-1.72 5.1 1.01-1.15.42-1.48 2.69-5.14Z" style="fill:#6f8070"/><path d="m78.65 146.47-2.54 1.61-2.09 2.32h-.94l-.95.64-2.09 1.16-1.29-.88-1.27.8-.46 1.4-.15.09-.15-.11.75-1.77 1.13-1.58.4-1.05.61-.87 1.82-2.36 2.52-2.5-.52-1.14 1.24-.45 1.04.57-.1.59.11.75 2.53.54 1.14-.53 1.32-.31-.9 1.7-1.17 1.39Z" style="fill:#b8c5ac"/><path d="m71.37 80.42-1.2.62-1.44 1.64-1.33-.41-1.02.19-.57 1.04-.87.58L64 81.6l-.64-2.7v-1.46l.88-1.15.27-.51.42-.36 1.25.21 1.16.75 2.17 2.01 1.87 2.02Z" style="fill:#becbb0"/><path d="m154.46 53.23.48.72.63.66 1.09-.49h1.1l2.39 4.77-.23 5.59 2-.61 1.31-.9 4.75 1.77-.1 5.98-1.92 5.77 2.64-.85 2.52-.36 2.16-.47 1.71 1.01 3.26.69 1.01.81h.57l.22.46.16.48-.03.53-.13.53.9.58.62 4.53-.2 1.6-.53 1.52-3.08 4.69-4.24 3.77 2.29.1 2.18-.12 4.92.78 4.22 2.32.12.45.24.43.76-.11.72.8-.01 1.27-.92 1.29-.79.57.58.59.57.96-2.55 1.7-3.64 1.81 4.18 1.97 3.04 3.02-1.45 5.31-5.51 3.11 3.79 2.27 2.17 3.03-.81 1.05 1.29.36.52.9-.35.96-1.21.68 1.81.93.96 1.45-.79.76-1.19.64 1.79.75 1.47 1.23-.31.69-.73.56.91.86.24 1.1-1.2 1.33-1.11.54.51.5.92.72-.09.65-.36.65-.28.04-.24.18-.04.22-.21.18-1 1.55-.02 3.15-.59-1.95-.74-1.83-.2.52-.26-.08-.05 2.69 1.88 4.57-1.76-3.37-1.83-1.63.25.54-.46-.18-.94-1.43-1.45-.66 2.7 4.18.53.99-.04.83-.91.89-1.41.19.87 1.29-.19 1.24-1.26.34-1.42.2 1.23.49.24.31h.47l-.2.66-.39.68-.97.67-1.52-.39-.12 1.03-.34.75-2.7.08-.93-.37-.79-.17-.87.1-.08.14v.17l-.65.04.26-.56-1.57-.52-1.65-.43 1.1 2.65.46 3.46.01 3-.5.35-.76.09.56 1.24-.35 1.22-1.16.82-1.77-.53.18 1.16-.29.74-1.9.84-2.05 1.66-1.93-.41-1.88-1.1-.04.73-.1.52-.96.21-4.87-1.95-2.99-1.75-.04 3.89-.74 3.71-1.04.24.15.53.24.47-.65 1.3-1.37 1.45-1.11.09-1.06-.65-3.32.7-3.66-1.79-.58 2.55-1.25 2.07-.87-.1-.87.19-.91.62-.98-.22-1.44-1.13-2.31-2.17 1.89.21 1.56-.57.53-.72.26-1.07 1.02-.89 1.42.17.89-1.06.9-.84 3.33-1.38 2.47-1.93 1.87-2.91.8-1.65.63-1.63.62-.83v-1.24l.17-.27.44-.16 1.13 1.04 1.39.13 3.47 1.05 3.44-.66.91-1.05 1.25-.96-.45-5.64.36-5.32 1.62-4.25 1.77-4.23 1.88-8.89-.61-6.72-4.09-4.01-2.25-1.83-1.79-2.17-2.15-1.49-8.85-1.96.15-.49.21-.25-.14-.53.32-.42.14-.44-.58-.79 3.19-1.29 2.92-1.8 2.71-.98-1.78-.42-1.8.14-.77-1.69-1.69-1.12-.36-1.23 1.86-1.49 3.45-1.98 2.33-1.47-.22-.13h-.47l-.24.23-.14.27-.37-.05-.25-.1-.27.36-.32.16-.66-.22-.22.45-.21-.01-.42-.24-1.47.87-2.06.6.04-1.38 2.99-1.72 3.24-1.57-.03-.31-.49-.32-.23.19-.2.3-.49-.21-.24.07-.1.23-.37-.01-.2.18-.16.29h-.33l-.26-.19-.24.42-.3.27-.31.06-.42-.15-.11.28-.14.13-.41.13-2.18 1.01-1.65.04-1.76-.04 4.55-5.3.33-.58.05-.62-.36-.28-.47-.25 5.29-6.02-3.34 2.38-3.09 2.55-.53-.43-1.04-.32 1.04-1 .13-1.28-.93.09-.84-.34.99-1.67.78-1.64h.35l.15-.21-.66-.7-.14-.9-.37-.01v.19l-.25-.06-.2-.17-.08-.35.08-.41-1.72 1.33 1.77-3.6.85-2.43-4.09 3.36-.33-.11-.52.21-.94 1.57-1.44 1.27.29-.73.13-.7 1-1.51.6-1.85-.44.21-.2.24-.55.07-.29-.24-.18-.59.06-.68-1.73.3-.09-.56-.27-.43-.5-.08-.5.45-2.85 2.97-1.87.46 2.34-5.61.93-4.27-.15-4.63-1.13-4.57-.47-.77-.51-.62-.81-1.39-1.57-.67-.59-1.22-1.19-.3-.98-.03-1.05-.99-.52.04-.49.14-1.23-.22-1.06.71-2.32.51-2.22 1.39-3.31-2.31-4 .77-3.71 1.74-2.34 3.35-.95.34-.93.46-1.2-.35-1.01-.91-.56.06-.45.38.01.58.18.58-2.07.94-1.06 1.41-1.38 3.01-2.29 1.07-.37 2-1.23 1.74.15 2.16-.6-.04-.56.23-.32.49-.29.77-1.9-.18-1.51 1.02-.45.19-.31.36.13.35.28.47-.31 1.6.31 1.51.07.95.46.98 1 1.47.63 1.92-1.76-1.84-2.09-1.66.8 1.45 1.06 1.28-2.99-1.57 1.53 1.94 1.65 1.73-3.64-1.95-3.25-.61 2.35 3.15 3.02 2-.3.32-.2.13-.13-.46-3.62-1.46-3.88-.84 3.32 2.43 3.61 1.79-3.62-.04-2.09.88-.46.67-.91.79-3.7 1.4.07.88-.52.87-.46.62.46.31.48.13.82 2.84-1.14.92-.01 1.28-4.22 2.54-3.51 2.67-.39.44-.22.55-1.33.83-.79 1.05-.27.92-.77.88.03.94-.45.53-.72.59 8.32.9 2.46.42.69 1.16.45.1.14.27-1.82 1.14-2.11.75-3.09 1.87-3.14 2.4.73.43.91.29-1.13.51-1.4.32.63.42.75.18-1.24 1.09-.71 1.36.47.84.83.72 1.67.63 1.88.48.21.5.03.57 2.55.53 2.16-.04 2.19.99-.04.5-.29.21.11.22.28.11.18-.08.52 1.15-2.52 2.49-1.82 2.36-.6.87-.41 1.05-1.13 1.59-.75 1.76-.65.75-.8.43-1.23-.13-.93-.67.34-.83.19-.86-1.1 1.13.08-1.86 1.06-1.77-.74-.16-.78.42-4.59.14-2.96-1.04-.39-.94-.41.01-.47.16-.98.2-.59-.7.06-.62 1.01-1.06-.22-.27-2.43-.95-.32-.39-.11-.41 3.78-5.49 5.31-4.26-3.24-.78-2.84-1.27-1.05-.77-.61-1.07-1.11-.58-.65-1.19.85-1.08 1.3-.74.1-.41.26-.45 4.11-1.17 4.44-.84-5.57-2.38-.95-.05-.26-.44-.13-.61-.88-.59-.78-.78.66-1.27 1.42-.79-1.58-.35-1.3-.78-.03-.82.38-.71-1.72-1.18-.58-.81.65-.51.02-.72-.64-.19-.17-.39.23-.37.97-.64.37-.99.12-.69.18-.53 1.58-.76.61-1 5.32-1.11-2.93-3.23-1.9-3.55-1.29-1.63.18-1.91.55-.11.66-.38-1.49-1.17-.4-1.78.49-.25.73-.18-.95-.71-.45-.86.48-1.21 1.19-.58 1.29-.09 1.23.63-.33-1.48.99-.81 3.04-.1 3.37.36 3.37.97-.71-1.2-.5-1.18.87-.59.57-1.03 1.03-.19 1.32.41 1.44-1.64 1.2-.62.37.14.42.41-1.53-4.47.32-4.07-.77-1.56.54-1.7 1.14-.11.94-1.29 1.59-.18 2.09.33 3.26 1.17 3.22 1.72-1.41-5.76-.28-5.85.29-.83.83-.42-.46-.62-.02-.54.29-1.08.64-.08.79.14-.27-.83-.4-.87.5-.86.59-.66.98-.26.99.32.66-.24.77-.12 2.5 1.67 2.81 2.37-.3-3.83.3-3.67-1.06.91-1 .67 2.21-2.79.13-2.26.37-.55.68-.62-.52-.42.04-.69.31-.63 1.39-.42 2.14.39.2-2.11 1.1-1.56.78-.38.84.05.59.43.63.73.54-2.52 1.57-1.55 1.17.54.92.96.94.35.75.41.44 1.16.1 1.34.77-.55.77.02 1.55 2.72 1.22 2.91 2.27-3.63 3.05-2.66.69.12.58.58.98-1.21 1.26-.12.96.86.26 1.33 1.26-.48 3.11 4.53 1.47 5.49 2.42-2.5 2.79-1.98.91.1.7 1 .86-1.44 1.4-.98.77.06.56.34.36 1.46.58-.84.83-.3.57.38.34.72.46.16.24.31-.14 1.52-.35 2.38 1.95-1.99 1.96-.58.45 2.32-1.79 3.1-.14 2.7 4.16-2.41 1.75-.57 1.69.82.64-1.11 1.02-.31.52.43.74.28Z" style="fill:#d5debe"/><path d="m174.01 161.71-.13.33-.33.22-.97-.31-.11.51-.32.39-1.1-2.65 1.65.43 1.57.52z" style="fill:#718275"/><path d="m176.4 161.44-.36.44-.47.29-.58-.03-.33-.46v-.17l.08-.14.87-.1z" style="fill:#6c7d6b"/><path d="m72.15 82.63-.19.4-.37-.06-.3-.23-.19-.33.14-.24.24-.16.38.12z" style="fill:#b9c6a7"/><path d="m148.46 93.02-.57.51-.23.03-.21-.18.51-.57.51-.21z" style="fill:#a5b294"/><path d="m74.02 150.4-.99 1.23-1.07 1.18-2.65 1.14-2.29-.43.46-1.4 1.27-.8 1.29.88.93-.89 1.16-.27z" style="fill:#d4ddbf"/><path d="m136.14 157.33-4.57 6.21-1.43 7.65.09.33.2.26.08.48-.17.46.22.74-1.8 1.53-.89 2.57-1.26 2.45-.25-.13-.21-.03-4.51 6.35-6.57 2.05-.58-.55-.85-.43-2.41-2.94-1.73-3.6-.68 1.9-1.17 1.39-.33.55-.46.49-.5-.15-.54-.08-.41.54-.28.49-2.26.37-1.88.39-2.67-2.61-2.91-3.37.04-.58-.16-.47.24-.01.1-.35-1.21-4.35-2.01 2.33-.29 1.33-.28.11-.27-.08-1.97 1.03-1.97-.05-.22-1.32-.62 1.14-.76 1.03-.6.34-.51.03-.48-.33-2.47-.63-2.62-.33 2.08-.17 2.37-.02-.65-.8-1.14-.99-.08-.81.4-.9-1.14.31-.49-.4-.45-.22.69-.9-.1-3.04.51-2.07-.51-.31.5-.28.22-.32-.74-.38-.05-.44.36-.03.19-.14-.11-.09-.09-.21.99-.54.58-1.1-1.2.49-.95.8-2.11.1-2.16.43-1.15-.15-.96-.32-1.79.27-.96-.5.15-1.87-1.1-2.06-.15-.93.45-4.43 1.37-4.24v-.28l-.15-.13 1.07-1.17.99-1.24 2.09-2.32 2.54-1.61.53.48.68.33 1.21-.5 1.18-.59-4.09 4.5 1.99-.81 1.81-1.05-1.2 1.63-.52 1.46 2.64-1.38 2.76-2.63-1.52 4.06.97-.72.85-.82.51.82.79-.34 2.68-.8 1.49-.99-2.46 3.19.61.04.63-.27-1 2.1 2-.73.89.39.81-.37 1.35-.4-.76 1.31-.06.41.18.3.26.05.41-.24 5.35-6.08 5.14-6.37.41-.29-.25.52-6.52 10.8-.86 1.55-.54 1.72.75-.48.55-.64 5.43-8.32.48.34.77-.12.57-.34 2.32-5.67 2.53-5.33-.05-.18-.23-.04 1.55-2.71.92-.36.6-.92.73-.43.82-.71-.44 12.6-.04 12.47.53-1.19-.13-1.29.63-11.64.4.28.41.55.44-.37.51-.16 1.32 1.21 1.6 2.17.47 5.09.66 4.75.19.49.39-.47.84-4.07.79-.19.56.08.37.83-.31 2.99.51.6.74.02 1.67-2.19.37.91.77.3.57-.3.43-.6.49 1.34 1.08 1.25-.79-4.12.71-.31.42 1.25.74 1.21.17-1.34-.57-1.31-.26-3.2.21-2.63.38.97 1.27 1.67.25.01.08.18-.05.35.45.04-.51-1.94-.03-1.72-.74.99-.64-2.55-.17-.22-.18-.06-.24.03-.15-2.67.06-2.8-.18-3.9.09-3.86 1.74 10.51.59 2.6.33 2.63 2.64 11.19Z" style="fill:#abb8a1"/><path d="m95.27 179.59-.41.22-.39.46-1.35-.64-1.02-1.1.29-1.33 2.01-2.33 1.21 4.35-.1.35-.24.01Z" style="fill:#4f5f54"/><path d="M81.09 167.27h-.36l-.22-.34.95-.8 1.2-.49-.57 1.1z" style="fill:#f5f6f7"/><path d="m109.73 157.15.79-8.32 1.42-7.95.96-7.31.2-.95.77-.56-.93 12.59z" style="fill:#efeabc"/><path d="m103.7 147.34 3.58-6.77 2.81-4.58.23.03.05.19-2.53 5.33-2.32 5.68-.57.33-.77.12z" style="fill:#808d7e"/><path d="m108.5 146.53.36-4.34 2.17-5.31-1.14 4.96z" style="fill:#7b8b74"/><path d="m106.46 148.55-.98 3.84-2.06 4.21 1.2-4.13z" style="fill:#e1e2b8"/><path d="m132.26 146.44.23 1.05.32 1.04-1.27-1.67-.38-.97-.13-2.26.23-.03.19.06.17.23z" style="fill:#7c8572"/><path d="m132.8 148.52-.32-1.03-.23-1.06.74-.99.03 1.72.51 1.94-.45-.04.05-.35-.07-.18z" style="fill:#dde1b6"/><path d="m125.28 83.77.08.53-.22.54-.42.38-.57-.22-.62-.41-.58-.05-1.51.71-.41-.16-.36-.23-.91 1.09-.86.82-.81-.32-.67-.49-.48-.49-.49-.15-1.29 1.71-.41-1.08-.6-1.14-.44 2.44-.77-.21-.49.41-.37-.44-.3-.52-.07.61-.2.56-.38-.14-.35.14-.25.27-.41-.2-.13-.78-.49-.71-.11 1.68.06 1.57-.31.36-.14.56-1.29-.2-1.14.01-.59-1.34-.84-1.32-.18.66.09.73-.11.32-.2.25-.78-.49-.68-.31-.55 1.66-.47-.49-.45.07-.31.89-.6.87 1.83 1.25 1.09 1.89 1.39 1.06 1.33 2.11.36-.87.51-.57 1.98 5.86 2.21 5.88.29.31.31-.04-1-4.52-1.32-4.22.57-.17.58-.07 2.61 11.54.92 1.48-.62-4.54-.01-3.84-.08-2 .55-2.02.68 5.5.41 5.53.27 1.29-.18 1.31-3.86-3.79-3.12-4.52-8.13-13.45-2.15-2.21 3.71 7.02 4.11 6.46-5.83-6.97-6.69-6.28 6.57 9.12 7.23 8.34 1.9 1.68 1.76 1.69-1.67-.45 2.31 1.72 2.5 2.38-4.6-1.74-4.94-2-15.02-3.46-.52.06-.1.06.13.34.26.17 18.51 5.2 1.92 1.16-.92.14-.98.3.08.4.19.05.22.3-.05.26-5.46-1.57-9.08-2.79-5.78-.71 5.5 1.41 8.63 2.77 7.67 2.12.7.08.16.2.06.32-22.06-3.2 7.89 2.27 7.14 1.66-.13.21-.4.04.08 1.02-.26 1.06-1.54-.27-.52.74-1.26-.12-.33.46 1.29.48 2.25.64-3.17.81-3.21.57-2.22.21-1.92.84-2.76.44-2.78.54.91.32.91.02-.02 1.44 4.76-.47 4.52-.78-.3 1.27-.28.12-.55-.19-.83 1.58-.23.59-2.98.92-4.06.02.42.34.48.17 5.93.34-3.52 1.22-4.99 1.32 4.53-.24 14.64-2.87 4.52-.99.88-.24 1.01.08-1.13.59-1.34.27-2.41.89-2.49.61-5.5 1.54-5.22 1.25-5.14 1.82 4.14-.69 4.11-.98 1.16-.46 1.22.22-5.66 2.5-5.6 2.77-.14.21.03.2.26.1 11.89-4.24 3.4-1.5.27-.03.18.25-9.04 5.28-8.97 6.02 4.03-1.54 3.85-1.99.25.76-.59.88.33.65.05.89.08.34.52.22-1.56.92-1.59.83-.59.54-1.49.98-2.68.81-.79.34-.51-.82-.84.82-.98.72 1.52-4.06-2.76 2.64-2.64 1.37.52-1.46 1.2-1.63-1.81 1.05-1.99.81 4.09-4.5-1.18.59-1.21.5-.68-.33-.53-.48 1.17-1.38.9-1.71-1.32.31-1.14.53-2.53-.54-.11-.75.1-.59-1.05-.57-1.42.53-.27-.11-.11-.22.29-.21.04-.51-2.19-.98.22-.66.4-.71-1.36-.27-.28-.46-.16-.6-.56-1.37.71-1.28 1.96-1.61-3.26-.7-.39-.23-.15-.45.86-.45.33-.7.62-.73-.71-.25-.49-.1-.29-.21.04-.49.92-.83 1.01-.59-1.08.11-.36-.08-.08-.44 2.11-.76 1.82-1.13 1.71-.17 1.79-.62-2.2-1.55-.81-2.4-.52-.69-.37-.8 1.08-1.09.38-.86-.28-.22-.21-.34.92-1.07 1.23-.65 1.5-1.16 1.98-.39.86-.54 1.33-.18-.7-1.48-.48-1.41-.5-.58-.38-.72.27-.68.7-.65-.8-.72-1.01-.65-.72-2.11-.2-2.29.32-.46.59-.33 1.31-1.04 1.24-.51 3.62.04-3.61-1.78-3.32-2.44 3.88.84 3.62 1.46.12.46.21-.13.3-.32-3.02-2.01-2.35-3.14 3.26.61 3.63 1.95-1.65-1.72-1.53-1.95 2.99 1.57-1.06-1.28-.8-1.45 2.09 1.66 1.76 1.84-.63-1.92-1-1.47-.46-.98-.07-.95-.32-1.51.32-1.6-.28-.47-.13-.35.3-.36.46-.19 1.52-1.02 1.89.18.29-.77.32-.49.56-.23.6.04.89-.42.92-.86.98.64 1.09.15 1.23.5.87.47.65-.88.56-.48.85.38 1.41.37 1.32 1.02.32-2.16.05-2.15 1.71 3.36.99-3.49 2.18-1.57.29.25.55.35.87-1.05.93.62.71.77 1.51-1.09 1.61.64.77 1.78 2.9-.72 2.27 1.05.72.39 2.54 3.16 1.22 1.72Z" style="fill:#849381"/><path d="m106.54 90.22.45 1.45 1.81 4.85 2.34 7.55 1 4.52-.31.04-.29-.31-2.21-5.88-1.98-5.86-1.06-3.94-1.29-3.69-.09-.73.18-.66.84 1.32.59 1.34Z" style="fill:#e6e8b0"/><path d="m108.34 115.82 5.43 1.6.35.04.23.11-.95.47-2.66-.39-.06-.32-.16-.2-.7-.08-7.68-2.12-8.62-2.77-5.5-1.41 5.78.71 9.08 2.79z" class="cls-158"/><path d="m108.63 110.83-1.04.3-.59-.18-4.65-2.1-4.52-2.38-8.46-5.16 5.53 2.33 5.23 2.9z" style="fill:#e8e6b8"/><path d="m91.9 97.76 6.65 4.29 6.55 4.56-.17.51-.47.02-7.81-4.98-7.61-5.55 1.51.26z" style="fill:#d5daad"/><path d="m130.01 184.93-1.85-2.37-1.56-2.55 1.26-2.45.89-2.57 1.8-1.53-.22-.74.17-.46-.08-.48-.2-.26-.09-.33 1.43-7.65 4.57-6.21.35-.02.29-.2-.61-4.62.5.02.65-.31-1.01-1.51.08-1.74 1.22 1.42 1.62.71-.42.24-.26.28.7.05.43.42.02.6-.47.35-1.93-.77 1.08 1.68 1.59.5.64-.39.11-.65.28.15.04.3.37.13.26-.19-1.94-5.31-1.01-1.77-.13-2.07 2.86 5.63 3.68 5.38-2.3-6.78.21.04.17-.07-.12-1.46-.56-1.56 1.17.76 1.01.78 1.4-.61.57-1.14-.09-.55.16-.49 3.89 3.05 4.39 2.74-4.21-4.54-4.52-4.09-1.63-1.74.7.12-.3-.72-.63-.44-2.58-2.19-2.83-1.8-.11-.33.18-.3 2.42 1.25 1.94.17 12.06 5.49-2.9-1.9-3.03-1.49 2.17-1.26-1.01-.48-1.51-.98-.15-.27.18-.08 3.69.7 3.35.49-5.83-2.26-5.83-1.92-1.63-1.3-3.79-1.25-.08.52-.34.2-2.32-1.2-4.44-1.21-2.21-1.21-1.98-1.57 4.19 1.53 3.55 1.4 8.78 2.14 4.07 1.17 1.13.53 1.22.45.54-.57.46.05.38.24.35-.89.08-.81.44-.01.55-.41-2.57-.48-2.37-.97.03-.37-.13-.32-.34-.22-4.4-1.63-1.27-.97.22-.08.31.02 7.22 1.84-1.1-1.45-1.79-.76 3.94.32 3.36-1.34 2.16 1.49 1.78 2.17 2.25 1.83 4.09 4.01.61 6.72-.48 4.54-1.4 4.35-3.39 8.48-.36 5.31.45 5.65-1.25.96-.91 1.05-3.44.66-3.47-1.05-1.4-.13-1.12-1.04-.44.16-.17.27v1.24l-.62.83-.63 1.63-.8 1.65-1.87 2.91-2.47 1.92-3.33 1.39-.9.84-.89 1.06-1.42-.18-1.02.9-.26 1.07-.53.72-1.56.56z" style="fill:#bfcaaf"/><path d="m155.39 144.23-5.22-2.68-3.83-3.31z" style="fill:#e6e8c1"/><path d="m144.65 131.79-2.86-.62-2.92-1.03-.17-.01.1-.17.34-.2.08-.52 3.79 1.25z" class="cls-110"/><path d="m146.87 90.2-.08-.26-.18-.04-4.8 7.67-4.78 7.24-3.63 5.19 7.98-7.8 3.09-2.94 2.79-2.49 3.08-2.55 3.35-2.38-5.29 6.02-4.3 3.67-5.98 5.66-2.48 2.24-2.67 2.13 12.39-5.79 2.35-.89 2.18-1.01.41-.13.14-.13.11-.28.42.15.31-.06.3-.27.24-.42.26.19h.33l.16-.29.2-.18h.37l.1-.22.24-.08.49.22.2-.3.23-.19.48.32.04.31-3.24 1.57-2.99 1.72-14.09 5.8-3.92 2.3 1.75-.28 2.42-1.46 6.86-2.73 6.94-2.25 2.06-.61 1.47-.86.43.24.2.01.22-.45.66.22.32-.17.27-.35.62.15.14-.27.24-.23.47-.01.22.14-2.33 1.46-3.45 1.99-.56-.04-.7.18-17.56 6.12-1.55.89-1.16 1.33 2.67-.57 2.63-.16 8.7-.87 8.49-1.35 1.8-.14 1.78.42-2.71.98-12.3 1.89-12.49 1.13-2.13 1.83-.4-.53-.25-.61 1.01-1.31 1.15-1.18 1.41-1.25 1.23-1.45 1.53-3.42-.14 1.21-.05 1.21 2.6-3.8 2.4-3.77 1.72-2.95 1.84-2.83 6.45-9.52.64-.58-.05-.91.38.02.15.89.65.71-.16.22-.34-.01Z" style="fill:#efecbe"/><path d="m145.93 118.3.58.79-.13.44-.33.42.14.53-.21.25-.15.49 8.85 1.96-3.36 1.35-3.94-.33 1.79.76 1.1 1.45-7.22-1.84-.3-.02-.23.08 1.26.97 4.41 1.63.34.22.13.32-.03.37-3.57-.55-3.42-1.03.17-.07.02-.12-.31-.5.1-.65-1.29-.65-1.47-.52-1.37-.13-.77-.91 2.08.18 1.99-.25-7.19-1.15-7.18-.02 1.29.57 1.26.29 4.12 1.19 4.73 1.57 1.09.59 1.15.33-.26.5.01.58-1.83-.48-1.89-.67-6.02-1.93-5.27-1.39-.03-1.12.34-1.07 2.06.1 2.15-.25 8.31.56 1.36.22 1.39-.14-1.13-.77-1.62-.34 2.02-.59 2.02-.5 2.13-.41 2.1-.3Z" style="fill:#9fad8e"/><path d="m150.19 108.43-1.86 1.49.36 1.23 1.69 1.12.77 1.69-8.49 1.35-8.7.87-2.63.16-2.67.57 1.17-1.33 1.54-.89 17.56-6.12.7-.19z" style="fill:#889781"/><path d="m152.03 115.21-2.92 1.8-3.19 1.29-2.1.29-2.13.42-2.03.5-2.01.59 1.62.34 1.13.77-1.39.14-1.36-.22-8.31-.56-2.15.25-2.06-.1.07-.32-.09-.33 2.13-1.83 12.49-1.13 12.3-1.89Z" style="fill:#73816c"/><path d="m146.87 90.2-.78 1.63-.99 1.68.84.34.93-.09-.14 1.28-1.03 1 1.03.32.54.43-2.79 2.49-3.09 2.94-7.98 7.8 3.63-5.19 4.78-7.24 4.8-7.67.18.03.08.27Z" style="fill:#94a189"/><path d="m147.71 104.88-2.35.89-12.39 5.79 2.67-2.13 2.48-2.24 5.98-5.66 4.3-3.67.47.25.36.28-.05.61-.33.59-4.55 5.3 1.76.04 1.65-.04Z" style="fill:#9aa889"/><path d="m148.65 107.18-6.93 2.25-6.87 2.73-2.42 1.46-1.75.28 3.92-2.3 14.09-5.8z" style="fill:#9eae8e"/><path d="m124.81 122.9 3.1 2.77 3.43 2.58 7.47 1.7-.1.17.17.01 2.92 1.03 2.86.62 5.83 1.92 5.83 2.26-3.35-.48-3.69-.71-.04-.21-.17-.1-.28.09-.28.23-2.71-1.02-7.86-2.32-3.01-1.21-3.12-.9 2.03 1.15 2.2.83 10.35 4.65 3.21 1.88 3.03 1.48 2.9 1.91-12.06-5.49-4.94-2.42-4.9-1.73 5.68 4.18 5.37 4.21 1.63 1.74 4.52 4.09 4.21 4.54-4.4-2.75-3.88-3.04-12.39-11.2-.07.96.57.83 7.96 13.71 2.3 6.78-3.68-5.38-2.86-5.63.14 2.07 1 1.77 1.94 5.31-.25.19-.38-.13-.04-.3-.28-.15-3.25-8.41-3.32-7.75-2.05-5.39-.46-.36 1.56 6.15 2.24 10.57.73 4.3.61 4.62-.29.19-.35.03-2.64-11.19-.33-2.64-.59-2.59-1.74-10.51-.09 3.86.18 3.9-.06 2.8.28 4.93-.21 2.63.26 3.2.58 1.31-.18 1.34-.74-1.21-.42-1.25-.68-10.7.4-11.51-6.59-5.9.52-.59.71-.3Z" style="fill:#edebb7"/><path d="m111.64 133.28-1.55 2.71-2.81 4.58-3.58 6.77-5.43 8.32-.55.65-.75.47.54-1.72.86-1.55 6.52-10.8.25-.52-.41.29-5.14 6.37-5.35 6.08-.41.24-.26-.05-.19-.3.07-.41.76-1.31 15.24-18.6.56-.32.01-.67-.25.25-7.64 4.91-7.64 4.44-3.85 1.99-4.03 1.54 8.97-6.02 9.04-5.28 5.39-2.77 1.53-.15-.12.31v.24l.16.14z" style="fill:#f2efc1"/><path d="m109.46 134.49-15.24 18.6-1.35.4-.81.37-.89-.39-2 .73 1-2.1-.63.27-.61-.04 2.46-3.19.59-.54 1.59-.83 1.56-.92-.52-.22-.08-.34-.05-.89-.33-.65.59-.88-.25-.76 7.64-4.44 7.38-4.78.01.31-.07.3Z" style="fill:#6d7d6c"/><path d="m115.58 129.3-.1 1.77.11 1.83-.33 8.93-.63 11.64.13 1.29-.53 1.19.04-12.47.44-12.6-.82.71-.73.43-.6.91-.92.37-.05-.18-.16-.13v-.24l.12-.31-1.53.15-5.39 2.77-.18-.25-.27.03-3.4 1.49-4.12 1.5-7.4 2.64-.37.11-.26-.1-.03-.21.14-.2 5.6-2.77 5.66-2.5-1.22-.22-1.16.46-4.1.98-4.15.69 5.14-1.82 5.22-1.25 5.5-1.54 2.49-.61 2.41-.89 1.34-.27 1.13-.59-1.01-.08-.88.24 1.39-1.01 2.15-.34.63.4.68.08Z" style="fill:#c4cc9b"/><path d="m124.48 140.35 2.5 7.85 1.98 5.54-.43.6-.57.3-.76-.3-.38-.91-1.67 2.19-.74-.03-.51-.59.32-3-.38-.82-.55-.08-.8.19 1.28-11.05.41.01z" style="fill:#9ba994"/><path d="M123.16 124.04v1.3l-.44.44-.05.76.3 4.28-.28.16.01.45-.65 10.7-.69 6.54-.29 6.66-.66-4.74-.47-5.1.16-.05.09-.25.07-5.75-.09-5.6.06-.74.75-.21.76-9.08.74-.04.68.26Z" style="fill:#b5c29b"/><path d="m120.17 133.85.09 5.6-.07 5.75-.09.25-.16.05-1.6-2.17-1.32-1.21-.51.15-.44.38-.41-.55-.4-.28.33-8.93.62-.35.51.38.36-.31.55-.23.29 1.46-.86 1.56-.48-.15-.24.43.01.36.38.41.95.57.9-.22.32-1.54.17-1.27.59-.15z" style="fill:#7d8c7a"/><path d="m123.17 125.34 1.33 8.72 2.03 8.28.29.33.08.51-.27.14-.13.27 3.24 8.61.79 4.12-1.08-1.25-2.47-6.88-2.5-7.85-1.05-4.69-.46-4.83-.3-4.28.05-.76.44-.44Z" style="fill:#dce0ad"/><path d="m124.48 140.35-.3-.1-.41-.01-1.28 11.05-.84 4.07-.4.47-.18-.49.29-6.66.69-6.54.65-10.7-.01-.45.28-.16.46 4.83z" style="fill:#6a7a66"/><path d="m121.12 123.76-2.65 2.89-2.89 2.64-.69-.08-.62-.4-2.15.34-1.39 1.01-4.52.99-14.64 2.87-4.53.24 5-1.33 3.51-1.21-5.93-.34-.48-.17-.42-.34 4.05-.02 2.99-.92.42-.26.48-.18 12.94-.92 4.49-.09 2.88-2.84 2.97-2.47.7.07.48.51Z" style="fill:#e3e1b4"/><path d="m110.74 117.65.83 1.11 1.46.32.29.33.45-.16 1.32.65 1.38.15 1.54.47 1.5.22.04.91-5.07-1.03-6.47-1.56-1.16-.77-.18.84-.4-.4-2.57-.33-7.14-1.66-7.89-2.27 11.11 1.65 10.95 1.55Z" class="cls-158"/><path d="m119.62 119.82-.09.91-1.5-.22-1.54-.47-1.38-.15-1.32-.65-.45.16-.29-.33-1.46-.33-.83-1.1 2.66.4.95-.48-.23-.11-.35-.04-5.43-1.6.05-.26-.22-.3-.19-.05-.08-.4.98-.3.92-.14 2.57.45 2.63.85 2.22 1.9 2.4 2.23Z" style="fill:#74826e"/><path d="m105.01 88.95 1.29 3.69 1.06 3.94-.51.57-.36.87-1.34-2.11-1.38-1.06-1.09-1.88-1.83-1.26.6-.87.31-.89.45-.07.47.49.4-.47.15-1.19 1.46.8.2-.25.11-.32Z" style="fill:#b3bea3"/><path d="m110.97 99.61-.58.07-.57.17-1.03-3.33-1.81-4.85-.44-1.45 1.14-.02 1.29.21.14-.55.31-.37.53 3.15.38 3.56z" style="fill:#b1bba4"/><path d="m95.16 124.71.27.66-3.54.63-2.81.35-.03.61 5.97-.62 2.94.22-4.52.78-4.76.47.02-1.44-.92-.02-.9-.32 2.78-.54 4.12-.67 1.4-.11Z" style="fill:#bbc6a0"/><path d="m146.75 144.57-.16.49.09.55-.57 1.14-1.4.61-1.01-.78-1.17-.76.56 1.55.12 1.47-.18.08-.2-.05-7.96-13.71-.57-.82.07-.97 12.39 11.2Z" style="fill:#93a08a"/><path d="m140.72 153.39-.11.64-.64.4-1.59-.51-1.08-1.67 1.93.77.47-.35-.02-.6-.43-.42-.7-.05.26-.28.42-.24-1.62-.72-1.22-1.41-.08 1.74 1.01 1.51-.64.31-.51-.02-.73-4.3-2.24-10.57-1.56-6.15.46.36 2.05 5.39 3.32 7.75z" style="fill:#8b9883"/><path d="m139.82 127.37 2.46.62 2.39.7-.28.55-.02.59-8.78-2.14-3.55-1.4-4.19-1.53 1.99 1.57 2.2 1.21 4.44 1.2 2.32 1.21-7.47-1.7-3.42-2.58-3.11-2.77 5.27 1.39 6.02 1.93 1.89.67 1.83.48Z" class="cls-110"/><path d="m149.27 134.78-.18.09.15.26 1.51.98 1.01.48-2.17 1.26-3.21-1.88-5.02-2.3-5.33-2.35-2.19-.83-2.04-1.15 3.12.89 3.01 1.22 7.87 2.32 2.7 1.02.28-.23.28-.09.18.1z" style="fill:#8f9c83"/><path d="m143.47 135.75-1.94-.17-2.42-1.25-.19.3.12.33 2.83 1.8 2.58 2.19.64.45.29.71-.7-.12-5.36-4.21-5.69-4.18 4.9 1.73z" style="fill:#98a282"/><path d="m152.59 130.01-.08.81-.35.89-.37-.24-.47-.05-.54.57-1.21-.45-1.14-.53-4.07-1.17.03-.59.27-.55 3.99.52z" style="fill:#b7c3a5"/><path d="m141.66 126.56 3.42 1.02 3.57.56 2.37.97 2.57.48-.54.41-.45.01-3.93-.79-3.99-.52-2.4-.71-2.45-.61-.01-.59.26-.49.79.22z" style="fill:#dbe0b5"/><path d="m121.1 118.62-.09.18-.22.03-4.18-5.28-.24-8.1.83-.24.24-.45v-.52l-.3-2.76.03-.45.3-.16.83 3.63 1.05 3.66.71-4.42.48-4.08.29.12.18.22.06.39.17 16.25-.83-3.9-1.37-3.65.69 5.1z" style="fill:#697a64"/><path d="m121.75 93.84 1.06 11.62-.65 11.9.02.49.09.4-.31.2-.33.42-.53-.26-1.37-4.43-.69-5.1 1.37 3.64.83 3.91-.17-16.25-.06-.39-.18-.22-.29-.12.7-5.92.35-.19.13.1z" style="fill:#b6c19b"/><path d="m124.15 112.82.23.5.36.36-1.08 3.69.79 1.55.25.61.4.53.09.33-.41 1.39.03 1.12-.71.3-.52.59-.3.04-.13.21-.68-.25-.74.03-.62-.06-.48-.51-.7-.07.03-.82-.4-.73-.04-.91.09-.91.65-.43.52-.56.23-.03.08-.18.53.26.33-.42.31-.2.75-2.26.32-3.15.4.13z" style="fill:#d79a7e"/><path d="m128.47 110.04-.37.34-.19.47-.09.65.37.38.04 2.45.26-.34.12-.28.21-.12.21.08.09.11.13-.05-1.23 1.45-1.41 1.25-.2-.56 1.18-3.57v-3.73l.26-.53-.61.19-.42 4.38-1.62 4.26-.1-1.69.93-2.09.29-6.18 1.42.28.37-2.19.71-1.95.41 2.84-.65 3.26-.24.33z" style="fill:#a2b08c"/><path d="m123.34 112.84-.32 3.15-.75 2.26-.1-.4-.01-.49.65-11.89-1.06-11.63.84 2.99.52 3.75.3-.51.33-.14.35.15.02.52-.13.52-.21.47.64.75-.16 1.29-.05 1.23-.85 7.99Z" style="fill:#73846d"/><path d="m139.75 87.75-.88.73-.05 1.23-.35.4-.21.6 1.07 1.35-1.88 4.27-.77 1.11-2.05 4.15-1.19 4.19.06.82 3.4-4.9 4.97-10.55.93-3.73-.25-1.2 4.09-3.36-.85 2.43-1.77 3.6 1.72-1.33-.08.41.08.35.2.17.25.06.04.71-.64.58-6.45 9.52-1.84 2.83-1.72 2.95-2.4 3.77-2.6 3.8.05-1.21.14-1.21-.73 1.77-.8 1.65-.13.05-.09-.11.4-1.26.24-1.47 3.24-9.34 2.51-9.32.7-3.16.56-3.23-1.1 1.86-.62 2.15-3.85 14.7-.36.85-.29.28-.47.04 1.21-8.6-.02-1.84-.17-1.93-.55 1.36-.25 1.42-.86 3.45-.53 3.43-.71 1.94-.37 2.2-1.42-.28-.22-2.74-.1-2.89-.65.97.17 1.05-.88 7.05-.36 1.27-.12 1.19-.41.14-.4-.12.85-7.99.05-1.23.16-1.29-.64-.75.21-.46.13-.53-.02-.52-.35-.15-.33.14-.3.51-.52-3.75-.88-3.2-.12-.1-.35.19-1.18 10-.71 4.42-1.05-3.66-.83-3.63-.03-.67-.39-.39-.32.54h-.35l-.58-.12-.81-4.81-1.08-3.22.18-.94-.4-1.05-.89 4.45-.08 3.16-.42.08-.35-.39-1.86-9.77.41.2.25-.27.35-.14.38.14.2-.56.07-.61.3.52.37.44.5-.41.76.21.44-2.44.6 1.14.41 1.08 1.29-1.71.49.14.48.5.67.49.81.32.86-.82.91-1.09.36.23.41.16 1.51-.71.58.05.62.41.07.4.4.24.21-.03.33-.22.65-.62.87.06.79 1.25.62-.13.41.18.19.93.58-.29.71.02.58-.33.61-.16.3.23.46-.01 1.86-.46 2.86-2.97.5-.44.5.07.27.43.09.56 1.73-.3-.06.68.18.59.3.24.54-.07.2-.24.44-.21-.6 1.85-1 1.51Z" style="fill:#b8c4a9"/><path d="m142.56 86.24.25 1.2-.96 1.44-.85 1.66-7.55 15.26 1.19-4.19 2.05-4.15.77-1.11 1.88-4.27-1.07-1.35.2-.6.36-.4.05-1.24.88-.72-.13.7-.29.73 1.45-1.27.93-1.57.52-.21.33.11Z" style="fill:#8d9d85"/><path d="m129.04 113.67-.21-.09-.21.13-.12.27-.26.35-.04-2.45.25-.88.03-.95h.46l.44-1.51.62-2.78.47-.04.29-.28.36-.85 3.85-14.7.62-2.15 1.1-1.86-.55 3.23-.71 3.16-2.51 9.32-3.24 9.34-.24 1.47-.4 1.26Z" style="fill:#e5e3b1"/><path d="M133.45 105.79 141 90.53l.85-1.66.96-1.44-.93 3.73-4.97 10.55-3.4 4.9z" style="fill:#e7e5b4"/><path d="m129.99 105.76-.62 2.77-.44 1.52h-.46l-.13-.56.24-.33.65-3.26-.41-2.84.53-3.44.86-3.44.25-1.42.55-1.36.17 1.93.02 1.84z" class="cls-24"/><path d="m126.32 106.92-.29 6.18-.54-1.03-.13-1.48-.53 1.51-.08 1.58-.36-.36-.23-.5.12-1.19.36-1.27.88-7.05-.17-1.05.65-.97.11 2.89z" style="fill:#7c8977"/><path d="m124.03 99.4-.64-.93.41-1.45.4 1.23z" style="fill:#899f83"/><path d="m126.62 116.43-1.15 1.18-1.01 1.31-.79-1.55 1.08-3.69.08-1.58.53-1.51.13 1.47.54 1.04-.94 2.09.11 1.69 1.62-4.26.42-4.38.61-.2-.26.54v3.74l-1.17 3.56.19.56Z" style="fill:#8d9575"/><path d="m141.66 126.56-.79-.05-1.93-.54-1.1-.6-4.73-1.57-4.12-1.19-1.26-.29-1.29-.57 7.18.02 7.19 1.15-1.99.25-2.08-.18.77.9 1.37.14 1.47.53 1.29.64-.1.65.31.5-.02.12-.17.07Z" style="fill:#7c8b73"/><path d="m109.46 134.49.07-.3-.01-.31.26-.13.25-.25-.01.66z" style="fill:#bec990"/><path d="m130.45 151.91-.71.31-3.24-8.61.12-.27.28-.14-.08-.52-.29-.32-2.02-8.28-1.34-8.72v-1.3l.12-.21.3-.04 6.59 5.9-.4 11.51z" style="fill:#74816d"/><path d="m127.61 132.03.96 2.2.07.97-1.26-1.29-.99-2.63.75.07.46.68Z" style="fill:#8d9c80"/><path d="m121.74 123.82-.76 9.08-.75.21-.06.74-.52-.01-.58.15-.17 1.27-.32 1.54-.9.22-.95-.57-.38-.41-.01-.36.24-.43.48.15.87-1.56-.3-1.46-.55.22-.36.32-.51-.38-.62.35-.11-1.83.1-1.77 2.9-2.64 2.64-2.89z" style="fill:#687664"/><path d="m110.09 87.73 1.86 9.77.35.39.42-.08.08-3.15.89-4.46.4 1.05-.18.94 1.08 3.22.81 4.81.58.12h.35l.32-.54.38.39.04.67-.3.16-.03.45.3 2.76v.52l-.24.45-.83.24.25 8.1 4.17 5.28-.52.56-.65.43-2.4-2.24-2.22-1.89-2.64-.85-2.56-.45-1.92-1.17-18.51-5.19-.26-.17-.11-.19-.02-.15.1-.06.52-.06 15.02 3.46 4.94 2.01 4.6 1.73-2.49-2.38-2.32-1.72 1.67.45-1.76-1.68-1.9-1.69-7.23-8.34-6.57-9.12 6.69 6.28 5.83 6.97-4.12-6.46-3.7-7.02 2.14 2.2 8.14 13.46 3.11 4.52 3.87 3.79.18-1.31-.27-1.29-.41-5.53-.68-5.5-.55 2.03.08 1.99.01 3.84.62 4.54-.92-1.47-2.61-11.55-.64-3.41-.38-3.56-.53-3.15-.06-1.56.11-1.69.49.71z" style="fill:#f2efbc"/><path d="m113.86 93.5.5 2.93-.34 2.87-.26-2.91z" style="fill:#a8b694"/><path d="m119.57 121.63.41.73-.04.82-2.97 2.47-2.88 2.84-4.49.09-12.94.92-.48.17-.42.27.24-.6.82-1.57.55.19.28-.12.43.08.31-.35.17-.51 4.07-1.34 4.42-.59 3.48-.55 3.36-.76 1.59-.72 2 .1 1.03-.07.94-.72-4.2-.07-17.1 2.04-4.39.44-1.36.23 1.92-.84 2.22-.21 3.2-.57 3.18-.81-2.26-.63-1.28-.49.33-.46 1.26.12.52-.74 1.54.27.26-1.05-.08-1.03.4-.05.13-.2 2.57.33.4.4.18-.84 1.16.77 6.47 1.56 5.07 1.03Z" style="fill:#6a7a67"/><path d="m97.65 127.83.3-1.27-2.94-.23-5.97.63.03-.61 2.81-.35 3.54-.63-.27-.66 20.09-2.37 4.2.07-.94.73-1.03.06-2-.1-1.59.72-3.36.76-3.48.55-4.42.59-4.07 1.34-.17.51-.31.35-.43-.08Z" style="fill:#96a689"/><path d="m105.64 122.41-1.01-.56-.94-.36 2.9-.92 3.15 1.38-2.07.44z" style="fill:#8b9c82"/><path d="m112.54 126.65-2.9.95-1.87.02 3.93-1.93 1.06-.61 1.05.08-.56.35-.53.15-.2.31.02.67Z" style="fill:#8c9b81"/><path d="m128.19 111.88-.37-.38.09-.65.2-.47.36-.34-.03.95-.25.88Z" class="cls-24"/></g></g></svg>